<svg xmlns="http://www.w3.org/2000/svg" fill="none" viewBox="0 0 300 300" height="100%" width="100%">
<path fill="url(#paint0_linear_131_1916)" d="M196.759 138.097C196.099 138.097 195.469 137.817 195.019 137.327C154.069 92.317 132.319 72.717 65.8087 45.267C64.7187 44.817 64.1287 43.627 64.4387 42.477C64.7487 41.337 65.8487 40.587 67.0287 40.757C152.409 52.267 208.249 132.947 208.799 133.767C209.269 134.467 209.339 135.367 208.969 136.127C208.599 136.887 207.849 137.387 207.009 137.447L196.909 138.107C196.859 138.107 196.809 138.107 196.759 138.107V138.097Z"></path>
<path fill="url(#paint1_linear_131_1916)" d="M287.909 218.037C287.609 217.047 286.689 216.367 285.649 216.367H285.629C285.479 216.367 279.629 216.317 266.569 211.437C254.839 207.047 240.839 194.577 237.509 191.187C237.639 191.147 237.789 191.117 237.959 191.077C238.349 190.997 238.709 190.827 239.019 190.567C239.909 189.817 240.419 188.757 240.469 187.517C240.659 183.007 234.299 176.497 233.569 175.777C232.599 174.797 227.109 166.287 214.859 145.547L214.529 144.987C214.469 144.897 214.429 144.797 214.379 144.707C214.049 144.077 213.559 143.117 212.129 142.167C211.949 142.047 211.749 141.947 211.539 141.887C208.009 140.747 196.809 142.467 191.929 143.297C191.219 142.417 190.149 140.957 189.729 140.377C189.339 139.847 189.049 139.457 188.959 139.347C185.409 135.197 181.519 131.127 177.389 127.257C164.469 115.127 150.829 106.397 136.829 101.297C124.849 96.927 114.319 85.557 111.799 74.237C111.599 73.327 111.399 72.357 111.399 71.497C111.399 70.407 110.649 69.457 109.579 69.207C108.519 68.957 107.419 69.477 106.939 70.457C102.799 78.877 105.439 90.437 107.269 96.347C80.8487 93.767 71.4687 74.127 71.0787 73.277C70.6487 72.327 69.6287 71.787 68.5887 71.927C67.5487 72.077 66.7387 72.907 66.5987 73.947C64.4987 89.577 71.5987 99.297 76.3287 103.907C55.5687 107.467 40.2987 90.857 40.1387 90.677C39.5187 89.987 38.5587 89.727 37.6787 90.007C36.7987 90.287 36.1587 91.057 36.0487 91.977C35.9687 92.637 34.4887 107.647 56.1087 119.357C44.6487 130.467 38.3587 144.127 37.4087 159.997C36.3087 178.367 42.8187 197.177 51.0787 210.907C50.0687 212.027 49.3487 213.387 48.9887 214.897C48.4187 217.277 48.8087 219.747 50.0887 221.837C51.3687 223.927 53.3887 225.397 55.7687 225.967C56.4887 226.137 57.2087 226.227 57.9287 226.227C59.5987 226.227 61.2387 225.767 62.6987 224.877C62.4287 225.037 62.1487 225.177 61.8787 225.307C66.8987 231.447 70.3387 237.447 72.7087 242.637C70.8987 243.917 69.6287 245.787 69.1087 247.957C68.5387 250.337 68.9287 252.807 70.2087 254.887C71.4887 256.977 73.5087 258.447 75.8887 259.017C76.6087 259.187 77.3187 259.267 78.0287 259.267C82.0987 259.267 85.8087 256.527 86.8887 252.447H151.029C151.259 253.297 151.599 254.117 152.079 254.887C153.359 256.977 155.379 258.447 157.759 259.017C158.479 259.187 159.189 259.267 159.899 259.267C164.039 259.267 167.809 256.437 168.819 252.237C169.389 249.857 168.999 247.387 167.719 245.307C166.439 243.217 164.419 241.747 162.039 241.177C160.489 240.807 158.899 240.847 157.409 241.267C149.889 229.867 137.109 215.607 121.929 203.597C122.059 203.257 122.169 202.907 122.259 202.537C122.829 200.157 122.439 197.697 121.159 195.607C119.879 193.517 117.859 192.047 115.479 191.477C113.099 190.897 110.629 191.297 108.549 192.577C108.189 192.797 107.859 193.047 107.529 193.307C91.7187 182.297 87.2687 166.167 89.9687 155.497C90.3887 153.847 90.9787 152.307 91.7087 150.887C92.2487 151.137 92.8187 151.337 93.4087 151.477C94.1287 151.647 94.8487 151.727 95.5487 151.727C99.6887 151.727 103.459 148.897 104.469 144.697C104.799 143.297 104.789 141.907 104.499 140.587C106.519 139.967 108.699 139.557 111.049 139.377C138.079 137.367 166.129 158.537 171.359 162.697C171.169 171.047 171.699 179.157 177.729 186.707C182.059 192.127 194.009 197.467 203.609 201.757C207.629 203.557 211.109 205.107 213.149 206.287C215.939 207.887 240.799 222.477 255.809 242.007C256.299 242.637 257.079 242.987 257.869 242.917C258.669 242.847 259.379 242.387 259.749 241.677C261.719 237.987 277.479 226.837 286.939 220.667C287.819 220.097 288.199 219.017 287.899 218.017L287.909 218.037ZM54.0287 208.727C54.0287 208.727 54.0587 208.717 54.0787 208.707C54.0587 208.707 54.0487 208.717 54.0287 208.727ZM87.1087 251.207C87.1187 251.107 87.1287 251.007 87.1387 250.897C87.1387 250.997 87.1287 251.097 87.1087 251.207ZM150.759 249.307C150.759 249.207 150.769 249.107 150.789 248.997C150.779 249.097 150.769 249.197 150.759 249.307ZM89.1887 149.157C89.1887 149.157 89.2387 149.207 89.2587 149.227C89.2387 149.207 89.2087 149.177 89.1887 149.157ZM90.3387 150.107C90.3387 150.107 90.4387 150.167 90.4787 150.207C90.4287 150.177 90.3787 150.147 90.3387 150.107ZM103.659 138.287C103.659 138.287 103.689 138.347 103.709 138.377C103.689 138.347 103.679 138.317 103.659 138.287ZM103.009 137.237C103.049 137.297 103.099 137.367 103.139 137.427C103.099 137.367 103.059 137.297 103.009 137.237ZM76.0687 241.137C76.0687 241.137 76.1187 241.127 76.1387 241.117C76.1187 241.117 76.0887 241.127 76.0687 241.137Z"></path>
<path fill="white" d="M196.759 138.097C196.099 138.097 195.469 137.817 195.019 137.327C154.069 92.317 132.319 72.717 65.8087 45.267C64.7187 44.817 64.1287 43.627 64.4387 42.477C64.7487 41.337 65.8487 40.587 67.0287 40.757C152.409 52.267 208.249 132.947 208.799 133.767C209.269 134.467 209.339 135.367 208.969 136.127C208.599 136.887 207.849 137.387 207.009 137.447L196.909 138.107C196.859 138.107 196.809 138.107 196.759 138.107V138.097ZM89.3487 50.337C140.029 73.527 161.549 93.597 197.739 133.327L202.439 133.017C192.119 119.337 150.289 68.227 89.3487 50.337Z"></path>
<path fill="white" d="M225.769 182.937C225.739 182.777 225.669 182.617 225.569 182.487C223.809 180.307 221.689 176.597 219.769 173.447C218.799 171.867 217.879 170.417 217.029 169.327C216.599 168.777 216.189 168.317 215.759 167.957C215.329 167.607 214.869 167.297 214.199 167.277C213.889 167.277 213.559 167.377 213.299 167.557C213.039 167.737 212.849 167.967 212.709 168.217V168.247C212.269 169.067 212.129 170.067 212.119 171.207C212.129 173.287 212.669 175.767 213.989 177.607C214.519 178.327 215.249 179.027 216.079 179.727C218.219 181.527 220.949 183.217 221.659 183.647L221.719 183.767C221.779 183.897 221.849 184.117 221.919 184.457C221.989 184.847 222.299 185.157 222.689 185.237C223.299 185.357 223.759 185.427 224.179 185.427C224.579 185.427 224.999 185.377 225.399 185.057C225.599 184.897 225.739 184.667 225.809 184.457C225.879 184.247 225.899 184.057 225.899 183.897C225.899 183.497 225.819 183.227 225.769 182.947V182.937Z"></path>
<path fill="white" d="M80.1587 241.177C77.7687 240.607 75.3087 240.997 73.2287 242.277C71.1387 243.557 69.6787 245.577 69.0987 247.957C68.5287 250.337 68.9187 252.807 70.1987 254.887C71.4787 256.977 73.4987 258.447 75.8787 259.017C76.5987 259.187 77.3087 259.267 78.0187 259.267C82.1587 259.267 85.9287 256.437 86.9387 252.237C87.5087 249.857 87.1187 247.387 85.8387 245.307C84.5587 243.217 82.5387 241.747 80.1587 241.177Z"></path>
<path fill="white" d="M121.159 195.607C119.879 193.517 117.859 192.047 115.479 191.477C113.099 190.897 110.629 191.297 108.549 192.577C106.459 193.857 104.999 195.877 104.419 198.257C103.849 200.637 104.239 203.097 105.519 205.187C106.799 207.277 108.819 208.747 111.199 209.317C111.919 209.487 112.639 209.577 113.359 209.577C115.029 209.577 116.679 209.117 118.139 208.227C120.229 206.947 121.689 204.927 122.269 202.547C122.839 200.167 122.449 197.707 121.169 195.617L121.159 195.607Z"></path>
<path fill="white" d="M159.899 259.267C159.189 259.267 158.479 259.187 157.759 259.017C155.379 258.447 153.359 256.977 152.079 254.887C150.799 252.797 150.409 250.337 150.979 247.957C151.549 245.577 153.019 243.557 155.109 242.277C157.199 240.997 159.659 240.607 162.039 241.177C164.419 241.747 166.439 243.217 167.719 245.307C168.999 247.397 169.389 249.857 168.819 252.237C167.809 256.437 164.039 259.267 159.899 259.267ZM158.859 254.437C161.259 255.017 163.679 253.527 164.249 251.137C164.529 249.977 164.339 248.777 163.719 247.757C163.099 246.737 162.109 246.027 160.949 245.747C159.779 245.467 158.589 245.657 157.569 246.277C156.549 246.897 155.839 247.887 155.559 249.047C155.279 250.207 155.469 251.407 156.089 252.427C156.709 253.447 157.699 254.157 158.849 254.437H158.859Z"></path>
<path fill="white" d="M57.9287 226.217C57.2087 226.217 56.4887 226.127 55.7687 225.957C53.3887 225.387 51.3687 223.917 50.0887 221.827C48.8087 219.737 48.4187 217.277 48.9887 214.887C49.5587 212.507 51.0287 210.487 53.1187 209.207C55.2087 207.927 57.6687 207.537 60.0587 208.107C62.4387 208.677 64.4587 210.147 65.7387 212.237C67.0187 214.327 67.4087 216.787 66.8387 219.167C66.2687 221.547 64.7987 223.567 62.7087 224.847C61.2487 225.747 59.6087 226.197 57.9387 226.197L57.9287 226.217ZM57.8987 212.567C57.0887 212.567 56.2887 212.787 55.5687 213.227C54.5487 213.847 53.8387 214.837 53.5587 215.997C53.2787 217.157 53.4687 218.357 54.0887 219.377C54.7087 220.397 55.6987 221.107 56.8587 221.387C58.0187 221.667 59.2187 221.477 60.2387 220.857C61.2587 220.237 61.9687 219.247 62.2487 218.087C62.5287 216.927 62.3387 215.727 61.7187 214.707C61.0987 213.687 60.1087 212.977 58.9487 212.697C58.5987 212.617 58.2487 212.567 57.8987 212.567Z"></path>
<path fill="white" d="M95.5587 151.747C94.8487 151.747 94.1387 151.667 93.4187 151.497C88.4987 150.317 85.4587 145.357 86.6387 140.437C87.2087 138.057 88.6787 136.037 90.7687 134.757C92.8587 133.477 95.3187 133.087 97.7087 133.657C102.629 134.837 105.669 139.797 104.489 144.717C103.479 148.917 99.7087 151.747 95.5687 151.747H95.5587ZM94.5187 146.917C96.9187 147.487 99.3287 146.007 99.9087 143.617C100.479 141.227 98.9987 138.807 96.6087 138.227C95.4487 137.947 94.2487 138.137 93.2287 138.757C92.2087 139.377 91.4987 140.367 91.2187 141.527C90.6387 143.927 92.1287 146.337 94.5187 146.917Z"></path>
<path fill="white" d="M153.379 243.677C153.899 243.157 154.459 242.667 155.099 242.267C155.829 241.817 156.599 241.487 157.399 241.257C149.879 229.847 137.079 215.577 121.889 203.567C121.329 205.077 120.409 206.387 119.179 207.407C133.829 219.017 146.149 232.727 153.359 243.667L153.379 243.677Z"></path>
<path fill="white" d="M86.8587 252.447H151.029C150.639 250.997 150.619 249.457 150.979 247.947C150.999 247.877 151.029 247.807 151.049 247.737H105.119C99.0287 240.747 70.5587 206.237 74.2687 176.007C75.3787 166.967 79.3187 159.057 85.9887 152.377C85.7787 153.017 85.5787 153.677 85.4087 154.357C81.6587 169.197 89.5987 186.497 104.799 197.157C105.369 195.657 106.309 194.347 107.549 193.337C91.7187 182.327 87.2687 166.187 89.9687 155.517C90.3887 153.867 90.9787 152.327 91.7087 150.907C89.8387 150.047 88.3687 148.587 87.4387 146.837C78.0287 154.647 72.5387 164.297 71.1487 175.647C68.8887 194.057 77.9587 213.637 85.9587 226.827C91.6087 236.137 97.5387 243.647 100.979 247.757H86.8687C87.2587 249.207 87.2787 250.747 86.9187 252.247C86.8987 252.317 86.8687 252.387 86.8487 252.457L86.8587 252.447Z"></path>
<path fill="white" d="M62.6987 224.867C62.4287 225.027 62.1487 225.167 61.8787 225.297C66.9087 231.447 70.3587 237.457 72.7187 242.657C72.8887 242.537 73.0387 242.387 73.2287 242.277C74.4287 241.537 75.7587 241.107 77.1187 240.977C74.5987 235.377 70.8987 228.877 65.4587 222.237C64.7387 223.287 63.8187 224.187 62.7087 224.867H62.6987Z"></path>
<path fill="white" d="M287.909 218.037C287.609 217.047 286.689 216.367 285.649 216.367H285.629C285.479 216.367 279.629 216.317 266.569 211.437C254.839 207.047 240.839 194.577 237.509 191.187C237.639 191.147 237.789 191.117 237.959 191.077C238.349 190.997 238.709 190.827 239.019 190.567C239.909 189.817 240.419 188.757 240.469 187.517C240.659 183.007 234.299 176.497 233.569 175.777C232.599 174.797 227.109 166.287 214.859 145.547L214.529 144.987C214.469 144.897 214.429 144.797 214.379 144.707C214.049 144.077 213.559 143.117 212.129 142.167C211.949 142.047 211.749 141.947 211.539 141.887C208.009 140.757 196.809 142.467 191.929 143.297C191.219 142.417 190.149 140.957 189.729 140.377C189.339 139.847 189.049 139.457 188.959 139.347C185.409 135.197 181.519 131.127 177.389 127.257C164.469 115.127 150.829 106.397 136.829 101.297C124.849 96.927 114.319 85.557 111.799 74.237C111.599 73.327 111.399 72.357 111.399 71.497C111.399 70.407 110.649 69.457 109.579 69.207C108.519 68.957 107.419 69.477 106.939 70.457C102.799 78.877 105.439 90.437 107.269 96.347C80.8487 93.767 71.4687 74.127 71.0787 73.277C70.6487 72.327 69.6287 71.787 68.5887 71.927C67.5487 72.077 66.7387 72.907 66.5987 73.937C64.4987 89.567 71.5987 99.287 76.3287 103.897C55.5687 107.457 40.2987 90.847 40.1387 90.667C39.5187 89.977 38.5587 89.717 37.6787 89.997C36.7987 90.277 36.1587 91.047 36.0487 91.967C35.9687 92.627 34.4887 107.637 56.1087 119.347C44.6487 130.467 38.3587 144.127 37.4087 159.997C36.3087 178.387 42.8287 197.217 51.0987 210.947C51.6887 210.297 52.3387 209.687 53.1087 209.217C53.7087 208.847 54.3487 208.557 54.9987 208.347C47.1987 195.367 41.0687 177.617 42.0987 160.287C43.0387 144.577 49.6487 131.217 61.7387 120.547C62.3287 120.027 62.6187 119.237 62.5087 118.457C62.3987 117.677 61.9087 116.997 61.1987 116.657C48.4487 110.547 43.5987 103.417 41.7787 98.497C49.1687 104.347 63.9187 112.917 82.1587 107.327C83.0387 107.057 83.6787 106.297 83.7987 105.387C83.9187 104.477 83.4987 103.577 82.7087 103.087C82.5887 103.007 72.1687 96.327 71.0187 81.927C76.5887 89.117 88.1187 99.697 108.339 101.157C108.419 101.157 108.509 101.157 108.579 101.157C109.199 101.137 109.819 101.137 110.429 101.137C110.479 101.137 110.539 101.147 110.569 101.137C111.349 101.137 112.069 100.757 112.509 100.117C112.949 99.477 113.039 98.667 112.769 97.937C111.299 94.127 109.579 87.847 109.449 81.897C114.189 92.247 124.149 101.687 135.199 105.707C148.599 110.587 161.699 118.997 174.149 130.677C178.149 134.427 181.919 138.377 185.339 142.367C185.429 142.477 185.639 142.767 185.909 143.137C188.959 147.317 189.779 148.437 191.559 148.117C198.819 146.827 207.369 145.837 209.769 146.277C209.949 146.437 210.019 146.567 210.169 146.857C210.269 147.037 210.359 147.227 210.469 147.407L210.779 147.937C222.009 166.957 228.549 177.437 230.219 179.107C233.049 181.937 235.269 185.297 235.679 186.817C234.239 187.307 233.269 188.047 232.729 189.077C232.339 189.827 232.019 191.057 232.719 192.687C233.549 194.617 250.749 210.537 264.909 215.837C271.129 218.167 275.849 219.457 279.199 220.177C272.639 224.617 262.339 231.897 257.669 236.817C242.009 217.757 218.249 203.807 215.489 202.227C213.239 200.937 209.659 199.337 205.519 197.487C196.869 193.617 185.019 188.317 181.399 183.787C176.069 177.127 175.839 169.837 176.089 161.697C176.109 160.977 175.809 160.297 175.259 159.827C174.929 159.547 167.009 152.877 155.109 146.397C144.039 140.377 127.369 133.467 110.699 134.697C107.679 134.927 104.879 135.497 102.299 136.357C103.389 137.547 104.149 139.007 104.499 140.597C106.519 139.977 108.699 139.567 111.049 139.387C138.079 137.377 166.129 158.547 171.359 162.707C171.169 171.057 171.699 179.167 177.729 186.717C182.059 192.137 194.009 197.477 203.609 201.767C207.629 203.567 211.109 205.117 213.149 206.297C215.939 207.897 240.799 222.487 255.809 242.017C256.299 242.647 257.079 242.997 257.869 242.927C258.669 242.857 259.379 242.397 259.749 241.687C261.719 237.997 277.479 226.847 286.939 220.677C287.819 220.107 288.199 219.027 287.899 218.027L287.909 218.037Z"></path>
<defs>
<linearGradient gradientUnits="userSpaceOnUse" y2="481.271" x2="161.996" y1="31.9444" x1="161.996" id="paint0_linear_131_1916">
<stop stop-color="#FF5500"></stop>
<stop stop-opacity="0" stop-color="#FF5500" offset="1"></stop>
</linearGradient>
<linearGradient gradientUnits="userSpaceOnUse" y2="233.703" x2="162.009" y1="3.57427" x1="162.009" id="paint1_linear_131_1916">
<stop stop-color="#FF5500"></stop>
<stop stop-opacity="0" stop-color="#FF5500" offset="1"></stop>
</linearGradient>
</defs>
</svg>
