<svg xmlns="http://www.w3.org/2000/svg" fill="none" viewBox="0 0 300 300" height="100%" width="100%">
<path fill="url(#paint0_linear_1361_13302)" d="M262.72 97.6299L260.58 56.4299C260.53 55.5399 260.03 54.7399 259.25 54.3099C258.47 53.8799 257.52 53.8899 256.75 54.3299L201.29 85.7199C200.57 84.8699 199.7 84.1198 198.68 83.5299C193.89 80.7699 187.75 82.4099 184.99 87.1999C184.15 88.6599 183.72 90.2499 183.66 91.8399L166.9 93.9799H141.65L116.06 90.7099L60.4999 59.2599C60.7599 57.1699 60.3799 54.9799 59.2499 53.0099C56.4899 48.2199 50.3399 46.5799 45.5599 49.3399C40.7699 52.0999 39.1199 58.2499 41.8899 63.0299C43.1599 65.2299 45.1499 66.7399 47.3799 67.4899L46.2299 89.6299C43.4299 90.1399 40.8699 91.8199 39.3399 94.4699C36.5799 99.2599 38.2199 105.4 43.0099 108.16C44.5799 109.07 46.3099 109.5 47.9999 109.5C49.0599 109.5 50.1099 109.31 51.1099 108.99C51.0399 109.01 50.9699 109.04 50.8899 109.07L70.3899 150.24L60.7299 192.2C60.6699 192.47 60.6599 192.74 60.6899 193.01C60.6399 193.14 60.5899 193.27 60.5499 193.42L58.6899 201.57C58.4499 202.61 58.8799 203.69 59.7699 204.28L108.65 236.86L132.15 283.99C132.59 284.86 133.48 285.41 134.45 285.41H153.46C153.74 285.41 154.01 285.35 154.26 285.27C154.51 285.35 154.78 285.41 155.06 285.41H174.07C175.04 285.41 175.94 284.86 176.37 283.99L199.87 236.86L248.75 204.28C249.64 203.69 250.07 202.61 249.83 201.57L247.97 193.42C247.94 193.28 247.89 193.14 247.83 193.01C247.85 192.75 247.85 192.48 247.79 192.21L240.1 158.8C241.72 157.95 243.13 156.66 244.1 154.97C245.44 152.65 245.8 149.95 245.1 147.36C244.56 145.36 243.44 143.61 241.89 142.3L262.47 98.8599C262.65 98.4699 262.74 98.0499 262.71 97.6199L262.72 97.6299ZM53.0299 108.17C53.0299 108.17 52.9999 108.18 52.9899 108.19C53.0499 108.15 53.1099 108.11 53.1699 108.07C53.1199 108.1 53.0799 108.14 53.0299 108.17Z"></path>
<path fill="white" d="M193.65 102.23C191.95 102.23 190.23 101.8 188.66 100.89C183.87 98.13 182.23 91.9799 184.99 87.1999C187.75 82.4099 193.89 80.7699 198.68 83.5299C203.47 86.2898 205.11 92.44 202.35 97.22C200.5 100.43 197.12 102.23 193.65 102.23ZM193.68 87.33C191.99 87.33 190.35 88.21 189.44 89.77C188.09 92.1 188.9 95.09 191.23 96.44C193.56 97.78 196.55 96.98 197.9 94.65C199.24 92.32 198.44 89.33 196.11 87.98C195.34 87.54 194.5 87.33 193.68 87.33Z"></path>
<path fill="white" d="M48 109.52C46.3 109.52 44.58 109.09 43.01 108.18C38.22 105.41 36.58 99.27 39.34 94.48C42.1 89.69 48.24 88.05 53.03 90.81C57.82 93.57 59.46 99.72 56.7 104.5C54.85 107.71 51.47 109.51 48 109.51V109.52ZM48.03 94.62C46.34 94.62 44.7 95.5 43.79 97.06C42.44 99.39 43.25 102.38 45.58 103.73C47.91 105.07 50.9 104.27 52.25 101.94C53.59 99.61 52.79 96.62 50.46 95.27C49.69 94.83 48.85 94.62 48.03 94.62Z"></path>
<path fill="white" d="M235.41 159.98C233.71 159.98 231.99 159.55 230.42 158.64C228.1 157.3 226.44 155.14 225.75 152.55C225.06 149.96 225.41 147.26 226.75 144.94C229.51 140.15 235.65 138.51 240.44 141.27C242.76 142.61 244.42 144.77 245.11 147.36C245.8 149.95 245.45 152.65 244.11 154.97C242.26 158.18 238.88 159.98 235.41 159.98ZM235.44 145.08C233.75 145.08 232.11 145.96 231.2 147.52C230.55 148.65 230.37 149.96 230.71 151.22C231.05 152.48 231.85 153.53 232.98 154.18C235.31 155.52 238.3 154.73 239.65 152.39C240.3 151.26 240.48 149.94 240.14 148.68C239.8 147.42 239 146.37 237.87 145.72C237.1 145.28 236.26 145.07 235.44 145.07V145.08Z"></path>
<path fill="white" d="M183.66 91.83L166.9 93.97H141.65L116.06 90.7L60.4999 59.2599C60.2799 60.9899 59.63 62.66 58.56 64.07L113.95 95.43C114.24 95.59 114.56 95.7 114.89 95.74L141.14 99.1C141.25 99.11 141.36 99.12 141.47 99.12H167.05C167.16 99.12 167.27 99.12 167.38 99.1L184.8 96.87C183.99 95.32 183.59 93.59 183.65 91.83H183.66Z"></path>
<path fill="white" d="M59.2499 53.0099C56.4899 48.2199 50.3399 46.5799 45.5599 49.3399C40.7699 52.0999 39.1199 58.2499 41.8899 63.0299C43.7399 66.2399 47.12 68.04 50.59 68.04C52.29 68.04 54.01 67.61 55.58 66.7C60.37 63.94 62.0099 57.7899 59.2499 53.0099Z"></path>
<path fill="white" d="M51.36 90.05L52.51 67.83C51.87 67.96 51.23 68.04 50.59 68.04C49.49 68.04 48.4099 67.8399 47.3799 67.4899L46.23 89.64C47.96 89.33 49.73 89.48 51.36 90.05Z"></path>
<path fill="white" d="M223.2 108.72C218.41 105.96 212.27 107.6 209.51 112.39C206.75 117.18 208.39 123.32 213.18 126.08C214.75 126.99 216.48 127.42 218.17 127.42C221.64 127.42 225.01 125.62 226.87 122.41C229.63 117.62 227.99 111.48 223.2 108.72Z"></path>
<path fill="white" d="M231.28 140.85L222.83 126.27C221.78 126.82 220.66 127.19 219.49 127.34L228.44 142.79C229.28 141.97 230.24 141.32 231.28 140.85Z"></path>
<path fill="white" d="M260.58 56.4299C260.53 55.5399 260.03 54.7399 259.25 54.3099C258.47 53.8799 257.52 53.8899 256.75 54.3299L201.29 85.7199C202.43 87.0599 203.19 88.67 203.51 90.37L253.9 61.85L221.55 107.97C222.12 108.17 222.67 108.42 223.21 108.73C223.69 109.01 224.13 109.33 224.55 109.67L255.89 65L257.56 97.26L237.26 140.12C238.35 140.32 239.43 140.7 240.45 141.28C240.97 141.58 241.45 141.94 241.9 142.32L262.48 98.87C262.66 98.48 262.75 98.0599 262.72 97.6299L260.58 56.4299Z"></path>
<path fill="white" d="M249.84 201.58L247.98 193.43C247.95 193.29 247.9 193.15 247.84 193.02C247.86 192.76 247.86 192.49 247.8 192.22L240.11 158.81C238.66 159.57 237.05 159.98 235.42 159.98C235.31 159.98 235.21 159.96 235.1 159.96L242.79 193.37C242.82 193.51 242.87 193.64 242.93 193.77C242.91 194.03 242.91 194.3 242.97 194.57L244.44 200.99L196.47 232.97C196.1 233.22 195.8 233.56 195.59 233.96L172.49 280.28H155.07C154.79 280.28 154.52 280.34 154.27 280.42C154.02 280.34 153.75 280.28 153.47 280.28H136.05L112.95 233.96C112.75 233.56 112.45 233.22 112.07 232.97L64.1 200.99L65.57 194.57C65.64 194.28 65.64 193.98 65.61 193.7C65.65 193.59 65.72 193.49 65.75 193.37L75.62 150.54C75.62 150.54 75.62 150.49 75.62 150.46L93.68 119.28C94.01 118.7 93.98 117.98 93.6 117.44L57.2 65.54C56.71 65.97 56.17 66.36 55.58 66.7C55.15 66.95 54.71 67.15 54.27 67.33L90.17 118.51L74.15 146.16L55.29 106.34C54.63 107.04 53.89 107.68 53.04 108.18C52.35 108.58 51.64 108.87 50.91 109.09L70.41 150.26L60.75 192.22C60.69 192.49 60.68 192.76 60.71 193.03C60.66 193.16 60.61 193.29 60.57 193.44L58.71 201.59C58.47 202.63 58.9 203.71 59.79 204.3L108.67 236.88L132.17 284.01C132.61 284.88 133.5 285.43 134.47 285.43H153.48C153.76 285.43 154.03 285.37 154.28 285.29C154.53 285.37 154.8 285.43 155.08 285.43H174.09C175.06 285.43 175.96 284.88 176.39 284.01L199.89 236.88L248.77 204.3C249.66 203.71 250.09 202.63 249.85 201.59L249.84 201.58Z"></path>
<path fill="white" d="M106.54 200.29C106.95 201.07 107.73 201.58 108.6 201.66L131.32 203.58L128.5 230.62L108.21 212.77C108.01 212.59 107.77 212.47 107.51 212.4L64.44 201.23L73.13 207.03L106.25 215.62L136.65 242.37V256.39C136.65 257.18 137.02 257.93 137.64 258.42L152.29 269.81C152.76 270.17 153.31 270.35 153.87 270.35C154 270.35 154.13 270.33 154.25 270.31C154.38 270.33 154.5 270.35 154.63 270.35C155.18 270.35 155.74 270.17 156.21 269.81L170.86 258.42C171.49 257.93 171.85 257.18 171.85 256.39V242.37L202.25 215.62L235.37 207.03L244.06 201.23L200.99 212.4C200.73 212.47 200.49 212.59 200.29 212.77L180 230.62L177.19 203.58L199.91 201.66C200.79 201.58 201.56 201.07 201.97 200.29L211.59 181.98C212.03 181.15 211.97 180.15 211.46 179.37C210.94 178.59 210.07 178.15 209.11 178.23L186.68 180.06C186.07 180.11 185.5 180.37 185.07 180.8L173.78 192.09C173.57 192.3 173.42 192.54 173.29 192.8C172.94 193.15 172.72 193.64 172.78 194.17L176.86 233.39L169.58 239.8C169.48 239.79 169.39 239.77 169.29 239.77H154.84C154.64 239.77 154.44 239.8 154.26 239.84C154.07 239.8 153.88 239.77 153.68 239.77H139.23C139.13 239.77 139.03 239.79 138.94 239.8L131.66 233.4L135.76 194.09C135.82 193.51 135.56 192.99 135.15 192.63C135.04 192.44 134.91 192.25 134.75 192.09L123.46 180.8C123.03 180.37 122.46 180.11 121.85 180.06L99.42 178.23C98.46 178.16 97.58 178.59 97.07 179.37C96.55 180.15 96.5 181.15 96.94 181.98L106.55 200.29H106.54ZM188.05 185.1L204.89 183.72L198.1 196.65L178.56 198.3L178.27 194.88L188.05 185.1ZM141.81 244.91H153.69C153.89 244.91 154.09 244.88 154.27 244.84C154.46 244.88 154.65 244.91 154.85 244.91H166.73V255.12L154.27 264.81L141.81 255.12V244.91ZM120.49 185.1L130.27 194.88L129.98 198.3L110.44 196.65L103.65 183.72L120.48 185.1H120.49Z"></path>
<defs>
<linearGradient gradientUnits="userSpaceOnUse" y2="272.029" x2="150.363" y1="77.6224" x1="150.363" id="paint0_linear_1361_13302">
<stop stop-color="#00B775"></stop>
<stop stop-opacity="0" stop-color="#00B775" offset="1"></stop>
</linearGradient>
</defs>
</svg>
