<svg xmlns="http://www.w3.org/2000/svg" fill="none" viewBox="0 0 300 300" height="300" width="300">
<path fill="url(#paint0_linear_855_6726)" d="M225.914 116.6C225.914 112.04 222.804 108.2 218.594 107.06V80.12C218.594 59.88 204.464 42.88 185.554 38.45C184.864 33.68 180.754 30 175.794 30C170.834 30 166.724 33.68 166.024 38.46C147.114 42.89 132.984 59.89 132.984 80.13V85.92C128.774 87.06 125.664 90.89 125.664 95.45C125.664 100.9 130.104 105.34 135.554 105.34C135.554 105.34 135.574 105.34 135.584 105.34C135.684 112.25 135.854 124.61 135.944 130.8C135.814 130.78 135.684 130.76 135.554 130.76C134.134 130.76 132.984 131.91 132.984 133.33V150.82L116.104 167.69C114.654 166.86 112.984 166.37 111.194 166.37C105.744 166.37 101.304 170.81 101.304 176.26C101.304 178.05 101.784 179.72 102.624 181.17L86.504 197.29C73.174 210.62 70.504 230.64 78.484 246.67C76.624 248.47 75.464 250.98 75.464 253.76C75.464 259.21 79.904 263.65 85.354 263.65C87.494 263.65 89.464 262.96 91.084 261.8C98.454 267.35 107.384 270.36 116.774 270.36C128.204 270.36 138.954 265.91 147.044 257.82L155.474 249.39C156.954 250.28 158.684 250.8 160.534 250.8C165.984 250.8 170.424 246.36 170.424 240.91C170.424 239.06 169.904 237.33 169.014 235.85L197.424 207.44C205.514 199.36 209.964 188.61 209.964 177.17C209.964 177.13 209.964 177.09 209.964 177.05C215.604 169.58 218.604 160.73 218.604 151.35V126.12C222.814 124.98 225.924 121.15 225.924 116.58L225.914 116.6ZM185.684 39.89C185.684 40.16 185.664 40.44 185.644 40.7C185.664 40.43 185.684 40.16 185.684 39.89ZM165.954 39.1C165.934 39.36 165.914 39.62 165.914 39.89C165.914 40.16 165.934 40.41 165.954 40.67C165.934 40.41 165.914 40.15 165.914 39.89C165.914 39.63 165.934 39.36 165.954 39.1ZM134.314 85.66C134.264 85.66 134.214 85.68 134.154 85.68C134.204 85.68 134.254 85.66 134.314 85.66ZM117.224 168.44C117.224 168.44 117.184 168.41 117.164 168.4C117.184 168.41 117.204 168.43 117.224 168.44ZM103.384 182.28C103.384 182.28 103.354 182.24 103.344 182.22C103.354 182.24 103.374 182.26 103.384 182.28ZM92.094 261C92.094 261 92.114 260.98 92.134 260.97C92.124 260.98 92.114 260.99 92.094 261Z"></path>
<path fill="url(#paint1_linear_855_6726)" d="M225.914 116.6C225.914 112.04 222.804 108.2 218.594 107.06V80.12C218.594 59.88 204.464 42.88 185.554 38.45C184.864 33.68 180.754 30 175.794 30C170.834 30 166.724 33.68 166.024 38.46C147.114 42.89 132.984 59.89 132.984 80.13V85.92C128.774 87.06 125.664 90.89 125.664 95.45C125.664 100.9 130.104 105.34 135.554 105.34C135.554 105.34 135.574 105.34 135.584 105.34C135.684 112.25 135.854 124.61 135.944 130.8C135.814 130.78 135.684 130.76 135.554 130.76C134.134 130.76 132.984 131.91 132.984 133.33V150.82L116.104 167.69C114.654 166.86 112.984 166.37 111.194 166.37C105.744 166.37 101.304 170.81 101.304 176.26C101.304 178.05 101.784 179.72 102.624 181.17L86.504 197.29C73.174 210.62 70.504 230.64 78.484 246.67C76.624 248.47 75.464 250.98 75.464 253.76C75.464 259.21 79.904 263.65 85.354 263.65C87.494 263.65 89.464 262.96 91.084 261.8C98.454 267.35 107.384 270.36 116.774 270.36C128.204 270.36 138.954 265.91 147.044 257.82L155.474 249.39C156.954 250.28 158.684 250.8 160.534 250.8C165.984 250.8 170.424 246.36 170.424 240.91C170.424 239.06 169.904 237.33 169.014 235.85L197.424 207.44C205.514 199.36 209.964 188.61 209.964 177.17C209.964 177.13 209.964 177.09 209.964 177.05C215.604 169.58 218.604 160.73 218.604 151.35V126.12C222.814 124.98 225.924 121.15 225.924 116.58L225.914 116.6ZM185.684 39.89C185.684 40.16 185.664 40.44 185.644 40.7C185.664 40.43 185.684 40.16 185.684 39.89ZM165.954 39.1C165.934 39.36 165.914 39.62 165.914 39.89C165.914 40.16 165.934 40.41 165.954 40.67C165.934 40.41 165.914 40.15 165.914 39.89C165.914 39.63 165.934 39.36 165.954 39.1ZM134.314 85.66C134.264 85.66 134.214 85.68 134.154 85.68C134.204 85.68 134.254 85.66 134.314 85.66ZM117.224 168.44C117.224 168.44 117.184 168.41 117.164 168.4C117.184 168.41 117.204 168.43 117.224 168.44ZM103.384 182.28C103.384 182.28 103.354 182.24 103.344 182.22C103.354 182.24 103.374 182.26 103.384 182.28ZM92.094 261C92.094 261 92.114 260.98 92.134 260.97C92.124 260.98 92.114 260.99 92.094 261Z"></path>
<path fill="white" d="M112.274 124.32L114.394 135.73L137.814 128.76L112.274 124.32Z"></path>
<path fill="white" d="M136.794 107.46L127.964 112.22L148.564 125.74L136.794 107.46Z"></path>
<path fill="white" d="M174.754 117.71L168.894 110.63L153.724 122.52"></path>
<path fill="white" d="M135.554 105.34C130.104 105.34 125.664 100.9 125.664 95.45C125.664 90 130.104 85.56 135.554 85.56C141.004 85.56 145.444 89.99 145.444 95.45C145.444 100.91 141.004 105.34 135.554 105.34ZM135.554 90.71C132.934 90.71 130.804 92.84 130.804 95.45C130.804 98.06 132.934 100.19 135.554 100.19C138.174 100.19 140.294 98.06 140.294 95.45C140.294 92.84 138.164 90.71 135.554 90.71Z"></path>
<path fill="white" d="M111.204 186.14C105.754 186.14 101.314 181.7 101.314 176.25C101.314 170.8 105.754 166.36 111.204 166.36C116.654 166.36 121.094 170.8 121.094 176.25C121.094 181.7 116.654 186.14 111.204 186.14ZM111.204 171.51C108.584 171.51 106.464 173.64 106.464 176.25C106.464 178.86 108.594 181 111.204 181C113.814 181 115.944 178.87 115.944 176.25C115.944 173.63 113.814 171.51 111.204 171.51Z"></path>
<path fill="white" d="M216.034 126.48C210.584 126.48 206.144 122.04 206.144 116.59C206.144 111.14 210.584 106.7 216.034 106.7C221.484 106.7 225.924 111.14 225.924 116.59C225.924 122.04 221.484 126.48 216.034 126.48ZM216.034 111.85C213.414 111.85 211.284 113.98 211.284 116.59C211.284 119.2 213.414 121.34 216.034 121.34C218.654 121.34 220.774 119.21 220.774 116.59C220.774 113.97 218.644 111.85 216.034 111.85Z"></path>
<path fill="white" d="M160.534 250.81C155.084 250.81 150.644 246.37 150.644 240.92C150.644 235.47 155.084 231.03 160.534 231.03C165.984 231.03 170.424 235.47 170.424 240.92C170.424 246.37 165.984 250.81 160.534 250.81ZM160.534 236.18C157.914 236.18 155.784 238.31 155.784 240.93C155.784 243.55 157.914 245.67 160.534 245.67C163.154 245.67 165.274 243.54 165.274 240.93C165.274 238.32 163.144 236.18 160.534 236.18Z"></path>
<path fill="white" d="M175.794 49.77C170.344 49.77 165.904 45.33 165.904 39.88C165.904 34.43 170.344 30 175.794 30C181.244 30 185.684 34.43 185.684 39.89C185.684 45.35 181.244 49.78 175.794 49.78V49.77ZM175.794 35.14C173.174 35.14 171.044 37.27 171.044 39.88C171.044 42.49 173.174 44.63 175.794 44.63C178.414 44.63 180.534 42.5 180.534 39.88C180.534 37.26 178.404 35.14 175.794 35.14Z"></path>
<path fill="white" d="M168.914 46.97L141.394 87.49C142.344 88.19 143.164 89.04 143.814 90.03L171.744 48.9C170.684 48.42 169.734 47.77 168.914 46.97Z"></path>
<path fill="white" d="M85.364 263.65C79.914 263.65 75.474 259.21 75.474 253.76C75.474 248.31 79.914 243.87 85.364 243.87C90.814 243.87 95.254 248.31 95.254 253.76C95.254 259.21 90.814 263.65 85.364 263.65ZM85.364 249.02C82.744 249.02 80.624 251.15 80.624 253.77C80.624 256.39 82.754 258.52 85.364 258.52C87.974 258.52 90.104 256.39 90.104 253.77C90.104 251.15 87.974 249.02 85.364 249.02Z"></path>
<path fill="white" d="M94.844 250.99L151.984 245.86C151.394 244.85 150.984 243.72 150.794 242.52L93.154 247.7C93.914 248.67 94.494 249.78 94.844 250.99Z"></path>
<path fill="white" d="M90.874 245.56L109.414 185.97C108.254 185.76 107.174 185.34 106.194 184.76L87.714 244.16C88.854 244.44 89.924 244.91 90.874 245.55V245.56Z"></path>
<path fill="white" d="M138.134 80.13C138.134 62.52 150.284 47.7 166.644 43.6C166.184 42.45 165.914 41.21 165.914 39.9C165.914 39.41 165.964 38.94 166.034 38.47C147.124 42.9 132.994 59.9 132.994 80.14V85.93C133.814 85.71 134.674 85.58 135.564 85.58C136.454 85.58 137.314 85.71 138.134 85.93V80.13Z"></path>
<path fill="white" d="M185.564 38.45C185.634 38.92 185.684 39.39 185.684 39.88C185.684 41.19 185.424 42.44 184.954 43.58C201.314 47.68 213.454 62.5 213.454 80.11V107.05C214.274 106.83 215.134 106.7 216.024 106.7C216.914 106.7 217.774 106.83 218.594 107.05V80.11C218.594 59.87 204.464 42.87 185.554 38.44L185.564 38.45Z"></path>
<path fill="white" d="M143.414 254.19C136.304 261.3 126.844 265.22 116.784 265.22C108.594 265.22 100.834 262.59 94.384 257.79C93.664 259.4 92.524 260.78 91.094 261.8C98.464 267.35 107.394 270.36 116.784 270.36C128.214 270.36 138.964 265.91 147.054 257.82L155.484 249.39C153.994 248.5 152.754 247.22 151.904 245.7L143.414 254.19Z"></path>
<path fill="white" d="M106.264 184.81C104.754 183.94 103.504 182.68 102.634 181.17L86.514 197.29C73.174 210.62 70.504 230.64 78.484 246.67C79.724 245.47 81.274 244.59 83.014 244.17C76.114 230.1 78.464 212.61 90.144 200.92L106.254 184.81H106.264Z"></path>
<path fill="white" d="M213.464 126.13V151.36C213.464 157.55 211.984 163.49 209.154 168.85C207.534 160.58 203.494 152.97 197.434 146.9C196.064 145.53 194.574 144.24 193.004 143.04V80.12C193.004 70.64 185.294 62.92 175.804 62.92C166.314 62.92 158.604 70.64 158.604 80.12V101.3C158.604 102.72 159.754 103.87 161.174 103.87C162.594 103.87 163.744 102.72 163.744 101.3V80.12C163.744 73.47 169.154 68.06 175.804 68.06C182.454 68.06 187.864 73.47 187.864 80.12V139.73C181.564 136.23 174.504 134.37 167.174 134.37C166.034 134.37 164.894 134.42 163.754 134.51V132.29C163.754 130.87 162.604 129.72 161.184 129.72C159.764 129.72 158.614 130.87 158.614 132.29V151.36C158.614 156.46 160.874 161.27 164.804 164.56C167.834 167.09 171.664 168.51 175.604 168.56C175.634 168.59 175.674 168.63 175.704 168.66C177.984 170.94 179.234 173.96 179.234 177.18C179.234 180.4 177.984 183.43 175.704 185.7L172.524 188.88C162.894 188.05 154.084 183.6 147.604 176.28C141.624 169.52 138.264 160.83 138.154 151.83C138.154 151.83 138.154 151.83 138.154 151.82V133.33C138.144 131.91 136.994 130.76 135.574 130.76C134.154 130.76 133.004 131.91 133.004 133.33V150.82L116.124 167.69C117.634 168.56 118.894 169.81 119.764 171.32L133.464 157.62C134.554 164.98 137.554 171.96 142.194 177.84L104.634 215.4C101.394 218.64 99.604 222.96 99.604 227.56C99.604 232.16 101.394 236.48 104.634 239.72C107.884 242.97 112.204 244.76 116.794 244.76C121.384 244.76 125.704 242.97 128.954 239.72L179.334 189.34C182.584 186.09 184.374 181.77 184.374 177.18C184.374 172.59 182.584 168.27 179.334 165.02C178.964 164.65 178.584 164.31 178.194 163.98C175.174 161.45 171.344 160.04 167.404 159.98C165.074 157.71 163.754 154.62 163.754 151.36V139.66C172.734 138.86 181.654 141.25 188.944 146.44C190.694 147.69 192.324 149.06 193.804 150.54C200.684 157.42 204.594 166.57 204.814 176.31L204.834 177.18C204.834 187.24 200.914 196.7 193.804 203.81L165.344 232.27C166.864 233.12 168.134 234.36 169.034 235.85L197.444 207.44C205.534 199.35 209.984 188.61 209.984 177.17C209.984 177.13 209.984 177.09 209.984 177.05C215.624 169.58 218.624 160.73 218.624 151.35V126.12C217.804 126.34 216.944 126.47 216.054 126.47C215.164 126.47 214.304 126.34 213.484 126.12L213.464 126.13ZM125.304 236.08C123.024 238.36 120.004 239.61 116.784 239.61C113.564 239.61 110.534 238.36 108.254 236.08C105.984 233.81 104.734 230.78 104.734 227.55C104.734 224.32 105.984 221.3 108.254 219.03L145.614 181.67C151.764 187.82 159.494 191.87 167.954 193.43L125.304 236.08Z"></path>
<path fill="white" d="M203.874 168.85C203.374 166.64 202.694 164.48 201.814 162.41L164.064 149.31C163.954 149.27 163.844 149.28 163.734 149.27V151.36C163.734 151.87 163.774 152.37 163.844 152.87L201.574 165.96L164.154 231.73C164.654 231.93 165.124 232.17 165.584 232.45C165.494 232.4 165.414 232.33 165.324 232.28L171.044 226.57L203.874 168.86V168.85Z"></path>
<path fill="white" d="M175.684 168.66C175.684 168.66 175.614 168.59 175.584 168.56C175.084 168.56 174.594 168.53 174.094 168.48L162.104 184.23L138.134 139.46V146.73L158.544 184.83C160.354 185.77 162.234 186.53 164.174 187.16L177.034 170.28C176.634 169.71 176.184 169.16 175.684 168.66Z"></path>
<path fill="white" d="M209.244 109.43L192.994 95.03V99.61L207.194 112.2C207.714 111.16 208.404 110.23 209.244 109.44V109.43Z"></path>
<path fill="white" d="M208.744 123.26L195.664 145.28C196.264 145.82 196.864 146.36 197.424 146.92C197.694 147.19 197.934 147.47 198.194 147.74L211.484 125.37C210.454 124.83 209.534 124.12 208.754 123.26H208.744Z"></path>
<defs>
<linearGradient gradientUnits="userSpaceOnUse" y2="186.42" x2="149.964" y1="8.9" x1="149.964" id="paint0_linear_855_6726">
<stop stop-color="#00B600"></stop>
<stop stop-opacity="0" stop-color="#006E2E" offset="1"></stop>
</linearGradient>
<linearGradient gradientUnits="userSpaceOnUse" y2="131.07" x2="149.964" y1="289.41" x1="149.964" id="paint1_linear_855_6726">
<stop stop-color="#00B600"></stop>
<stop stop-opacity="0" stop-color="#00B600" offset="1"></stop>
</linearGradient>
</defs>
</svg>
