<svg xmlns="http://www.w3.org/2000/svg" fill="none" viewBox="0 0 300 300" height="300" width="300">
<path fill="url(#paint0_linear_855_6728)" d="M236.72 175.49C237.92 169.55 238.56 163.79 238.56 158.35C238.56 121.11 210.55 76.04 182.3 47.18C183.01 45.82 183.41 44.28 183.41 42.64C183.41 37.2 178.99 32.78 173.55 32.78C171.62 32.78 169.82 33.35 168.29 34.31C162.08 29.34 154.1 24 148.38 24C146.92 24 145.26 24.39 143.49 25.03C138.93 24.57 108.5 22.04 95.32 36.21C94.66 36.92 94.46 37.95 94.8 38.86C95.14 39.77 95.98 40.41 96.95 40.5C105.48 41.34 113.89 43.16 116.92 44.72C114.75 46.85 112.64 49.02 110.65 51.17C71.99 92.83 58.21 133.85 58.21 158.35C58.21 165.29 59.19 172.45 60.93 179.61C58.55 181.41 57 184.26 57 187.46C57 192.85 61.35 197.24 66.73 197.31C74.35 215.92 86.17 233.37 98.36 245.89C91.89 246.84 86.91 252.4 86.91 259.13V262.6C86.91 269.98 92.92 275.99 100.3 275.99H196.45C203.83 275.99 209.84 269.98 209.84 262.6V259.13C209.84 252.41 204.86 246.84 198.4 245.9C202.33 241.88 206.15 237.38 209.83 232.51C211.07 233.07 212.43 233.39 213.88 233.39C219.32 233.39 223.74 228.97 223.74 223.53C223.74 220.68 222.52 218.12 220.59 216.32C224.82 209.06 228.4 201.67 231.22 194.28C231.76 194.37 232.31 194.43 232.88 194.43C238.32 194.43 242.74 190.01 242.74 184.57C242.74 180.49 240.25 176.99 236.72 175.49ZM180.78 49.34C180.78 49.34 180.82 49.29 180.84 49.27C180.82 49.29 180.8 49.32 180.78 49.34ZM167.41 34.98C166.68 35.56 166.03 36.24 165.5 37C166.04 36.24 166.69 35.56 167.41 34.98ZM68.37 197.2C68.27 197.22 68.16 197.23 68.06 197.25C68.16 197.24 68.27 197.22 68.37 197.2ZM208.66 231.88C208.66 231.88 208.7 231.9 208.72 231.91C208.7 231.9 208.68 231.89 208.66 231.88Z"></path>
<path fill="white" d="M171.22 237.73H125.55C124.61 237.73 123.84 236.97 123.84 236.02C123.84 235.07 124.6 234.31 125.55 234.31H171.22C172.16 234.31 172.93 235.07 172.93 236.02C172.93 236.97 172.17 237.73 171.22 237.73Z"></path>
<path fill="white" d="M148.38 74.43C106.93 74.43 73.2 108.15 73.2 149.61C73.2 159.92 75.26 169.93 79.33 179.35C79.61 179.99 80.13 180.5 80.79 180.74L108.33 190.97V211.8C108.33 212.7 108.8 213.53 109.57 213.99C121.25 221.05 134.68 224.78 148.38 224.78C162.08 224.78 175.51 221.05 187.19 213.99C187.96 213.53 188.43 212.69 188.43 211.8V190.97L215.97 180.74C216.63 180.5 217.15 179.99 217.43 179.35C221.5 169.93 223.56 159.92 223.56 149.61C223.56 108.16 189.84 74.43 148.38 74.43ZM213.14 176.32L184.97 186.78C183.97 187.15 183.3 188.11 183.3 189.18V210.33C179.57 212.48 175.65 214.25 171.61 215.67V203.04C171.61 201.62 170.46 200.48 169.05 200.48C167.64 200.48 166.49 201.63 166.49 203.04V217.28C163.51 218.08 160.47 218.67 157.39 219.07V210.35C157.39 208.93 156.24 207.79 154.83 207.79C153.42 207.79 152.27 208.94 152.27 210.35V219.53C150.98 219.6 149.69 219.66 148.39 219.66C146.64 219.66 144.9 219.58 143.17 219.45V210.35C143.17 208.93 142.02 207.79 140.61 207.79C139.2 207.79 138.05 208.94 138.05 210.35V218.86C134.97 218.4 131.93 217.74 128.95 216.88V203.05C128.95 201.63 127.8 200.49 126.39 200.49C124.98 200.49 123.83 201.64 123.83 203.05V215.18C120.27 213.85 116.8 212.25 113.48 210.34V189.19C113.48 188.12 112.81 187.16 111.81 186.79L83.64 176.33C80.13 167.84 78.36 158.86 78.36 149.62C78.36 124.03 92.16 101.61 112.7 89.39L119.58 95.92L114.88 108.46C114.51 109.45 114.78 110.57 115.57 111.27L127.93 122.3C128.42 122.74 129.03 122.95 129.64 122.95C130.35 122.95 131.05 122.66 131.55 122.09C132.49 121.03 132.4 119.41 131.34 118.47L120.29 108.61L124.97 96.13C125.33 95.17 125.08 94.08 124.34 93.37L117.44 86.81C126.79 82.18 137.3 79.57 148.41 79.57C187.03 79.57 218.46 110.99 218.46 149.62C218.46 158.86 216.68 167.84 213.18 176.33L213.14 176.32Z"></path>
<path fill="white" d="M148.38 164.96C141.97 164.96 136.75 170.17 136.75 176.59C136.75 180.2 138.45 183.61 141.28 185.79V195.04C141.28 196.46 142.43 197.6 143.84 197.6H152.9C154.32 197.6 155.46 196.45 155.46 195.04V185.79C158.29 183.61 159.99 180.2 159.99 176.59C159.99 170.18 154.78 164.96 148.36 164.96H148.38ZM151.62 182.21C150.83 182.67 150.34 183.51 150.34 184.43V192.48H146.41V184.43C146.41 183.52 145.92 182.67 145.13 182.21C143.12 181.05 141.88 178.89 141.88 176.59C141.88 173.01 144.79 170.09 148.38 170.09C151.97 170.09 154.88 173 154.88 176.59C154.88 178.9 153.63 181.05 151.63 182.21H151.62Z"></path>
<path fill="white" d="M132.9 139.91C129.18 136.23 123.09 134.46 114.28 134.6C92.98 134.85 91.34 142.25 91.34 152.69C91.34 163.13 101.89 171.83 114.37 171.83C126.85 171.83 137.29 163.07 137.29 152.69C137.29 149.07 136.84 143.8 132.9 139.91ZM114.37 166.7C104.83 166.7 96.46 160.15 96.46 152.69C96.46 144.73 96.46 139.93 114.34 139.73C114.56 139.73 114.78 139.73 115 139.73C121.91 139.73 126.72 141.02 129.29 143.56C131.27 145.52 132.15 148.33 132.15 152.69C132.15 160.15 123.84 166.7 114.36 166.7H114.37Z"></path>
<path fill="white" d="M182.31 134.6C173.47 134.47 167.41 136.24 163.69 139.91C159.76 143.8 159.3 149.06 159.3 152.69C159.3 163.06 169.79 171.83 182.22 171.83C194.65 171.83 205.25 163.07 205.25 152.69C205.25 142.31 203.6 134.85 182.31 134.6ZM182.22 166.7C172.74 166.7 164.43 160.15 164.43 152.69C164.43 148.33 165.31 145.52 167.29 143.56C169.87 141.01 174.67 139.73 181.58 139.73C181.8 139.73 182.02 139.73 182.24 139.73C200.12 139.94 200.12 144.74 200.12 152.69C200.12 160.15 191.75 166.7 182.22 166.7Z"></path>
<path fill="white" d="M123.54 259.91L123.18 258.82C123.1 258.6 123.03 258.45 122.97 258.37C122.87 258.23 122.73 258.16 122.57 258.16C122.51 258.16 122.44 258.17 122.34 258.2L118.72 259.72L119.05 256.01V255.84C119.05 255.59 118.97 255.42 118.82 255.31C118.69 255.22 118.49 255.18 118.16 255.18H117.04C116.73 255.18 116.52 255.22 116.39 255.31C116.28 255.38 116.15 255.54 116.15 255.85L116.5 259.73L113.11 258.25C113.05 258.22 112.98 258.2 112.9 258.19C112.75 258.16 112.51 258.06 112.26 258.37C112.18 258.47 112.11 258.62 112.04 258.84L111.67 259.96C111.67 259.96 111.64 260.06 111.62 260.15C111.57 260.31 111.56 260.36 111.56 260.41C111.56 260.53 111.6 260.69 111.78 260.83C111.89 260.92 112.04 260.98 112.23 261.01L115.81 261.82L113.42 264.6C113.33 264.68 113.26 264.76 113.2 264.87C113.14 264.98 113.11 265.08 113.11 265.16C113.11 265.29 113.17 265.42 113.28 265.54C113.36 265.63 113.47 265.72 113.6 265.81L114.51 266.48C114.63 266.57 114.73 266.64 114.81 266.68C115.09 266.82 115.25 266.78 115.45 266.64C115.54 266.57 115.63 266.47 115.72 266.33L117.61 263.14L119.51 266.33C119.58 266.45 119.66 266.55 119.75 266.62C119.86 266.72 119.98 266.76 120.1 266.76C120.19 266.76 120.28 266.74 120.39 266.68C120.46 266.64 120.56 266.58 120.69 266.48L121.65 265.8C121.77 265.7 121.86 265.61 121.93 265.53C122.03 265.41 122.08 265.3 122.08 265.19C122.08 265.09 122.06 264.98 122.01 264.88C121.96 264.77 121.89 264.69 121.82 264.63L119.4 261.82L123 261.01C123.18 260.97 123.32 260.92 123.43 260.84C123.61 260.71 123.64 260.55 123.64 260.44C123.64 260.39 123.64 260.32 123.61 260.24C123.59 260.16 123.57 260.07 123.54 259.93V259.91Z"></path>
<path fill="white" d="M144.06 259.91L143.7 258.82C143.62 258.6 143.56 258.46 143.49 258.36C143.39 258.22 143.25 258.15 143.09 258.15C143.03 258.15 142.96 258.16 142.86 258.19C142.8 258.21 142.73 258.23 142.64 258.26L139.25 259.71L139.59 256V255.83C139.59 255.58 139.51 255.4 139.36 255.3C139.23 255.21 139.03 255.17 138.7 255.17H137.58C137.26 255.17 137.06 255.21 136.93 255.3C136.82 255.37 136.69 255.53 136.69 255.84L137.04 259.72L133.65 258.24C133.59 258.21 133.52 258.19 133.44 258.18C133.29 258.15 133.05 258.05 132.8 258.36C132.72 258.46 132.65 258.61 132.58 258.83L132.21 259.95C132.21 259.95 132.18 260.06 132.15 260.14C132.1 260.3 132.09 260.35 132.09 260.4C132.09 260.52 132.13 260.68 132.31 260.82C132.43 260.91 132.57 260.97 132.76 261L136.34 261.81L133.95 264.59C133.86 264.67 133.79 264.75 133.73 264.86C133.67 264.97 133.64 265.07 133.64 265.15C133.64 265.28 133.7 265.41 133.81 265.53C133.89 265.62 134 265.71 134.13 265.8L135.04 266.47C135.15 266.56 135.25 266.63 135.34 266.67C135.63 266.82 135.79 266.77 135.98 266.63C136.07 266.56 136.16 266.46 136.25 266.32L138.14 263.13L140.04 266.32C140.11 266.44 140.19 266.54 140.28 266.61C140.39 266.71 140.51 266.75 140.63 266.75C140.72 266.75 140.81 266.73 140.92 266.67C140.99 266.63 141.09 266.57 141.22 266.47L142.18 265.79C142.3 265.69 142.39 265.6 142.46 265.52C142.53 265.44 142.61 265.33 142.61 265.18C142.61 265.07 142.58 264.97 142.54 264.87C142.49 264.77 142.42 264.67 142.35 264.62L139.93 261.81L143.53 261C143.71 260.96 143.85 260.91 143.96 260.83C144.14 260.7 144.18 260.54 144.18 260.43C144.18 260.4 144.18 260.35 144.15 260.23C144.13 260.15 144.11 260.06 144.08 259.92L144.06 259.91Z"></path>
<path fill="white" d="M164.58 259.91L164.22 258.82C164.14 258.6 164.07 258.45 164.01 258.37C163.91 258.23 163.77 258.16 163.61 258.16C163.55 258.16 163.48 258.17 163.38 258.2C163.32 258.22 163.25 258.24 163.16 258.27L159.77 259.72L160.1 256.01V255.84C160.1 255.59 160.02 255.42 159.87 255.31C159.74 255.22 159.54 255.18 159.21 255.18H158.09C157.78 255.18 157.57 255.22 157.43 255.31C157.32 255.38 157.19 255.54 157.19 255.85L157.54 259.73L154.15 258.25C154.09 258.22 154.02 258.2 153.94 258.19C153.79 258.16 153.55 258.05 153.3 258.37C153.22 258.47 153.15 258.62 153.08 258.84L152.71 259.96C152.71 259.96 152.68 260.06 152.66 260.15C152.61 260.31 152.6 260.36 152.6 260.41C152.6 260.53 152.64 260.69 152.82 260.83C152.93 260.92 153.08 260.98 153.27 261.01L156.85 261.82L154.46 264.6C154.37 264.68 154.3 264.76 154.24 264.87C154.18 264.98 154.15 265.08 154.15 265.16C154.15 265.29 154.21 265.42 154.32 265.54C154.4 265.63 154.51 265.72 154.64 265.81L155.55 266.48C155.66 266.57 155.76 266.64 155.85 266.68C156.13 266.82 156.29 266.78 156.49 266.64C156.58 266.57 156.67 266.47 156.76 266.33L158.65 263.14L160.55 266.33C160.62 266.45 160.7 266.54 160.79 266.62C160.9 266.72 161.02 266.76 161.14 266.76C161.23 266.76 161.32 266.74 161.43 266.68C161.5 266.64 161.61 266.58 161.73 266.48L162.69 265.8C162.81 265.7 162.9 265.61 162.97 265.53C163.07 265.41 163.12 265.3 163.12 265.19C163.12 265.09 163.1 264.98 163.05 264.88C163 264.77 162.93 264.69 162.86 264.63L160.44 261.82L164.04 261.01C164.22 260.97 164.36 260.92 164.47 260.84C164.65 260.71 164.68 260.55 164.68 260.44C164.68 260.39 164.68 260.32 164.65 260.24C164.63 260.16 164.61 260.07 164.58 259.93V259.91Z"></path>
<path fill="white" d="M185.18 260.22C185.16 260.14 185.14 260.05 185.11 259.91L184.75 258.82C184.68 258.61 184.61 258.46 184.54 258.36C184.44 258.22 184.3 258.15 184.14 258.15C184.08 258.15 184.01 258.16 183.91 258.19C183.85 258.21 183.78 258.23 183.69 258.26L180.3 259.71L180.63 256V255.83C180.63 255.58 180.55 255.41 180.4 255.3C180.27 255.21 180.07 255.17 179.74 255.17H178.62C178.31 255.17 178.1 255.21 177.97 255.3C177.86 255.37 177.73 255.53 177.73 255.84L178.08 259.72L174.69 258.24C174.62 258.21 174.56 258.19 174.48 258.18C174.33 258.15 174.09 258.05 173.84 258.36C173.76 258.46 173.69 258.61 173.62 258.83L173.25 259.95C173.25 259.95 173.22 260.06 173.19 260.14C173.14 260.3 173.13 260.35 173.13 260.4C173.13 260.52 173.17 260.68 173.35 260.82C173.46 260.91 173.61 260.97 173.8 261L177.38 261.81L174.99 264.59C174.9 264.67 174.83 264.75 174.77 264.85C174.71 264.96 174.68 265.06 174.68 265.15C174.68 265.28 174.74 265.41 174.85 265.52C174.93 265.61 175.04 265.7 175.17 265.79L176.08 266.46C176.19 266.55 176.29 266.62 176.38 266.66C176.67 266.81 176.83 266.76 177.02 266.62C177.12 266.55 177.21 266.45 177.29 266.31L179.18 263.12L181.08 266.31C181.15 266.43 181.23 266.53 181.32 266.6C181.43 266.7 181.55 266.74 181.67 266.74C181.76 266.74 181.85 266.72 181.96 266.66C182.03 266.62 182.13 266.56 182.26 266.46L183.21 265.78C183.33 265.68 183.42 265.59 183.49 265.51C183.56 265.43 183.64 265.32 183.64 265.17C183.64 265.06 183.61 264.96 183.57 264.86C183.52 264.76 183.45 264.67 183.38 264.61L180.96 261.8L184.56 260.99C184.74 260.95 184.88 260.9 184.99 260.82C185.17 260.69 185.2 260.53 185.2 260.42C185.2 260.39 185.2 260.34 185.17 260.22H185.18Z"></path>
<path fill="white" d="M232.88 194.43C227.44 194.43 223.02 190.01 223.02 184.57C223.02 179.13 227.44 174.71 232.88 174.71C238.32 174.71 242.74 179.13 242.74 184.57C242.74 190.01 238.32 194.43 232.88 194.43ZM232.88 179.84C230.27 179.84 228.15 181.96 228.15 184.57C228.15 187.18 230.27 189.3 232.88 189.3C235.49 189.3 237.61 187.18 237.61 184.57C237.61 181.96 235.49 179.84 232.88 179.84Z"></path>
<path fill="white" d="M213.89 233.39C208.45 233.39 204.03 228.97 204.03 223.53C204.03 218.09 208.45 213.67 213.89 213.67C219.33 213.67 223.75 218.09 223.75 223.53C223.75 228.97 219.33 233.39 213.89 233.39ZM213.89 218.8C211.28 218.8 209.16 220.92 209.16 223.53C209.16 226.14 211.28 228.26 213.89 228.26C216.5 228.26 218.62 226.14 218.62 223.53C218.62 220.92 216.5 218.8 213.89 218.8Z"></path>
<path fill="white" d="M66.87 197.32C72.3155 197.32 76.73 192.906 76.73 187.46C76.73 182.014 72.3155 177.6 66.87 177.6C61.4245 177.6 57.01 182.014 57.01 187.46C57.01 192.906 61.4245 197.32 66.87 197.32Z"></path>
<path fill="white" d="M164.81 38.12C164.1 39.48 163.7 41.02 163.7 42.65C163.7 48.09 168.12 52.51 173.56 52.51C179 52.51 183.42 48.09 183.42 42.65C183.42 37.21 179 32.79 173.56 32.79C171.63 32.79 169.83 33.36 168.3 34.32C166.83 35.25 165.62 36.56 164.81 38.11V38.12ZM178.29 42.65C178.29 45.26 176.17 47.38 173.56 47.38C170.95 47.38 168.83 45.26 168.83 42.65C168.83 40.04 170.95 37.92 173.56 37.92C176.17 37.92 178.29 40.04 178.29 42.65Z"></path>
<path fill="white" d="M220.59 216.32C224.82 209.06 228.4 201.67 231.22 194.28C229.46 193.98 227.86 193.22 226.55 192.12C223.79 199.42 220.25 206.73 216.06 213.92C217.79 214.31 219.34 215.16 220.59 216.32Z"></path>
<path fill="white" d="M182.3 47.18C181.49 48.73 180.29 50.03 178.83 50.96C216.52 89.45 233.43 132.47 233.43 158.34C233.43 163.54 232.8 169.07 231.63 174.79C232.04 174.74 232.46 174.7 232.88 174.7C234.24 174.7 235.54 174.98 236.72 175.48C237.92 169.54 238.56 163.78 238.56 158.34C238.56 121.1 210.55 76.03 182.3 47.17V47.18Z"></path>
<path fill="white" d="M148.38 24C146.92 24 145.26 24.39 143.49 25.03C138.93 24.57 108.5 22.04 95.32 36.21C94.66 36.92 94.46 37.95 94.8 38.86C95.14 39.77 95.98 40.41 96.95 40.5C105.48 41.34 113.89 43.16 116.92 44.72C114.75 46.85 112.64 49.02 110.65 51.17C71.99 92.83 58.21 133.85 58.21 158.35C58.21 165.29 59.19 172.45 60.93 179.61C62.3 178.58 63.93 177.88 65.72 177.68C64.19 171.17 63.33 164.67 63.33 158.36C63.33 122.44 90.84 80.06 114.4 54.68C116.99 51.89 119.48 49.37 121.87 47.06C122.09 46.91 122.28 46.72 122.44 46.51C134.82 34.65 144.28 29.15 148.37 29.15C151.65 29.15 157.71 32.5 164.79 38.14C165.6 36.59 166.81 35.28 168.28 34.35C162.07 29.36 154.09 24.03 148.37 24.03L148.38 24ZM120.64 41.16C117.69 38.98 111.97 37.28 103.5 36.11C112.43 30.53 125.95 29.63 134.74 29.72C130.2 32.77 125.35 36.78 120.64 41.16Z"></path>
<path fill="white" d="M198.41 245.9C202.34 241.88 206.16 237.38 209.84 232.51C208.24 231.79 206.88 230.66 205.87 229.24C201.18 235.45 196.27 241 191.22 245.74H105.52C92.66 233.65 79.8 215.5 71.72 196.03C70.29 196.84 68.63 197.32 66.87 197.32C66.83 197.32 66.78 197.32 66.74 197.32C74.36 215.93 86.18 233.38 98.37 245.9C91.9 246.85 86.92 252.41 86.92 259.14V262.61C86.92 269.99 92.93 276 100.31 276H196.46C203.84 276 209.85 269.99 209.85 262.61V259.14C209.85 252.42 204.87 246.85 198.41 245.91V245.9ZM204.73 262.61C204.73 267.17 201.02 270.88 196.46 270.88H100.31C95.75 270.88 92.04 267.17 92.04 262.61V259.14C92.04 254.58 95.75 250.87 100.31 250.87H196.46C201.02 250.87 204.73 254.58 204.73 259.14V262.61Z"></path>
<defs>
<linearGradient gradientUnits="userSpaceOnUse" y2="266.68" x2="149.88" y1="26.6701" x1="149.88" id="paint0_linear_855_6728">
<stop stop-color="#F01A00"></stop>
<stop stop-opacity="0" stop-color="#F01A00" offset="0.9999"></stop>
<stop stop-opacity="0" stop-color="#7B2F2A" offset="1"></stop>
</linearGradient>
</defs>
</svg>
