<svg xmlns="http://www.w3.org/2000/svg" fill="none" viewBox="0 0 300 300" height="300" width="300">
<mask height="250" width="229" y="25" x="36" maskUnits="userSpaceOnUse" style="mask-type:luminance" id="mask0_1473_34307">
<path fill="white" d="M264.005 25H36V275H264.005V25Z"></path>
</mask>
<g mask="url(#mask0_1473_34307)">
<path fill="url(#paint0_linear_1473_34307)" d="M253.646 59.8397C249.821 59.8397 246.494 61.9463 244.733 65.0575C225.439 59.6669 185.814 42.069 151.17 25.4002C150.435 25.0437 149.582 25.0437 148.847 25.4002C114.202 42.0582 74.5774 59.6669 55.2834 65.0467C53.5226 61.9355 50.1845 59.8289 46.3711 59.8289C40.7212 59.8397 36.1191 64.431 36.1191 70.0809C36.1191 75.7308 40.7104 80.322 46.3711 80.322C47.3217 80.322 48.24 80.1815 49.115 79.9331C53.7926 89.5044 59.8422 105.19 58.103 119.752C57.3792 125.791 55.4023 132.521 53.2957 139.641C47.2461 160.123 39.7273 185.618 59.8746 209.341C75.0635 227.23 100.753 240.691 121.408 251.504C128.602 255.274 135.214 258.742 140.162 261.799C139.902 262.696 139.762 263.636 139.762 264.619C139.762 270.269 144.364 274.871 150.014 274.871C155.664 274.871 160.255 270.269 160.255 264.619C160.255 263.636 160.104 262.696 159.844 261.789C164.792 258.742 171.393 255.274 178.566 251.515C199.221 240.691 224.932 227.23 240.131 209.341C260.279 185.618 252.749 160.123 246.71 139.641C244.604 132.521 242.627 125.791 241.903 119.752C240.175 105.201 246.213 89.5152 250.891 79.9331C251.766 80.1815 252.684 80.322 253.635 80.322C259.285 80.322 263.887 75.7308 263.887 70.0809C263.887 64.431 259.285 59.8289 253.635 59.8289L253.646 59.8397Z"></path>
<path fill="white" d="M56.5143 70.0915C81.1232 63.2316 131.519 39.5302 150.002 30.6502C168.497 39.5302 218.892 63.2316 243.501 70.0915C243.501 70.0591 243.501 70.0267 243.501 69.9942C243.501 68.1686 243.987 66.4509 244.83 64.9601C225.504 59.5695 185.835 41.95 151.169 25.2596C150.434 24.9031 149.581 24.9031 148.846 25.2596C114.169 41.95 74.5011 59.5695 55.1855 64.9601C56.0282 66.4509 56.5143 68.1686 56.5143 69.9942C56.5143 70.0267 56.5143 70.0591 56.5143 70.0915Z"></path>
<path fill="white" d="M160.265 264.737C160.265 270.398 155.663 275 150.013 275C144.352 275 139.75 270.398 139.75 264.737C139.75 259.077 144.352 254.475 150.013 254.475C155.663 254.475 160.265 259.077 160.265 264.737ZM145.108 264.737C145.108 267.438 147.301 269.631 150.013 269.631C152.713 269.631 154.906 267.438 154.906 264.737C154.906 262.037 152.713 259.844 150.013 259.844C147.312 259.844 145.108 262.037 145.108 264.737Z"></path>
<path fill="white" d="M232.892 140.419C232.655 139.468 231.92 138.712 230.959 138.463C230.008 138.215 228.993 138.517 228.323 139.23C228.096 139.479 205.161 164.142 197.815 170.256C196.768 171.131 196.314 172.492 196.638 173.81C196.962 175.128 197.977 176.133 199.317 176.435L207.678 178.294C203.541 185.391 191.841 202.611 175.529 202.611C175.367 202.611 175.194 202.611 175.032 202.611L171.51 129.335L181.784 128.881V129.194C181.784 130.674 182.983 131.874 184.463 131.874H193.538C197.319 131.874 200.397 128.795 200.397 125.014V104.575C200.397 103.095 199.198 101.896 197.718 101.896H184.463C182.983 101.896 181.784 103.095 181.784 104.575V104.877L170.322 104.37L170.009 96.6346C176.977 90.8659 181.417 82.1588 181.417 72.4362C181.417 55.1192 167.33 41.0215 150.013 41.0215C132.696 41.0215 118.598 55.1084 118.598 72.4362C118.598 82.1696 123.049 90.8767 130.017 96.6346L129.703 104.37L118.242 104.877V104.575C118.242 103.095 117.042 101.896 115.562 101.896H102.307C100.827 101.896 99.6282 103.095 99.6282 104.575V125.014C99.6282 128.795 102.707 131.874 106.488 131.874H115.562C117.042 131.874 118.242 130.674 118.242 129.194V128.881L128.515 129.335L124.993 202.611C108.411 203.021 96.5169 185.467 92.3362 178.294L100.698 176.435C102.026 176.133 103.053 175.128 103.366 173.81C103.679 172.492 103.236 171.131 102.188 170.256C94.8425 164.142 71.9188 139.479 71.6811 139.23C71.0114 138.507 70.0067 138.215 69.0452 138.463C68.0946 138.712 67.3492 139.457 67.1115 140.419C63.1469 156.45 63.6762 184.278 63.9355 192.413C63.9787 193.806 64.8429 195.049 66.1285 195.578C67.4248 196.107 68.9156 195.827 69.9311 194.844L75.8078 189.183C79.308 197.598 89.7003 216.946 114.147 227.036C132.123 234.447 141.079 241.091 145.422 245.369C146.707 246.632 148.349 247.259 150.002 247.259C151.655 247.259 153.297 246.632 154.572 245.369C158.914 241.101 167.859 234.458 185.846 227.047C210.304 216.957 220.685 197.609 224.185 189.194L230.062 194.854C231.067 195.827 232.557 196.118 233.865 195.578C235.15 195.049 236.014 193.806 236.058 192.424C236.317 184.278 236.846 156.461 232.882 140.419H232.892ZM123.956 72.4254C123.956 58.0576 135.645 46.3689 150.013 46.3689C164.381 46.3689 176.058 58.0576 176.058 72.4254C176.058 86.7932 164.37 98.4711 150.013 98.4711C135.656 98.4711 123.956 86.7824 123.956 72.4254ZM230.818 188.124L224.952 182.474C224.272 181.815 223.31 181.578 222.403 181.815C221.495 182.064 220.782 182.766 220.523 183.663C220.447 183.933 212.594 210.216 183.815 222.088C166.249 229.337 156.786 236.024 151.795 240.626V215.293C151.795 214.31 150.996 213.511 150.013 213.511C149.03 213.511 148.23 214.31 148.23 215.293V240.626C143.25 236.024 133.776 229.337 116.211 222.088C87.5289 210.259 79.578 183.933 79.5024 183.663C79.2431 182.766 78.5302 182.064 77.6227 181.815C76.7153 181.578 75.743 181.815 75.0732 182.474L69.2073 188.124C69.0236 178.52 69.0344 160.037 71.3138 146.674C77.2554 153.004 89.2034 165.589 96.074 171.974L87.7126 173.832C86.9132 174.005 86.2434 174.534 85.8869 175.269C85.5304 176.003 85.5304 176.857 85.8869 177.602C86.5351 178.963 102.102 210.843 127.888 207.764C129.185 207.613 130.189 206.543 130.254 205.236L134.025 126.893C134.057 126.18 133.808 125.489 133.333 124.96C132.858 124.43 132.188 124.117 131.475 124.085L115.714 123.383C114.99 123.318 114.266 123.62 113.748 124.117C113.218 124.625 112.916 125.327 112.916 126.051V126.483H106.52C105.689 126.483 105.019 125.813 105.019 124.981V107.221H112.916V107.654C112.916 108.388 113.218 109.08 113.748 109.587C114.277 110.095 114.99 110.354 115.714 110.322L132.426 109.576C133.819 109.512 134.932 108.399 134.986 107.005L135.267 100.092C139.674 102.447 144.698 103.797 150.045 103.797C155.393 103.797 160.416 102.447 164.823 100.092L165.104 107.005C165.158 108.399 166.271 109.512 167.665 109.576L184.377 110.322C185.09 110.343 185.813 110.084 186.343 109.587C186.872 109.08 187.175 108.377 187.175 107.654V107.221H195.072V124.981C195.072 125.813 194.402 126.483 193.57 126.483H187.175V126.051C187.175 125.316 186.872 124.625 186.343 124.117C185.813 123.609 185.079 123.35 184.377 123.383L168.615 124.085C167.902 124.117 167.233 124.43 166.757 124.96C166.282 125.489 166.023 126.18 166.066 126.893L169.836 205.236C169.901 206.543 170.895 207.613 172.202 207.764C197.999 210.799 213.555 178.953 214.203 177.602C214.56 176.868 214.549 176.003 214.203 175.269C213.858 174.534 213.177 174.005 212.378 173.832L204.016 171.974C210.887 165.589 222.835 153.004 228.776 146.674C231.056 160.037 231.067 178.51 230.883 188.124H230.818Z"></path>
<path fill="white" d="M150.002 89.947C159.67 89.947 167.535 82.0825 167.535 72.4139C167.535 62.7453 159.67 54.8809 150.002 54.8809C140.333 54.8809 132.469 62.7453 132.469 72.4139C132.469 82.0825 140.333 89.947 150.002 89.947ZM150.002 60.2499C156.71 60.2499 162.177 65.7053 162.177 72.4247C162.177 79.1441 156.721 84.5996 150.002 84.5996C143.282 84.5996 137.827 79.1441 137.827 72.4247C137.827 65.7053 143.282 60.2499 150.002 60.2499Z"></path>
<path fill="white" d="M187.057 72.8684C187.057 73.8515 187.856 74.6509 188.839 74.6509H204.341C205.324 74.6509 206.124 73.8515 206.124 72.8684C206.124 71.8854 205.324 71.0859 204.341 71.0859H188.839C187.856 71.0859 187.057 71.8854 187.057 72.8684Z"></path>
<path fill="white" d="M188.148 66.4191C188.602 66.4191 189.066 66.2462 189.412 65.9006L193.992 61.3201C194.695 60.6179 194.695 59.4945 193.992 58.7923C193.29 58.0901 192.167 58.0901 191.464 58.7923L186.884 63.3727C186.182 64.0749 186.182 65.1984 186.884 65.9006C187.23 66.2462 187.694 66.4191 188.148 66.4191Z"></path>
<path fill="white" d="M191.464 86.9552C191.81 87.3009 192.275 87.4738 192.728 87.4738C193.182 87.4738 193.647 87.3009 193.992 86.9552C194.695 86.2531 194.695 85.1296 193.992 84.4274L189.412 79.847C188.71 79.1448 187.586 79.1448 186.884 79.847C186.182 80.5491 186.182 81.6726 186.884 82.3748L191.464 86.9552Z"></path>
<path fill="white" d="M95.6633 74.6607H111.165C112.149 74.6607 112.948 73.8612 112.948 72.8782C112.948 71.8951 112.149 71.0957 111.165 71.0957H95.6633C94.6803 71.0957 93.8809 71.8951 93.8809 72.8782C93.8809 73.8612 94.6803 74.6607 95.6633 74.6607Z"></path>
<path fill="white" d="M110.593 65.9006C110.939 66.2462 111.404 66.4191 111.857 66.4191C112.311 66.4191 112.776 66.2462 113.121 65.9006C113.823 65.2092 113.823 64.0749 113.121 63.3727L108.541 58.7923C107.839 58.0901 106.715 58.0901 106.013 58.7923C105.311 59.4836 105.311 60.6179 106.013 61.3201L110.593 65.9006Z"></path>
<path fill="white" d="M110.593 79.8567L106.013 84.4371C105.311 85.1393 105.311 86.2628 106.013 86.965C106.359 87.3107 106.823 87.4835 107.277 87.4835C107.731 87.4835 108.195 87.3107 108.541 86.965L113.121 82.3846C113.823 81.6824 113.823 80.5589 113.121 79.8567C112.419 79.1545 111.296 79.1545 110.593 79.8567Z"></path>
<path fill="white" d="M46.2627 80.2568C40.602 80.2568 36 75.6548 36 70.0049C36 64.355 40.602 59.7422 46.2627 59.7422C51.9234 59.7422 56.5255 64.3442 56.5255 70.0049C56.5255 75.6656 51.9234 80.2568 46.2627 80.2568Z"></path>
<path fill="white" d="M253.753 80.2568C248.092 80.2568 243.49 75.6548 243.49 70.0049C243.49 64.355 248.092 59.7422 253.753 59.7422C259.414 59.7422 264.016 64.3442 264.016 70.0049C264.016 75.6656 259.414 80.2568 253.753 80.2568Z"></path>
<path fill="white" d="M142.917 257.337C137.839 254.193 131.282 250.758 123.861 246.869C103.605 236.25 78.3912 223.048 63.8614 205.937C45.5721 184.396 52.3563 161.418 58.3303 141.152C60.5017 133.795 62.5542 126.849 63.3212 120.356C65.2549 104.109 58.6652 87.1916 53.6419 77.0801C52.3887 78.3872 50.7899 79.3595 48.9966 79.8672C53.6851 89.4494 59.7347 105.157 57.9954 119.719C57.2716 125.758 55.2839 132.499 53.1881 139.629C47.1385 160.133 39.6089 185.649 59.7671 209.394C74.9667 227.294 100.688 240.776 121.365 251.6C128.56 255.371 135.182 258.838 140.14 261.906C140.648 260.135 141.62 258.568 142.906 257.326L142.917 257.337Z"></path>
<path fill="white" d="M246.808 139.64C244.701 132.511 242.714 125.77 242.001 119.731C240.261 105.158 246.311 89.4611 250.999 79.8789C249.206 79.382 247.607 78.4097 246.354 77.0918C241.331 87.2033 234.741 104.121 236.675 120.368C237.453 126.861 239.494 133.807 241.666 141.164C247.65 161.43 254.424 184.407 236.135 205.948C221.605 223.06 196.38 236.272 176.103 246.891C168.692 250.77 162.146 254.205 157.068 257.348C158.365 258.591 159.337 260.157 159.845 261.929C164.792 258.872 171.404 255.404 178.588 251.645C199.264 240.809 225.008 227.327 240.218 209.416C260.387 185.671 252.847 160.155 246.797 139.651L246.808 139.64Z"></path>
</g>
<defs>
<linearGradient gradientUnits="userSpaceOnUse" y2="273.791" x2="150.003" y1="33.5888" x1="150.003" id="paint0_linear_1473_34307">
<stop stop-color="#06C68D"></stop>
<stop stop-opacity="0.03" stop-color="#06C68D" offset="1"></stop>
</linearGradient>
</defs>
</svg>
