<svg xmlns="http://www.w3.org/2000/svg" width="1em" height="1em" viewBox="0 0 128 128"><path fill="#FFCA28" d="M111.68 74.97c-5.35-9.92-22.51-20.1-41.22-12.43c-14.52 5.95-18.09 16.94-19.38 19.1c-1.76 2.95-5.01 2.29-5.01 2.29c1.93-6.19 2.23-13.72 1.54-19.11c-.66-5.76-.65-10.65.1-15.32c.44-2.73 1.17-5.45 2.43-7.92c.36-.71 3.45-5.33 4.51-4.87c3.8 1.63 7.13 2.35 12.37 1.63c2.94-.4 8.51-1.53 9.53-2.19c1.26-.82 1.46-1.35 1.46-1.35c.46-3.37-1.18-5.56-1.18-5.56s5.09-1 6.6-5.15c.45-1.24-1.4-4.18-2.07-5.39c-2.25-4.08-5.57-9.7-8.71-12.38c-1.53-1.32-6.63-4.29-13.37-.34c-9.8 5.75-22.98 12.11-39.46 51.83c-4.98 12-7.55 35.92-7.71 42.74c-.19 8.02 1.36 16.18 22.13 20.14C49.8 123.66 61.12 124 79.4 124c5.67 0 25.24-1.53 32.4-15.07c6.59-12.46 4.24-25.87-.12-33.96z"/><path fill="#FFB300" d="M78.01 34.79c.36-2.66-.57-4.56-.99-5.25l-4.96 1.6s-.16 1.34 0 3.37c.15 2.03-5.04 3.83-5.04 3.83c2.94-.4 8.51-1.53 9.53-2.19c1.26-.82 1.46-1.36 1.46-1.36z"/><path fill="#EDA600" d="M79.35 22.4c-.3-.79-5.06-1.93-6.36-2.56c-1.36-.7-2.43-2.01-3.03-3.17l.05-.13c.01-.04 1.41-4.03.24-4.54c-.64-.28-1.12.53-1.24.87c-1.64 4.48-5.76 6.39-6.94 11.39l-2.05-1.56c-.58-.44-.92-.29-1.11-.09c-.75.82 1.5 3.3 1.53 3.32c2.92 3.17 5.94 6.44 9.25 6.77c1.53.16 4.98-.87 6.14-1.24c.21.86.27 3.18.21 4.93c3.54-1.14 3.43-4.57 2.7-7.78c0 0-6.86 2.4-8.97 1.22c-1.99-.95-3.86-1.85-4.65-3.21c-.44-.76.93-3.76 2.52-6.27c2.07 1.07 2.4 2.01 2.27 5.04c-.09.75-.3 1.89.26 1.9c.83.1 1.31-1.29 1.45-2.07c.08-.4.52-1.52.88-1.85c.85-.78 1.7-.53 2.1-.45c3.02.53 5.18.72 4.75-.52z"/><path fill="#FFB300" d="M47.62 64.81c-.66-5.76-.65-10.65.1-15.32c.44-2.73 1.17-5.45 2.43-7.92c.36-.7 3.38-5.23 4.47-4.88l-1.27-1.61s-4.78 2.81-7.88 8.15c-3.09 5.35-1.97 15.05-2.67 24.2c-.7 9.14-7.6 19.43-7.6 19.43l10.87-2.94c.01 0 2.86-8.84 1.55-19.11z"/><path fill="#EDA600" d="M33.03 94.09c-.76 1.08-2.44.25-2.05-1.02c.19-.61.43-1.28.73-2.01c1.44-3.55 3.93-7.64 7.71-8.83c6.4-2.01 6.66 1.69 6.66 1.69c-6.14 2.59-10.31 6.27-13.05 10.17zm18.82-55.01c-1.95-1.13-3.06-4.69-3.06-6.93s1.36-3.05 1.98-1.1c.62 1.95 2.08 4.02 4.95 5.96l-3.87 2.07z"/><path fill="#FFB300" d="M34.25 120.69c15.56 2.97 26.88 3.31 45.16 3.31c5.67 0 25.24-1.53 32.4-15.07c6.59-12.46 3.54-27.47.69-32.35c-.44-.75-3.55-8.07-7.63-3.35c-1.71 1.97.86 5.52.07 11.68c-3.38 26.59-29.73 23.59-29.73 23.59c-12.66 10.13-42.91 6.63-49.26 6.28c-.73-.04-2.51-.52-3.03.94s1.28 2.23 2.3 2.6c2.51.89 5.49 1.69 9.03 2.37z"/><path fill="#EDA600" d="M65.62 104.5c.62-1 2.09-.49 2.77-.21c3.91 1.62 12.08 5.36 22.23.39c13.18-6.45 13.81-18.1 13.81-18.1c.15-1.53.54-2.09 1.68-2.17c1.31-.09 1.87 1.17 1.93 2.26c.22 4.49.09 17.2-14.6 23.36c-13.65 5.73-23.45-.35-26.51-2.75c-.72-.57-1.92-1.79-1.31-2.78z"/></svg>