<svg xmlns="http://www.w3.org/2000/svg" fill="none" viewBox="0 0 300 300" height="100%" width="100%">
<path fill="url(#paint0_linear_1360_13298)" d="M279.138 55.282C278.918 54.372 278.198 53.672 277.278 53.482C275.358 53.072 229.778 43.902 201.268 76.752C201.118 76.912 199.998 78.162 198.528 80.132C186.078 74.062 172.408 70.362 158.478 69.252C158.268 68.332 157.928 67.442 157.448 66.602C156.188 64.422 154.158 62.862 151.728 62.212C149.298 61.562 146.758 61.892 144.578 63.152C142.398 64.412 140.838 66.442 140.188 68.872C140.148 69.012 140.128 69.152 140.098 69.292C126.388 70.462 112.948 74.152 100.678 80.122C99.2185 78.172 98.1085 76.932 97.9685 76.782C69.4285 43.892 23.8485 53.072 21.9285 53.482C21.0185 53.672 20.2885 54.372 20.0685 55.282C19.8485 56.192 20.1685 57.142 20.8885 57.732C24.7185 60.862 32.6385 70.692 48.6985 99.732C50.3685 102.752 52.1485 105.502 53.9685 108.002C53.9285 108.052 53.8685 108.092 53.8285 108.142C53.1185 109.022 51.7985 110.552 50.1685 112.432C41.9585 121.922 34.5085 130.742 33.5485 134.472C33.2685 135.562 33.7685 136.702 34.7685 137.222L39.8585 139.912C37.2985 144.422 32.9185 152.552 32.7485 155.712C32.6885 156.832 33.3985 157.852 34.4785 158.172C34.7785 158.262 36.2685 158.682 38.1585 158.732C34.8885 164.942 31.2785 172.322 31.2785 174.692C31.2785 175.922 32.1985 176.962 33.4285 177.102C33.6185 177.122 37.1685 177.512 40.5685 175.952C42.6885 183.222 48.7585 200.562 61.4485 214.492C60.8985 215.322 60.4785 216.252 60.2085 217.242C59.5585 219.672 59.8885 222.212 61.1485 224.392C62.3185 226.412 64.1485 227.892 66.3485 228.612C66.1085 230.462 66.0485 232.272 66.3785 233.672C66.6285 234.742 67.5685 235.512 68.6785 235.542C69.6285 235.572 75.9585 235.682 81.3685 234.202C80.4385 237.422 79.7385 240.762 80.1885 242.442C80.4885 243.572 81.5585 244.332 82.7185 244.232C87.7385 243.852 91.6285 243.162 94.3485 242.172C94.7185 247.342 95.7885 250.492 97.5685 251.572C98.2285 251.972 99.0385 252.042 99.7585 251.742L104.678 249.722C105.288 258.402 108.158 258.782 109.178 258.922C109.258 258.932 109.328 258.942 109.408 258.942C110.068 258.972 114.018 259.052 117.678 257.582C117.828 260.062 118.618 262.922 120.848 265.472C121.468 266.182 122.448 266.472 123.358 266.202C125.938 265.442 127.918 264.782 129.438 264.202C128.988 267.112 128.998 270.392 131.028 272.322C131.528 272.792 132.208 273.032 132.898 272.982C133.998 272.892 138.258 272.442 141.548 270.672C142.118 274.302 143.568 279.302 148.228 282.582C148.308 282.642 148.398 282.682 148.478 282.732C148.498 282.742 148.518 282.752 148.528 282.762C148.678 282.842 148.848 282.892 149.008 282.942C149.038 282.942 149.078 282.962 149.108 282.962C149.278 283.002 149.448 283.022 149.618 283.022C149.788 283.022 149.958 283.002 150.118 282.962C150.158 282.962 150.188 282.942 150.228 282.942C150.388 282.902 150.548 282.842 150.698 282.772C150.718 282.762 150.738 282.742 150.758 282.732C150.838 282.692 150.928 282.642 151.008 282.582C155.658 279.312 157.108 274.332 157.678 270.702C160.948 272.442 165.228 272.892 166.338 272.982C167.028 273.032 167.708 272.802 168.208 272.322C170.238 270.402 170.248 267.112 169.798 264.202C171.318 264.772 173.298 265.442 175.878 266.202C176.788 266.472 177.768 266.182 178.388 265.472C180.618 262.922 181.398 260.062 181.558 257.582C185.218 259.052 189.168 258.972 189.828 258.942C189.908 258.942 189.978 258.942 190.058 258.922C191.078 258.782 193.938 258.402 194.558 249.722L199.478 251.742C200.198 252.042 201.008 251.972 201.668 251.572C203.438 250.492 204.518 247.332 204.888 242.172C207.608 243.162 211.498 243.852 216.518 244.232C217.678 244.312 218.748 243.562 219.048 242.442C219.498 240.772 218.798 237.422 217.868 234.202C223.288 235.682 229.618 235.582 230.558 235.542C231.658 235.512 232.598 234.742 232.858 233.672C233.168 232.362 233.138 230.692 232.928 228.962C234.028 228.782 235.088 228.412 236.088 227.842C238.268 226.582 239.828 224.552 240.478 222.122C241.128 219.692 240.798 217.152 239.538 214.972C239.258 214.492 238.938 214.042 238.588 213.622C250.748 199.852 256.598 183.082 258.678 175.962C262.078 177.522 265.628 177.132 265.818 177.112C267.038 176.972 267.968 175.932 267.968 174.702C267.968 172.332 264.358 164.952 261.088 158.742C262.978 158.692 264.468 158.272 264.768 158.182C265.848 157.862 266.558 156.842 266.498 155.722C266.328 152.552 261.948 144.422 259.388 139.922L264.478 137.232C265.468 136.712 265.978 135.572 265.698 134.482C264.738 130.762 257.288 121.932 249.078 112.442C247.448 110.562 246.128 109.032 245.418 108.152C245.378 108.102 245.328 108.062 245.278 108.012C247.098 105.512 248.878 102.762 250.548 99.742C266.608 70.702 274.538 60.872 278.358 57.742C279.078 57.152 279.398 56.192 279.178 55.292L279.138 55.282ZM158.708 71.562C158.708 71.482 158.708 71.402 158.708 71.332C158.708 71.412 158.708 71.492 158.708 71.562ZM158.678 70.542C158.678 70.452 158.668 70.372 158.658 70.282C158.658 70.372 158.668 70.452 158.678 70.542ZM62.1485 213.572C62.1485 213.572 62.0885 213.642 62.0585 213.672C62.0885 213.642 62.1185 213.602 62.1485 213.572ZM62.7485 212.932C62.7985 212.882 62.8485 212.832 62.9085 212.782C62.8585 212.832 62.8085 212.882 62.7485 212.932ZM231.368 229.112C231.678 229.112 231.978 229.082 232.288 229.052C231.988 229.082 231.678 229.112 231.368 229.112Z"></path>
<path fill="white" d="M231.358 229.112C230.538 229.112 229.718 229.002 228.908 228.792C226.478 228.142 224.448 226.582 223.188 224.402C221.928 222.222 221.598 219.682 222.248 217.252C222.898 214.822 224.458 212.792 226.638 211.532C228.818 210.272 231.358 209.942 233.788 210.592C236.218 211.242 238.248 212.802 239.508 214.982C240.768 217.162 241.098 219.702 240.448 222.132C239.798 224.562 238.238 226.592 236.058 227.852C234.608 228.692 232.998 229.122 231.358 229.122V229.112ZM231.338 215.112C230.548 215.112 229.768 215.322 229.058 215.722C227.998 216.332 227.248 217.312 226.928 218.492C226.608 219.672 226.778 220.902 227.388 221.962C227.998 223.022 228.988 223.772 230.158 224.092C231.338 224.412 232.568 224.242 233.628 223.632C234.688 223.022 235.438 222.042 235.758 220.862C236.078 219.682 235.908 218.452 235.298 217.392C234.688 216.332 233.698 215.582 232.528 215.262C232.138 215.152 231.738 215.102 231.338 215.102V215.112Z"></path>
<path fill="white" d="M202.528 145.132C189.928 145.132 179.718 155.342 179.718 167.942C179.718 180.542 189.928 190.752 202.528 190.752C215.128 190.752 225.338 180.542 225.338 167.942C225.338 155.342 215.128 145.132 202.528 145.132ZM203.638 173.432C200.608 174.042 197.658 172.072 197.048 169.042C196.438 166.012 198.408 163.062 201.438 162.452C202.128 162.312 202.808 162.322 203.468 162.432C203.468 162.492 203.468 162.542 203.488 162.602C203.958 164.942 205.828 166.632 208.048 167.012C208.548 169.982 206.618 172.832 203.638 173.432Z"></path>
<path fill="white" d="M96.6684 145.142C84.0684 145.142 73.8585 155.352 73.8585 167.952C73.8585 180.552 84.0684 190.762 96.6684 190.762C109.268 190.762 119.478 180.552 119.478 167.952C119.478 155.352 109.268 145.142 96.6684 145.142ZM97.7785 173.442C94.7485 174.052 91.7985 172.082 91.1885 169.052C90.5785 166.022 92.5485 163.072 95.5785 162.462C96.2685 162.322 96.9485 162.332 97.6085 162.442C97.6085 162.502 97.6084 162.552 97.6284 162.612C98.0984 164.952 99.9685 166.642 102.188 167.022C102.688 169.992 100.758 172.842 97.7785 173.442Z"></path>
<path fill="white" d="M149.458 108.182C140.398 108.182 133.018 115.132 133.018 123.672C133.018 132.212 140.388 139.162 149.458 139.162C158.528 139.162 165.888 132.212 165.888 123.672C165.888 115.132 158.518 108.182 149.458 108.182ZM149.458 135.862C148.318 135.862 146.858 134.032 145.908 130.872C147.018 130.972 148.148 131.032 149.288 131.032C150.538 131.032 151.788 130.962 153.018 130.832C152.068 134.012 150.608 135.852 149.458 135.852V135.862ZM149.288 127.802C147.828 127.802 146.458 127.712 145.198 127.552C145.038 126.362 144.938 125.062 144.938 123.672C144.938 122.282 145.028 120.982 145.198 119.802C146.458 119.642 147.818 119.552 149.288 119.552C150.888 119.552 152.368 119.662 153.728 119.852C153.888 121.032 153.978 122.302 153.978 123.672C153.978 125.042 153.888 126.322 153.728 127.502C152.378 127.692 150.898 127.802 149.288 127.802ZM136.548 123.672C136.548 122.652 138.518 121.302 141.858 120.432C141.758 121.472 141.698 122.552 141.698 123.672C141.698 124.792 141.758 125.872 141.858 126.912C138.518 126.042 136.548 124.692 136.548 123.672ZM149.458 111.482C150.608 111.482 152.068 113.322 153.018 116.502C151.788 116.372 150.538 116.302 149.288 116.302C148.158 116.302 147.028 116.362 145.908 116.462C146.858 113.302 148.318 111.472 149.458 111.472V111.482ZM157.058 120.522C160.178 121.392 162.018 122.682 162.018 123.662C162.018 124.642 160.178 125.932 157.058 126.802C157.158 125.792 157.208 124.742 157.208 123.662C157.208 122.582 157.158 121.532 157.058 120.522ZM161.558 118.802C160.138 118.042 158.408 117.452 156.498 117.042C156.108 115.332 155.578 113.802 154.918 112.532C157.878 113.792 160.258 116.032 161.568 118.802H161.558ZM143.988 112.532C143.338 113.792 142.808 115.292 142.418 116.972C140.578 117.342 138.878 117.882 137.468 118.562C138.788 115.892 141.108 113.742 143.988 112.522V112.532ZM137.468 128.782C138.888 129.472 140.578 130.002 142.418 130.372C142.808 132.052 143.338 133.552 143.988 134.812C141.108 133.592 138.788 131.442 137.468 128.772V128.782ZM154.908 134.822C155.568 133.542 156.098 132.022 156.488 130.312C158.398 129.902 160.138 129.302 161.548 128.552C160.248 131.332 157.868 133.572 154.898 134.832L154.908 134.822Z"></path>
<path fill="white" d="M145.478 215.232C144.588 215.232 143.858 214.512 143.858 213.612V206.132C143.858 205.242 144.578 204.512 145.478 204.512C146.378 204.512 147.098 205.232 147.098 206.132V213.612C147.098 214.502 146.378 215.232 145.478 215.232Z"></path>
<path fill="white" d="M153.718 215.232C152.828 215.232 152.098 214.512 152.098 213.612V206.132C152.098 205.242 152.818 204.512 153.718 204.512C154.618 204.512 155.338 205.232 155.338 206.132V213.612C155.338 214.502 154.618 215.232 153.718 215.232Z"></path>
<path fill="white" d="M177.218 241.732C176.698 241.732 176.178 241.482 175.868 241.012L169.688 231.722C169.188 230.982 169.398 229.972 170.138 229.482C170.878 228.992 171.888 229.192 172.378 229.932L178.558 239.222C179.058 239.962 178.848 240.972 178.108 241.462C177.828 241.642 177.518 241.732 177.218 241.732Z"></path>
<path fill="white" d="M180.648 228.012C180.128 228.012 179.608 227.762 179.298 227.292L177.358 224.372C176.858 223.632 177.068 222.622 177.808 222.132C178.548 221.642 179.558 221.842 180.048 222.582L181.988 225.502C182.488 226.242 182.278 227.252 181.538 227.742C181.258 227.922 180.948 228.012 180.648 228.012Z"></path>
<path fill="white" d="M195.188 233.902C194.668 233.902 194.148 233.652 193.838 233.182L187.008 222.912C186.508 222.172 186.718 221.162 187.458 220.672C188.198 220.182 189.208 220.382 189.698 221.122L196.528 231.392C197.028 232.132 196.818 233.142 196.078 233.632C195.798 233.812 195.488 233.902 195.188 233.902Z"></path>
<path fill="white" d="M121.988 241.732C121.678 241.732 121.368 241.642 121.098 241.462C120.358 240.962 120.148 239.962 120.648 239.222L126.828 229.932C127.328 229.192 128.328 228.982 129.068 229.482C129.808 229.982 130.018 230.982 129.518 231.722L123.338 241.012C123.028 241.482 122.508 241.732 121.988 241.732Z"></path>
<path fill="white" d="M118.558 228.012C118.248 228.012 117.938 227.922 117.668 227.742C116.928 227.242 116.718 226.242 117.218 225.502L119.158 222.582C119.658 221.842 120.658 221.632 121.398 222.132C122.138 222.632 122.348 223.632 121.848 224.372L119.908 227.292C119.598 227.762 119.078 228.012 118.558 228.012Z"></path>
<path fill="white" d="M104.008 233.902C103.698 233.902 103.388 233.812 103.118 233.632C102.378 233.132 102.168 232.132 102.668 231.392L109.498 221.122C109.988 220.382 110.998 220.172 111.738 220.672C112.478 221.172 112.688 222.172 112.188 222.912L105.358 233.182C105.048 233.652 104.528 233.902 104.008 233.902Z"></path>
<path fill="white" d="M95.6785 200.862C77.5285 200.862 62.7685 186.102 62.7685 167.952C62.7685 149.802 77.5285 135.042 95.6785 135.042C113.828 135.042 128.588 149.802 128.588 167.952C128.588 186.102 113.828 200.862 95.6785 200.862ZM95.6785 138.282C79.3185 138.282 66.0085 151.592 66.0085 167.952C66.0085 184.312 79.3185 197.622 95.6785 197.622C112.038 197.622 125.348 184.312 125.348 167.952C125.348 151.592 112.038 138.282 95.6785 138.282Z"></path>
<path fill="white" d="M201.528 200.862C183.378 200.862 168.618 186.102 168.618 167.952C168.618 149.802 183.378 135.042 201.528 135.042C219.678 135.042 234.438 149.802 234.438 167.952C234.438 186.102 219.678 200.862 201.528 200.862ZM201.528 138.282C185.168 138.282 171.858 151.592 171.858 167.952C171.858 184.312 185.168 197.622 201.528 197.622C217.888 197.622 231.198 184.312 231.198 167.952C231.198 151.592 217.888 138.282 201.528 138.282Z"></path>
<path fill="white" d="M172.758 128.462C171.978 128.462 171.288 127.892 171.158 127.092C171.018 126.212 171.618 125.382 172.498 125.242C172.618 125.222 184.638 123.192 194.498 112.832C195.118 112.182 196.138 112.162 196.788 112.772C197.438 113.392 197.458 114.412 196.848 115.062C186.198 126.252 173.538 128.352 173.008 128.432C172.928 128.442 172.838 128.452 172.758 128.452V128.462Z"></path>
<path fill="white" d="M174.708 119.932C173.928 119.932 173.238 119.362 173.108 118.562C172.968 117.682 173.568 116.852 174.448 116.712C174.508 116.712 180.148 115.732 184.768 110.872C185.388 110.232 186.408 110.202 187.058 110.812C187.708 111.432 187.728 112.452 187.118 113.102C181.708 118.792 175.228 119.862 174.958 119.902C174.868 119.912 174.788 119.922 174.708 119.922V119.932Z"></path>
<path fill="white" d="M176.638 111.552C176.428 111.552 176.218 111.522 176.028 111.442C175.818 111.362 175.658 111.232 175.498 111.082C175.188 110.772 175.028 110.372 175.028 109.932C175.028 109.492 175.188 109.092 175.498 108.802C176.098 108.192 177.178 108.192 177.778 108.802C178.088 109.092 178.268 109.512 178.268 109.932C178.268 110.162 178.218 110.352 178.138 110.542C178.058 110.752 177.948 110.932 177.778 111.072C177.628 111.222 177.458 111.352 177.258 111.432C177.068 111.512 176.858 111.542 176.648 111.542L176.638 111.552Z"></path>
<path fill="white" d="M126.148 128.462C126.068 128.462 125.978 128.462 125.898 128.442C125.368 128.352 112.708 126.252 102.058 115.072C101.438 114.422 101.468 113.402 102.118 112.782C102.768 112.172 103.788 112.192 104.408 112.842C114.268 123.202 126.288 125.232 126.408 125.252C127.288 125.392 127.888 126.222 127.748 127.102C127.618 127.902 126.938 128.472 126.148 128.472V128.462Z"></path>
<path fill="white" d="M124.208 119.932C124.128 119.932 124.038 119.932 123.958 119.912C123.688 119.872 117.208 118.792 111.798 113.112C111.178 112.462 111.208 111.442 111.858 110.822C112.508 110.212 113.528 110.232 114.148 110.882C118.808 115.782 124.408 116.712 124.468 116.722C125.348 116.862 125.958 117.692 125.818 118.572C125.688 119.372 125.008 119.942 124.218 119.942L124.208 119.932Z"></path>
<path fill="white" d="M122.278 111.552C122.068 111.552 121.858 111.522 121.668 111.442C121.458 111.362 121.298 111.232 121.138 111.082C120.828 110.772 120.668 110.372 120.668 109.932C120.668 109.492 120.828 109.092 121.138 108.802C121.738 108.192 122.818 108.192 123.418 108.802C123.728 109.092 123.908 109.512 123.908 109.932C123.908 110.162 123.858 110.352 123.778 110.542C123.698 110.752 123.588 110.932 123.418 111.072C123.268 111.222 123.098 111.352 122.898 111.432C122.708 111.512 122.498 111.542 122.288 111.542L122.278 111.552Z"></path>
<path fill="white" d="M69.3285 229.112C68.5085 229.112 67.6885 229.002 66.8785 228.792C64.4485 228.142 62.4185 226.582 61.1585 224.402C59.8985 222.222 59.5685 219.682 60.2185 217.252C60.8685 214.822 62.4285 212.792 64.6085 211.532C66.7885 210.272 69.3285 209.942 71.7585 210.592C74.1885 211.242 76.2185 212.802 77.4785 214.982C78.7385 217.162 79.0685 219.702 78.4185 222.132C77.7685 224.562 76.2085 226.592 74.0285 227.852C72.5785 228.692 70.9685 229.122 69.3285 229.122V229.112ZM69.3085 215.112C68.5185 215.112 67.7385 215.322 67.0285 215.722C65.9685 216.332 65.2185 217.312 64.8985 218.492C64.5785 219.672 64.7485 220.902 65.3585 221.962C65.9685 223.022 66.9585 223.772 68.1285 224.092C69.3085 224.412 70.5385 224.242 71.5985 223.632C72.6585 223.022 73.4085 222.042 73.7285 220.862C74.0485 219.682 73.8785 218.452 73.2685 217.392C72.6585 216.332 71.6685 215.582 70.4985 215.262C70.1085 215.152 69.7085 215.102 69.3085 215.102V215.112Z"></path>
<path fill="white" d="M231.358 229.112C230.538 229.112 229.718 229.002 228.908 228.792C228.578 228.702 228.248 228.592 227.928 228.472C228.058 229.272 228.158 230.022 228.198 230.702C224.308 230.592 218.028 229.972 215.348 227.882C214.498 227.212 213.308 227.192 212.428 227.822C211.548 228.452 211.198 229.592 211.558 230.602C212.558 233.422 213.588 236.892 214.058 239.122C209.668 238.582 205.718 237.632 204.778 236.832C204.338 235.842 203.298 235.242 202.188 235.412C200.998 235.592 200.128 236.612 200.128 237.812C200.128 241.132 199.778 244.602 199.308 246.452L193.138 243.922C192.388 243.612 191.538 243.702 190.868 244.152C190.198 244.602 189.788 245.362 189.788 246.172C189.788 249.332 189.348 252.802 188.828 254.112C186.528 254.042 181.988 253.402 180.508 250.942C179.868 249.872 178.518 249.472 177.388 250.012C176.258 250.552 175.728 251.862 176.158 253.042C176.228 253.242 177.718 257.452 175.608 261.072C172.458 260.082 169.198 258.882 168.358 258.292C167.488 257.242 166.258 257.142 165.378 257.542C163.478 258.402 163.938 260.272 164.268 261.622C165.158 265.242 165.248 267.052 165.138 267.962C162.218 267.502 159.228 266.482 158.598 265.372C157.588 263.582 156.338 263.422 155.458 263.602C153.508 264.012 153.318 265.892 153.148 267.552C152.898 270.042 152.458 274.412 149.578 277.412C146.708 274.412 146.258 270.042 146.008 267.552C145.838 265.892 145.648 264.012 143.698 263.602C142.818 263.412 141.568 263.572 140.568 265.372C139.938 266.482 136.948 267.502 134.028 267.962C133.918 267.052 134.008 265.242 134.898 261.622C135.228 260.262 135.688 258.402 133.788 257.542C132.908 257.142 131.678 257.232 130.808 258.292C129.968 258.872 126.708 260.082 123.558 261.072C121.448 257.442 122.938 253.232 123.008 253.052C123.448 251.882 122.918 250.562 121.788 250.012C120.658 249.462 119.298 249.872 118.648 250.942C117.158 253.412 112.618 254.042 110.328 254.112C109.808 252.812 109.368 249.332 109.368 246.172C109.368 245.362 108.968 244.602 108.288 244.152C107.618 243.702 106.758 243.612 106.018 243.922L99.8484 246.452C99.3784 244.602 99.0285 241.132 99.0285 237.812C99.0285 236.612 98.1485 235.592 96.9685 235.412C95.8685 235.242 94.8184 235.842 94.3784 236.832C93.4384 237.632 89.4985 238.582 85.1085 239.122C85.5785 236.882 86.5885 233.472 87.6085 230.602C87.9685 229.582 87.6084 228.452 86.7384 227.822C85.8584 227.192 84.6785 227.212 83.8285 227.882C81.1485 229.982 74.8685 230.592 70.9785 230.702C71.0085 230.152 71.0885 229.542 71.1785 228.912C70.5585 229.042 69.9285 229.122 69.2985 229.122C68.4785 229.122 67.6585 229.012 66.8485 228.802C66.6685 228.752 66.4985 228.692 66.3285 228.632C66.0885 230.482 66.0285 232.292 66.3585 233.692C66.6085 234.762 67.5485 235.532 68.6585 235.562C69.6085 235.592 75.9385 235.702 81.3485 234.222C80.4185 237.442 79.7185 240.782 80.1685 242.462C80.4685 243.592 81.5385 244.352 82.6985 244.252C87.7185 243.872 91.6085 243.182 94.3285 242.192C94.6985 247.362 95.7685 250.512 97.5485 251.592C98.2085 251.992 99.0184 252.062 99.7384 251.762L104.658 249.742C105.268 258.422 108.138 258.802 109.158 258.942C109.238 258.952 109.308 258.962 109.388 258.962C110.048 258.992 113.998 259.072 117.658 257.602C117.808 260.082 118.598 262.942 120.828 265.492C121.448 266.202 122.428 266.492 123.338 266.222C125.918 265.462 127.898 264.802 129.418 264.222C128.968 267.132 128.978 270.412 131.008 272.342C131.508 272.812 132.188 273.052 132.878 273.002C133.978 272.912 138.238 272.462 141.528 270.692C142.098 274.322 143.548 279.322 148.208 282.602C148.288 282.662 148.378 282.702 148.458 282.752C148.478 282.762 148.498 282.772 148.508 282.782C148.658 282.862 148.828 282.912 148.988 282.962C149.018 282.962 149.058 282.982 149.088 282.982C149.258 283.022 149.428 283.042 149.598 283.042C149.768 283.042 149.938 283.022 150.098 282.982C150.138 282.982 150.168 282.962 150.208 282.962C150.368 282.922 150.528 282.862 150.678 282.792C150.698 282.782 150.718 282.762 150.738 282.752C150.818 282.712 150.908 282.662 150.988 282.602C155.638 279.332 157.088 274.352 157.658 270.722C160.928 272.462 165.208 272.912 166.318 273.002C167.008 273.052 167.688 272.822 168.188 272.342C170.218 270.422 170.228 267.132 169.778 264.222C171.298 264.792 173.278 265.462 175.858 266.222C176.768 266.492 177.748 266.202 178.368 265.492C180.598 262.942 181.378 260.082 181.538 257.602C185.198 259.072 189.148 258.992 189.808 258.962C189.888 258.962 189.958 258.962 190.038 258.942C191.058 258.802 193.918 258.422 194.538 249.742L199.458 251.762C200.178 252.062 200.988 251.992 201.648 251.592C203.418 250.512 204.498 247.352 204.868 242.192C207.588 243.182 211.478 243.872 216.498 244.252C217.658 244.332 218.728 243.582 219.028 242.462C219.478 240.792 218.778 237.442 217.848 234.222C223.268 235.702 229.598 235.602 230.538 235.562C231.638 235.532 232.578 234.762 232.838 233.692C233.148 232.382 233.118 230.712 232.908 228.982C232.398 229.072 231.888 229.122 231.368 229.122L231.358 229.112Z"></path>
<path fill="white" d="M279.138 55.282C278.918 54.372 278.198 53.672 277.278 53.482C275.358 53.072 229.778 43.902 201.268 76.752C201.118 76.912 199.998 78.162 198.528 80.132C186.078 74.062 172.408 70.362 158.478 69.252C158.808 70.722 158.788 72.262 158.388 73.762C158.358 73.882 158.308 73.992 158.278 74.112C171.298 75.172 184.068 78.592 195.748 84.182C192.708 89.012 189.658 95.502 190.208 101.512C190.328 102.852 191.518 103.822 192.848 103.712C194.188 103.592 195.168 102.412 195.048 101.072C194.218 91.932 204.778 80.142 204.918 79.982C226.448 55.142 259.548 56.192 271.648 57.552C265.608 64.442 257.088 77.792 246.258 97.382C236.598 114.862 222.808 122.892 220.748 124.022C220.718 124.022 220.698 124.032 220.668 124.042L183.068 131.782C182.378 131.922 181.708 132.082 181.028 132.252C180.688 132.342 180.348 132.442 180.008 132.532C179.698 132.622 179.398 132.702 179.088 132.792C178.618 132.932 178.148 133.092 177.688 133.242C177.548 133.292 177.398 133.342 177.258 133.392C167.988 136.632 160.068 142.782 154.568 151.162C154.498 151.262 154.448 151.372 154.398 151.482C152.418 154.542 150.808 157.852 149.608 161.332C148.408 157.852 146.798 154.542 144.818 151.482C144.768 151.372 144.708 151.262 144.648 151.162C139.148 142.792 131.228 136.632 121.958 133.392C121.818 133.342 121.668 133.292 121.528 133.242C121.068 133.082 120.598 132.932 120.128 132.792C119.828 132.702 119.518 132.622 119.208 132.532C118.868 132.432 118.528 132.332 118.188 132.252C117.518 132.082 116.838 131.922 116.148 131.782L78.7685 124.082L78.6485 124.052C78.5885 124.042 78.5285 124.022 78.4685 124.012C76.3985 122.882 62.6185 114.842 52.9585 97.372C42.1185 77.792 33.5985 64.442 27.5585 57.552C39.6585 56.192 72.7585 55.142 94.3385 80.012C97.3085 83.292 104.868 93.452 104.168 101.062C104.048 102.402 105.028 103.582 106.368 103.702C107.678 103.802 108.888 102.842 109.008 101.502C109.558 95.482 106.498 88.992 103.468 84.172C114.958 78.672 127.508 75.272 140.308 74.162C139.808 72.602 139.738 70.932 140.098 69.302C126.388 70.472 112.948 74.162 100.678 80.132C99.2185 78.182 98.1085 76.942 97.9685 76.792C69.4285 43.892 23.8485 53.072 21.9285 53.482C21.0185 53.672 20.2885 54.372 20.0685 55.282C19.8485 56.192 20.1685 57.142 20.8885 57.732C24.7185 60.862 32.6385 70.692 48.6985 99.732C50.3685 102.752 52.1485 105.502 53.9685 108.002C53.9285 108.052 53.8685 108.092 53.8285 108.142C53.1185 109.022 51.7985 110.552 50.1685 112.432C41.9585 121.922 34.5085 130.742 33.5485 134.472C33.2685 135.562 33.7685 136.702 34.7685 137.222L39.8585 139.912C37.2985 144.422 32.9185 152.552 32.7485 155.712C32.6885 156.832 33.3985 157.852 34.4785 158.172C34.7785 158.262 36.2685 158.682 38.1585 158.732C34.8885 164.942 31.2785 172.322 31.2785 174.692C31.2785 175.922 32.1985 176.962 33.4285 177.102C33.6185 177.122 37.1685 177.512 40.5685 175.952C42.6885 183.222 48.7585 200.562 61.4485 214.492C62.2485 213.282 63.3085 212.262 64.5985 211.512C64.7585 211.422 64.9285 211.342 65.0885 211.262C49.7885 194.432 44.4485 171.722 44.3885 171.462C44.1885 170.582 43.5185 169.892 42.6585 169.662C41.7885 169.422 40.8685 169.692 40.2485 170.342C39.3585 171.292 38.1685 171.792 37.0685 172.052C38.6485 168.322 41.9685 161.792 45.0285 156.192C45.5785 155.182 45.3485 153.922 44.4685 153.172C43.5885 152.422 42.3085 152.402 41.3985 153.112C40.5885 153.752 39.3485 153.902 38.2185 153.872C39.4985 150.662 42.5085 144.942 45.2985 140.172C45.6285 139.602 45.7185 138.912 45.5385 138.282C45.3585 137.642 44.9185 137.112 44.3385 136.802L39.0485 134.012C41.7285 129.592 49.9985 120.042 53.8285 115.622C55.1285 114.122 56.2285 112.852 56.9985 111.922C61.4785 117.322 65.9685 121.272 69.5185 123.952C56.2585 133.142 48.3785 148.072 48.3785 164.262C48.3785 191.322 70.3885 213.332 97.4485 213.332C124.508 213.332 144.468 193.292 146.368 167.962C146.858 170.402 147.128 172.912 147.148 175.472C146.988 190.472 131.258 203.842 131.098 203.982C130.298 204.652 130.018 205.762 130.398 206.732L147.138 249.192C147.538 250.212 148.538 250.802 149.578 250.722C149.638 250.722 149.698 250.722 149.758 250.722C150.728 250.722 151.638 250.142 152.018 249.182L168.758 206.722C169.138 205.752 168.858 204.642 168.058 203.972C167.898 203.832 152.178 190.462 152.008 175.462C152.028 172.902 152.298 170.392 152.788 167.952C154.688 193.282 175.898 213.322 201.708 213.322C227.518 213.322 250.778 191.312 250.778 164.252C250.778 148.062 242.898 133.142 229.638 123.942C233.188 121.262 237.678 117.312 242.158 111.912C242.928 112.832 244.038 114.112 245.328 115.612C249.158 120.042 257.418 129.582 260.108 134.002L254.818 136.792C254.228 137.102 253.798 137.632 253.618 138.272C253.438 138.912 253.528 139.592 253.858 140.162C256.658 144.932 259.658 150.652 260.938 153.862C259.818 153.902 258.568 153.742 257.758 153.102C256.848 152.392 255.568 152.422 254.688 153.162C253.808 153.912 253.578 155.172 254.128 156.182C257.208 161.792 260.528 168.342 262.108 172.042C260.998 171.782 259.808 171.282 258.918 170.332C258.308 169.682 257.388 169.412 256.508 169.652C255.638 169.882 254.978 170.582 254.778 171.452C254.718 171.712 249.468 194.022 234.478 210.802C236.058 211.362 237.448 212.332 238.518 213.612C250.678 199.842 256.528 183.072 258.608 175.952C262.008 177.512 265.558 177.122 265.748 177.102C266.968 176.962 267.898 175.922 267.898 174.692C267.898 172.322 264.288 164.942 261.018 158.732C262.908 158.682 264.398 158.262 264.698 158.172C265.778 157.852 266.488 156.832 266.428 155.712C266.258 152.542 261.878 144.412 259.318 139.912L264.408 137.222C265.398 136.702 265.908 135.562 265.628 134.472C264.668 130.752 257.218 121.922 249.008 112.432C247.378 110.552 246.058 109.022 245.348 108.142C245.308 108.092 245.258 108.052 245.208 108.002C247.028 105.502 248.808 102.752 250.478 99.732C266.538 70.692 274.468 60.862 278.288 57.732C279.008 57.142 279.328 56.182 279.108 55.282L279.138 55.282ZM97.4685 208.472C73.0885 208.472 53.2585 188.642 53.2585 164.262C53.2585 149.502 60.5185 135.892 72.7285 127.632C74.2885 128.052 75.7285 128.402 77.0985 128.702C77.1085 128.702 77.1185 128.702 77.1285 128.712L77.6485 128.822C77.6485 128.822 77.7285 128.842 77.7685 128.852L115.168 136.552C115.778 136.682 116.378 136.822 116.978 136.972C117.268 137.042 117.548 137.132 117.838 137.212C118.128 137.292 118.418 137.372 118.708 137.462C119.118 137.582 119.518 137.722 119.918 137.852C120.058 137.902 120.208 137.952 120.348 138.002C120.848 138.172 121.338 138.362 121.828 138.552C121.848 138.552 121.868 138.572 121.888 138.582C129.508 141.622 135.918 146.932 140.378 153.582C141.248 157.072 141.688 160.672 141.688 164.292C141.688 188.672 121.858 208.502 97.4785 208.502L97.4685 208.472ZM163.648 206.522L149.608 242.142L135.568 206.522C138.558 203.742 145.808 196.382 149.608 186.942C153.418 196.372 160.658 203.742 163.648 206.522ZM245.958 164.252C245.958 188.632 226.128 208.462 201.748 208.462C177.368 208.462 157.538 188.632 157.538 164.252C157.538 160.632 157.978 157.032 158.848 153.542C163.308 146.892 169.708 141.582 177.338 138.542C177.358 138.542 177.378 138.522 177.398 138.512C177.888 138.322 178.378 138.132 178.878 137.962C179.018 137.912 179.168 137.862 179.308 137.812C179.708 137.672 180.108 137.542 180.518 137.422C180.808 137.332 181.098 137.252 181.388 137.172C181.678 137.092 181.958 137.012 182.248 136.932C182.848 136.782 183.448 136.642 184.058 136.512L221.458 128.812C221.458 128.812 221.558 128.792 221.608 128.782L222.098 128.682C222.098 128.682 222.118 128.682 222.128 128.672C223.498 128.372 224.938 128.022 226.498 127.602C238.708 135.862 245.968 149.472 245.968 164.232L245.958 164.252Z"></path>
<path fill="white" d="M149.298 80.752C148.478 80.752 147.658 80.642 146.848 80.432C144.418 79.782 142.388 78.222 141.128 76.042C139.868 73.862 139.538 71.322 140.188 68.892C140.838 66.462 142.398 64.432 144.578 63.172C146.758 61.912 149.298 61.582 151.728 62.232C154.158 62.882 156.188 64.442 157.448 66.622C158.708 68.802 159.038 71.342 158.388 73.772C157.738 76.202 156.178 78.232 153.998 79.492C152.548 80.332 150.938 80.762 149.298 80.762V80.752ZM149.278 66.752C148.488 66.752 147.708 66.962 146.998 67.362C145.938 67.972 145.188 68.952 144.868 70.132C144.548 71.312 144.718 72.542 145.328 73.602C146.588 75.782 149.388 76.532 151.568 75.272C152.628 74.662 153.378 73.682 153.698 72.502C154.018 71.322 153.848 70.092 153.238 69.032C152.628 67.972 151.638 67.222 150.468 66.902C150.078 66.792 149.678 66.742 149.278 66.742V66.752Z"></path>
<defs>
<linearGradient gradientUnits="userSpaceOnUse" y2="292.683" x2="149.598" y1="64.4831" x1="149.598" id="paint0_linear_1360_13298">
<stop stop-color="#FF0061"></stop>
<stop stop-opacity="0" stop-color="#FF0061" offset="1"></stop>
</linearGradient>
</defs>
</svg>
