<svg xmlns="http://www.w3.org/2000/svg" width="1em" height="1em" viewBox="0 0 32 32"><g fill="none"><path fill="url(#f2948idi)" d="M23.92 5.975c-.21-1.66-3.676-2.98-7.92-2.98s-7.71 1.32-7.92 2.98l-.01.156v19.734c0 1.734 3.55 3.14 7.93 3.14s7.93-1.406 7.93-3.14V6.17l-.01-.195Z"/><path fill="url(#f2948id0)" d="M23.92 5.975c-.21-1.66-3.676-2.98-7.92-2.98s-7.71 1.32-7.92 2.98l-.01.156v19.734c0 1.734 3.55 3.14 7.93 3.14s7.93-1.406 7.93-3.14V6.17l-.01-.195Z"/><path fill="url(#f2948idj)" d="M23.92 5.975c-.21-1.66-3.676-2.98-7.92-2.98s-7.71 1.32-7.92 2.98l-.01.156v19.734c0 1.734 3.55 3.14 7.93 3.14s7.93-1.406 7.93-3.14V6.17l-.01-.195Z"/><path fill="url(#f2948idk)" d="M23.92 5.975c-.21-1.66-3.676-2.98-7.92-2.98s-7.71 1.32-7.92 2.98l-.01.156v19.734c0 1.734 3.55 3.14 7.93 3.14s7.93-1.406 7.93-3.14V6.17l-.01-.195Z"/><path fill="url(#f2948id1)" d="M23.36 27.037V13.709H21v14.594c1.035-.334 1.854-.768 2.36-1.267Z"/><path fill="url(#f2948id2)" d="M11.031 28.313v-6.057l-2.96-.545v4.154c0 .99 1.155 1.872 2.96 2.448Z"/><rect width="1.039" height="8.141" x="8.985" y="6.912" fill="url(#f2948id3)" rx=".52"/><rect width="1.039" height="4.991" x="11.984" y="15.053" fill="url(#f2948id4)" rx=".52"/><path fill="url(#f2948id5)" d="M21.998 27.92v-3.97a.499.499 0 1 0-.998 0v4.353c.36-.116.694-.245.998-.384Z"/><path fill="url(#f2948idl)" d="M26.773 8.57a1 1 0 0 0-1.42-.025l-3.748 3.646c-.358.298-.605.941-.605 1.686c0 1.03.472 1.863 1.055 1.863c.22 0 .425-.12.595-.324l4.718-4.825a1 1 0 0 0 .008-1.39l-.603-.63Z"/><path fill="url(#f2948idm)" d="M26.773 8.57a1 1 0 0 0-1.42-.025l-3.748 3.646c-.358.298-.605.941-.605 1.686c0 1.03.472 1.863 1.055 1.863c.22 0 .425-.12.595-.324l4.718-4.825a1 1 0 0 0 .008-1.39l-.603-.63Z"/><path fill="url(#f2948id6)" d="M26.773 8.57a1 1 0 0 0-1.42-.025l-3.748 3.646c-.358.298-.605.941-.605 1.686c0 1.03.472 1.863 1.055 1.863c.22 0 .425-.12.595-.324l4.718-4.825a1 1 0 0 0 .008-1.39l-.603-.63Z"/><path fill="url(#f2948idn)" d="M26.773 8.57a1 1 0 0 0-1.42-.025l-3.748 3.646c-.358.298-.605.941-.605 1.686c0 1.03.472 1.863 1.055 1.863c.22 0 .425-.12.595-.324l4.718-4.825a1 1 0 0 0 .008-1.39l-.603-.63Z"/><path fill="url(#f2948id7)" d="M5.258 17.102a1 1 0 0 1 1.42-.026l3.748 3.646c.358.298.605.941.605 1.686c0 1.03-.472 1.863-1.055 1.863c-.22 0-.425-.12-.594-.324l-4.719-4.825a1 1 0 0 1-.008-1.39l.603-.63Z"/><path fill="url(#f2948id8)" d="M5.258 17.102a1 1 0 0 1 1.42-.026l3.748 3.646c.358.298.605.941.605 1.686c0 1.03-.472 1.863-1.055 1.863c-.22 0-.425-.12-.594-.324l-4.719-4.825a1 1 0 0 1-.008-1.39l.603-.63Z"/><path fill="url(#f2948id9)" d="M5.258 17.102a1 1 0 0 1 1.42-.026l3.748 3.646c.358.298.605.941.605 1.686c0 1.03-.472 1.863-1.055 1.863c-.22 0-.425-.12-.594-.324l-4.719-4.825a1 1 0 0 1-.008-1.39l.603-.63Z"/><path fill="url(#f2948ido)" d="M5.258 17.102a1 1 0 0 1 1.42-.026l3.748 3.646c.358.298.605.941.605 1.686c0 1.03-.472 1.863-1.055 1.863c-.22 0-.425-.12-.594-.324l-4.719-4.825a1 1 0 0 1-.008-1.39l.603-.63Z"/><path fill="url(#f2948ida)" d="M5.258 17.102a1 1 0 0 1 1.42-.026l3.748 3.646c.358.298.605.941.605 1.686c0 1.03-.472 1.863-1.055 1.863c-.22 0-.425-.12-.594-.324l-4.719-4.825a1 1 0 0 1-.008-1.39l.603-.63Z"/><path fill="url(#f2948idb)" d="M5.258 17.102a1 1 0 0 1 1.42-.026l3.748 3.646c.358.298.605.941.605 1.686c0 1.03-.472 1.863-1.055 1.863c-.22 0-.425-.12-.594-.324l-4.719-4.825a1 1 0 0 1-.008-1.39l.603-.63Z"/><path fill="url(#f2948idc)" d="M5.258 17.102a1 1 0 0 1 1.42-.026l3.748 3.646c.358.298.605.941.605 1.686c0 1.03-.472 1.863-1.055 1.863c-.22 0-.425-.12-.594-.324l-4.719-4.825a1 1 0 0 1-.008-1.39l.603-.63Z"/><path fill="url(#f2948idd)" d="M5.258 17.102a1 1 0 0 1 1.42-.026l3.748 3.646c.358.298.605.941.605 1.686c0 1.03-.472 1.863-1.055 1.863c-.22 0-.425-.12-.594-.324l-4.719-4.825a1 1 0 0 1-.008-1.39l.603-.63Z"/><path fill="url(#f2948idp)" d="M5.258 17.102a1 1 0 0 1 1.42-.026l3.748 3.646c.358.298.605.941.605 1.686c0 1.03-.472 1.863-1.055 1.863c-.22 0-.425-.12-.594-.324l-4.719-4.825a1 1 0 0 1-.008-1.39l.603-.63Z"/><g filter="url(#f2948idq)"><ellipse cx="16" cy="6.135" fill="url(#f2948ide)" rx="7.93" ry="3.141"/></g><ellipse cx="16" cy="5.984" fill="url(#f2948idf)" rx="7.015" ry="2.536"/><ellipse cx="16" cy="5.701" fill="url(#f2948idg)" rx="4.875" ry="1.638"/><ellipse fill="#E1A161" rx="2.675" ry=".703" transform="matrix(-1 0 0 1 16 5.547)"/><g filter="url(#f2948idr)"><path stroke="url(#f2948idh)" stroke-linecap="round" d="m5.999 17.813l4.806 4.878"/></g><defs><linearGradient id="f2948id0" x1="7.144" x2="14.385" y1="14.563" y2="14.563" gradientUnits="userSpaceOnUse"><stop stop-color="#503C39"/><stop offset="1" stop-color="#503C39" stop-opacity="0"/></linearGradient><linearGradient id="f2948id1" x1="22.18" x2="22.18" y1="15.29" y2="28.303" gradientUnits="userSpaceOnUse"><stop stop-color="#775B52"/><stop offset="1" stop-color="#866861"/></linearGradient><linearGradient id="f2948id2" x1="7.673" x2="10.787" y1="24.221" y2="24.221" gradientUnits="userSpaceOnUse"><stop stop-color="#584341"/><stop offset="1" stop-color="#644240"/></linearGradient><linearGradient id="f2948id3" x1="9.505" x2="9.505" y1="6.912" y2="15.053" gradientUnits="userSpaceOnUse"><stop stop-color="#A26651"/><stop offset="1" stop-color="#8B564A"/></linearGradient><linearGradient id="f2948id4" x1="12.504" x2="12.504" y1="15.053" y2="21.147" gradientUnits="userSpaceOnUse"><stop stop-color="#AB695C"/><stop offset="1" stop-color="#AB685D"/></linearGradient><linearGradient id="f2948id5" x1="21.499" x2="21.499" y1="23.451" y2="28.647" gradientUnits="userSpaceOnUse"><stop stop-color="#DB947E"/><stop offset="1" stop-color="#C9897C"/></linearGradient><linearGradient id="f2948id6" x1="22.813" x2="23.797" y1="10.303" y2="11.365" gradientUnits="userSpaceOnUse"><stop stop-color="#4C2B22"/><stop offset="1" stop-color="#4C2B22" stop-opacity="0"/></linearGradient><linearGradient id="f2948id7" x1="6.608" x2="9.005" y1="21.525" y2="18.971" gradientUnits="userSpaceOnUse"><stop stop-color="#5C3846"/><stop offset="1" stop-color="#654335"/></linearGradient><linearGradient id="f2948id8" x1="9.289" x2="8.516" y1="24.522" y2="23.091" gradientUnits="userSpaceOnUse"><stop stop-color="#5F4341"/><stop offset="1" stop-color="#5F4341" stop-opacity="0"/></linearGradient><linearGradient id="f2948id9" x1="9.26" x2="8.116" y1="18.885" y2="20.316" gradientUnits="userSpaceOnUse"><stop stop-color="#84645A"/><stop offset="1" stop-color="#84645A" stop-opacity="0"/></linearGradient><linearGradient id="f2948ida" x1="6.608" x2="9.005" y1="21.525" y2="18.971" gradientUnits="userSpaceOnUse"><stop stop-color="#5C3846"/><stop offset="1" stop-color="#654335"/></linearGradient><linearGradient id="f2948idb" x1="9.289" x2="8.516" y1="24.522" y2="23.091" gradientUnits="userSpaceOnUse"><stop stop-color="#5F4341"/><stop offset="1" stop-color="#5F4341" stop-opacity="0"/></linearGradient><linearGradient id="f2948idc" x1="9.26" x2="8.116" y1="18.885" y2="20.316" gradientUnits="userSpaceOnUse"><stop stop-color="#84645A"/><stop offset="1" stop-color="#84645A" stop-opacity="0"/></linearGradient><linearGradient id="f2948idd" x1="9.013" x2="8.799" y1="19.274" y2="19.478" gradientUnits="userSpaceOnUse"><stop stop-color="#664336"/><stop offset="1" stop-color="#664336" stop-opacity="0"/></linearGradient><linearGradient id="f2948ide" x1="6.703" x2="21.277" y1="6.135" y2="6.135" gradientUnits="userSpaceOnUse"><stop stop-color="#A77562"/><stop offset="1" stop-color="#C08067"/></linearGradient><linearGradient id="f2948idf" x1="21.587" x2="10.062" y1="5.68" y2="5.68" gradientUnits="userSpaceOnUse"><stop stop-color="#E4A261"/><stop offset="1" stop-color="#DAA061"/></linearGradient><linearGradient id="f2948idg" x1="12.625" x2="20.875" y1="4.428" y2="7.678" gradientUnits="userSpaceOnUse"><stop stop-color="#B77E65"/><stop offset="1" stop-color="#BB7E65"/></linearGradient><linearGradient id="f2948idh" x1="5.956" x2="11.274" y1="17.684" y2="23.078" gradientUnits="userSpaceOnUse"><stop stop-color="#87685F"/><stop offset="1" stop-color="#87685F" stop-opacity="0"/></linearGradient><radialGradient id="f2948idi" cx="0" cy="0" r="1" gradientTransform="matrix(-8.0625 0 0 -20.2575 20.5 10.303)" gradientUnits="userSpaceOnUse"><stop stop-color="#956860"/><stop offset="1" stop-color="#734544"/></radialGradient><radialGradient id="f2948idj" cx="0" cy="0" r="1" gradientTransform="matrix(-1.375 -4.09375 1.37533 -.46194 9.219 21.084)" gradientUnits="userSpaceOnUse"><stop offset=".239" stop-color="#42211C"/><stop offset="1" stop-color="#42211C" stop-opacity="0"/></radialGradient><radialGradient id="f2948idk" cx="0" cy="0" r="1" gradientTransform="matrix(.9902 -3.25723 1.59378 .48451 22.711 12.665)" gradientUnits="userSpaceOnUse"><stop offset=".24" stop-color="#5B322A"/><stop offset="1" stop-color="#5B322A" stop-opacity="0"/></radialGradient><radialGradient id="f2948idl" cx="0" cy="0" r="1" gradientTransform="rotate(135.588 10.637 10.516) scale(8.61832 2.91075)" gradientUnits="userSpaceOnUse"><stop stop-color="#704C4B"/><stop offset="1" stop-color="#643F3F"/></radialGradient><radialGradient id="f2948idm" cx="0" cy="0" r="1" gradientTransform="matrix(-.97523 .86688 -1.25206 -1.40855 27.255 8.855)" gradientUnits="userSpaceOnUse"><stop offset=".283" stop-color="#876C62"/><stop offset="1" stop-color="#876C62" stop-opacity="0"/></radialGradient><radialGradient id="f2948idn" cx="0" cy="0" r="1" gradientTransform="matrix(-3.8594 4.12497 -2.19268 -2.05152 25.125 11.24)" gradientUnits="userSpaceOnUse"><stop offset=".869" stop-color="#785C53" stop-opacity="0"/><stop offset=".961" stop-color="#785C53"/></radialGradient><radialGradient id="f2948ido" cx="0" cy="0" r="1" gradientTransform="matrix(.91202 .87294 -2.07845 2.1715 5.031 17.408)" gradientUnits="userSpaceOnUse"><stop offset=".057" stop-color="#634E48"/><stop offset="1" stop-color="#634E48" stop-opacity="0"/></radialGradient><radialGradient id="f2948idp" cx="0" cy="0" r="1" gradientTransform="matrix(.91202 .87294 -2.07845 2.1715 5.031 17.408)" gradientUnits="userSpaceOnUse"><stop offset=".057" stop-color="#634E48"/><stop offset="1" stop-color="#634E48" stop-opacity="0"/></radialGradient><filter id="f2948idq" width="15.959" height="6.382" x="7.97" y="2.894" color-interpolation-filters="sRGB" filterUnits="userSpaceOnUse"><feFlood flood-opacity="0" result="BackgroundImageFix"/><feBlend in="SourceGraphic" in2="BackgroundImageFix" result="shape"/><feColorMatrix in="SourceAlpha" result="hardAlpha" values="0 0 0 0 0 0 0 0 0 0 0 0 0 0 0 0 0 0 127 0"/><feOffset dx="-.1" dy="-.1"/><feGaussianBlur stdDeviation=".05"/><feComposite in2="hardAlpha" k2="-1" k3="1" operator="arithmetic"/><feColorMatrix values="0 0 0 0 0.8 0 0 0 0 0.576471 0 0 0 0 0.490196 0 0 0 1 0"/><feBlend in2="shape" result="effect1_innerShadow_18_5727"/></filter><filter id="f2948idr" width="7.807" height="7.878" x="4.499" y="16.313" color-interpolation-filters="sRGB" filterUnits="userSpaceOnUse"><feFlood flood-opacity="0" result="BackgroundImageFix"/><feBlend in="SourceGraphic" in2="BackgroundImageFix" result="shape"/><feGaussianBlur result="effect1_foregroundBlur_18_5727" stdDeviation=".5"/></filter></defs></g></svg>