<svg xmlns="http://www.w3.org/2000/svg" fill="none" viewBox="0 0 300 300" height="100%" width="100%">
<path fill="url(#paint0_linear_855_6736)" d="M229.813 81.6149C226.003 79.4149 221.243 80.3749 218.543 83.6549L201.693 76.4249C200.983 76.1249 200.183 76.1949 199.543 76.6149C199.513 76.6349 199.503 76.6549 199.473 76.6749L188.063 82.0949V72.0749C188.063 71.1649 187.523 70.3449 186.683 69.9849L152.053 55.1249V14.3349C152.053 13.0749 151.033 12.0549 149.773 12.0549C148.513 12.0549 147.493 13.0749 147.493 14.3349V15.4549C144.823 15.3749 140.333 15.4549 135.303 16.4749C124.673 18.6349 116.853 24.0049 112.683 31.9949C107.573 41.7849 92.3233 36.0249 92.1733 35.9649C91.2033 35.5849 90.0833 35.9149 89.4833 36.7749C88.8833 37.6349 88.9433 38.7949 89.6333 39.5849C90.2933 40.3449 103.143 54.8149 115.353 54.8149C118.213 54.8149 121.043 54.0249 123.663 52.0749C132.783 45.3149 143.923 49.4449 147.483 51.0749V55.1249L112.853 69.9849C112.013 70.3449 111.473 71.1649 111.473 72.0749V82.0949L100.063 76.6749C100.063 76.6749 100.023 76.6349 99.9933 76.6149C99.3533 76.1949 98.5433 76.1249 97.8433 76.4249L81.3633 83.4949C80.7333 82.7649 79.9833 82.1249 79.0933 81.6149C74.8533 79.1649 69.4133 80.6249 66.9733 84.8649C64.5333 89.1049 65.9833 94.5449 70.2233 96.9849C70.7033 97.2549 71.2033 97.4749 71.7033 97.6549V161.525C71.7033 161.525 71.7033 161.535 71.7033 161.545V204.495C71.8133 206.415 72.1033 208.345 72.5633 210.265C72.5633 210.315 72.5933 210.365 72.6033 210.425C79.6033 239.105 123.523 266.825 141.313 277.025C140.433 280.735 142.033 284.745 145.503 286.755C146.893 287.555 148.423 287.945 149.923 287.945C152.993 287.945 155.983 286.355 157.623 283.505C158.833 281.405 159.083 279.015 158.523 276.835C177.793 265.785 226.043 235.135 227.783 204.375V97.8149C229.913 97.2049 231.823 95.8049 233.023 93.7349C235.473 89.4949 234.013 84.0549 229.773 81.6149H229.813Z"></path>
<path fill="white" d="M229.813 81.6149C226.003 79.4149 221.243 80.3749 218.543 83.6549L201.693 76.4249C200.983 76.1249 200.183 76.1949 199.543 76.6149C199.513 76.6349 199.503 76.6549 199.473 76.6749L188.063 82.0949V72.0749C188.063 71.1649 187.523 70.3449 186.683 69.9849L152.053 55.1249V14.3349C152.053 13.0749 151.033 12.0549 149.773 12.0549C148.513 12.0549 147.493 13.0749 147.493 14.3349V15.4549C144.823 15.3749 140.333 15.4549 135.303 16.4749C124.673 18.6349 116.853 24.0049 112.683 31.9949C107.573 41.7849 92.3233 36.0249 92.1733 35.9649C91.2033 35.5849 90.0833 35.9149 89.4833 36.7749C88.8833 37.6349 88.9433 38.7949 89.6333 39.5849C90.2933 40.3449 103.143 54.8149 115.353 54.8149C118.213 54.8149 121.043 54.0249 123.663 52.0749C132.783 45.3149 143.923 49.4449 147.483 51.0749V55.1249L112.853 69.9849C112.013 70.3449 111.473 71.1649 111.473 72.0749V82.0949L100.063 76.6749C100.063 76.6749 100.023 76.6349 99.9933 76.6149C99.3533 76.1949 98.5433 76.1249 97.8433 76.4249L81.3633 83.4949C80.7333 82.7649 79.9833 82.1249 79.0933 81.6149C74.8533 79.1649 69.4133 80.6249 66.9733 84.8649C64.5333 89.1049 65.9833 94.5449 70.2233 96.9849C70.7033 97.2549 71.2033 97.4749 71.7033 97.6549V161.525C71.7033 161.525 71.7033 161.535 71.7033 161.545V204.495C71.8133 206.415 72.1033 208.345 72.5633 210.265C72.5633 210.315 72.5933 210.365 72.6033 210.425C79.6033 239.105 123.523 266.825 141.313 277.025C140.433 280.745 142.033 284.755 145.503 286.755C146.893 287.555 148.423 287.945 149.923 287.945C152.993 287.945 155.983 286.355 157.623 283.505C158.833 281.405 159.083 279.015 158.523 276.835C177.793 265.785 226.043 235.135 227.783 204.375V97.8149C229.913 97.2049 231.823 95.8049 233.023 93.7349C235.473 89.4949 234.013 84.0549 229.773 81.6149H229.813ZM218.103 84.2249C217.963 84.4249 217.823 84.6349 217.693 84.8549C217.823 84.6349 217.953 84.4249 218.103 84.2249ZM188.063 87.0349C188.253 87.0049 188.453 86.9449 188.643 86.8549L198.513 82.1649V95.9949L188.063 91.5049V87.0249V87.0349ZM152.053 60.0749L183.513 73.5749V93.0149C183.513 93.9249 184.053 94.7449 184.893 95.1049L199.893 101.545C200.593 101.855 201.403 101.775 202.043 101.355C202.683 100.935 203.063 100.215 203.063 99.4549V81.9749L216.633 87.7949C216.023 91.3549 217.623 95.0749 220.933 96.9849C221.683 97.4149 222.463 97.7149 223.263 97.9149V160.725L175.233 140.105C174.463 139.775 173.573 140.135 173.243 140.905C172.913 141.675 173.273 142.565 174.043 142.895L183.273 146.855C183.263 146.935 183.253 147.005 183.253 147.085V167.245L152.063 153.745V60.0849L152.053 60.0749ZM217.683 84.8649C217.543 85.1049 217.423 85.3549 217.303 85.6049C217.413 85.3549 217.543 85.1049 217.683 84.8649ZM217.103 86.0949C217.073 86.1749 217.033 86.2549 217.013 86.3349C217.043 86.2549 217.073 86.1749 217.103 86.0949ZM216.803 86.9949C216.803 86.9949 216.793 87.0349 216.783 87.0549C216.783 87.0349 216.793 87.0149 216.803 86.9949ZM211.023 158.765V179.265L186.213 168.525C186.243 168.395 186.273 168.265 186.273 168.135V148.145L211.033 158.775L211.023 158.765ZM152.043 157.045L195.943 176.045C195.923 176.155 195.903 176.265 195.903 176.375V194.995L152.043 176.165V157.035V157.045ZM120.963 48.4149C114.263 53.3849 104.813 47.2549 98.8133 42.1249C105.383 42.7549 112.953 41.3149 116.733 34.0949C123.823 20.5049 141.513 19.8249 147.503 20.0049V46.1049C142.003 43.9449 130.793 41.1149 120.963 48.4049V48.4149ZM101.043 82.1649L110.913 86.8549C111.103 86.9449 111.293 86.9949 111.493 87.0349V91.5149L101.043 96.0049V82.1649ZM82.3733 93.7349C83.4933 91.8049 83.7833 89.6249 83.3833 87.5849L96.4933 81.9649V99.4449C96.4933 100.205 96.8833 100.925 97.5133 101.345C98.1533 101.765 98.9633 101.835 99.6633 101.535L114.663 95.0949C115.503 94.7349 116.043 93.9149 116.043 93.0049V73.5649L147.503 60.0649V68.8149C147.503 68.8149 147.503 68.8149 147.503 68.8249V130.135L76.2833 160.725V98.0149C76.5133 97.9749 76.7533 97.9349 76.9833 97.8749C79.2733 97.2649 81.1833 95.7949 82.3733 93.7349ZM137.243 159.795C136.913 159.025 136.023 158.675 135.253 158.995L110.963 169.425V149.655C110.963 149.485 110.933 149.335 110.883 149.185L147.503 133.465V176.185L130.093 183.655V164.515L136.453 161.785C137.223 161.455 137.583 160.565 137.253 159.795H137.243ZM100.153 177.365L127.053 165.815V184.195C127.053 184.445 127.123 184.675 127.223 184.885L100.443 196.375V178.255C100.443 177.915 100.333 177.615 100.143 177.365H100.153ZM76.2833 164.025L107.923 150.445V170.705C107.923 170.705 107.923 170.715 107.923 170.725L76.2833 184.305V164.025ZM70.9433 87.1449C72.1333 85.0849 74.7833 84.3749 76.8533 85.5649C78.9133 86.7549 79.6233 89.4049 78.4333 91.4749C77.8533 92.4749 76.9233 93.1949 75.8133 93.4849C74.6933 93.7849 73.5333 93.6349 72.5333 93.0549C70.4733 91.8649 69.7633 89.2149 70.9533 87.1449H70.9433ZM73.7233 98.1149C74.0333 98.1449 74.3533 98.1749 74.6733 98.1749C74.3533 98.1749 74.0433 98.1449 73.7233 98.1149ZM76.2833 187.605L97.4133 178.535V197.675L76.5133 206.645C76.4033 205.885 76.3233 205.125 76.2833 204.365V187.605ZM141.693 275.915C141.723 275.835 141.753 275.755 141.783 275.685C141.753 275.765 141.723 275.845 141.693 275.915ZM142.863 273.765C142.863 273.765 142.883 273.735 142.903 273.715C142.893 273.735 142.883 273.745 142.863 273.765ZM153.733 281.215C152.543 283.275 149.893 283.985 147.833 282.795C145.773 281.605 145.063 278.955 146.253 276.885C147.053 275.495 148.513 274.725 150.003 274.725C150.733 274.725 151.473 274.915 152.153 275.305C154.213 276.495 154.923 279.145 153.733 281.215ZM158.163 275.635C158.163 275.635 158.203 275.725 158.223 275.775C158.203 275.725 158.183 275.685 158.163 275.635ZM157.683 274.645C157.683 274.645 157.713 274.705 157.733 274.735C157.713 274.705 157.703 274.675 157.683 274.645ZM156.293 272.815C155.743 272.265 155.133 271.765 154.423 271.365C150.783 269.265 146.273 270.045 143.523 272.985C127.983 264.025 92.0633 241.445 80.1633 217.735L148.253 188.515V263.485C148.253 264.325 148.933 265.005 149.773 265.005C150.613 265.005 151.293 264.325 151.293 263.485V188.505L219.353 217.715C207.453 241.265 171.953 263.755 156.303 272.825L156.293 272.815ZM220.623 214.955L150.373 184.805C150.373 184.805 150.363 184.805 150.353 184.805C150.283 184.775 150.213 184.755 150.143 184.735C150.113 184.735 150.093 184.715 150.063 184.715C149.993 184.705 149.923 184.695 149.853 184.695C149.823 184.695 149.793 184.695 149.773 184.695C149.713 184.695 149.663 184.695 149.603 184.715C149.563 184.715 149.523 184.715 149.483 184.725C149.443 184.725 149.403 184.745 149.363 184.755C149.303 184.775 149.243 184.785 149.193 184.805C149.193 184.805 149.183 184.805 149.173 184.805L78.8833 214.985C78.3533 213.715 77.8933 212.445 77.5133 211.175L149.773 180.165L222.003 211.165C221.623 212.435 221.153 213.705 220.623 214.975V214.955ZM223.023 206.635L198.953 196.305V177.345L216.273 184.845C216.473 184.925 216.673 184.965 216.873 184.965C217.463 184.965 218.023 184.625 218.263 184.055C218.593 183.285 218.243 182.395 217.473 182.055L214.063 180.575V160.065L223.263 164.015V204.225C223.223 205.025 223.133 205.825 223.013 206.635H223.023ZM224.313 98.0949C224.663 98.1349 225.013 98.1649 225.363 98.1649C225.013 98.1649 224.663 98.1449 224.313 98.0949ZM226.603 98.0649C226.603 98.0649 226.623 98.0649 226.633 98.0649C226.623 98.0649 226.613 98.0649 226.603 98.0649ZM229.123 91.4449C227.933 93.5049 225.283 94.2149 223.223 93.0249C221.163 91.8349 220.453 89.1849 221.643 87.1149C222.443 85.7249 223.903 84.9549 225.393 84.9549C226.123 84.9549 226.863 85.1449 227.543 85.5349C229.603 86.7249 230.313 89.3749 229.123 91.4449Z"></path>
<path fill="white" d="M106.773 214.265C106.133 213.845 105.333 213.775 104.623 214.075L95.4333 218.015C94.5933 218.375 94.0533 219.195 94.0533 220.105V225.235C94.0533 226.015 94.4533 226.745 95.1133 227.165L104.303 232.945C104.673 233.175 105.093 233.295 105.513 233.295C105.893 233.295 106.273 233.205 106.613 233.015C107.333 232.615 107.793 231.855 107.793 231.025V216.165C107.793 215.405 107.403 214.685 106.773 214.265ZM103.243 226.905L98.6033 223.985V221.605L103.243 219.615V226.905Z"></path>
<path fill="white" d="M122.543 244.005C122.923 244.005 123.303 243.915 123.643 243.725C124.363 243.325 124.823 242.565 124.823 241.735V208.855C124.823 208.095 124.433 207.375 123.803 206.955C123.163 206.535 122.353 206.465 121.653 206.765L112.463 210.705C111.623 211.065 111.083 211.885 111.083 212.795V235.945C111.083 236.725 111.483 237.455 112.143 237.875L121.333 243.655C121.703 243.885 122.123 244.005 122.543 244.005ZM120.263 237.605L115.623 234.685V214.285L120.263 212.295V237.605Z"></path>
<path fill="white" d="M129.173 248.595L137.963 254.125C138.323 254.355 138.743 254.475 139.173 254.475H139.573C140.833 254.475 141.853 253.455 141.853 252.195V201.545C141.853 200.785 141.463 200.065 140.833 199.645C140.193 199.225 139.393 199.155 138.683 199.455L129.493 203.395C128.653 203.755 128.113 204.575 128.113 205.485V246.655C128.113 247.435 128.513 248.165 129.173 248.585V248.595ZM132.663 206.995L137.303 205.005V248.325L132.663 245.405V206.985V206.995Z"></path>
<path fill="white" d="M192.933 233.015C193.273 233.205 193.653 233.295 194.033 233.295C194.453 233.295 194.873 233.175 195.243 232.945L204.433 227.165C205.093 226.745 205.493 226.025 205.493 225.235V220.105C205.493 219.195 204.953 218.375 204.113 218.015L194.923 214.075C194.223 213.775 193.413 213.845 192.773 214.265C192.133 214.685 191.753 215.405 191.753 216.165V231.025C191.753 231.855 192.203 232.615 192.933 233.015ZM196.313 219.615L200.953 221.605V223.985L196.313 226.905V219.615Z"></path>
<path fill="white" d="M175.903 243.725C176.243 243.915 176.623 244.005 177.003 244.005C177.423 244.005 177.843 243.885 178.213 243.655L187.403 237.875C188.063 237.455 188.463 236.735 188.463 235.945V212.795C188.463 211.885 187.923 211.065 187.083 210.705L177.893 206.765C177.193 206.465 176.383 206.535 175.743 206.955C175.103 207.375 174.723 208.095 174.723 208.855V241.735C174.723 242.565 175.173 243.325 175.903 243.725ZM179.283 212.305L183.923 214.295V234.695L179.283 237.615V212.305Z"></path>
<path fill="white" d="M159.973 254.475H160.373C160.803 254.475 161.223 254.355 161.583 254.125L170.373 248.595C171.033 248.175 171.433 247.455 171.433 246.665V205.495C171.433 204.585 170.893 203.765 170.053 203.405L160.863 199.465C160.163 199.165 159.353 199.235 158.713 199.655C158.073 200.075 157.693 200.795 157.693 201.555V252.205C157.693 253.465 158.713 254.485 159.973 254.485V254.475ZM162.253 205.005L166.893 206.995V245.415L162.253 248.335V205.005Z"></path>
<path fill="white" d="M156.193 267.555C156.453 267.555 156.713 267.485 156.943 267.355C158.103 266.695 159.373 265.955 160.743 265.135C168.983 260.245 176.793 255.115 183.973 249.875C184.653 249.385 184.793 248.435 184.303 247.755C183.813 247.075 182.863 246.925 182.183 247.425C175.183 252.535 167.233 257.755 159.193 262.525C157.843 263.325 156.583 264.065 155.433 264.715C154.703 265.135 154.453 266.055 154.873 266.785C155.153 267.275 155.663 267.545 156.193 267.545V267.555Z"></path>
<path fill="white" d="M144.103 264.715C142.953 264.055 141.703 263.325 140.343 262.515C132.303 257.745 124.363 252.525 117.363 247.415C116.683 246.925 115.733 247.075 115.243 247.745C114.753 248.425 114.893 249.375 115.573 249.865C122.753 255.105 130.563 260.245 138.803 265.125C140.173 265.935 141.443 266.675 142.603 267.345C142.843 267.485 143.103 267.545 143.353 267.545C143.883 267.545 144.393 267.275 144.673 266.785C145.093 266.055 144.843 265.135 144.113 264.715H144.103Z"></path>
<path fill="white" d="M87.7933 146.925C88.1733 147.175 88.6033 147.305 89.0533 147.305C89.3533 147.305 89.6533 147.245 89.9433 147.125L131.103 129.615C131.943 129.255 132.493 128.435 132.493 127.525V97.7049C132.493 96.9449 132.113 96.2249 131.473 95.8049C130.833 95.3849 130.033 95.3049 129.323 95.6049L88.1633 113.115C87.3233 113.475 86.7733 114.295 86.7733 115.205V145.025C86.7733 145.785 87.1533 146.505 87.7933 146.925ZM91.3233 117.975L100.473 122.325V137.695L91.3233 141.595V117.975ZM127.933 126.015L103.513 136.405V122.395L127.933 112.475V109.195L102.043 119.705L93.6633 115.725L127.933 101.145V126.015Z"></path>
<path fill="white" d="M212.553 147.305C212.993 147.305 213.433 147.175 213.813 146.925C214.453 146.505 214.833 145.795 214.833 145.025V115.205C214.833 114.295 214.283 113.465 213.443 113.115L172.283 95.6049C171.583 95.3049 170.773 95.3749 170.133 95.8049C169.493 96.2249 169.113 96.9349 169.113 97.7049V127.525C169.113 128.435 169.663 129.265 170.503 129.615L211.663 147.125C211.953 147.245 212.253 147.305 212.553 147.305ZM207.943 115.725L199.563 119.705L173.673 109.195V101.145L207.943 115.725ZM173.673 112.475L198.093 122.395V136.405L199.293 136.915L173.683 126.015V112.475H173.673ZM210.283 141.595L201.133 137.695V122.325L210.283 117.975V116.715V141.595Z"></path>
<defs>
<linearGradient gradientUnits="userSpaceOnUse" y2="265.445" x2="150.033" y1="38.2649" x1="150.033" id="paint0_linear_855_6736">
<stop stop-color="#5CD6ED"></stop>
<stop stop-opacity="0" stop-color="#5CD6ED" offset="1"></stop>
</linearGradient>
</defs>
</svg>
