<?xml version="1.0" encoding="UTF-8"?>
<!DOCTYPE svg PUBLIC "-//W3C//DTD SVG 1.1//EN" "http://www.w3.org/Graphics/SVG/1.1/DTD/svg11.dtd">
<!-- Creator: CorelDRAW 2021 (64-Bit Evaluation Version) -->
<svg xmlns="http://www.w3.org/2000/svg" xml:space="preserve" width="1.30378in" height="0.509067in" version="1.1" style="shape-rendering:geometricPrecision; text-rendering:geometricPrecision; image-rendering:optimizeQuality; fill-rule:evenodd; clip-rule:evenodd"
viewBox="0 0 469.45 183.3"
 xmlns:xlink="http://www.w3.org/1999/xlink"
 xmlns:xodm="http://www.corel.com/coreldraw/odm/2003">
 <defs>
  <style type="text/css">
   <![CDATA[
    .fil2 {fill:#2B2B2A;fill-rule:nonzero}
    .fil0 {fill:#727272;fill-rule:nonzero}
    .fil1 {fill:#BD3523;fill-rule:nonzero}
   ]]>
  </style>
 </defs>
 <g id="Layer_x0020_1">
  <metadata id="CorelCorpID_0Corel-Layer"/>
  <polygon class="fil0" points="4.46,116.78 0.14,124.14 464.81,123.96 469.34,116.4 "/>
  <path class="fil1" d="M-0 175.65l4.11 0 0 -14.98 6.66 0 8.69 14.98 4.68 0 -9.26 -15.7 0 -0.26c4.32,-1.35 6.81,-4.16 6.81,-9.15 0,-6.29 -3.85,-9.78 -11.55,-9.78l-10.14 0 0 34.89zm4.11 -18.2l0 -13.21 5.72 0c5.36,0 7.49,2.03 7.49,6.34 0,4.52 -1.98,6.87 -7.44,6.87l-5.77 0zm35.88 18.67c4.16,0 7.13,-1.3 8.69,-2.39l0 -2.96c-2.34,1.09 -4.63,1.92 -8.06,1.92 -5.51,0 -8.58,-2.49 -8.79,-8.94l17.58 0 0 -2.24c0,-8.01 -3.33,-12.12 -10.4,-12.12 -5.93,0 -11.23,4 -11.23,13l0 0.73c0,8.06 4.11,13 12.22,13zm-1.09 -23.5c4.21,0 6.35,2.34 6.35,7.96l-13.42 0c0.42,-6.08 3.85,-7.96 7.07,-7.96zm25.69 23.5c3.48,0 5.98,-1.09 7.54,-2.6l0.21 0 0.47 2.13 3.33 0 0 -37.23 -4 0 0 12.69c-1.4,-0.83 -3.59,-1.72 -6.76,-1.72 -6.66,0 -11.49,4.06 -11.49,13.42l0 0.68c0,9.52 5.56,12.64 10.71,12.64zm1.2 -3.27c-4.63,0 -7.75,-2.29 -7.75,-9.52l0 -1.04c0,-6.97 2.96,-9.52 7.85,-9.52 2.65,0 5.05,0.73 6.24,1.66l0 16.23c-1.3,1.04 -3.33,2.18 -6.35,2.18z"/>
  <path class="fil0" d="M104.32 175.65l4.06 0 0 -31.41 10.66 0 0 -3.48 -25.38 0 0 3.48 10.66 0 0 31.41zm30.58 0.47c4.16,0 7.12,-1.3 8.68,-2.39l0 -2.96c-2.34,1.09 -4.63,1.92 -8.06,1.92 -5.51,0 -8.58,-2.49 -8.79,-8.94l17.58 0 0 -2.24c0,-8.01 -3.33,-12.12 -10.4,-12.12 -5.93,0 -11.23,4 -11.23,13l0 0.73c0,8.06 4.11,13 12.22,13zm-1.09 -23.5c4.21,0 6.35,2.34 6.35,7.96l-13.42 0c0.42,-6.08 3.85,-7.96 7.07,-7.96zm22.78 23.5c3.48,0 5.67,-1.25 6.87,-2.7l0.26 0 0.42 2.24 3.23 0 0 -18.67c0,-5.25 -3.17,-7.59 -8.84,-7.59 -2.97,0 -5.46,0.47 -7.7,1.4l0 2.86c1.61,-0.47 3.64,-0.83 6.14,-0.83 4.63,0 6.4,1.04 6.4,5.04l0 2.7 -6.97 0.83c-4.94,0.57 -7.85,2.96 -7.85,7.49 0,4.84 3.38,7.23 8.06,7.23zm0.99 -3.12c-2.97,0 -4.89,-1.4 -4.89,-4.21 0,-2.96 1.56,-4.26 4.73,-4.58l5.93 -0.68 0 7.59c-1.09,1.09 -3.38,1.87 -5.77,1.87zm17.27 2.65l3.95 0 0 -20.96c2.08,-0.99 4.37,-1.87 6.55,-1.87 3.43,0 4.68,1.3 4.68,4.42l0 18.41 3.95 0 0 -19.24c0,-0.63 -0.05,-1.09 -0.15,-1.72 2.44,-1.09 4.63,-1.87 6.66,-1.87 3.49,0 4.73,1.3 4.73,4.42l0 18.41 3.9 0 0 -19.24c0,-4.99 -2.6,-7.02 -7.07,-7.02 -2.91,0 -5.93,1.04 -8.74,2.86l-0.21 0c-1.2,-1.92 -3.28,-2.86 -6.19,-2.86 -2.91,0 -5.67,1.2 -8.06,2.7l-0.21 0 0 -2.24 -3.8 0 0 25.79zm41.91 0l3.95 0 0 -25.74 -3.95 0 0 25.74zm-0.05 -30.94l4.06 0 0 -4.16 -4.06 0 0 4.16zm11.7 30.94l3.95 0 0 -20.96c2.13,-0.99 4.84,-1.87 7.28,-1.87 4.11,0 5.2,1.3 5.2,4.42l0 18.41 3.95 0 0 -19.24c0,-4.99 -2.45,-7.02 -7.49,-7.02 -3.17,0 -6.5,1.14 -8.89,2.7l-0.21 0 0 -2.24 -3.8 0 0 25.79zm36.87 7.65c8.79,0 12.32,-3.48 12.32,-7.9 0,-4.79 -3.48,-6.19 -8.16,-6.19l-7.12 0c-1.72,0 -2.55,-0.52 -2.55,-1.92 0,-0.83 0.52,-1.46 1.2,-2.08 1.35,0.47 2.81,0.73 4.42,0.73 5.41,0 9.67,-2.76 9.67,-8.27l0 -0.05c0,-2.03 -0.67,-3.59 -1.87,-4.73l4.63 0 0 -3.07 -8.74 0c-1.14,-0.26 -2.34,-0.42 -3.64,-0.42 -5.67,0 -9.72,2.96 -9.72,8.32l0 0.1c0,3.07 1.25,5.15 3.23,6.45 -1.98,1.46 -2.91,2.65 -2.91,4.26 0,1.72 1.14,2.81 2.6,3.23l0 0.26c-2.65,0.88 -4.89,2.49 -4.89,5.25 0,3.75 3.69,6.03 11.55,6.03zm-0.1 -3.12c-5.1,0 -7.28,-1.14 -7.28,-3.43 0,-2.18 1.51,-3.33 3.48,-4l7.44 0c3.38,0 4.63,0.78 4.63,3.17 0,2.7 -2.18,4.26 -8.27,4.26zm0.21 -17.37c-3.43,0 -5.72,-1.66 -5.72,-5.04l0 -0.26c0,-3.22 2.18,-5.1 5.72,-5.1 3.48,0 5.67,1.61 5.67,5.15l0 0.26c0,3.33 -2.08,4.99 -5.67,4.99zm39.05 13.47c8.17,0 11.7,-4.06 11.7,-10.14 0,-5.88 -3.28,-8.06 -8.42,-9.83l-3.43 -1.09c-3.95,-1.35 -5.2,-2.81 -5.2,-6.14 0,-3.33 2.39,-5.41 6.66,-5.41 3.85,0 6.6,0.99 8.63,1.93l0 -3.48c-1.92,-0.94 -4.37,-1.92 -8.48,-1.92 -7.28,0 -10.87,3.85 -10.87,9.26 0,5.3 2.76,7.8 7.65,9.41l3.38 1.2c4.21,1.35 5.93,2.81 5.93,6.4 0,3.8 -2.34,6.29 -7.7,6.29 -3.69,0 -7.12,-0.94 -9.78,-2.29l0 3.48c2.34,1.3 5.67,2.34 9.93,2.34zm28.66 -0.16c4.16,0 7.13,-1.3 8.69,-2.39l0 -2.96c-2.34,1.09 -4.63,1.92 -8.06,1.92 -5.51,0 -8.58,-2.49 -8.79,-8.94l17.58 0 0 -2.24c0,-8.01 -3.33,-12.12 -10.4,-12.12 -5.93,0 -11.23,4 -11.23,13l0 0.73c0,8.06 4.11,13 12.22,13zm-1.09 -23.5c4.21,0 6.35,2.34 6.35,7.96l-13.42 0c0.42,-6.08 3.85,-7.96 7.07,-7.96zm16.49 23.04l4 0 0 -20.28c1.82,-1.3 4.32,-2.24 6.92,-2.24 0.42,0 1.2,0.05 1.87,0.16l0 -3.59c-0.26,-0.05 -0.99,-0.1 -1.56,-0.1 -2.91,0 -5.72,1.51 -7.18,3.17l-0.26 0 0 -2.91 -3.8 0 0 25.79z"/>
  <path class="fil0" d="M374.02 175.65l3.95 0 9.57 -25.79 -3.9 0 -7.44 20.75 -0.21 0 -7.23 -20.75 -4.32 0 9.57 25.79zm18.72 0l3.95 0 0 -25.74 -3.95 0 0 25.74zm-0.05 -30.94l4.06 0 0 -4.16 -4.06 0 0 4.16zm22 31.41c3.59,0 5.88,-1.04 7.54,-2.03l0 -3.22c-1.3,0.73 -3.59,1.82 -7.07,1.82 -5.51,0 -8.27,-2.96 -8.27,-9.57l0 -1.25c0,-5.93 3.07,-9.1 7.75,-9.1 3.38,0 5.04,0.63 7.33,1.66l0 -3.33c-1.72,-1.09 -3.74,-1.72 -7.12,-1.72 -6.66,0 -12.07,3.95 -12.07,13.11l0 0.78c0,8.48 4.52,12.84 11.91,12.84zm23.72 0c4.16,0 7.12,-1.3 8.69,-2.39l0 -2.96c-2.34,1.09 -4.63,1.92 -8.06,1.92 -5.51,0 -8.58,-2.49 -8.79,-8.94l17.58 0 0 -2.24c0,-8.01 -3.33,-12.12 -10.4,-12.12 -5.93,0 -11.23,4 -11.23,13l0 0.73c0,8.06 4.11,13 12.22,13zm-1.09 -23.5c4.21,0 6.35,2.34 6.35,7.96l-13.42 0c0.42,-6.08 3.85,-7.96 7.07,-7.96zm23.04 23.45c5.67,0 9.1,-2.7 9.1,-7.59 0,-4.47 -2.03,-6.14 -6.97,-7.44l-2.6 -0.73c-2.76,-0.78 -3.85,-1.72 -3.85,-3.95 0,-2.39 1.72,-3.59 5.2,-3.59 2.86,0 5.46,0.68 6.81,1.35l0 -3.23c-1.35,-0.73 -3.59,-1.51 -7.02,-1.51 -5.93,0 -8.79,2.96 -8.79,7.33 0,4.37 2.55,6.08 6.29,7.12l2.55 0.68c3.28,0.94 4.47,1.98 4.47,4.37 0,2.34 -1.66,3.8 -5.77,3.8 -3.64,0 -5.51,-0.78 -7.75,-1.61l0 3.17c2.13,1.2 4.94,1.82 8.32,1.82z"/>
  <path class="fil2" d="M22.27 100.14c15.07,0 24.2,-7.19 24.2,-20.19 0,-11.89 -5.39,-16.32 -18.53,-19.78l-6.92 -1.94c-7.33,-2.07 -10.23,-4.56 -10.23,-10.51 0,-6.36 4.56,-9.54 13.83,-9.54 7.61,0 14.52,1.8 18.12,3.6l0 -8.58c-3.6,-1.94 -9.54,-4.01 -18.67,-4.01 -15.77,0 -23.37,7.88 -23.37,19.5 0,11.62 6.78,16.18 16.73,18.95l6.78 1.8c8.71,2.49 11.89,5.26 11.89,11.62 0,6.22 -4.43,10.09 -15.35,10.09 -9.68,0 -14.66,-2.07 -20.6,-4.29l0 8.44c5.67,3.18 13.14,4.84 22.13,4.84zm93.07 0.14c9.27,0 15.07,-3.32 18.25,-7.19l0.69 0 1.11 5.95 8.57 0 0 -49.65c0,-13.97 -8.44,-20.19 -23.51,-20.19 -7.88,0 -14.52,1.24 -20.47,3.73l0 7.61c4.29,-1.24 9.68,-2.21 16.32,-2.21 12.31,0 17.01,2.77 17.01,13.41l0 7.19 -18.53 2.21c-13.14,1.52 -20.88,7.88 -20.88,19.91 0,12.86 8.99,19.22 21.43,19.22zm2.63 -8.3c-7.88,0 -13,-3.73 -13,-11.2 0,-7.88 4.15,-11.34 12.58,-12.17l15.77 -1.8 0 20.19c-2.9,2.9 -8.99,4.98 -15.35,4.98zm63.34 8.16c15.07,0 24.2,-7.19 24.2,-20.19 0,-11.89 -5.39,-16.32 -18.53,-19.78l-6.92 -1.94c-7.33,-2.07 -10.23,-4.56 -10.23,-10.51 0,-6.36 4.56,-9.54 13.83,-9.54 7.61,0 14.52,1.8 18.12,3.6l0 -8.58c-3.6,-1.94 -9.54,-4.01 -18.67,-4.01 -15.77,0 -23.37,7.88 -23.37,19.5 0,11.62 6.78,16.18 16.73,18.95l6.78 1.8c8.71,2.49 11.89,5.26 11.89,11.62 0,6.22 -4.43,10.09 -15.35,10.09 -9.68,0 -14.66,-2.07 -20.6,-4.29l0 8.44c5.67,3.18 13.14,4.84 22.13,4.84zm39.97 -1.11l10.51 0 0 -55.59c5.67,-2.77 12.86,-5.12 19.36,-5.12 10.93,0 13.83,3.46 13.83,11.75l0 48.96 10.51 0 0 -51.03c0,-13.28 -6.5,-18.81 -19.91,-18.81 -8.44,0 -17.15,2.9 -23.1,7.19l-0.69 0 0 -36.37 -10.51 0 0 99.02z"/>
  <path class="fil1" d="M312.82 100.14c15.07,0 24.2,-7.19 24.2,-20.19 0,-11.89 -5.39,-16.32 -18.53,-19.78l-6.92 -1.94c-7.33,-2.07 -10.23,-4.56 -10.23,-10.51 0,-6.36 4.56,-9.54 13.83,-9.54 7.61,0 14.52,1.8 18.12,3.6l0 -8.58c-3.6,-1.94 -9.54,-4.01 -18.67,-4.01 -15.77,0 -23.37,7.88 -23.37,19.5 0,11.62 6.78,16.18 16.73,18.95l6.78 1.8c8.71,2.49 11.89,5.26 11.89,11.62 0,6.22 -4.43,10.09 -15.35,10.09 -9.68,0 -14.66,-2.07 -20.6,-4.29l0 8.44c5.67,3.18 13.14,4.84 22.13,4.84zm68.18 0.14c11.06,0 18.95,-3.46 23.1,-6.36l0 -7.88c-6.22,2.9 -12.31,5.12 -21.44,5.12 -14.66,0 -22.82,-6.64 -23.37,-23.79l46.74 0 0 -5.95c0,-21.3 -8.85,-32.22 -27.66,-32.22 -15.77,0 -29.87,10.65 -29.87,34.57l0 1.94c0,21.44 10.93,34.57 32.5,34.57zm-2.9 -62.51c11.2,0 16.87,6.22 16.87,21.16l-35.68 0c1.11,-16.18 10.23,-21.16 18.81,-21.16zm71.22 62.51c9.54,0 15.63,-2.77 20.05,-5.39l0 -8.57c-3.46,1.94 -9.54,4.84 -18.81,4.84 -14.66,0 -21.99,-7.88 -21.99,-25.45l0 -3.32c0,-15.77 8.16,-24.2 20.6,-24.2 8.99,0 13.41,1.66 19.5,4.43l0 -8.85c-4.56,-2.9 -9.96,-4.56 -18.95,-4.56 -17.7,0 -32.08,10.51 -32.08,34.85l0 2.07c0,22.54 12.03,34.16 31.67,34.16z"/>
  <polygon class="fil1" points="82.48,0.05 94.28,0 67.18,100.17 55.31,100.17 "/>
 </g>
</svg>
