<?xml version="1.0" encoding="UTF-8" standalone="no"?>
<!-- Created with Vectornator (http://vectornator.io/) -->

<svg
   height="262.96075"
   stroke-miterlimit="10"
   style="clip-rule:evenodd;fill-rule:nonzero;stroke-linecap:round;stroke-linejoin:round"
   version="1.1"
   viewBox="0 0 1193.6681 262.96075"
   width="1193.6681"
   xml:space="preserve"
   id="svg13"
   sodipodi:docname="syslifters-logo.svg"
   inkscape:version="1.3.2 (091e20ef0f, 2023-11-25)"
   xmlns:inkscape="http://www.inkscape.org/namespaces/inkscape"
   xmlns:sodipodi="http://sodipodi.sourceforge.net/DTD/sodipodi-0.dtd"
   xmlns="http://www.w3.org/2000/svg"
   xmlns:svg="http://www.w3.org/2000/svg"
   xmlns:vectornator="http://vectornator.io"><sodipodi:namedview
   id="namedview13"
   pagecolor="#ffffff"
   bordercolor="#000000"
   borderopacity="0.25"
   inkscape:showpageshadow="2"
   inkscape:pageopacity="0.0"
   inkscape:pagecheckerboard="0"
   inkscape:deskcolor="#d1d1d1"
   inkscape:zoom="0.96212094"
   inkscape:cx="595.55922"
   inkscape:cy="229.70085"
   inkscape:window-width="1920"
   inkscape:window-height="1014"
   inkscape:window-x="0"
   inkscape:window-y="0"
   inkscape:window-maximized="1"
   inkscape:current-layer="svg13"><inkscape:page
     x="0"
     y="0"
     width="1193.6681"
     height="262.96075"
     id="page13"
     margin="0 0 557.10254"
     bleed="0" /></sodipodi:namedview>
<defs
   id="defs1" />
<g
   id="Untitled"
   vectornator:layerName="Untitled"
   transform="translate(-11.433074,-280.63)">
<g
   opacity="1"
   vectornator:layerName="g"
   id="g13">
<path
   d="m 990.57,431.692 c -0.15,-0.59 -0.22,-1.32 -0.22,-2.2 0,-0.88 0.44,-1.61 1.32,-2.2 6.02,-4.55 10.75,-10.2 14.2,-16.95 3.45,-6.75 5.17,-13.94 5.17,-21.58 0,-8.95 -2.24,-17.17 -6.71,-24.66 -4.48,-7.49 -10.53,-13.43 -18.16,-17.83 -7.63,-4.4 -16,-6.6 -25.1,-6.6 H 915.5 c -1.18,0 -2.17,0.41 -2.97,1.21 -0.81,0.81 -1.21,1.8 -1.21,2.97 v 35.45 c 0,1.47 0.55,2.75 1.65,3.85 1.1,1.1 2.38,1.65 3.85,1.65 h 14.53 c 1.61,0 2.93,-0.55 3.96,-1.65 1.02,-1.1 1.54,-2.38 1.54,-3.85 v -5.5 c 0,-1.47 0.55,-2.75 1.65,-3.85 1.1,-1.1 2.46,-1.65 4.07,-1.65 h 18.49 c 5.87,0 10.82,1.98 14.86,5.94 4.04,3.96 6.06,8.81 6.06,14.53 0,5.58 -2.02,10.35 -6.06,14.31 -4.04,3.96 -8.99,5.94 -14.86,5.94 h -45.57 c -1.18,0 -2.17,0.41 -2.97,1.21 -0.81,0.81 -1.21,1.8 -1.21,2.97 v 76.84 c 0,1.18 0.4,2.13 1.21,2.86 0.81,0.74 1.8,1.1 2.97,1.1 h 17.17 c 1.17,0 2.16,-0.36 2.97,-1.1 0.8,-0.73 1.21,-1.69 1.21,-2.86 v -48.44 c 0,-1.61 0.47,-2.68 1.43,-3.19 0.95,-0.51 2.31,-0.77 4.07,-0.77 h 18.71 c 2.2,0 3.67,0.15 4.4,0.44 0.73,0.3 1.32,0.88 1.76,1.76 l 22.9,51.52 c 0.58,1.18 1.28,1.91 2.09,2.2 0.81,0.3 2.02,0.44 3.63,0.44 h 18.05 c 2.05,0 3.08,-0.81 3.08,-2.42 0,-0.88 -0.3,-1.83 -0.88,-2.86 z"
   fill="#1e1e1d"
   fill-opacity="0.9"
   fill-rule="nonzero"
   opacity="1"
   stroke="none"
   vectornator:layerName="path"
   id="path1" />
<path
   d="m 899.37,466.832 h -75.78 c -1.03,0 -1.98,-0.44 -2.86,-1.32 -0.88,-0.88 -1.32,-1.83 -1.32,-2.86 v -24.01 c 0,-3.08 1.69,-4.63 5.07,-4.63 h 56.18 c 1.03,0 1.91,-0.33 2.64,-0.99 0.73,-0.66 1.1,-1.5 1.1,-2.53 v -18.95 c 0,-1.03 -0.37,-1.87 -1.1,-2.53 -0.74,-0.66 -1.62,-0.99 -2.64,-0.99 h -55.52 c -3.82,0 -5.73,-1.39 -5.73,-4.19 v -15.86 c 0,-1.17 -0.37,-2.13 -1.1,-2.86 -0.74,-0.73 -1.69,-1.1 -2.86,-1.1 h -18.73 c -1.03,0 -1.95,0.37 -2.75,1.1 -0.81,0.74 -1.21,1.69 -1.21,2.86 v 101.78 c 0,1.03 0.4,1.95 1.21,2.75 0.81,0.81 1.72,1.21 2.75,1.21 h 102.65 c 1.17,0 2.13,-0.4 2.86,-1.21 0.73,-0.8 1.1,-1.72 1.1,-2.75 v -18.95 c 0,-1.17 -0.37,-2.13 -1.1,-2.86 -0.73,-0.74 -1.69,-1.11 -2.86,-1.11 z"
   fill="#1e1e1d"
   fill-opacity="0.9"
   fill-rule="nonzero"
   opacity="1"
   stroke="none"
   vectornator:layerName="path"
   id="path2" />
<path
   d="m 796.71,366.602 h 102.22 c 1.17,0 2.16,-0.44 2.97,-1.32 0.81,-0.88 1.21,-1.84 1.21,-2.86 v -18.95 c 0,-1.03 -0.41,-1.95 -1.21,-2.75 -0.81,-0.8 -1.8,-1.21 -2.97,-1.21 H 796.71 c -1.03,0 -1.95,0.37 -2.75,1.1 -0.81,0.74 -1.21,1.69 -1.21,2.86 v 18.95 c 0,1.18 0.4,2.17 1.21,2.97 0.8,0.8 1.72,1.21 2.75,1.21 z"
   fill="#1e1e1d"
   fill-opacity="0.9"
   fill-rule="nonzero"
   opacity="1"
   stroke="none"
   vectornator:layerName="path"
   id="path3" />
<path
   d="m 542.39,340.452 h -21.91 c -1.02,0 -1.97,0.4 -2.85,1.21 -0.88,0.8 -1.31,1.79 -1.31,2.96 v 145.46 c 0,1.02 0.4,1.94 1.21,2.74 0.8,0.8 1.79,1.21 2.96,1.21 h 21.91 c 1.17,0 2.12,-0.4 2.85,-1.21 0.73,-0.8 1.1,-1.71 1.1,-2.74 v -145.47 c 0,-1.17 -0.4,-2.15 -1.2,-2.96 -0.83,-0.79 -1.74,-1.2 -2.76,-1.2 z"
   fill="#1e1e1d"
   fill-opacity="0.9"
   fill-rule="nonzero"
   opacity="1"
   stroke="none"
   vectornator:layerName="path"
   id="path4" />
<path
   d="m 647.35,379.702 h -63.93 c -1.7,0.27 -5.47,1.3 -6.24,5.22 v 23.57 c 0.02,0.2 0.04,0.41 0.04,0.62 v 20.5 h -0.04 v 60.66 c 0,0.97 0.38,1.85 1.15,2.61 0.76,0.77 1.7,1.15 2.82,1.15 h 20.86 c 1.11,0 2.01,-0.38 2.71,-1.15 0.69,-0.76 1.04,-1.63 1.04,-2.61 v -54.04 h 0.03 v -27.12 c 0,-1.23 0.46,-2.31 1.38,-3.27 0.92,-0.95 2.03,-1.43 3.35,-1.43 h 36.83 c 0.66,0 1.25,-0.27 1.77,-0.82 0.52,-0.54 0.79,-1.23 0.79,-2.04 v -19 c 0,-0.82 -0.26,-1.5 -0.79,-2.04 -0.52,-0.54 -1.12,-0.81 -1.77,-0.81 z"
   fill="#1e1e1d"
   fill-opacity="0.9"
   fill-rule="nonzero"
   opacity="1"
   stroke="none"
   vectornator:layerName="path"
   id="path5" />
<path
   d="m 501.92,466.232 h -51.17 c -1.13,0 -2.11,-0.47 -2.96,-1.42 -0.85,-0.95 -1.27,-2 -1.27,-3.17 v -116.4 c 0,-1.17 -0.42,-2.22 -1.27,-3.17 -0.85,-0.95 -1.9,-1.42 -3.17,-1.42 h -22.84 c -1.13,0 -2.15,0.48 -3.07,1.42 -0.92,0.95 -1.37,2.01 -1.37,3.17 v 144.18 c 0,1.31 0.46,2.41 1.37,3.28 0.92,0.88 1.94,1.31 3.07,1.31 h 82.68 c 1.27,0 2.33,-0.44 3.17,-1.31 0.85,-0.88 1.27,-1.97 1.27,-3.28 v -18.82 c 0,-1.17 -0.42,-2.19 -1.27,-3.06 -0.84,-0.87 -1.9,-1.31 -3.17,-1.31 z"
   fill="#1e1e1d"
   fill-opacity="0.9"
   fill-rule="nonzero"
   opacity="1"
   stroke="none"
   vectornator:layerName="path"
   id="path6" />
<path
   d="M 779.62,339.752 H 678.08 c -1.02,0 -1.94,0.37 -2.74,1.09 -0.8,0.73 -1.2,1.68 -1.2,2.84 v 18.82 c 0,1.17 0.4,2.15 1.2,2.95 0.8,0.8 1.71,1.2 2.74,1.2 h 14.05 c 1.39,0.04 2.58,0.5 3.57,1.42 1.03,0.96 1.54,2.17 1.54,3.63 v 119.27 c 0,1.91 0.95,2.86 2.86,2.86 h 26.18 c 0.73,0 1.39,-0.25 1.98,-0.77 0.58,-0.51 0.88,-1.21 0.88,-2.09 v -119.26 c 0,-1.32 0.51,-2.49 1.54,-3.52 0.99,-0.99 2.18,-1.49 3.58,-1.53 h 45.35 c 1.17,0 2.15,-0.44 2.95,-1.31 0.8,-0.88 1.2,-1.82 1.2,-2.85 v -18.82 c 0,-1.02 -0.4,-1.93 -1.2,-2.74 -0.79,-0.79 -1.77,-1.19 -2.94,-1.19 z"
   fill="#1e1e1d"
   fill-opacity="0.9"
   fill-rule="nonzero"
   opacity="1"
   stroke="none"
   vectornator:layerName="path"
   id="path7" />
<path
   d="M 660.96,339.752 H 559.42 c -1.02,0 -1.94,0.37 -2.74,1.09 -0.8,0.73 -1.2,1.68 -1.2,2.84 v 18.82 c 0,1.17 0.4,2.15 1.2,2.95 0.8,0.8 1.71,1.2 2.74,1.2 h 101.54 c 1.17,0 2.15,-0.44 2.95,-1.31 0.8,-0.88 1.2,-1.82 1.2,-2.85 v -18.82 c 0,-1.02 -0.4,-1.93 -1.2,-2.74 -0.8,-0.78 -1.79,-1.18 -2.95,-1.18 z"
   fill="#1e1e1d"
   fill-opacity="0.9"
   fill-rule="nonzero"
   opacity="1"
   stroke="none"
   vectornator:layerName="path"
   id="path8" />
<path
   d="m 279.93,345.972 c -3.55,-4.24 -7.77,-7.68 -12.47,-10.57 -0.23,-0.14 -0.48,-0.3 -0.73,-0.33 -0.24,-0.02 -0.57,0.06 -0.73,0.22 -0.3,0.32 -0.54,0.71 -0.75,1.1 -1.18,2.21 -2.35,4.44 -3.52,6.66 -10.17,19.17 -20.13,38.46 -30.44,57.57 -4.9,9.08 -9.63,18.25 -14.43,27.38 -2.26,4.29 -4.31,8.68 -6.07,13.19 -2.52,6.46 -4.45,13.07 -5.32,19.97 -1.01,7.98 -0.26,15.75 2.58,23.3 0.35,0.92 0.73,1.84 1.17,2.72 2.39,4.77 5.47,9.05 9.19,12.87 2.65,2.73 5.75,4.84 9.01,6.77 0.27,-0.18 0.55,-0.27 0.68,-0.47 0.34,-0.52 0.62,-1.09 0.91,-1.65 15.05,-28.57 30.1,-57.14 45.14,-85.71 0.38,-0.71 0.72,-1.44 1.07,-2.17 0.54,-1.13 1.03,-2.29 1.61,-3.4 2.46,-4.69 4.74,-9.46 6.65,-14.41 2.54,-6.55 4.5,-13.24 5.3,-20.25 0.51,-4.48 0.54,-8.94 -0.14,-13.41 -1.09,-7.28 -3.99,-13.74 -8.71,-19.38 z"
   fill="#3facaf"
   fill-opacity="0.9"
   fill-rule="nonzero"
   opacity="1"
   stroke="none"
   vectornator:layerName="path"
   id="path9" />
<path
   d="m 207.23,408.872 c 1.14,1.31 3.38,1.31 4.53,-0.02 0.41,-0.47 0.73,-1.02 1.03,-1.56 2.84,-5.19 5.68,-10.38 8.49,-15.58 0.42,-0.78 0.79,-1.61 1.09,-2.45 0.7,-1.91 0.72,-3.85 0.12,-5.8 -0.39,-1.29 -0.94,-2.51 -1.58,-3.7 -2.74,-5.14 -5.48,-10.28 -8.2,-15.43 -2.35,-4.43 -4.68,-8.88 -7.04,-13.31 -0.42,-0.79 -0.87,-1.57 -1.37,-2.31 -0.62,-0.94 -1.51,-1.54 -2.64,-1.67 -0.98,-0.11 -1.96,-0.21 -2.94,-0.22 -3.23,-0.03 -6.45,-0.01 -9.68,-0.01 v 0 c -3.14,0 -6.27,0 -9.41,0 -0.63,0 -1.26,-0.03 -1.88,0.04 -0.52,0.06 -1.06,0.2 -1.55,0.4 -0.71,0.29 -1.11,0.88 -1.22,1.64 -0.1,0.73 -0.03,1.44 0.3,2.1 0.37,0.72 0.75,1.43 1.14,2.13 9.53,17.36 19.06,34.72 28.59,52.07 0.43,0.79 0.84,1.58 1.29,2.36 0.28,0.46 0.58,0.92 0.93,1.32 z"
   fill="#3facaf"
   fill-opacity="0.9"
   fill-rule="nonzero"
   opacity="1"
   stroke="none"
   vectornator:layerName="path"
   id="path10" />
<path
   d="m 381.99,416.012 c -6.91,-3.27 -15.86,-6.8 -26.84,-10.57 -3,-1.2 -6.32,-2.64 -9.98,-4.31 -6.15,-2.81 -10.27,-4.89 -12.34,-6.23 -5.19,-3.26 -7.78,-7.12 -7.78,-11.56 0,-2.81 1.15,-5.59 3.45,-8.34 2.3,-2.74 5.45,-5.08 9.45,-7.01 5.34,-2.07 11.04,-3.11 17.12,-3.11 5.19,0 10.38,0.74 15.57,2.22 4.45,1.19 9.71,3.48 15.79,6.89 0.74,0.45 1.48,0.67 2.22,0.67 0.89,0 1.56,-0.22 2,-0.67 l 0.22,-0.22 c -0.04,0 -0.06,0.02 -0.09,0.03 l 2.53,-3.59 c 4.3,-6.08 6.82,-9.93 7.56,-11.56 0.15,-0.29 0,-0.81 -0.45,-1.56 -0.44,-0.74 -1.04,-1.41 -1.78,-2 -4,-3.41 -8.31,-6.3 -12.9,-8.67 -4.91,-2.31 -10.67,-4.05 -17.27,-5.24 -7.48,-1.67 -14.47,-1.97 -20.79,-1.45 -0.21,0.01 -0.42,0.01 -0.64,0.02 -0.56,0.06 -1.12,0.14 -1.67,0.21 -0.45,0.05 -0.9,0.11 -1.35,0.17 -0.07,0.01 -0.14,0.02 -0.21,0.03 -10.8,1.5 -19.31,5.26 -24.48,8.09 -1.11,0.6 -2.17,1.22 -3.2,1.88 -1.54,0.97 -2.37,1.61 -2.37,1.61 v 0 c -3.74,2.72 -6.88,5.87 -9.42,9.45 -2.99,4.21 -4.98,8.84 -5.99,13.9 -0.9,3.19 -1.35,6.46 -1.35,9.81 0,6.97 2.07,13.72 6.23,20.24 3.41,4.89 8.64,9.01 15.68,12.34 6.91,3.27 15.86,6.8 26.84,10.57 3,1.2 6.32,2.64 9.98,4.31 6.15,2.81 10.27,4.89 12.34,6.23 5.19,3.26 7.78,7.12 7.78,11.56 0,2.81 -1.15,5.59 -3.45,8.34 -2.3,2.74 -5.45,5.08 -9.45,7.01 -5.34,2.07 -11.04,3.11 -17.12,3.11 -5.19,0 -10.38,-0.74 -15.57,-2.22 -4.45,-1.19 -9.71,-3.48 -15.79,-6.89 -0.74,-0.45 -1.48,-0.67 -2.22,-0.67 -0.89,0 -1.56,0.22 -2,0.67 l -0.22,0.22 c 0.04,0 0.06,-0.02 0.09,-0.03 l -2.53,3.59 c -4.3,6.08 -6.82,9.93 -7.56,11.56 -0.15,0.29 0,0.81 0.45,1.56 0.44,0.74 1.04,1.41 1.78,2 4,3.41 8.31,6.3 12.9,8.67 5.04,2.37 10.97,4.15 17.79,5.34 6.82,1.19 13.79,1.63 20.9,1.34 9.79,-1.04 18.46,-3.75 26.02,-8.12 7.56,-4.37 13.46,-9.82 17.68,-16.35 4.23,-6.53 6.34,-13.42 6.34,-20.68 0,-6.97 -2.07,-13.72 -6.23,-20.24 -3.4,-4.9 -8.62,-9.02 -15.67,-12.35 z"
   fill="#1e1e1d"
   fill-opacity="0.9"
   fill-rule="nonzero"
   opacity="1"
   stroke="none"
   vectornator:layerName="path"
   id="path11" />
<path
   d="m 149.93,415.962 c -6.91,-3.27 -15.86,-6.8 -26.84,-10.57 -3,-1.2 -6.32,-2.64 -9.98,-4.31 -6.15,-2.81 -10.27,-4.89 -12.34,-6.23 -5.19,-3.26 -7.78,-7.12 -7.78,-11.56 0,-2.81 1.15,-5.59 3.45,-8.34 2.3,-2.74 5.45,-5.08 9.45,-7.01 5.34,-2.07 11.04,-3.11 17.12,-3.11 5.19,0 10.38,0.74 15.57,2.22 4.45,1.19 9.71,3.48 15.79,6.89 0.74,0.45 1.48,0.67 2.22,0.67 0.89,0 1.56,-0.22 2,-0.67 l 0.22,-0.22 c -0.04,0 -0.06,0.02 -0.09,0.03 l 2.53,-3.59 c 4.3,-6.08 6.82,-9.93 7.56,-11.56 0.15,-0.29 0,-0.81 -0.45,-1.56 -0.44,-0.74 -1.04,-1.41 -1.78,-2 -4,-3.41 -8.31,-6.3 -12.9,-8.67 -5.04,-2.37 -10.97,-4.15 -17.79,-5.34 -6.82,-1.19 -13.79,-1.63 -20.9,-1.34 -9.79,1.04 -18.46,3.75 -26.02,8.12 -7.56,4.37 -13.46,9.82 -17.68,16.35 -4.23,6.53 -6.34,13.42 -6.34,20.68 0,6.97 2.07,13.72 6.23,20.24 3.41,4.89 8.64,9.01 15.68,12.34 6.91,3.27 15.86,6.8 26.84,10.57 3,1.2 6.32,2.64 9.98,4.31 6.15,2.81 10.27,4.89 12.34,6.23 5.19,3.26 7.78,7.12 7.78,11.56 0,2.81 -1.15,5.59 -3.45,8.34 -2.3,2.74 -5.45,5.08 -9.45,7.01 -5.34,2.07 -11.04,3.11 -17.12,3.11 -5.19,0 -10.38,-0.74 -15.57,-2.22 -4.45,-1.19 -9.71,-3.48 -15.79,-6.89 -0.74,-0.45 -1.48,-0.67 -2.22,-0.67 -0.89,0 -1.56,0.22 -2,0.67 l -0.22,0.22 c 0.04,0 0.06,-0.02 0.09,-0.03 l -2.53,3.59 c -4.3,6.08 -6.82,9.93 -7.56,11.56 -0.15,0.29 0,0.81 0.45,1.56 0.44,0.74 1.04,1.41 1.78,2 4,3.41 8.31,6.3 12.9,8.67 4.91,2.31 10.67,4.05 17.27,5.24 7.48,1.67 14.47,1.97 20.79,1.45 0.21,-0.01 0.42,-0.01 0.64,-0.02 0.56,-0.06 1.12,-0.14 1.67,-0.21 0.45,-0.05 0.9,-0.11 1.35,-0.17 0.07,-0.01 0.14,-0.02 0.21,-0.03 10.8,-1.5 19.31,-5.26 24.48,-8.09 1.11,-0.6 2.17,-1.22 3.2,-1.88 1.54,-0.97 2.37,-1.61 2.37,-1.61 v 0 c 3.74,-2.72 6.88,-5.87 9.42,-9.45 2.99,-4.21 4.98,-8.84 5.99,-13.9 0.9,-3.19 1.35,-6.46 1.35,-9.81 0,-6.97 -2.07,-13.72 -6.23,-20.24 -3.42,-4.88 -8.65,-8.99 -15.69,-12.33 z"
   fill="#1e1e1d"
   fill-opacity="0.9"
   fill-rule="nonzero"
   opacity="1"
   stroke="none"
   vectornator:layerName="path"
   id="path12" />
<path
   d="m 1119.38,428.502 c -3.41,-4.89 -8.64,-9.01 -15.68,-12.34 -6.91,-3.27 -15.86,-6.8 -26.84,-10.57 -3,-1.2 -6.32,-2.64 -9.98,-4.31 -6.15,-2.81 -10.27,-4.89 -12.34,-6.23 -5.19,-3.26 -7.78,-7.12 -7.78,-11.56 0,-2.81 1.15,-5.59 3.45,-8.34 2.3,-2.74 5.45,-5.08 9.45,-7.01 5.34,-2.07 11.04,-3.11 17.12,-3.11 5.19,0 10.38,0.74 15.57,2.22 4.45,1.19 9.71,3.48 15.79,6.89 0.74,0.45 1.48,0.67 2.22,0.67 0.89,0 1.56,-0.22 2,-0.67 l 0.22,-0.22 c -0.04,0 -0.06,0.02 -0.09,0.03 l 2.53,-3.59 c 4.3,-6.08 6.82,-9.93 7.56,-11.56 0.15,-0.29 0,-0.81 -0.45,-1.56 -0.44,-0.74 -1.04,-1.41 -1.78,-2 -4,-3.41 -8.31,-6.3 -12.9,-8.67 -4.91,-2.31 -10.67,-4.05 -17.27,-5.24 -7.48,-1.67 -14.47,-1.97 -20.79,-1.45 -0.21,0.01 -0.42,0.01 -0.64,0.02 -0.56,0.06 -1.12,0.14 -1.67,0.21 -0.45,0.05 -0.9,0.11 -1.35,0.17 -0.07,0.01 -0.14,0.02 -0.21,0.03 -10.8,1.5 -19.31,5.26 -24.48,8.09 -1.11,0.6 -2.17,1.22 -3.2,1.88 -1.54,0.97 -2.37,1.61 -2.37,1.61 v 0 c -3.74,2.72 -6.88,5.87 -9.42,9.45 -2.99,4.21 -4.98,8.84 -5.99,13.9 -0.9,3.19 -1.35,6.46 -1.35,9.81 0,6.97 2.07,13.72 6.23,20.24 3.41,4.89 8.64,9.01 15.68,12.34 6.91,3.27 15.86,6.8 26.84,10.57 3,1.2 6.32,2.64 9.98,4.31 6.15,2.81 10.27,4.89 12.34,6.23 5.19,3.26 7.78,7.12 7.78,11.56 0,2.81 -1.15,5.59 -3.45,8.34 -2.3,2.74 -5.45,5.08 -9.45,7.01 -5.34,2.07 -11.04,3.11 -17.12,3.11 -5.19,0 -10.38,-0.74 -15.57,-2.22 -4.45,-1.19 -9.71,-3.48 -15.79,-6.89 -0.74,-0.45 -1.48,-0.67 -2.22,-0.67 -0.89,0 -1.56,0.22 -2,0.67 l -0.22,0.22 c 0.04,0 0.06,-0.02 0.09,-0.03 l -2.53,3.59 c -4.3,6.08 -6.82,9.93 -7.56,11.56 -0.15,0.29 0,0.81 0.45,1.56 0.44,0.74 1.04,1.41 1.78,2 4,3.41 8.31,6.3 12.9,8.67 5.04,2.37 10.97,4.15 17.79,5.34 6.82,1.19 13.79,1.63 20.9,1.34 9.79,-1.04 18.46,-3.75 26.02,-8.12 7.56,-4.37 13.46,-9.82 17.68,-16.35 4.23,-6.53 6.34,-13.42 6.34,-20.68 0.01,-6.98 -2.07,-13.73 -6.22,-20.25 z"
   fill="#1e1e1d"
   fill-opacity="0.9"
   fill-rule="nonzero"
   opacity="1"
   stroke="none"
   vectornator:layerName="path"
   id="path13" />
</g>
</g>
</svg>
