<svg xmlns="http://www.w3.org/2000/svg" fill="none" viewBox="0 0 300 300" height="300" width="300">
<path fill="url(#paint0_linear_855_6718)" d="M218.659 230.14C219.069 230.42 219.549 230.55 220.019 230.55C220.559 230.55 221.109 230.37 221.549 230.01L243.659 212.24C244.779 213.12 246.069 213.78 247.479 214.16C248.389 214.41 249.309 214.52 250.219 214.52C254.889 214.52 259.179 211.4 260.449 206.67C261.179 203.94 260.809 201.09 259.389 198.64C257.979 196.19 255.689 194.44 252.959 193.71C250.219 192.98 247.369 193.35 244.929 194.77C242.479 196.18 240.729 198.47 239.999 201.2C239.269 203.93 239.639 206.78 241.059 209.23C241.229 209.53 241.419 209.81 241.609 210.09C241.409 209.81 241.229 209.53 241.059 209.23C240.899 208.96 240.769 208.68 240.629 208.4L219.879 225.08L198.619 210.92L196.969 199.76L220.739 180.17C221.089 180.43 221.449 180.68 221.839 180.91C223.469 181.85 225.279 182.33 227.119 182.33C228.039 182.33 228.969 182.21 229.879 181.97C232.609 181.24 234.889 179.49 236.309 177.04C237.719 174.59 238.099 171.74 237.369 169.01C236.639 166.28 234.889 163.99 232.439 162.58C229.989 161.17 227.139 160.79 224.409 161.52C221.679 162.25 219.399 164 217.979 166.45C216.569 168.9 216.189 171.75 216.919 174.48C217.099 175.15 217.339 175.79 217.639 176.4L196.149 194.11L191.769 164.45C191.479 161.99 199.369 152.64 204.079 147.05C211.439 138.32 215.959 132.78 216.209 129.14C216.499 124.74 212.809 119.49 209.229 114.42C206.879 111.08 204.219 107.3 204.069 105.39C204.069 105.36 204.059 105.33 204.049 105.3C209.759 97.02 212.789 87.57 212.789 77.9C212.779 48.17 184.569 24 149.909 24C115.249 24 87.0293 48.17 87.0293 77.89C87.0293 87.56 90.0493 97.01 95.7593 105.29C95.7593 105.32 95.7493 105.35 95.7393 105.38C95.5893 107.28 92.9293 111.07 90.5793 114.41C87.0093 119.49 83.3093 124.74 83.5993 129.13C83.8393 132.78 88.3693 138.31 95.7293 147.04C100.439 152.63 108.329 161.99 108.029 164.52L103.659 194.11L82.1593 176.4C82.4593 175.8 82.7093 175.16 82.8893 174.48C83.6193 171.75 83.2493 168.9 81.8293 166.45C80.4193 164 78.1293 162.25 75.3993 161.52C72.6693 160.79 69.8093 161.16 67.3693 162.58C64.9193 163.99 63.1693 166.28 62.4393 169.01C61.7093 171.74 62.0793 174.59 63.4993 177.04C64.9093 179.49 67.1993 181.24 69.9293 181.97C70.8493 182.22 71.7593 182.33 72.6693 182.33C75.0093 182.33 77.2493 181.55 79.0693 180.17L102.839 199.76L101.189 210.92L79.9293 225.08L59.1793 208.4C60.2293 206.15 60.4593 203.62 59.8093 201.19C59.0793 198.46 57.3293 196.18 54.8793 194.76C52.4293 193.35 49.5793 192.97 46.8493 193.7C44.1193 194.43 41.8393 196.18 40.4193 198.63C38.9993 201.08 38.6293 203.93 39.3593 206.66C40.0893 209.39 41.8393 211.67 44.2893 213.09C45.9193 214.03 47.7293 214.51 49.5693 214.51C50.4893 214.51 51.4093 214.39 52.3293 214.15C53.7493 213.77 55.0393 213.11 56.1493 212.23L78.2593 230C78.7093 230.36 79.2493 230.54 79.7893 230.54M219.739 179.3C219.739 179.3 219.809 179.37 219.839 179.4C219.809 179.37 219.769 179.33 219.739 179.3ZM218.309 177.58C218.309 177.58 218.239 177.48 218.209 177.43C218.239 177.48 218.279 177.53 218.309 177.58ZM219.039 178.55C218.989 178.5 218.949 178.44 218.899 178.39C218.939 178.44 218.989 178.5 219.039 178.55ZM79.8893 179.45C79.9493 179.39 80.0093 179.33 80.0693 179.28C80.0093 179.34 79.9493 179.4 79.8893 179.45ZM81.5593 177.46C81.5593 177.46 81.5493 177.48 81.5393 177.49C81.5393 177.48 81.5493 177.47 81.5593 177.46ZM80.8193 178.47C80.8193 178.47 80.8093 178.48 80.7993 178.49C80.7993 178.49 80.8093 178.48 80.8193 178.47ZM58.1893 210.08C58.3893 209.8 58.5693 209.52 58.7393 209.22C58.5693 209.52 58.3793 209.8 58.1893 210.08ZM242.209 210.86C242.209 210.86 242.169 210.8 242.139 210.77C242.159 210.8 242.179 210.83 242.209 210.86Z"></path>
<path fill="white" d="M259.389 198.64C257.979 196.19 255.689 194.44 252.959 193.71C250.219 192.98 247.369 193.35 244.929 194.77C242.479 196.18 240.729 198.47 239.999 201.2C239.269 203.93 239.639 206.78 241.059 209.23C242.469 211.68 244.759 213.43 247.489 214.16C248.399 214.41 249.319 214.52 250.229 214.52C254.899 214.52 259.189 211.4 260.459 206.67C261.189 203.94 260.819 201.09 259.399 198.64H259.389Z"></path>
<path fill="white" d="M232.429 162.57C229.979 161.16 227.129 160.78 224.399 161.51C221.669 162.24 219.389 163.99 217.969 166.44C216.559 168.89 216.179 171.74 216.909 174.47C217.639 177.2 219.389 179.48 221.839 180.9C223.469 181.84 225.279 182.32 227.119 182.32C228.039 182.32 228.969 182.2 229.879 181.96C232.609 181.23 234.889 179.48 236.309 177.03C237.729 174.58 238.099 171.73 237.369 169C236.639 166.27 234.889 163.98 232.439 162.57H232.429Z"></path>
<path fill="white" d="M230.889 252.81C228.159 252.08 225.299 252.45 222.859 253.87C220.409 255.28 218.659 257.57 217.929 260.3C217.199 263.03 217.569 265.88 218.989 268.33C220.399 270.78 222.689 272.53 225.419 273.26C226.329 273.51 227.249 273.62 228.159 273.62C232.829 273.62 237.119 270.5 238.389 265.77C239.899 260.13 236.539 254.32 230.899 252.81H230.889ZM233.649 264.51C233.259 265.98 232.309 267.21 230.999 267.97C229.679 268.73 228.149 268.93 226.679 268.54C225.209 268.15 223.979 267.21 223.219 265.89C222.459 264.57 222.259 263.04 222.649 261.57C223.039 260.1 223.989 258.87 225.299 258.11C226.179 257.6 227.149 257.34 228.139 257.34C228.629 257.34 229.129 257.41 229.619 257.54C232.649 258.35 234.459 261.48 233.649 264.51Z"></path>
<path fill="white" d="M71.6593 273.62C66.9893 273.62 62.6993 270.5 61.4293 265.77C60.6993 263.04 61.0693 260.19 62.4893 257.74C63.8993 255.29 66.1893 253.54 68.9193 252.81C71.6493 252.08 74.4993 252.45 76.9493 253.87C79.3993 255.28 81.1493 257.57 81.8793 260.3C82.6093 263.03 82.2393 265.88 80.8193 268.33C79.4093 270.78 77.1193 272.53 74.3893 273.26C73.4793 273.51 72.5593 273.62 71.6493 273.62H71.6593ZM71.6593 257.34C71.1693 257.34 70.6693 257.41 70.1793 257.54C68.7093 257.93 67.4793 258.88 66.7193 260.19C65.9593 261.51 65.7593 263.04 66.1493 264.51C66.5393 265.98 67.4893 267.21 68.7993 267.97C70.1193 268.73 71.6493 268.93 73.1193 268.54C76.1493 267.73 77.9593 264.6 77.1493 261.57C76.7593 260.1 75.8093 258.87 74.4993 258.11C73.6193 257.6 72.6493 257.34 71.6593 257.34Z"></path>
<path fill="white" d="M99.2793 82.47C97.9293 82.47 96.8293 81.37 96.8293 80.02C96.8293 54.78 120.759 34.25 150.169 34.25C151.519 34.25 152.619 35.35 152.619 36.7C152.619 38.05 151.519 39.15 150.169 39.15C123.459 39.15 101.719 57.49 101.719 80.03C101.719 81.38 100.619 82.48 99.2693 82.48L99.2793 82.47Z"></path>
<path fill="white" d="M49.5693 214.52C47.7393 214.52 45.9293 214.04 44.2893 213.1C41.8393 211.69 40.0893 209.4 39.3593 206.67C38.6293 203.94 38.9993 201.09 40.4193 198.64C41.8293 196.19 44.1193 194.44 46.8493 193.71C49.5793 192.98 52.4293 193.35 54.8793 194.77C57.3293 196.18 59.0793 198.47 59.8093 201.2C60.5393 203.93 60.1693 206.78 58.7493 209.23C57.3393 211.68 55.0493 213.43 52.3193 214.16C51.4093 214.4 50.4793 214.52 49.5593 214.52H49.5693ZM49.5993 198.23C49.1093 198.23 48.6093 198.3 48.1193 198.43C46.6493 198.82 45.4193 199.76 44.6593 201.08C43.8993 202.4 43.6993 203.93 44.0893 205.4C44.4793 206.87 45.4293 208.1 46.7393 208.86C48.0593 209.62 49.5893 209.82 51.0593 209.43C54.0893 208.62 55.8993 205.49 55.0893 202.46C54.6993 200.99 53.7493 199.76 52.4393 199C51.5593 198.49 50.5893 198.23 49.5993 198.23Z"></path>
<path fill="white" d="M184.539 143.22C182.009 143.22 179.539 142.68 177.289 141.63C173.639 139.91 171.029 136.98 170.139 133.58C169.489 131.1 168.859 127.41 170.889 123.98C172.779 120.78 176.589 118.51 182.519 117.03C197.009 113.41 199.549 118.44 201.379 125.39C202.269 128.79 201.419 132.63 199.059 135.93C196.719 139.19 193.209 141.56 189.169 142.62C187.639 143.02 186.089 143.22 184.549 143.22H184.539ZM190.719 120.65C189.029 120.65 186.769 121 183.699 121.77C179.159 122.9 176.269 124.48 175.089 126.47C174.239 127.9 174.169 129.71 174.859 132.33C175.379 134.33 177.019 136.1 179.359 137.19C181.939 138.4 184.979 138.65 187.919 137.88C190.819 137.12 193.429 135.37 195.079 133.06C196.589 130.95 197.159 128.6 196.639 126.62C195.689 122.98 195.069 120.65 190.719 120.65Z"></path>
<path fill="white" d="M115.269 143.22C113.729 143.22 112.179 143.02 110.649 142.62C106.609 141.56 103.089 139.18 100.759 135.93C98.3893 132.63 97.5493 128.79 98.4393 125.39C100.259 118.44 102.799 113.41 117.299 117.03C123.239 118.51 127.039 120.79 128.929 123.98C130.959 127.41 130.329 131.1 129.679 133.58C128.789 136.98 126.179 139.91 122.529 141.63C120.279 142.69 117.799 143.22 115.279 143.22H115.269ZM109.089 120.65C104.729 120.65 104.119 122.98 103.169 126.62C102.649 128.61 103.219 130.95 104.729 133.06C106.379 135.36 108.989 137.12 111.889 137.88C114.829 138.65 117.859 138.41 120.449 137.19C122.779 136.09 124.419 134.32 124.949 132.33C125.639 129.7 125.569 127.9 124.719 126.47C123.539 124.49 120.649 122.9 116.109 121.77C113.039 121 110.789 120.65 109.089 120.65Z"></path>
<path fill="white" d="M192.779 255.57C187.099 254.24 181.389 257.8 180.079 263.49C178.759 269.18 182.309 274.88 187.999 276.19C188.799 276.38 189.599 276.47 190.389 276.47C195.199 276.47 199.569 273.16 200.699 268.27C202.019 262.58 198.469 256.88 192.779 255.57Z"></path>
<path fill="white" d="M182.469 226.8V197.45C182.469 196.7 182.129 196 181.539 195.53L161.089 179.36C160.349 178.78 159.349 178.67 158.509 179.08C157.669 179.49 157.129 180.34 157.129 181.28V241.53C157.129 242.28 157.469 242.99 158.059 243.45L180.789 261.4C181.499 259.87 182.549 258.58 183.829 257.57L162.019 240.34V186.33L177.569 198.63V228.04C177.569 228.82 177.949 229.56 178.579 230.02L218.419 258.85C219.069 257.32 220.059 255.98 221.329 254.92L182.459 226.79L182.469 226.8Z"></path>
<path fill="white" d="M114.519 256.71C112.069 255.29 109.219 254.92 106.489 255.65C100.849 257.16 97.4993 262.98 98.9993 268.62C100.269 273.34 104.559 276.47 109.229 276.47C110.129 276.47 111.049 276.35 111.959 276.11C114.689 275.38 116.969 273.63 118.389 271.18C119.809 268.73 120.179 265.88 119.449 263.15C118.719 260.42 116.969 258.14 114.519 256.72V256.71Z"></path>
<path fill="white" d="M75.4093 161.51C72.6793 160.78 69.8193 161.15 67.3793 162.57C64.9293 163.98 63.1793 166.27 62.4493 169C61.7193 171.73 62.0893 174.58 63.5093 177.03C64.9193 179.48 67.2093 181.23 69.9393 181.96C70.8593 182.21 71.7693 182.32 72.6793 182.32C77.3493 182.32 81.6393 179.2 82.9093 174.47C83.6393 171.74 83.2693 168.89 81.8493 166.44C80.4393 163.99 78.1493 162.24 75.4193 161.51H75.4093Z"></path>
<path fill="white" d="M141.009 179.08C140.169 178.67 139.159 178.78 138.429 179.36L117.979 195.53C117.389 196 117.049 196.7 117.049 197.45V226.79L78.0593 254.61C79.3893 255.62 80.4493 256.9 81.1793 258.4L120.919 230.04C121.559 229.58 121.949 228.84 121.949 228.05V198.64L137.499 186.34V240.35L115.729 257.55C117.039 258.57 118.079 259.87 118.789 261.37L141.459 243.46C142.049 243 142.389 242.29 142.389 241.54V181.29C142.389 180.35 141.849 179.5 141.009 179.09V179.08Z"></path>
<path fill="white" d="M241.059 209.22C240.899 208.95 240.769 208.67 240.629 208.39L219.879 225.07L198.619 210.91L196.969 199.75L220.739 180.16C219.409 179.16 218.349 177.88 217.619 176.39L196.129 194.1L191.749 164.44C191.459 161.98 199.349 152.63 204.059 147.04C211.419 138.31 215.939 132.77 216.189 129.13C216.479 124.73 212.789 119.48 209.209 114.41C206.859 111.07 204.199 107.29 204.049 105.38C204.049 105.35 204.039 105.32 204.029 105.29C209.739 97.01 212.769 87.56 212.769 77.89C212.779 48.17 184.569 24 149.909 24C115.249 24 87.0293 48.17 87.0293 77.89C87.0293 87.56 90.0493 97.01 95.7593 105.29C95.7593 105.32 95.7493 105.35 95.7393 105.38C95.5893 107.28 92.9293 111.07 90.5793 114.41C87.0093 119.49 83.3093 124.74 83.5993 129.13C83.8393 132.78 88.3693 138.31 95.7293 147.04C100.439 152.63 108.329 161.99 108.029 164.52L103.659 194.11L82.1593 176.4C81.4193 177.91 80.3493 179.2 79.0493 180.18L102.819 199.77L101.169 210.93L79.9093 225.09L59.1593 208.41C59.0293 208.69 58.8893 208.97 58.7293 209.24C58.0493 210.42 57.1593 211.43 56.1293 212.25L78.2393 230.02C78.6893 230.38 79.2293 230.56 79.7693 230.56C80.2393 230.56 80.7093 230.42 81.1293 230.15L104.779 214.39C105.349 214.01 105.739 213.4 105.839 212.71L112.839 165.31C113.619 160.96 108.269 154.34 99.4593 143.89C94.8893 138.47 88.6193 131.04 88.4693 128.8C88.2893 126.13 91.7693 121.19 94.5593 117.22C96.7893 114.06 98.7893 111.2 99.8393 108.65C100.029 108.7 100.229 108.73 100.429 108.73C100.559 108.73 100.679 108.73 100.809 108.7C100.829 108.7 103.159 108.34 106.719 108.58C108.049 108.64 109.229 107.65 109.319 106.3C109.409 104.95 108.389 103.79 107.039 103.7C103.899 103.5 101.569 103.69 100.569 103.8C100.499 103.63 100.409 103.46 100.299 103.3C94.7993 95.66 91.8893 86.87 91.8893 77.89C91.8893 50.87 117.899 28.89 149.869 28.89C181.839 28.89 207.849 50.87 207.849 77.89C207.849 86.87 204.939 95.66 199.439 103.3C199.329 103.46 199.239 103.62 199.169 103.8C198.169 103.69 195.839 103.49 192.699 103.7C191.349 103.79 190.329 104.96 190.419 106.3C190.509 107.65 191.689 108.64 193.019 108.58C196.559 108.35 198.889 108.7 198.929 108.7C199.059 108.72 199.189 108.73 199.319 108.73C199.519 108.73 199.719 108.7 199.909 108.65C200.959 111.21 202.959 114.06 205.189 117.22C207.979 121.19 211.459 126.13 211.279 128.8C211.129 131.03 204.869 138.46 200.289 143.89C191.479 154.34 186.119 160.96 186.889 165.23L193.899 212.7C193.999 213.38 194.389 213.99 194.959 214.38L218.609 230.14C219.019 230.42 219.499 230.55 219.969 230.55C220.509 230.55 221.059 230.37 221.499 230.01L243.609 212.24C242.569 211.42 241.689 210.41 241.009 209.23L241.059 209.22Z"></path>
<defs>
<linearGradient gradientUnits="userSpaceOnUse" y2="344.798" x2="149.914" y1="41.7236" x1="149.914" id="paint0_linear_855_6718">
<stop stop-color="#5644E9"></stop>
<stop stop-opacity="0" stop-color="#5644E9" offset="0.68"></stop>
</linearGradient>
</defs>
</svg>
