<?xml version="1.0" encoding="UTF-8" standalone="no"?>
<svg
   width="470"
   height="470"
   viewBox="35 8 470 470"
   fill="none"
   version="1.1"
   id="svg87"
   sodipodi:docname="SysReptor-Dino-One.svg"
   inkscape:version="1.4.3 (0d15f75, 2025-12-25)"
   xmlns:inkscape="http://www.inkscape.org/namespaces/inkscape"
   xmlns:sodipodi="http://sodipodi.sourceforge.net/DTD/sodipodi-0.dtd"
   xmlns="http://www.w3.org/2000/svg"
   xmlns:svg="http://www.w3.org/2000/svg">
  <sodipodi:namedview
     id="namedview1"
     pagecolor="#ffffff"
     bordercolor="#000000"
     borderopacity="0.25"
     inkscape:showpageshadow="2"
     inkscape:pageopacity="0.0"
     inkscape:pagecheckerboard="0"
     inkscape:deskcolor="#d1d1d1"
     inkscape:zoom="2.4829787"
     inkscape:cx="234.79863"
     inkscape:cy="363.87746"
     inkscape:window-width="5120"
     inkscape:window-height="1369"
     inkscape:window-x="-8"
     inkscape:window-y="-8"
     inkscape:window-maximized="1"
     inkscape:current-layer="svg87" />
  <defs
     id="defs87" />
  <path
     d="m 55.001972,532.38113 c 4.26108,-6.66413 9.00112,-12.96728 14.84417,-18.35261 6.21584,-5.72627 12.36209,-11.55044 19.47686,-16.19257 4.24103,-2.76522 8.50211,-5.54106 12.937778,-7.95472 5.75694,-3.13683 12.15799,-4.45573 18.58737,-5.22844 4.55364,-0.54737 9.13796,0.32324 13.12416,2.49271 8.64957,4.70937 8.66844,3.56624 12.97789,13.47572 0.55681,1.27998 1.0169,2.60951 1.68108,3.83993 0.18521,0.35273 1.01689,0.68422 1.38732,0.54738 1.32009,-0.44947 2.58001,-1.09358 3.85054,-1.69051 7.93586,-3.69364 16.07578,-4.94413 24.61682,-2.2084 3.19581,1.02633 6.46004,1.81792 9.63579,2.70741 0.49783,-0.41997 1.04522,-0.69366 1.32835,-1.14313 3.59691,-5.71683 7.16314,-11.46315 10.73999,-17.20003 8.06208,-12.91891 16.91691,-25.28099 26.68837,-36.95885 3.4695,-4.14428 6.00114,-8.85365 8.92207,-13.32943 7.20326,-11.00426 11.3558,-23.20944 13.58426,-36.10946 0.18521,-1.05465 0.0189,-2.21784 -0.18639,-3.28311 -0.0778,-0.38104 -0.75147,-0.88005 -1.1915,-0.91899 -0.81163,-0.0685 -1.70113,0 -2.46321,0.28313 -2.90206,1.06527 -5.7947,2.18008 -8.63895,3.3822 -11.22839,4.7483 -22.84727,7.93467 -35.02414,8.99051 -2.79471,0.24419 -5.56936,0.70309 -8.09156,1.02516 -2.2957,2.93273 -4.31889,5.62008 -6.44943,8.22841 -1.61265,1.9642 -3.80099,2.35586 -6.12736,1.69051 -1.33896,-0.38105 -2.65787,-0.95675 -3.86942,-1.66102 -2.67793,-1.54423 -5.2768,-3.23474 -7.91579,-4.85683 -0.98742,-0.60518 -2.15059,-0.14628 -2.62838,1.07471 -0.50845,1.30003 -0.87061,2.66847 -1.43687,3.94845 -0.63586,1.41682 -2.6968,2.2379 -4.30001,2.03263 -2.05268,-0.26425 -3.82106,-1.21156 -5.2768,-2.51158 -4.2021,-3.7432 -8.33577,-7.56306 -12.37271,-11.49265 -2.41365,-2.35468 -4.57251,-4.95356 -6.84934,-7.44627 -0.46952,-0.50845 -1.93588,-0.15572 -2.09161,0.53794 -0.38104,1.63153 -0.64529,3.29255 -1.05582,4.91582 -0.7326,2.89263 -4.40737,4.25046 -6.76205,2.39361 -3.76206,-2.97049 -7.41796,-6.11793 -9.61574,-10.50524 -2.77584,-5.53161 -5.62954,-11.05261 -8.04319,-16.74938 -1.88635,-4.45691 -2.16948,-9.31374 -1.72945,-14.12102 0.25364,-2.79589 0.73259,-5.60004 1.42626,-8.32633 0.61581,-2.41367 1.66102,-4.71998 2.46322,-6.91895 -0.38105,-1.65157 -1.47581,-2.54107 -2.58001,-3.41994 -5.16001,-4.10536 -8.971618,-9.29368 -12.040028,-15.07894 -1.05465,-1.9937 -2.08099,-4.00744 -3.23474,-5.93272 -8.38413,-13.98417 -11.52095,-29.1504 -10.74943,-45.35358 0.4589,-9.64524 1.90522,-19.04627 5.07154,-28.17362 2.50214,-7.20207 5.66846,-14.10096 9.61691,-20.62942 8.325148,-13.77891 17.648318,-26.83465 28.408368,-38.82513 0.75147,-0.84113 1.44632,-1.73063 2.19779,-2.57057 1.37789,-1.53479 2.1211,-3.26424 2.05267,-5.36527 -0.0684,-1.97365 0.0885,-3.94729 -0.0201,-5.9221 -0.31262,-5.55993 1.5053,-10.53473 4.01689,-15.34202 0.39047,-0.7432 0.85056,-1.46636 1.359,-2.13997 5.53988,-7.32004 6.94726,-15.86107 7.30944,-24.70529 0.0684,-1.69052 0.0778,-3.38102 0,-5.07153 -0.38105,-8.75574 0.57686,-17.43362 1.33895,-26.12164 0.41997,-4.778735 1.32834,-9.46946 3.12621,-13.964828 1.06527,-2.648322 2.43372,-5.110947 4.3295,-7.2022 3.02948,-3.342091 6.26421,-6.469348 9.90005,-9.186081 5.37471,-4.016409 11.37467,-6.068617 18.04942,-6.263975 1.69051,-0.04895 3.44,0.185567 5.05266,-0.166219 2.29569,-0.498306 4.49466,0.527679 6.68418,0.127053 2.3252,-0.42021 3.49781,-2.765572 5.47263,-3.821051 5.02199,-2.677566 10.35778,-4.495249 16.03567,-4.905666 5.89261,-0.430001 11.83476,-0.21506 17.70731,-1.153158 5.29686,0.625477 10.70106,0.410418 15.90001,1.876314 1.07471,0.302948 2.18952,0.527681 3.30316,0.693783 1.44631,0.205267 2.79471,-0.126937 3.9284,-1.1042 1.07471,-0.918634 2.1211,-1.847058 3.20524,-2.746108 3.46951,-2.873055 6.87059,-5.834104 10.43682,-8.570301 5.8053,-4.45632 11.68847,-8.834307 17.62001,-13.124406 2.73572,-1.973988 5.68734,-3.654826 8.52098,-5.491974 3.57685,-2.325898 7.52531,-3.791794 11.53158,-5.169684 5.06209,-1.739469 10.06638,-1.495153 14.7958,0.830745 4.02632,1.973993 8.03258,4.114088 11.18946,7.475763 1.15256,1.231372 2.4526,2.325894 3.69364,3.469259 1.55366,1.436522 3.27367,2.013042 5.41365,1.387682 3.78212,-1.114109 7.63266,-2.013159 11.40534,-3.156525 2.74517,-0.830623 5.521,-1.113987 8.34521,-1.055356 3.93784,0.08789 7.8863,0.273573 11.82414,0.400627 2.01374,0.06842 3.85997,0.684103 5.6484,1.592945 5.25793,2.687358 10.61259,5.218406 15.78322,8.081776 8.1305,4.50504 16.06516,9.361868 23.07258,15.538085 2.10105,1.846939 3.88948,4.055456 5.70622,6.195669 0.70428,0.840419 1.2906,1.895779 1.58316,2.951258 1.14431,4.055574 2.38535,8.062192 2.22845,12.401119 -0.0979,2.765573 0.92843,5.570309 0.82107,8.335893 -0.11797,2.76556 -1.51473,5.491978 -1.48524,8.228294 0.0578,6.244507 -0.88949,12.362437 -1.62209,18.508677 -0.30318,2.58001 -0.079,5.00311 0.79158,7.46633 1.20212,3.44944 2.10105,6.98737 2.86313,10.58309 0.69367,3.28429 1.67047,6.64525 3.26306,9.56738 3.81162,6.95786 6.36212,14.41475 9.37272,21.69469 0.97679,2.3653 2.5399,4.39793 3.34209,6.72311 0.7031,2.06211 0.38105,4.45691 0.67361,6.68537 0.18639,1.38732 0.72316,2.71567 1.0169,4.09356 2.50097,11.71796 2.99998,23.44418 0.44003,35.2294 -1.51473,6.95787 -4.3295,13.41791 -7.91579,19.47685 -1.83797,3.10734 -4.52533,5.72627 -7.22212,9.04949 -0.14629,4.44629 0,9.49895 0.0295,14.55043 0.0295,5.3464 0.2147,10.75061 -0.41998,16.03685 -0.95791,8.09156 -1.88634,16.21263 -4.04638,24.12842 -1.11363,4.07469 -1.91465,8.22841 -2.87257,12.34202 -1.08533,4.661 -2.58944,9.17689 -4.24103,13.68099 -2.81476,7.68103 -5.93271,15.1863 -9.56737,22.51577 -2.23788,4.52533 -3.87059,9.3621 -5.96102,13.9653 -1.62209,3.58628 -3.3822,7.13365 -5.36529,10.5241 -5.54105,9.48952 -11.43365,18.75371 -18.11784,27.50945 -6.66531,8.73686 -13.51583,17.36637 -19.53583,26.54208 -6.19461,9.43053 -13.31882,18.18626 -19.41669,27.65573 -0.90955,1.41681 -1.9359,2.76521 -2.99055,4.0853 -5.29686,6.5957 -10.02627,13.60312 -14.67902,20.65892 -3.56623,5.41365 -6.39987,11.24726 -8.44311,17.41356 -1.24105,3.74319 -0.57096,16.25867 -1.80257,20.00186 -0.72316,2.18834 3.89921,10.53298 4.11391,12.79093 0.22533,2.40423 1.40739,4.24102 3.64528,5.29685 3.34209,1.58316 6.96849,2.21784 10.55479,2.82421 1.2894,0.2147 2.85369,-0.1569 4.06525,-0.73378 3.37158,-1.5926 -281.655038,-2.03799 -279.681408,-5.12644 z M 421.21292,151.45342 c 0.0967,-1.07471 -0.24539,-1.83679 -1.39795,-2.06094 -0.25364,-0.69484 -0.41054,-1.43687 -0.80102,-2.04324 -0.13685,-0.21471 -0.82107,-0.0778 -1.25166,-0.10739 -0.01,0.43058 -0.19465,1.02633 0.0109,1.24104 0.48839,0.50845 1.17262,0.84112 1.77781,1.25048 0.0685,1.01691 0.57687,1.63271 1.61265,1.76012 0.19583,0.43885 0.39048,0.87888 0.5863,1.30946 0.21472,-0.24419 0.4306,-0.48958 0.64531,-0.72316 -0.4011,-0.19583 -0.79159,-0.41053 -1.18206,-0.62641 z m -6.98737,-6.50841 c 0.302,0.35273 0.54737,0.88006 0.92842,1.01691 0.31262,0.11678 0.80102,-0.20528 1.1915,-0.39049 0.0389,-0.0201 -0.0189,-0.46952 -0.15572,-0.59693 -0.33268,-0.33149 -0.73378,-0.59575 -1.11482,-0.87888 -0.0484,-1.13368 -0.53676,-2.07154 -1.53361,-2.57057 -0.36217,-0.17577 -1.08533,-0.0189 -1.40738,0.25364 -0.26426,0.22533 -0.3716,0.92843 -0.23477,1.30004 0.39049,1.03578 1.16319,1.72 2.32638,1.86628 z M 179.07227,537.78533 c 0.18522,-0.82107 0.27369,-1.66102 0.50845,-2.47265 0.26308,-0.92842 1.98308,-1.69995 2.79471,-1.23043 3.39047,1.97364 6.82103,3.88947 10.12419,6.01884 30.18724,39.46579 57.19431,62.50333 95.63243,-1.25993 1.72001,-2.95161 3.07785,-6.01057 2.80416,-9.56737 -0.0389,-0.51788 0.20526,-1.06527 0.34211,-1.59259 0.17695,-0.65474 0.6158,-0.87062 1.28115,-0.8895 1.50413,-0.0389 2.7841,0.37161 3.44945,1.81792 0.46834,1.01573 0.75265,2.11049 1.12308,3.17576 -192.01743,151.89342 194.48984,174.45083 6.16629,1.08414 -5.521,-4.65156 -8.462,-11.15997 -9.77146,-18.28419 -0.25482,-1.36727 -0.41054,-2.82419 -0.23476,-4.19146 0.79158,-6.14743 1.72944,-12.27479 4.31888,-18.00106 0.81164,-1.78843 1.40738,-3.67477 2.10105,-5.51156 0.92843,-0.47896 1.32952,-1.22217 1.17263,-2.25795 0.30317,-0.302 0.47895,-0.67361 0.53794,-1.1042 0.59575,-0.58631 1.32952,-1.08415 1.75893,-1.76837 3.86942,-6.21584 7.52531,-12.56735 11.54101,-18.69471 5.24849,-7.99366 10.2516,-16.18314 17.05257,-23.0431 0.98742,-0.99685 1.82736,-2.13997 2.64844,-3.28311 6.22528,-8.70736 12.72424,-17.22952 18.42102,-26.29788 2.69798,-4.29057 5.2768,-8.66844 8.1305,-12.85048 3.66533,-5.36528 6.85052,-10.99363 9.90005,-16.72108 2.38416,-4.47579 4.97362,-8.84421 7.2115,-13.38842 4.85683,-9.8505 9.56737,-19.77887 14.2968,-29.69779 1.70113,-3.5568 3.52848,-7.07466 4.91581,-10.74943 3.89891,-10.29053 6.49897,-20.9621 8.72743,-31.71153 1.02515,-4.95475 1.69995,-9.97792 2.4526,-14.99046 0.41997,-2.77584 0.9178,-5.57055 0.97678,-8.36526 0.35156,-16.89685 0.98742,-33.81258 -1.62208,-50.62096 0.13684,-4.83794 -0.91899,-9.5485 -1.97365,-14.20005 -1.49585,-6.57684 -2.93155,-13.15367 -5.24848,-19.55354 -2.66731,-7.37903 -5.09159,-14.9126 -6.06838,-22.78002 -0.28313,-2.22846 -0.59575,-4.45573 -0.89893,-6.68418 1.11363,-8.69793 0.83994,-17.33571 -0.95792,-25.94516 -1.38733,-6.66531 -5.0621,-11.92323 -10.18317,-15.98848 -6.15568,-4.88632 -13.37782,-6.99681 -21.31248,-5.88317 -2.4927,0.35273 -4.96536,0.90955 -7.40852,1.54423 -6.85996,1.76955 -13.01682,5.15057 -19.17249,8.52216 -3.92841,2.14941 -7.8863,4.27051 -11.83476,6.40105 -2.71685,1.45576 -5.44314,2.90206 -8.15999,4.34838 -1.64215,0.30318 -3.33266,0.4589 -4.91581,0.95792 -2.13999,0.67361 -4.16317,1.6905 -6.28309,2.44315 -2.62837,0.92843 -5.24848,2.04207 -8.07269,0.41998 -0.66417,-0.38105 -1.65158,-0.30318 -2.48209,-0.26426 -7.241,0.32324 -13.81784,-2.36412 -20.38523,-4.7589 -5.79469,-2.11049 -11.46198,-4.6905 -16.43677,-8.52098 -0.88949,-0.68423 -1.92527,-1.15375 -2.90206,-1.72001 -2.4821,-1.42744 -5.13052,-2.22845 -8.02314,-2.30631 -7.03693,-0.20527 -14.06322,-0.44947 -20.98099,1.29885 -3.61577,0.90955 -7.22212,0.71372 -10.85796,-0.10736 -3.85997,-0.86944 -7.60317,-1.93471 -11.18946,-3.65471 -2.06211,-0.98741 -3.6842,-0.46952 -5.31573,1.21155 -3.36215,3.46006 -5.84423,7.5548 -8.31689,11.65899 -3.47894,5.77581 -6.60514,11.77577 -11.23783,16.79892 -0.93786,1.01572 -1.59259,2.31576 -2.34524,3.49783 -4.2021,6.65587 -8.46318,13.25157 -13.51465,19.34 -3.22531,3.88003 -5.89379,8.22841 -8.79585,12.37151 -2.10105,2.99055 -4.09474,6.05895 -6.27365,8.98106 -6.89889,9.24415 -14.23898,18.15678 -20.61999,27.78314 -0.78214,1.17262 -1.53361,2.35468 -2.3653,3.49781 -6.0094,8.20954 -11.03256,16.99477 -15.22521,26.23891 -1.62209,3.57684 -3.08728,7.26106 -4.18204,11.03373 -3.16632,10.87566 -4.427418,22.01676 -4.192658,33.3525 0.0779,4.01689 0.508448,7.84737 2.267378,11.47259 0.21471,1.09476 0.23477,2.26739 0.68423,3.2548 1.73888,3.85054 3.52731,7.68103 5.48207,11.42423 1.29059,2.49152 2.86314,4.83677 4.35899,7.22094 1.1915,1.90639 2.63781,3.69483 3.62522,5.69796 1.33896,2.70623 3.17575,4.56308 6.18635,5.23787 2.52103,0.56625 4.55365,1.72001 6.12619,4.0157 1.30946,1.90639 3.67477,2.40423 6.06956,2.33581 1.52418,-0.0484 2.81358,0.75265 3.41995,2.08217 1.02634,2.25677 2.73572,3.46832 5.01373,4.11362 3.25362,0.92842 6.47892,1.92527 9.74314,2.79471 0.77154,0.20527 1.6504,0.0294 2.76523,0.0294 0.16634,-1.40738 0.42941,-2.76521 0.4589,-4.13367 0.14628,-5.63896 0.0685,-11.27675 0.34211,-16.90628 0.75265,-15.51779 3.02004,-30.84092 6.44943,-45.98828 2.61893,-11.57994 6.26421,-22.78002 11.74628,-33.38316 5.06209,-9.80096 11.73683,-18.55788 17.5327,-27.87987 0.23359,-0.37161 0.95675,-0.51789 1.47463,-0.60637 0.47896,-0.0778 0.92842,1.56429 0.57688,2.17891 -1.11364,1.95476 -2.10105,4.01687 -3.41051,5.83479 -4.12425,5.73571 -7.48521,11.9315 -11.11161,17.97157 -6.60514,10.99362 -10.72937,22.90625 -13.69986,35.30726 -3.02004,12.64521 -4.69167,25.49569 -6.04951,38.38628 -0.96735,9.26419 -0.86944,18.57674 -0.69367,27.87987 0.0389,1.91583 1.20212,3.17693 2.96106,3.56741 8.32633,1.83679 16.77888,1.90522 25.24205,1.71056 1.12308,-0.0295 2.24733,-0.16633 3.35154,-0.3716 9.98733,-1.91584 19.79891,-4.58313 29.01473,-8.86428 8.22841,-3.82104 16.68097,-6.77147 25.50513,-8.73567 1.92527,-0.43059 3.82105,-0.98742 5.75694,-1.36845 6.41049,-1.27055 12.35146,-3.81162 18.24407,-6.52847 13.08523,-6.02945 25.31048,-13.59251 37.63363,-20.98097 3.85998,-2.31576 7.52531,-4.94413 11.29682,-7.40734 7.77894,-5.0916 15.50952,-10.24099 23.68838,-14.71677 8.41362,-4.6032 16.32941,-9.99796 23.86417,-15.959 5.23787,-4.1431 8.85366,-9.31255 11.1411,-15.58619 3.31259,-9.08842 5.28623,-18.4116 5.60946,-28.05683 0.23359,-7.04636 0.23359,-14.09152 0.32207,-21.13788 0.0295,-1.97364 -0.0495,-3.94846 0.0295,-5.9221 0.11679,-3.30315 1.39677,-4.45572 5.4337,-4.98422 0.27251,-0.0389 0.56626,-0.0284 0.83995,-0.0389 0.67361,1.82735 1.73888,3.48955 1.65159,5.60004 -0.4306,10.96414 0.59575,21.98726 -1.35902,32.89359 -0.12623,9.16628 -3.39047,17.63888 -5.93153,26.25896 -0.54739,1.85568 -1.67047,3.56624 -2.67793,5.25675 -1.15257,1.93471 -2.53046,3.73375 -3.71252,5.65902 -2.10105,3.41996 -4.83794,6.15568 -8.14111,8.45256 -11.56106,8.0432 -23.03366,16.20319 -34.56523,24.29475 -4.83677,3.39991 -9.60513,6.91777 -14.62829,10.02628 -5.0326,3.11677 -10.01684,6.28309 -14.64952,9.97673 -4.18204,3.33265 -8.40418,6.60632 -12.65465,9.84106 -2.58001,1.96421 -4.10418,4.42742 -4.83795,7.6421 -0.75265,3.26424 -2.04207,6.42111 -3.22413,9.57681 -0.55799,1.49586 -2.75578,2.43372 -4.29057,1.85686 -2.10105,-0.79159 -4.12423,-1.76838 -6.18635,-2.65787 -1.55366,-0.67479 -3.78094,0.0979 -4.25046,1.63152 -0.83051,2.68735 -1.44631,5.43371 -2.24733,8.12106 -0.47896,1.60322 -1.05584,3.19581 -1.74006,4.7306 -0.81046,1.79786 -3.22411,2.56938 -5.08097,1.73888 -0.77271,-0.34211 -1.53479,-0.7031 -2.2485,-1.15257 -1.4357,-0.8895 -2.82421,-1.84741 -4.24103,-2.7664 -0.68423,-0.44003 -1.87573,0.0295 -1.94415,0.77271 -0.31262,3.64409 -0.65474,7.27993 -1.91583,10.75887 -0.89894,2.49153 -3.801,3.80099 -6.21467,2.7369 -0.76208,-0.34211 -1.53479,-0.71372 -2.22844,-1.17379 -1.64215,-1.08416 -3.23475,-2.24734 -4.8769,-3.34211 -0.97678,-0.65473 -2.43254,-0.15571 -2.72629,0.90956 -0.53675,1.88633 -0.94729,3.81044 -1.61264,5.65785 -0.7326,2.02318 -2.82421,3.01058 -4.75892,2.4231 -0.81045,-0.2442 -1.60202,-0.52733 -2.3936,-0.84939 -2.60951,-1.05583 -5.18951,-2.15059 -7.80845,-3.17575 -1.3484,-0.5285 -3.78212,0.74203 -4.11479,2.14941 -0.51789,2.18953 -1.03578,4.37787 -1.39676,6.59689 -0.31262,1.9347 -0.4306,3.90834 -0.61581,5.86311 -0.0484,0.59575 1.24105,1.49468 1.84741,1.30947 1.33778,-0.41054 2.71567,-0.74321 3.98621,-1.30004 8.52215,-3.71369 17.36638,-6.51784 26.24952,-9.21463 8.38414,-2.54109 16.86618,-4.41799 25.66202,-4.57372 4.21154,0.5179 8.4042,0.0979 12.59685,-0.28429 1.95358,-0.17578 3.90835,-0.42942 5.86311,-0.4589 12.7042,-0.18522 25.05566,-2.51159 37.29152,-5.80413 13.36837,-3.60634 24.72417,-10.37901 34.11459,-20.57162 6.00113,-6.50841 10.72111,-13.8084 13.04631,-22.32937 2.35586,-8.62951 5.38533,-17.14105 5.74632,-26.2389 0.10739,-2.78528 0.8305,-5.54106 1.27997,-8.3169 0.84113,-0.12622 1.67164,-0.35154 2.51159,-0.36099 3.91897,-0.059 7.19263,2.79472 7.35897,6.54735 0.0873,1.95475 -0.0885,3.93784 -0.35155,5.88316 -0.30318,2.22727 -0.83051,4.41679 -1.2611,6.63463 -2.11993,11.13166 -5.521,21.81267 -11.09155,31.76108 -3.19581,5.70622 -6.98737,10.87685 -11.63892,15.47887 -7.68104,7.60317 -16.62317,13.43678 -25.91685,18.79262 -3.18519,1.8368 -6.59571,3.24418 -10.13363,4.19266 -9.78207,2.62837 -19.57359,5.2768 -29.79569,5.60948 -1.12427,0.0389 -2.25795,0.14628 -3.36215,0.35154 -7.74945,1.46519 -15.57677,2.38418 -23.43358,2.99998 -2.01375,0.15572 -3.27367,1.2611 -3.26424,3.12738 0.0296,4.82734 -1.14312,9.49895 -1.72943,14.2378 -0.50845,4.16317 -1.83798,8.18949 -3.42113,12.15683 -2.18835,5.51155 -4.93469,10.73998 -7.40734,16.10527 -4.62207,10.02627 -10.37783,19.36833 -16.83787,28.28096 -4.95356,6.84108 -10.16312,13.49577 -15.26415,20.22952 -0.50845,0.6736 -1.06527,1.30947 -1.64215,1.9347 -7.29998,7.90519 -13.12416,16.88625 -18.70415,26.02301 -1.31891,2.16003 -2.61893,4.34012 -3.89891,6.51903 -0.47896,0.81045 -0.30318,2.58001 0.34212,3.18519 1.43687,1.3484 2.81476,2.78527 4.40736,3.91897 5.96103,4.26108 11.9716,8.44311 18.01992,12.57679 0.62525,0.43058 1.58316,0.3716 2.3948,0.54738 2.8242,0.21471 4.78841,-1.53361 6.65469,-3.19581 4.64213,-4.12305 8.89259,-8.60946 12.43994,-13.75885 1.59377,-2.30632 3.3822,-4.48522 5.23788,-6.58627 2.13054,-2.39479 4.80845,-2.65904 7.72113,-1.53479 1.50412,0.58631 2.39361,2.67792 1.69052,4.21153 -0.35274,0.76209 -0.65474,1.57372 -1.15375,2.22845 -25.19927,36.45287 -31.61232,37.17197 -63.75456,11.92206 -3.53793,-2.78527 -6.98737,-5.68734 -10.45687,-8.57997 -3.0684,-2.55995 -6.5379,-4.28938 -10.3094,-5.62835 -6.10849,-2.18008 -11.6295,-1.35901 -16.72108,2.5399 -2.23789,1.71057 -4.45573,3.46007 -6.55678,5.31691 -5.32635,4.69993 -11.31687,8.32633 -17.74741,11.31569 -4.59258,2.13054 46.4979,3.27485 47.09365,0.6453 z M 157.2891,156.51551 c 1.85684,-0.302 2.69798,-1.86628 3.78212,-3.09789 9.70422,-11.06205 16.46626,-24.01044 23.64946,-36.62617 -0.27369,-0.95791 -0.37161,-1.83679 -0.76209,-2.55051 -4.19266,-7.69106 -7.47577,-15.675154 -8.25791,-24.519134 -0.0189,-0.195476 -0.28313,-0.439792 -0.48839,-0.518006 -0.2442,-0.09768 -0.6158,-0.166102 -0.82107,-0.04884 -0.71372,0.400744 -1.5053,0.762323 -2.04206,1.348633 -4.10418,4.417155 -6.49898,9.752817 -8.25791,15.440397 -2.33581,7.58323 -2.89262,15.44004 -3.22531,23.28741 -0.37042,8.72743 -1.34838,17.31683 -3.59571,25.75994 -0.13685,0.50846 0.0685,1.10421 0.11679,1.66102 -0.23477,0.0401 -0.49784,0.0296 -0.68423,0.14746 -0.1168,0.0685 -0.1168,0.3315 -0.17578,0.50728 0.26426,-0.27369 0.51789,-0.52733 0.76209,-0.79158 z m -22.73048,355.3636 c -0.27369,-1.03578 -0.62524,-2.06212 -0.80101,-3.10734 -0.33267,-1.97482 -1.35783,-3.46006 -2.97993,-4.56426 -0.72315,-1.33896 -1.90639,-2.13997 -3.36214,-2.21784 -1.67164,-0.0884 -3.40109,-0.0979 -5.02317,0.2442 -3.3126,0.69367 -6.47892,1.88634 -9.43052,3.5863 -2.43254,1.40738 -4.78841,2.96104 -7.27993,4.27051 -6.517848,3.43057 -12.176878,8.11044 -17.893708,12.61572 -7.99365,6.28426 12.01054,0.65473 25.184258,-5.77463 0.75146,-0.37162 1.57253,-0.62643 2.3936,-0.82108 1.5053,-0.34211 2.74635,0.34212 3.82106,1.28941 0.81163,0.71373 0.58631,2.79471 -0.46952,3.82105 -2.01258,1.96421 -4.06525,3.88004 -6.1663,5.74633 -24.860748,39.40356 -44.785968,43.71581 -4.53359,12.94839 6.57683,-4.88632 13.68099,-8.86309 21.01046,-12.46 2.52103,-1.24104 5.05149,-2.46203 7.48521,-3.85998 0.90955,-0.51789 1.53479,-1.51473 2.35586,-2.3653 -1.49586,-3.26305 -2.90325,-6.30314 -4.31063,-9.35148 z M 357.04664,95.057475 c 0.80219,-0.469049 1.71056,-0.73283 2.19895,-1.329052 1.76838,-2.179154 4.1148,-2.785036 6.73373,-2.86325 1.40621,-0.04884 2.83365,-0.312739 4.2021,-0.117263 6.67356,0.967461 13.33887,1.886094 19.50517,4.983881 4.62206,2.316107 8.67788,5.179359 11.5705,9.528089 1.24105,1.87572 2.3948,3.82105 3.7432,5.60948 0.44003,0.57687 1.33896,0.89893 2.09043,1.09476 0.22532,0.0578 0.87061,-0.70428 0.96853,-1.16319 0.51789,-2.46321 1.22099,-4.93516 1.32834,-7.42716 0.22532,-5.609355 0.14629,-11.23819 0.16634,-16.85734 0.01,-1.690629 -0.0884,-3.371464 -0.14628,-5.062094 -0.0496,-1.495152 -0.74321,-2.677555 -1.80848,-3.664609 -0.41054,-0.381163 -0.80102,-0.811163 -1.27054,-1.104319 -2.82421,-1.710094 -4.40736,-4.192302 -4.97363,-7.446506 -0.51788,-2.941466 -2.35467,-5.081679 -4.74947,-6.713677 -1.85685,-1.260628 -3.71369,-2.570096 -5.73688,-3.527776 -7.61261,-3.586538 -14.99045,-7.788632 -23.34627,-9.57694 -6.9862,-3.000097 -13.59252,-2.531048 -20.11154,1.602624 -3.801,2.413785 -8.13994,3.742835 -12.60629,4.602837 -5.33578,1.026115 -9.31255,-0.879585 -12.34202,-5.198941 -1.2906,-1.837147 -2.58944,-3.674413 -3.89891,-5.492096 -3.19581,-4.417035 -7.71996,-5.521353 -12.73369,-4.651677 -3.30317,0.576636 -6.54734,1.690628 -9.50839,3.371584 -6.91894,3.928403 -12.40102,9.674606 -18.48001,14.668292 -2.70623,2.218309 -3.89891,5.462722 -6.03889,8.042726 -0.91898,1.113992 -0.47895,2.198726 0.82107,2.257358 8.462,0.37137 16.79776,1.759051 25.04623,3.557152 6.85995,1.495152 13.66211,3.312835 20.48314,5.003464 1.08414,0.273691 2.13997,0.684109 3.21468,1.016312 9.73372,3.000085 18.92948,7.153337 27.50945,12.645445 2.58944,1.690618 5.13052,3.400841 8.16943,4.211886 z M 239.5048,70.206375 c -2.38418,0 -4.91582,0.02925 -7.43683,-0.0095 -8.30628,-0.117262 -16.14421,1.886105 -23.68839,5.198941 -2.30633,1.016312 -4.55365,2.179261 -6.75261,3.410514 -3.32322,1.85672 -4.43686,5.120716 -4.43686,8.560602 0,3.928521 0.60637,7.87652 2.4526,11.463046 1.09476,2.140102 2.90324,3.576622 5.25793,3.752512 3.0684,0.23464 6.18634,0.16622 9.26419,0.0392 1.66102,-0.0684 3.48837,-0.1661 4.92524,-0.88926 3.19581,-1.60274 6.46949,-1.61253 9.88,-1.46589 5.34523,0.23452 10.66214,0.56673 15.87995,1.93494 2.99054,0.79157 6.05894,1.22158 9.07898,1.89578 3.29254,0.73295 6.49897,1.70041 9.54732,3.21563 5.2768,2.61894 10.63264,5.1199 15.97786,7.59255 1.77899,0.82107 3.63584,1.5053 5.50212,2.1211 8.31571,2.75579 16.9641,3.93785 25.60305,5.13052 2.00312,0.27369 3.9284,-0.0684 5.70739,-1.05583 4.18203,-2.30631 8.37469,-4.61263 12.52842,-6.96731 0.29256,-0.16634 0.34212,-0.79158 0.60518,-1.47581 -2.99997,-0.95791 -5.9504,-1.82735 -8.85365,-2.8242 -6.90833,-2.37474 -13.7789,-4.84727 -20.68722,-7.21222 -2.65905,-0.90884 -5.38534,-1.60274 -8.06326,-2.45283 -1.09359,-0.351911 -2.16947,-0.703698 -3.27367,-0.283489 -2.00313,0.762329 -3.72314,0.430009 -5.5505,-0.723156 -3.11676,-1.964202 -6.68418,-2.85346 -10.27046,-3.65483 -8.7758,-1.964202 -17.55159,-3.947999 -26.2979,-6.029569 -2.53045,-0.605894 -4.71998,-0.801371 -7.27993,0.449584 -5.06209,2.472287 -10.34951,1.885976 -15.49891,-0.156428 -1.49586,-0.596103 -2.51157,-2.48222 -2.1211,-4.153266 0.25482,-1.084735 0.60637,-2.169467 1.1042,-3.156523 0.50846,-1.00652 1.2906,-1.866404 2.52102,-2.022832 5.84425,-0.771996 10.32002,-4.163035 14.68846,-7.720186 0.81163,-0.693782 0.18521,-1.514735 -0.31262,-2.511465 z M 177.40064,361.87309 v -0.13685 c -2.81359,-0.11797 -5.62836,-0.27369 -8.44312,-0.32323 -0.83052,-0.01 -1.72,0.35272 -1.94415,1.28115 -1.18324,5.00311 -1.60322,10.03571 0.0685,14.99989 2.26738,6.75261 5.67789,12.85048 10.66095,18.01049 0.37161,0.39166 0.91899,0.70428 1.42743,0.83051 0.45892,0.10739 1.15258,0.0885 1.47581,-0.19465 1.75894,-1.53479 2.65787,-3.67476 3.26306,-5.81474 1.15374,-4.05581 2.18952,-8.15999 2.9811,-12.30311 0.57687,-3.02947 0.71372,-6.15685 0.96736,-9.2453 0.0884,-1.11364 -0.0484,-2.24733 -0.11679,-3.37159 -0.16634,-2.50096 -1.2611,-3.65472 -3.59692,-3.72313 -2.24733,-0.059 -4.49465,-0.01 -6.74316,-0.01 z m -22.42729,35.92307 c 1.14312,-1.5926 1.79785,-3.34209 2.38417,-5.21901 2.67792,-8.60944 3.74319,-17.5209 4.91582,-26.39462 0.63585,-4.86626 0.46952,-5.92209 -4.71055,-6.76205 -4.39674,-0.71371 -8.69676,-2.01374 -13.03569,-3.04952 -0.56744,-0.13684 -1.77899,0.77153 -1.86629,1.36845 -0.079,0.54739 -0.2442,1.09477 -0.25481,1.64097 -0.0979,13.5642 3.87059,25.91684 11.15996,37.26321 0.28431,0.44946 0.85057,0.71254 1.40739,1.15257 z M 428.45393,230.69863 c 0.72316,-0.30318 1.83679,-0.42116 2.06211,-0.92842 3.85998,-8.83478 5.8926,-18.02111 6.26421,-27.72415 0.63467,-16.82843 -3.69482,-32.19049 -12.42107,-46.43892 -0.11679,-0.19583 -0.68423,-0.38104 -0.72316,-0.33267 -0.27369,0.36216 -0.74321,0.88006 -0.64529,1.18324 0.70427,2.11049 1.41681,4.23159 2.34524,6.25359 2.95162,6.43999 4.83796,13.22208 5.65903,20.20002 1.15257,9.75258 1.24104,19.59364 1.57254,29.40522 0.02,0.55682 0.0496,1.12307 0,1.68107 -0.302,3.66415 -0.82107,7.18201 -3.49781,10.10414 -1.63272,1.79785 -1.5348,4.13367 -0.6158,6.59688 z M 245.99315,350.50785 c -0.0484,-0.55682 -0.17578,-2.50215 -0.46835,-4.41679 -0.059,-0.37162 -0.84112,-0.96855 -1.17261,-0.90956 -3.54737,0.68423 -7.07585,1.45575 -10.59371,2.25794 -1.03578,0.23359 -1.6221,1.58317 -1.3484,2.72629 1.00628,4.14312 2.68736,8.04203 5.45257,11.24728 1.57372,1.81792 2.92212,4.0853 5.40422,4.99367 2.13997,-1.87573 1.6032,-4.59258 2.04205,-6.95788 0.46009,-2.46204 0.41054,-5.02198 0.68423,-8.94095 z m -46.00833,9.38098 c -3.16632,0.68423 -5.07153,1.07471 -6.96731,1.5053 -0.68422,0.15572 -1.36846,1.35784 -1.21155,1.97364 0.54738,2.18009 1.27054,4.30944 2.6673,6.09787 2.58001,3.30317 5.22843,6.55796 7.90636,9.78207 0.30318,0.36218 0.99685,0.63586 1.46519,0.57688 1.00746,-0.10739 0.97797,-1.05583 1.11481,-1.81792 1.07471,-5.83361 0.72316,-11.68729 0.30318,-17.55041 -0.0684,-1.01689 -1.34958,-1.74005 -2.50214,-1.40738 -1.34839,0.39049 -2.68736,0.81046 -2.77584,0.83995 z m 10.5253,-2.92212 c 0.13684,0.66536 0.0979,1.30003 0.38103,1.73063 1.80849,2.86313 4.07469,5.34522 6.99681,7.0546 7.6716,4.45692 8.68732,3.44001 9.32318,-5.15883 0.20526,-2.73691 -0.44003,-5.53161 -0.72316,-8.29683 -0.0484,-0.51789 -1.54423,-1.14313 -2.13054,-0.90955 -4.62207,1.85685 -9.24413,3.72313 -13.84732,5.57998 z m -78.88305,13.80839 c -1.05465,-2.82419 -2.27682,-5.62835 -3.1557,-8.54103 -0.96736,-3.17575 -1.62327,-6.43998 -2.43372,-9.77145 -1.35902,2.28626 -1.92528,4.67987 -2.16003,7.19145 -0.62525,6.76323 0.41053,13.35893 1.95475,19.89683 0.0295,0.13684 0.44947,0.31262 0.62525,0.25482 0.50845,-0.14747 1.25048,-0.28431 1.42744,-0.6453 1.30947,-2.74634 2.50097,-5.55049 3.74201,-8.38532 z m 119.4093,-27.3431 c 0.83994,4.30946 3.25361,7.34955 5.9799,10.19262 0.37161,0.39166 0.90011,0.62525 1.35902,0.93904 1.08414,0.74203 3.0684,0.0873 3.44001,-1.1738 1.19149,-4.0157 2.23789,-8.07151 1.86628,-12.32198 -0.0389,-0.41053 -0.66417,-1.15374 -0.93786,-1.11481 -4.09474,0.57687 -7.92523,2.00314 -11.70735,3.47893 z m -112.31459,20.3463 h -0.0685 c 0,-2.78527 0.0389,-5.57054 -0.0389,-8.3452 -0.01,-0.46952 -0.42941,-1.08533 -0.83994,-1.3484 -1.65158,-1.04639 -3.44945,-1.77898 -5.43371,-1.79904 -0.38103,0 -1.11363,0.65473 -1.10419,0.98741 0.14628,6.57683 2.13997,12.55792 6.08843,17.84415 0.13685,0.1864 0.39992,0.35155 0.6158,0.37161 0.25364,0.0201 0.74204,-0.14629 0.74204,-0.23476 0.0495,-2.49153 0.0389,-4.98305 0.0389,-7.47577 z m 133.12923,-26.93256 c 2.10105,1.72944 4.22215,3.48837 6.46004,5.33578 0.68423,-0.82106 1.48524,-1.37789 1.65158,-2.08099 0.50845,-2.16003 0.79158,-4.37905 1.12308,-6.58745 0.12741,-0.86944 -0.84939,-1.81673 -1.52418,-1.50411 -2.25676,1.05465 -4.51471,2.11048 -6.72312,3.26304 -0.41996,0.21589 -0.5863,0.89893 -0.9874,1.57373 z m -69.7262,56.72827 c 1.10537,-0.19466 2.68735,-0.45891 4.25163,-0.78096 0.10739,-0.0201 0.26425,-0.6748 0.16634,-0.75265 -2.97167,-2.44317 -5.95159,-4.85683 -8.9905,-7.2127 -0.12741,-0.0967 -1.1042,0.46952 -1.12425,0.75265 -0.10739,2.19897 -0.11679,4.39793 -0.0201,6.58745 0.0201,0.39992 0.65473,1.04521 1.07589,1.1042 1.36727,0.2147 2.75578,0.20527 4.64095,0.30201 z"
     fill="#070808"
     id="path1"
     style="stroke-width:1.1797" />
  <path
     d="m 293.13635,554.88627 c 1.98307,-3.0684 3.66414,-6.34207 5.82418,-9.26419 1.62209,-2.19896 2.11993,-4.47578 2.15885,-7.0841 0.0495,-3.14744 -1.03578,-5.45376 -4.0157,-6.70424 -0.3716,-1.06527 -0.65473,-2.16003 -1.12425,-3.17575 -0.66417,-1.44631 -1.94415,-1.85685 -3.44945,-1.81792 -0.66417,0.0189 -1.11363,0.23476 -1.27997,0.88949 -0.13685,0.52733 -0.38105,1.07471 -0.34211,1.5926 0.27368,3.54736 -1.08534,6.61576 -2.80534,9.56738 -1.99251,3.41994 -4.45572,6.4789 -7.15252,9.37153 -20.20496,21.75765 -60.60517,55.96363 -78.17994,4.80846 -1.90522,-5.52217 -5.44314,-9.78325 -10.29997,-12.92008 -3.29254,-2.11992 -6.73255,-4.04519 -10.12419,-6.01883 -0.81045,-0.46952 -2.53046,0.302 -2.79471,1.23043 -0.23476,0.8022 -0.32206,1.65157 -0.50846,2.47265 -0.59574,2.62837 -1.98307,4.60319 -4.57251,5.63897 -1.02634,0.41054 -2.01375,0.91899 -3.17694,1.46519 -1.95358,7.04635 -30.27465,4.97479 -24.53777,2.28744 0.96736,-0.46008 1.83679,-1.24105 2.58944,-2.02319 0.30318,-0.31262 0.32206,-1.08415 0.18522,-1.5631 -0.13685,-0.46952 -0.56626,-1.02634 -0.99685,-1.19268 -1.36727,-0.51789 -2.77465,-0.26425 -4.13367,0.17577 -7.99366,2.61894 -14.57048,7.37785 -19.83785,13.81783 -5.05147,6.16748 -23.95146,2.98111 -21.6652,0.46952 4.56426,-5.01254 9.43052,-9.7042 15.5284,-12.87996 4.49584,-2.33581 8.97163,-4.71054 13.5642,-6.85053 6.43054,-2.99053 12.41045,-6.60632 17.74623,-11.31568 2.11167,-1.86746 4.32951,-3.60635 6.55796,-5.31691 5.09159,-3.89891 10.61259,-4.71998 16.71989,-2.54108 3.77269,1.3484 7.24219,3.0684 10.31059,5.62953 3.45888,2.89263 6.90833,5.79469 10.45568,8.57997 7.97479,6.27364 15.95899,12.52841 24.92001,17.38524 1.48523,0.80103 2.92212,1.73888 4.47578,2.37474 3.11677,1.27997 5.8926,0.95792 8.5021,-1.57371 9.52845,-9.26419 17.8241,-19.57361 25.85787,-30.10833 0.49783,-0.65473 0.80101,-1.46636 1.15256,-2.22846 0.70428,-1.53361 -0.18521,-3.62522 -1.69051,-4.21152 -2.9115,-1.12426 -5.58943,-0.87062 -7.71996,1.53361 -1.85685,2.10105 -3.65472,4.28113 -5.23787,6.58744 -3.54737,5.13996 -7.79901,9.63462 -12.43994,13.75885 -1.86748,1.66102 -3.83168,3.40108 -6.65588,3.19581 -0.10739,-3.15688 0.21589,-6.11792 2.56114,-8.61889 0.9178,-0.97797 1.39676,-2.43372 1.90521,-3.73375 2.49153,-6.26422 4.79784,-12.60629 7.3979,-18.82095 3.58629,-8.56109 7.6421,-16.90629 12.62515,-24.7631 4.36844,-6.88001 8.98106,-13.53588 14.40533,-19.71162 4.79785,-5.46201 9.00938,-11.46314 13.68099,-17.09149 5.72627,-6.91895 11.04318,-14.18001 17.40412,-20.56101 0.79158,-0.79158 1.62328,-1.61265 2.18009,-2.56113 1.5926,-2.72629 3.93784,-4.75891 6.07782,-6.98737 4.89576,-5.07153 10.85796,-8.90202 15.90944,-13.79778 3.50844,-1.94533 5.72745,-5.46319 9.02943,-7.57368 4.3295,-2.77583 7.76951,-6.46003 11.37586,-10.01684 1.40738,-1.38732 2.70623,-2.89262 4.23158,-4.12423 1.51474,-1.22099 3.24418,-2.1789 4.91463,-3.20524 0.85057,-0.51789 2.0232,-0.38105 2.24851,0.20526 0.19465,0.48841 0.41998,1.07471 0.31262,1.54423 -0.2442,1.09477 -0.62523,2.16004 -1.05583,3.19581 -4.31888,10.36839 -7.8863,21.05883 -13.25157,30.99782 -2.40424,4.45572 -4.55365,9.04948 -6.87884,13.55476 -1.02633,1.99251 -2.06211,4.0157 -3.32321,5.87255 -7.29055,10.73056 -13.4368,22.0958 -19.0852,33.7536 -1.84741,3.80216 -3.66533,7.60317 -5.53162,11.39473 -0.90837,1.83679 -1.23161,3.72313 -0.70311,5.72626 -0.059,0.43059 -0.23475,0.79158 -0.53794,1.10537 -0.93786,0.46835 -1.34839,1.21157 -1.17262,2.25677 -0.69366,1.8368 -1.28941,3.72314 -2.10105,5.51157 -2.59888,5.72627 -3.5273,11.85363 -4.31888,18.00105 -0.17577,1.36845 -0.0201,2.8242 0.23359,4.19266 1.32008,7.12303 4.25164,13.63144 9.77263,18.28417 6.62639,5.57999 14.24843,9.11674 23.35572,6.67358 2.44316,-0.65474 4.87688,-1.33897 7.32004,-1.9937 2.71685,-0.72315 5.4337,-1.42626 8.15055,-2.13998 1.63153,-0.4294 3.3126,-0.74203 4.88632,-1.3189 7.19146,-2.639 14.62829,-3.90953 22.2409,-4.55364 7.3684,-0.62525 14.62946,-0.46009 21.7348,1.69051 4.57252,1.38732 9.13678,2.84308 13.6515,4.40736 8.82416,3.03891 15.63575,8.72624 20.97154,16.29048 3.89892,5.521 -133.49021,4.51472 -132.42494,2.87257 z"
     fill="#b9c43a"
     id="path3"
     style="stroke-width:1.1797" />
  <path
     d="m 388.98112,193.63126 c -0.28311,0.01 -0.56624,0 -0.83994,0.0389 -4.03576,0.52733 -5.31573,1.67045 -5.4337,4.98305 -0.0685,1.97482 0,3.94846 -0.0295,5.9221 -0.0873,7.04635 -0.0778,14.10214 -0.32207,21.13787 -0.32205,9.64524 -2.29687,18.97784 -5.60947,28.05682 -2.28626,6.27366 -5.90205,11.45372 -11.14109,15.58739 -7.53357,5.96103 -15.44936,11.35462 -23.86298,15.95781 -8.17061,4.47579 -15.90945,9.62635 -23.6884,14.71676 -3.77268,2.46322 -7.43684,5.0916 -11.29681,7.40735 -12.32315,7.38847 -24.53896,14.9527 -37.63363,20.98215 -5.90323,2.71685 -11.83476,5.25675 -18.24525,6.52728 -1.93471,0.38105 -3.8305,0.93905 -5.75576,1.36846 -8.82417,1.9642 -17.2779,4.90638 -25.50631,8.73686 -9.21464,4.27996 -19.02621,6.94844 -29.01356,8.86309 -1.10538,0.21471 -2.22845,0.35156 -3.35271,0.37161 -8.46317,0.20527 -16.91572,0.13685 -25.24205,-1.71056 -1.75894,-0.39049 -2.92212,-1.65158 -2.96106,-3.56624 -0.17577,-9.30312 -0.28313,-18.61686 0.69367,-27.88105 1.34958,-12.90003 3.02004,-25.7505 6.04951,-38.38628 2.96104,-12.401 7.09472,-24.31363 13.70104,-35.30726 3.62522,-6.03888 6.98737,-12.23467 11.1116,-17.97156 1.30947,-1.81792 2.29569,-3.87886 3.41052,-5.83362 0.35154,-0.61581 -0.10859,-2.25794 -0.57688,-2.17891 -0.51788,0.0873 -1.24104,0.23359 -1.47581,0.60519 -5.79468,9.32318 -12.46943,18.07891 -17.53152,27.88105 -5.47263,10.60315 -9.11791,21.80205 -11.74629,33.38199 -3.43056,15.14736 -5.68733,30.47049 -6.4506,45.98945 -0.27251,5.62835 -0.20409,11.26732 -0.34094,16.90628 -0.0401,1.36728 -0.30318,2.71568 -0.46007,4.13368 -1.11364,0 -1.98309,0.17578 -2.76523,-0.0294 -3.26422,-0.87062 -6.49897,-1.86628 -9.74314,-2.7947 -2.27682,-0.64531 -3.98739,-1.85686 -5.01373,-4.1148 -0.60519,-1.32953 -1.90522,-2.13054 -3.41996,-2.08099 -2.38416,0.0684 -4.7589,-0.4306 -6.06838,-2.33582 -1.57371,-2.29688 -3.60633,-3.44944 -6.12736,-4.01688 -2.99998,-0.67361 -4.84739,-2.53046 -6.18635,-5.23787 -0.98622,-2.00313 -2.43254,-3.78211 -3.62522,-5.69677 -1.48525,-2.38536 -3.05896,-4.7306 -4.35899,-7.22213 -1.94415,-3.74319 -3.73258,-7.58312 -5.48208,-11.42422 -0.44945,-0.98623 -0.46834,-2.16947 -0.68422,-3.25362 0.39166,-1.03577 1.01691,-2.04324 1.11482,-3.09789 0.18522,-1.95476 0.0979,-3.93902 0.0578,-5.91266 -0.0967,-4.79784 0.11796,-9.49894 1.52534,-14.19888 0.95793,-3.18636 1.61266,-6.51902 2.18835,-9.86111 0.84112,-4.94413 2.10105,-9.88944 4.69049,-14.36522 1.40738,-2.43254 2.57057,-5.01254 3.74319,-7.57368 2.81477,-6.17573 6.36212,-11.902 10.53473,-17.2484 3.97795,-5.10102 7.74945,-10.39788 12.72425,-14.61885 2.99998,-2.55051 5.99995,-5.10103 9.13678,-7.45689 6.51785,-4.89576 12.78205,-10.0947 19.14418,-15.18628 8.96101,-7.17259 15.87052,-15.8599 21.58735,-25.64197 1.5631,-2.66849 2.96104,-5.45376 4.24102,-8.27797 3.47893,-7.71996 8.17887,-14.77575 12.01054,-22.29988 0.37042,-0.73378 0.88831,-1.47581 1.5336,-1.97482 0.61581,-0.47778 1.51474,-0.9473 2.2379,-0.87888 1.94532,0.17579 3.85997,0.90837 5.79469,0.93787 7.84737,0.0979 15.73367,0.80102 23.22005,-1.07471 1.36727,0.55682 2.44315,0.89893 3.44,1.40739 4.0157,2.05149 8.11988,3.83992 12.29367,5.55992 5.97989,2.46322 11.73565,5.44314 16.0746,10.57366 3.93901,4.66218 9.07896,6.3232 15.13791,5.75576 2.70741,-0.25364 4.78841,-0.97679 6.4105,-3.33148 3.21586,-4.69167 7.17258,-8.64838 12.16625,-11.5127 1.45693,-0.8305 2.84426,-1.82735 4.15372,-2.89262 2.82421,-2.2957 5.87374,-4.40736 7.49583,-7.85681 2.71684,-1.44631 5.44313,-2.89263 8.15998,-4.34837 3.94729,-2.12111 7.89573,-4.24103 11.83357,-6.40106 6.15687,-3.37158 12.31373,-6.74317 19.17369,-8.52098 2.44316,-0.62642 4.91581,-1.19268 7.40734,-1.54423 7.93584,-1.11481 15.15679,1.00629 21.31365,5.88317 5.12108,4.06525 8.79585,9.322 10.18317,15.9873 1.78843,8.60946 2.07156,17.23779 0.95792,25.94516 -3.15688,4.71998 -4.59376,9.92955 -4.5737,15.59682 0,6.65469 -0.059,13.29051 -0.0885,19.91689 z m -89.50507,-8.34639 c 0.91899,0.059 1.83798,0.12741 2.75579,0.1864 -0.0484,2.24733 -0.12622,4.48522 -0.12622,6.73254 0.01,1.9642 0.0389,3.92841 0.18521,5.88317 0.38103,5.04205 2.73572,9.12734 6.52728,12.31372 4.359,3.66416 9.34323,6.22411 14.97158,7.31887 1.62208,0.31262 3.34209,0.35154 4.99368,0.2147 10.16312,-0.80102 18.11783,-5.46201 23.89365,-13.85676 0.63586,-0.92843 1.27053,-1.84741 1.88635,-2.79472 6.27364,-9.73371 8.57052,-20.62942 9.27362,-31.96516 0.11797,-1.94533 -0.0389,-3.95791 -0.41997,-5.87373 -1.19268,-6.05895 -3.92841,-11.09155 -9.88943,-13.76947 -2.30631,-1.03578 -4.55365,-2.19896 -6.91895,-3.08846 -3.20525,-1.20093 -6.44943,-1.51473 -9.88943,-0.59574 -3.53792,0.94847 -7.03691,1.85684 -10.34008,3.47893 -1.24104,0.61581 -2.58944,1.06527 -3.9284,1.41682 -0.28313,0.079 -0.78096,-0.65473 -1.17262,-1.01571 0.1569,-0.5179 0.1569,-1.16319 0.47895,-1.53479 1.5053,-1.69996 3.36215,-2.941 5.32635,-4.09476 7.00625,-4.10417 14.74627,-5.38414 22.63257,-6.09787 3.98738,-0.36098 7.86741,0.25482 11.62948,1.60322 2.11992,0.76209 4.2021,1.61265 6.32202,2.37473 0.78214,0.2737 1.61265,0.49784 2.43372,0.54739 1.22217,0.0685 2.10105,-0.62524 2.75578,-1.61266 0.59575,-0.88948 0.47896,-2.27682 -0.25364,-3.09789 -3.35271,-3.73374 -7.76951,-5.76637 -12.48005,-6.56739 -9.81157,-1.66102 -19.68095,-1.40739 -29.25776,1.58316 -4.00744,1.25049 -7.92522,2.97049 -11.62948,4.95474 -8.60946,4.60319 -15.59683,10.96414 -20.40529,19.62314 -3.86941,6.96731 -6.41049,14.37465 -7.95472,22.1536 -1.26936,6.35269 -2.30631,12.75374 -3.67359,19.07576 -1.4758,6.81159 -1.0169,5.72627 -6.08844,9.46945 -1.13368,0.84114 -2.25793,1.69051 -3.44,2.46322 -12.45999,8.09157 -22.37892,18.79145 -31.38829,30.441 -6.27483,8.11044 -10.76005,17.13987 -14.1222,26.77567 -0.17577,0.50844 -0.18521,1.09476 -0.19466,1.64213 -0.01,0.96736 0.66418,1.47581 1.39678,1.92528 0.82106,0.49783 1.76954,0.36099 2.36529,-0.1569 0.81163,-0.70311 1.55366,-1.63153 1.98426,-2.61894 1.49468,-3.33265 2.6968,-6.80097 4.27051,-10.10414 5.52101,-11.60942 13.78834,-21.19685 22.65144,-30.3242 0.97797,-1.00628 2.06211,-1.92527 3.16632,-2.79471 6.22528,-4.83677 12.36208,-9.81157 18.76313,-14.40414 3.84111,-2.75578 6.47892,-6.17692 8.0432,-10.53474 0.66418,-1.85684 1.24104,-3.73375 1.83679,-5.61891 1.02635,-3.19581 2.0232,-6.42111 3.02947,-9.65585 z m -145.87234,135.9145 c -0.29256,-1.85685 -0.51789,-3.24418 -0.72316,-4.63151 -0.97678,-6.46947 -3.56622,-12.44112 -5.72626,-18.52956 -1.51474,-4.27051 -3.85054,-8.14937 -6.42111,-11.85363 -1.1042,-1.5926 -2.55995,-2.97992 -4.02632,-4.27051 -1.27998,-1.12308 -2.90207,-1.69051 -4.64094,-1.85685 -1.76956,-0.16517 -3.34209,0.19583 -4.66218,1.45693 -3.62522,3.47893 -5.59886,7.58311 -5.51156,12.76199 0.079,4.16317 1.48524,7.69166 3.99682,10.85798 0.47896,0.60518 1.35902,1.01572 2.14116,1.23042 0.78096,0.22532 1.66102,0.12741 2.50097,0.13685 1.81792,0.0201 3.29372,0.76208 4.30944,2.22846 2.91268,4.20208 5.42427,8.55046 5.65902,13.88625 0.0779,1.63271 0.72316,3.28429 1.33778,4.83795 0.81165,2.03262 3.12739,3.22412 5.55168,3.03891 2.13998,-0.16634 3.85998,-1.19268 4.60201,-3.18637 0.78214,-2.081 1.15375,-4.31888 1.61265,-6.10731 z m 49.20414,-29.39579 c -7.26106,0.0201 -10.57365,1.15376 -15.33257,5.35584 -1.88634,1.66102 -3.60635,3.54737 -5.25792,5.44314 -5.03261,5.7652 -8.15999,12.74313 -11.98104,19.27159 -1.49468,2.55996 -1.27998,5.44314 -0.44947,8.19892 0.70428,2.33582 2.37473,3.77151 4.81789,4.18205 3.40108,0.57687 6.18635,-0.59575 7.95473,-3.48838 1.30946,-2.13997 2.32637,-4.49584 3.15687,-6.85997 1.04521,-2.97166 2.5694,-5.60946 4.62207,-7.96533 1.72,-1.9642 3.78212,-3.34209 6.51785,-3.39989 0.56744,-0.0109 1.12425,0.01 1.68107,-0.059 6.76205,-0.74322 12.38214,-7.08528 12.14738,-13.81784 -0.0389,-1.09476 -0.30319,-2.24851 -0.76209,-3.24535 -0.87062,-1.86628 -2.34642,-3.14626 -4.46634,-3.43883 -1.12426,-0.1569 -2.25795,-0.14746 -2.64843,-0.17696 z"
     fill="#b9c43a"
     id="path4"
     style="stroke-width:1.1797" />
  <path
     d="m 388.98231,193.63008 c 0.0295,-6.63464 0.0873,-13.26103 0.0684,-19.89565 -0.0201,-5.66846 1.41683,-10.87685 4.57252,-15.59683 0.30318,2.22728 0.6158,4.45573 0.90012,6.68419 0.98623,7.86624 3.3999,15.40098 6.06837,22.77883 2.31576,6.40106 3.75264,12.9779 5.24732,19.55472 1.05583,4.65157 2.11048,9.35267 1.97482,14.19888 2.61893,16.80955 1.97364,33.72528 1.62209,50.62095 -0.059,2.7959 -0.55801,5.59061 -0.97797,8.36527 -0.75265,5.00428 -1.42626,10.03689 -2.45261,14.99163 -2.22844,10.74943 -4.82733,21.421 -8.72625,31.71153 -1.39794,3.6736 -3.21586,7.19146 -4.91581,10.74944 -4.74003,9.90831 -9.43996,19.83784 -14.29678,29.69778 -2.2379,4.54421 -4.82852,8.91264 -7.2127,13.38842 -3.04834,5.72627 -6.23472,11.3558 -9.89887,16.71991 -2.85369,4.18321 -5.4337,8.56108 -8.1305,12.85165 -5.69795,9.0778 -12.19574,17.58934 -18.42102,26.29671 -0.82107,1.14313 -1.66102,2.29688 -2.64842,3.28428 -6.80216,6.85996 -11.8147,15.04944 -17.05258,23.0431 -4.01688,6.11674 -7.68102,12.46943 -11.54219,18.69471 -0.42941,0.68423 -1.16201,1.18206 -1.75893,1.76838 -0.52733,-2.00313 -0.20527,-3.88004 0.70428,-5.72627 1.86629,-3.79156 3.69364,-7.59374 5.53044,-11.39473 5.65902,-11.64837 11.80526,-23.02422 19.08637,-33.7536 1.25992,-1.85685 2.2957,-3.87059 3.32203,-5.87372 2.32638,-4.50528 4.47579,-9.09785 6.88003,-13.55476 5.36527,-9.92837 8.93151,-20.61881 13.25157,-30.99782 0.42941,-1.03578 0.81046,-2.10105 1.05465,-3.19463 0.10848,-0.46952 -0.12623,-1.05583 -0.31262,-1.54423 -0.22415,-0.58631 -1.39676,-0.72316 -2.24733,-0.20526 -1.67045,1.01571 -3.40107,1.98307 -4.91581,3.20524 -1.52417,1.23161 -2.83364,2.73573 -4.23159,4.12424 -3.59573,3.54735 -7.03573,7.241 -11.37467,10.01565 -3.30316,2.11167 -5.52099,5.62953 -9.02943,7.57368 -5.04322,4.89694 -11.01368,8.72742 -15.90945,13.79896 -2.15059,2.21784 -4.48521,4.26108 -6.079,6.98737 -0.55681,0.95791 -1.38732,1.76837 -2.1789,2.55995 -6.36212,6.38218 -11.67785,13.64206 -17.40412,20.561 -4.66218,5.62953 -8.88314,11.62005 -13.68217,17.09269 -5.42309,6.17573 -10.03571,12.82099 -14.40415,19.71043 -4.99367,7.85681 -9.04947,16.2032 -12.62633,24.7631 -2.59888,6.21584 -4.91463,12.55791 -7.39673,18.82212 -0.51788,1.30004 -0.9874,2.75578 -1.90639,3.73258 -2.34525,2.50214 -2.6673,5.46319 -2.55995,8.61889 -0.80102,-0.16516 -1.76837,-0.11679 -2.39479,-0.5462 -6.04833,-4.13367 -12.0589,-8.31689 -18.01993,-12.57797 -1.59259,-1.13369 -2.97048,-2.58001 -4.40736,-3.91779 -0.6453,-0.60636 -0.82107,-2.37473 -0.34212,-3.18637 1.27998,-2.18952 2.58001,-4.35899 3.89892,-6.51785 5.58116,-9.14739 11.40534,-18.11783 18.70533,-26.02419 0.57569,-0.62524 1.13369,-1.2611 1.64096,-1.93471 5.10102,-6.73373 10.31059,-13.38842 15.26533,-20.2295 6.44942,-8.91146 12.21462,-18.2547 16.83786,-28.28097 2.47148,-5.36528 5.21783,-10.59254 7.40735,-16.10409 1.57254,-3.96852 2.90206,-7.99484 3.41995,-12.15682 0.58632,-4.74003 1.75893,-9.42109 1.72944,-14.23899 -0.01,-1.86628 1.2611,-2.97049 3.26424,-3.12739 7.86624,-0.6158 15.68411,-1.54423 23.43356,-2.99997 1.10538,-0.20527 2.2379,-0.31262 3.36215,-0.35156 10.22211,-0.33267 20.01362,-2.98109 29.79571,-5.60947 3.53792,-0.94848 6.93899,-2.35468 10.1348,-4.19265 9.29251,-5.35467 18.23464,-11.18947 25.91566,-18.79146 4.65157,-4.6032 8.44312,-9.77264 11.63893,-15.48003 5.57055,-9.94842 8.96101,-20.61999 11.09155,-31.75991 0.41997,-2.20839 0.95791,-4.40736 1.26109,-6.63581 0.26426,-1.94414 0.44003,-3.9284 0.35156,-5.88317 -0.16634,-3.75263 -3.44945,-6.59571 -7.35898,-6.54733 -0.83994,0.01 -1.67045,0.23475 -2.51157,0.36216 -0.0778,-3.4695 -0.14629,-6.939 -0.22415,-10.40849 0.80102,-0.22415 0.9473,-0.44947 0.41054,-0.58631 -0.0496,-0.01 -0.22532,0.43058 -0.33268,0.66534 -2.99054,1.72001 -5.13995,4.23159 -7.01685,7.08411 -2.33464,3.54735 -5.31573,6.48009 -9.03887,8.659 -4.59258,2.68736 -9.04949,5.62835 -13.6515,8.30628 -7.78956,4.5442 -15.04,9.77263 -21.53898,16.04628 -1.00628,0.97679 -1.94414,2.10105 -3.12739,2.81477 -4.15254,2.51158 -7.35778,6.06838 -10.73998,9.43052 -7.96417,7.93467 -15.8599,15.93776 -23.81462,23.88305 -1.98427,1.98426 -3.9874,3.97795 -6.17692,5.72626 -3.93784,3.13682 -8.07151,6.04007 -12.01996,9.16746 -1.06527,0.83994 -1.78843,2.12936 -2.66731,3.20524 -8.79467,0.15572 -17.2779,2.03262 -25.66203,4.57252 -8.88315,2.69798 -17.72736,5.50212 -26.24952,9.21583 -1.27998,0.55682 -2.65787,0.88006 -3.98621,1.30002 -0.60636,0.18522 -1.89578,-0.71371 -1.84741,-1.30946 0.17578,-1.95477 0.29374,-3.9284 0.6158,-5.86312 0.36099,-2.21902 0.88006,-4.40736 1.39794,-6.59688 0.33151,-1.40739 2.76523,-2.67792 4.11363,-2.14942 2.61893,1.02516 5.19894,2.11992 7.80843,3.17575 0.78096,0.31262 1.58317,0.60519 2.39362,0.84939 1.94533,0.58631 4.03576,-0.39048 4.75892,-2.4231 0.66534,-1.8368 1.07587,-3.77151 1.61264,-5.65784 0.30318,-1.06527 1.7495,-1.5643 2.72629,-0.90955 1.63271,1.09476 3.2253,2.25793 4.87688,3.34209 0.69367,0.46008 1.46637,0.83168 2.22846,1.17262 2.41367,1.06527 5.31573,-0.25364 6.21466,-2.73573 1.25166,-3.47894 1.60321,-7.11477 1.91583,-10.75887 0.059,-0.74321 1.25049,-1.21273 1.94415,-0.77271 1.418,0.91899 2.80533,1.87691 4.2422,2.76523 0.71254,0.44003 1.48525,0.80219 2.24733,1.15374 1.84623,0.83052 4.27052,0.059 5.08098,-1.74005 0.68422,-1.52418 1.2611,-3.11678 1.74005,-4.72942 0.80102,-2.68736 1.42626,-5.43371 2.24733,-8.12107 0.46953,-1.5336 2.70742,-2.30631 4.25165,-1.63152 2.06094,0.88949 4.08412,1.87573 6.18517,2.65787 1.52417,0.57687 3.72313,-0.361 4.29057,-1.85685 1.18206,-3.1557 2.47265,-6.30315 3.22412,-9.57682 0.74321,-3.21468 2.25794,-5.67789 4.83795,-7.6421 4.25046,-3.23473 8.47261,-6.51784 12.65464,-9.84106 4.64213,-3.69364 9.61693,-6.85996 14.64953,-9.97673 5.02317,-3.10851 9.79152,-6.62637 14.62947,-10.02746 11.53157,-8.09038 23.00416,-16.25037 34.56405,-24.29357 3.30316,-2.29688 6.04007,-5.0326 8.14112,-8.45256 1.18206,-1.91583 2.55995,-3.72431 3.71369,-5.65902 1.00629,-1.69051 2.12937,-3.40107 2.67674,-5.25675 2.54108,-8.62006 5.80531,-17.09268 5.93272,-26.25896 1.95358,-10.90632 0.92842,-21.92945 1.35783,-32.89358 0.0389,-2.06212 -1.02634,-3.73376 -1.69994,-5.56111 z"
     fill="#7b8a27"
     id="path5"
     style="stroke-width:1.1797" />
  <path
     d="m 314.60454,131.13661 c -1.62326,3.44945 -4.67162,5.56112 -7.49581,7.85681 -1.30948,1.06527 -2.6968,2.05268 -4.15374,2.89263 -4.99366,2.8537 -8.95157,6.82103 -12.16625,11.5127 -1.61264,2.35468 -3.70425,3.07783 -6.41049,3.33147 -6.05894,0.56743 -11.18946,-1.09359 -15.13792,-5.75576 -4.33893,-5.13052 -10.09469,-8.11044 -16.07578,-10.57366 -4.1726,-1.72 -8.27678,-3.51786 -12.29366,-5.55993 -0.99684,-0.50845 -2.081,-0.85999 -3.44,-1.40738 -7.48521,1.87573 -15.37151,1.17263 -23.21888,1.07471 -1.9347,-0.0296 -3.85054,-0.76209 -5.79469,-0.93786 -0.72316,-0.0685 -1.61264,0.39992 -2.23789,0.87887 -0.6453,0.49902 -1.16318,1.24105 -1.53479,1.97482 -3.83049,7.52413 -8.53041,14.57992 -12.00935,22.29989 -1.27054,2.82419 -2.67793,5.60004 -4.24221,8.27795 -5.71682,9.78208 -12.62515,18.4694 -21.58616,25.64197 -6.36212,5.0916 -12.62633,10.29053 -19.14418,15.18629 -3.13682,2.3653 -6.14742,4.91582 -9.13796,7.4569 -4.97362,4.22096 -8.7463,9.51781 -12.72307,14.61884 -4.16317,5.3464 -7.71996,11.06324 -10.53473,17.24841 -1.16318,2.55995 -2.32637,5.15056 -3.7432,7.57368 -2.58944,4.46634 -3.85054,9.42109 -4.69048,14.36521 -0.56625,3.34209 -1.2316,6.67474 -2.18953,9.86112 -1.4062,4.69992 -1.62209,9.40103 -1.52417,14.19888 0.0389,1.97363 0.12741,3.95789 -0.0578,5.91266 -0.0979,1.05465 -0.72316,2.06094 -1.11481,3.09789 -1.74951,-3.62641 -2.178918,-7.45689 -2.267388,-11.47377 -0.23358,-11.34518 1.035768,-22.47566 4.192648,-33.3525 1.09476,-3.76206 2.55995,-7.45688 4.18322,-11.03374 4.19147,-9.24413 9.21465,-18.02937 15.22522,-26.23772 0.83051,-1.1337 1.5926,-2.32637 2.36412,-3.49899 6.38218,-9.62636 13.7211,-18.53782 20.61999,-27.78313 2.18952,-2.92212 4.18321,-5.99053 6.27364,-8.98106 2.90325,-4.14312 5.57999,-8.49149 8.79585,-12.37153 5.05148,-6.08843 9.31256,-12.68413 13.51465,-19.34001 0.75265,-1.19149 1.39795,-2.48209 2.34525,-3.49781 4.62325,-5.02316 7.74946,-11.02312 11.23901,-16.79894 2.47147,-4.09474 4.95474,-8.18948 8.3157,-11.65898 1.63271,-1.67989 3.2548,-2.19778 5.31574,-1.21155 3.58747,1.71056 7.32948,2.78527 11.18946,3.65471 3.64527,0.82107 7.25162,1.0169 10.85797,0.10854 6.91893,-1.7495 13.94524,-1.5053 20.98097,-1.30003 2.88319,0.0873 5.54106,0.87887 8.02314,2.30631 0.9768,0.55682 2.02319,1.03578 2.90207,1.72 4.9748,3.82105 10.64207,6.40106 16.43794,8.52098 6.55679,2.39479 13.14305,5.08214 20.38524,4.75892 0.8305,-0.0389 1.81673,-0.1168 2.48208,0.26424 2.82421,1.62209 5.44314,0.50845 8.07151,-0.41997 2.12111,-0.74321 4.14312,-1.75893 6.28428,-2.44316 1.59259,-0.49901 3.28309,-0.65473 4.92524,-0.95792 z"
     fill="#7b8a27"
     id="path9"
     style="stroke-width:1.1797" />
  <path
     d="m 357.04545,95.057475 c -3.0389,-0.811162 -5.57998,-2.521268 -8.18004,-4.182629 -8.57052,-5.491991 -17.77573,-9.64536 -27.50826,-12.645445 -1.07589,-0.332204 -2.1211,-0.752414 -3.21586,-1.016312 -6.82103,-1.700421 -13.61257,-3.508313 -20.48314,-5.003465 -8.2473,-1.7981 -16.58306,-3.185782 -25.04624,-3.557152 -1.30002,-0.05863 -1.74005,-1.143365 -0.82107,-2.257357 2.13998,-2.580005 3.33266,-5.824418 6.04008,-8.042726 6.08725,-4.993685 11.55988,-10.739771 18.47883,-14.668292 2.96104,-1.680838 6.19578,-2.794947 9.50838,-3.371468 5.01373,-0.869793 9.53788,0.234525 12.73369,4.65156 1.31891,1.817683 2.61893,3.654949 3.89891,5.492097 3.02947,4.319474 6.9968,6.225057 12.34321,5.198941 4.46517,-0.860002 8.8041,-2.189052 12.60628,-4.602838 6.51784,-4.133671 13.12417,-4.60272 20.11154,-1.602623 8.35464,1.788308 15.73367,5.980728 23.34628,9.576939 2.02318,0.94789 3.87884,2.257476 5.7357,3.527776 2.39479,1.631999 4.23158,3.772212 4.74947,6.713677 0.57688,3.244413 2.1506,5.726621 4.9748,7.446507 0.46834,0.283482 0.86,0.723157 1.27054,1.104318 1.06527,0.987056 1.75894,2.169458 1.8073,3.664611 0.0495,1.690628 0.14628,3.371464 0.14628,5.062093 -0.0189,5.619149 0.059,11.248103 -0.16515,16.857463 -0.0979,2.49188 -0.8022,4.96406 -1.32953,7.42728 -0.0979,0.4589 -0.7432,1.22099 -0.96735,1.162 -0.75265,-0.18521 -1.65158,-0.50727 -2.09161,-1.09358 -1.3484,-1.79904 -2.50214,-3.73375 -3.7432,-5.60971 -2.89262,-4.34873 -6.94725,-7.211986 -11.5705,-9.528091 -6.1663,-3.097789 -12.83043,-4.016421 -19.50517,-4.983882 -1.36846,-0.195477 -2.80414,0.06843 -4.20209,0.117262 -2.6095,0.088 -4.96418,0.684097 -6.73374,2.863369 -0.48839,0.566729 -1.38732,0.830628 -2.18834,1.299677 z"
     fill="#ffffff"
     id="path10"
     style="stroke-width:1.1797" />
  <path
     d="m 269.12,376.14039 c 0.87888,-1.08414 1.60204,-2.36412 2.66731,-3.20525 3.95789,-3.12739 8.08213,-6.02945 12.01997,-9.16628 2.18952,-1.74949 4.19266,-3.74318 6.17573,-5.72626 7.95472,-7.94529 15.85164,-15.94838 23.8158,-23.88422 3.38102,-3.36097 6.58626,-6.91895 10.73999,-9.43053 1.18206,-0.71254 2.11048,-1.83679 3.12739,-2.81359 6.49779,-6.27482 13.74941,-11.50208 21.53779,-16.04629 4.60319,-2.68735 9.04949,-5.61891 13.65268,-8.30626 3.72313,-2.1801 6.70305,-5.10221 9.03887,-8.659 1.8769,-2.8537 4.02631,-5.36529 7.01686,-7.08529 l -0.0778,-0.0778 c 0.0778,3.4695 0.14628,6.939 0.22415,10.40732 -0.44003,2.7664 -1.16319,5.53162 -1.27997,8.31689 -0.36218,9.09785 -3.39165,17.60939 -5.74633,26.2389 -2.32519,8.52098 -7.04635,15.81153 -13.04631,22.32937 -9.39041,10.19262 -20.73678,16.96528 -34.11458,20.57163 -12.23586,3.30198 -24.58732,5.61891 -37.29152,5.80412 -1.95476,0.0294 -3.90953,0.28313 -5.8643,0.45891 -4.19146,0.37161 -8.38412,0.79157 -12.59566,0.27369 z"
     fill="#b9c43a"
     id="path11"
     style="stroke-width:1.1797" />
  <path
     d="m 239.50598,70.205785 c 0.49783,0.986937 1.12307,1.817683 0.29257,2.491881 -4.36844,3.566943 -8.83361,6.957981 -14.68728,7.720185 -1.2316,0.16622 -2.01376,1.026104 -2.5222,2.022952 -0.49783,0.986937 -0.84939,2.071669 -1.1042,3.156405 -0.39048,1.671164 0.62642,3.566954 2.1211,4.153265 5.1494,2.042522 10.43682,2.628834 15.49891,0.156429 2.55051,-1.250837 4.74947,-1.055479 7.27993,-0.449584 8.7463,2.091361 17.5221,4.065366 26.29788,6.029568 3.5863,0.80137 7.14427,1.690629 10.27048,3.654948 1.82736,1.153036 3.54737,1.495156 5.55168,0.723157 1.11363,-0.420327 2.18834,-0.06843 3.27366,0.283359 2.67674,0.85021 5.40421,1.544 8.06207,2.45284 6.90833,2.36494 13.78835,4.8376 20.68724,7.21233 2.90324,0.99685 5.85367,1.87573 8.85483,2.82421 -0.26425,0.68422 -0.30318,1.30947 -0.60637,1.4758 -4.15372,2.36412 -8.3452,4.661 -12.52841,6.96731 -1.77781,0.98741 -3.70309,1.33897 -5.7074,1.05584 -8.63776,-1.19268 -17.27671,-2.37474 -25.60304,-5.13052 -1.86629,-0.6158 -3.72313,-1.30003 -5.50212,-2.1211 -5.35467,-2.47266 -10.70107,-4.97362 -15.97787,-7.59256 -3.04835,-1.51532 -6.2536,-2.48279 -9.54731,-3.21562 -3.02004,-0.67432 -6.09788,-1.10432 -9.07898,-1.8959 -5.21782,-1.37789 -10.53474,-1.71021 -15.87996,-1.93495 -3.40107,-0.14652 -6.68418,-0.13684 -9.87999,1.4659 -1.4357,0.72316 -3.26424,0.82084 -4.92524,0.88926 -3.08729,0.12705 -6.19579,0.19547 -9.2642,-0.039 -2.35468,-0.18569 -4.16316,-1.62221 -5.25674,-3.75263 -1.84741,-3.596199 -2.44316,-7.534524 -2.45378,-11.463046 0,-3.439886 1.11482,-6.703764 4.43685,-8.560601 2.19896,-1.231253 4.44629,-2.403995 6.7526,-3.410515 7.54419,-3.312835 15.38213,-5.306412 23.68839,-5.198941 2.55052,0.05863 5.07154,0.02937 7.4569,0.02937 z"
     fill="#ffffff"
     id="path18"
     style="stroke-width:1.1797" />
  <path
     d="m 157.40471,156.64292 c -0.0484,-0.55682 -0.25364,-1.15257 -0.11679,-1.66102 2.24733,-8.44312 3.2253,-17.04313 3.59573,-25.75994 0.33267,-7.83793 0.88949,-15.69474 3.2253,-23.28788 1.7495,-5.68757 4.14311,-11.033034 8.25791,-15.440396 0.53675,-0.58631 1.32833,-0.947889 2.04205,-1.348633 0.20527,-0.117262 0.57688,-0.04884 0.82107,0.04884 0.20527,0.08801 0.46952,0.332322 0.4884,0.518006 0.78214,8.84398 4.06524,16.827963 8.2579,24.518423 0.39049,0.71372 0.47896,1.59378 0.76209,2.55052 -7.18319,12.61689 -13.94524,25.56528 -23.64946,36.62734 -1.08414,1.24105 -1.92527,2.79471 -3.78212,3.0979 -0.0189,0.01 0.0979,0.13684 0.0979,0.13684 z"
     fill="#b9c43a"
     id="path24"
     style="stroke-width:1.1797" />
  <path
     d="m 177.40064,361.87309 c 2.24732,0 4.50527,-0.0495 6.7526,0.01 2.3358,0.059 3.42939,1.22099 3.59573,3.72313 0.0778,1.12426 0.2147,2.25795 0.11796,3.37159 -0.25481,3.08845 -0.39165,6.20522 -0.96735,9.24413 -0.79157,4.14429 -1.82853,8.24847 -2.9811,12.30428 -0.6158,2.14941 -1.50529,4.27995 -3.26423,5.81474 -0.32206,0.28313 -1.01573,0.302 -1.47581,0.19465 -0.51789,-0.12623 -1.05465,-0.44947 -1.42625,-0.83051 -4.97481,-5.16001 -8.38531,-11.25788 -10.66214,-18.01049 -1.67045,-4.97362 -1.25992,-9.99678 -0.0684,-14.99989 0.21588,-0.92843 1.11481,-1.29059 1.94531,-1.28115 2.81478,0.0495 5.62836,0.20526 8.44313,0.32323 -0.01,0.0389 -0.01,0.0873 -0.01,0.13685 z"
     fill="#ffffff"
     id="path28"
     style="stroke-width:1.1797" />
  <path
     d="m 154.97217,397.79616 c -0.55683,-0.44003 -1.12427,-0.70311 -1.40738,-1.14314 -7.3,-11.34518 -11.2579,-23.69782 -11.15998,-37.26203 0,-0.54737 0.17578,-1.09476 0.25364,-1.64213 0.079,-0.59575 1.29059,-1.50413 1.86747,-1.36728 4.34838,1.03578 8.64838,2.33463 13.03569,3.04835 5.1895,0.84112 5.35584,1.89577 4.71054,6.76204 -1.17262,8.88315 -2.23789,17.78634 -4.91581,26.3958 -0.58631,1.8663 -1.24105,3.61579 -2.38417,5.20839 z"
     fill="#ffffff"
     id="path29"
     style="stroke-width:1.1797" />
  <path
     d="m 428.44921,230.69863 c -0.91782,-2.46321 -1.01573,-4.79903 0.6158,-6.58745 2.66848,-2.93156 3.19581,-6.43999 3.49899,-10.10413 0.0484,-0.55683 0.0189,-1.12426 0,-1.68108 -0.33267,-9.81157 -0.41997,-19.65264 -1.57372,-29.40522 -0.83051,-6.97793 -2.70623,-13.75885 -5.65785,-20.19883 -0.92843,-2.02318 -1.64214,-4.14429 -2.34525,-6.25477 -0.0979,-0.30319 0.37043,-0.82108 0.64412,-1.18206 0.0401,-0.0496 0.60637,0.13684 0.72316,0.33149 8.72743,14.24843 13.06636,29.61048 12.42107,46.43892 -0.37161,9.70421 -2.40423,18.88937 -6.26421,27.72414 -0.22414,0.49783 -1.33895,0.61581 -2.06211,0.91899 z"
     fill="#ffffff"
     id="path31"
     style="stroke-width:1.1797" />
  <path
     d="m 245.99197,350.50785 c -0.27369,3.91779 -0.22415,6.47891 -0.68423,8.94095 -0.44002,2.35586 0.0979,5.07271 -2.04206,6.95788 -2.48208,-0.90837 -3.83048,-3.17575 -5.40421,-4.99367 -2.76521,-3.19463 -4.44629,-7.09473 -5.45258,-11.24728 -0.27369,-1.14312 0.31262,-2.48208 1.3484,-2.72629 3.51787,-0.80219 7.04518,-1.57371 10.59254,-2.25794 0.34211,-0.0684 1.12425,0.53794 1.17262,0.90837 0.29375,1.92527 0.41054,3.8706 0.46952,4.41798 z"
     fill="#ffffff"
     id="path34"
     style="stroke-width:1.1797" />
  <path
     d="m 199.98718,359.88883 c 0.0967,-0.0295 1.42626,-0.44946 2.77466,-0.83051 1.15375,-0.33268 2.42428,0.39048 2.50215,1.40738 0.41997,5.86311 0.77152,11.71679 -0.30319,17.55159 -0.13684,0.77152 -0.11679,1.70938 -1.11364,1.81674 -0.46952,0.0495 -1.17261,-0.2147 -1.46636,-0.5757 -2.67793,-3.2253 -5.31573,-6.48009 -7.90636,-9.78207 -1.39677,-1.78843 -2.11048,-3.91897 -2.6673,-6.09905 -0.1569,-0.61462 0.52733,-1.81674 1.21155,-1.97364 1.89578,-0.44003 3.80218,-0.83051 6.96849,-1.51474 z"
     fill="#ffffff"
     id="path35"
     style="stroke-width:1.1797" />
  <path
     d="m 210.50775,356.96671 c 4.60319,-1.85685 9.22526,-3.72313 13.85677,-5.57998 0.5863,-0.23476 2.07273,0.38104 2.13054,0.90837 0.28312,2.76521 0.92842,5.5611 0.72315,8.29683 -0.63468,8.60946 -1.66102,9.61574 -9.32199,5.16001 -2.93273,-1.69995 -5.1895,-4.19265 -6.99798,-7.05579 -0.29257,-0.42941 -0.25364,-1.05583 -0.39049,-1.72944 z"
     fill="#ffffff"
     id="path36"
     style="stroke-width:1.1797" />
  <path
     d="m 131.62352,370.7751 c -1.25047,2.83365 -2.43254,5.6378 -3.742,8.39358 -0.17695,0.36216 -0.91898,0.49901 -1.42744,0.64529 -0.17578,0.0496 -0.5863,-0.11679 -0.62524,-0.25364 -1.54423,-6.54733 -2.58001,-13.14421 -1.95477,-19.89683 0.23477,-2.51157 0.79159,-4.90519 2.16003,-7.19263 0.81046,3.33266 1.46519,6.59689 2.43374,9.77264 0.88831,2.89263 2.10103,5.7074 3.15568,8.53159 z"
     fill="#ffffff"
     id="path37"
     style="stroke-width:1.1797" />
  <path
     d="m 251.03637,343.432 c 3.78212,-1.47579 7.61379,-2.90206 11.69791,-3.47893 0.26425,-0.0389 0.89894,0.7031 0.93786,1.11364 0.37161,4.25164 -0.67361,8.29683 -1.86628,12.32315 -0.37161,1.2611 -2.35469,1.91583 -3.44001,1.17263 -0.44947,-0.31262 -0.9768,-0.54739 -1.35783,-0.93787 -2.71686,-2.84307 -5.13052,-5.88316 -5.97165,-10.19262 z"
     fill="#ffffff"
     id="path38"
     style="stroke-width:1.1797" />
  <path
     d="m 138.72297,363.7783 c 0,2.49153 0.01,4.98306 -0.0295,7.47577 0,0.0873 -0.4884,0.24419 -0.74321,0.23476 -0.21471,-0.0109 -0.47896,-0.1864 -0.6158,-0.37161 -3.94728,-5.28742 -5.94097,-11.26732 -6.08725,-17.84415 -0.0109,-0.34211 0.72314,-0.99684 1.10419,-0.98741 1.97364,0.01 3.78094,0.75265 5.43252,1.79787 0.41054,0.26424 0.83169,0.88005 0.84113,1.34839 0.0778,2.78528 0.0389,5.57055 0.0389,8.34638 0.0201,0 0.0389,0 0.059,0 z"
     fill="#ffffff"
     id="path40"
     style="stroke-width:1.1797" />
  <path
     d="m 271.84747,336.84574 c 0.40109,-0.66418 0.56743,-1.35902 0.98741,-1.57373 2.2084,-1.15256 4.46517,-2.20839 6.72312,-3.26423 0.67478,-0.31262 1.66102,0.63586 1.52417,1.5053 -0.3315,2.19896 -0.6158,4.4168 -1.12308,6.58627 -0.16634,0.70428 -0.97797,1.26111 -1.65158,2.08217 -2.2379,-1.85684 -4.36844,-3.60634 -6.46004,-5.33578 z"
     fill="#ffffff"
     id="path41"
     style="stroke-width:1.1797" />
  <path
     d="m 202.12244,393.57401 c -1.88634,-0.0979 -3.27367,-0.0885 -4.63151,-0.29257 -0.42114,-0.0685 -1.05583,-0.70429 -1.07588,-1.10538 -0.0967,-2.18835 -0.0778,-4.39674 0.0201,-6.58627 0.01,-0.28313 0.99684,-0.84939 1.12425,-0.75265 3.03891,2.35587 6.01884,4.76953 8.9905,7.21269 0.0979,0.0778 -0.059,0.7326 -0.16634,0.75265 -1.57372,0.31262 -3.15688,0.5757 -4.26108,0.77153 z"
     fill="#7b8a27"
     id="path43"
     style="stroke-width:1.1797" />
  <path
     d="m 414.2279,144.94501 c -1.15374,-0.14628 -1.93588,-0.8305 -2.32636,-1.87572 -0.13685,-0.37161 -0.0389,-1.07589 0.23475,-1.30003 0.32207,-0.2737 1.04522,-0.4306 1.40739,-0.25481 1.00628,0.48957 1.49468,1.42743 1.53361,2.57055 -0.302,0.26426 -0.58631,0.54739 -0.84939,0.86001 z"
     fill="#b5c30d"
     id="path47"
     style="stroke-width:1.1797" />
  <path
     d="m 419.54953,149.74404 c -0.60636,-0.40111 -1.28115,-0.7326 -1.77899,-1.24106 -0.20526,-0.2147 -0.0201,-0.82106 -0.01,-1.24104 0.42941,0.0201 1.11364,-0.10739 1.25048,0.10739 0.39048,0.60636 0.54738,1.3484 0.80102,2.04206 -0.01,0 -0.26308,0.33268 -0.26308,0.33268 z"
     fill="#b5c30d"
     id="path49"
     style="stroke-width:1.1797" />
  <path
     d="m 421.21173,151.45342 c 0.39166,0.2147 0.78215,0.41997 1.17263,0.63468 -0.21471,0.2442 -0.42941,0.48839 -0.64412,0.72315 -0.19583,-0.44003 -0.39166,-0.87887 -0.58632,-1.30947 z"
     fill="#b5c30d"
     id="path51"
     style="stroke-width:1.1797" />
  <path
     d="m 421.16219,151.50178 c -1.03578,-0.13684 -1.54423,-0.75146 -1.61266,-1.75892 0,0 0.26426,-0.33151 0.26426,-0.34213 1.15256,0.2159 1.5053,0.98742 1.39676,2.05269 z"
     fill="#b5c30d"
     id="path52"
     style="stroke-width:1.1797" />
  <path
     d="m 157.2891,156.51669 c -0.2442,0.25364 -0.49901,0.51789 -0.74322,0.77271 0.059,-0.17696 0.059,-0.4306 0.17578,-0.50963 0.18639,-0.11679 0.44946,-0.10739 0.68423,-0.14628 0,0.01 -0.11679,-0.1168 -0.11679,-0.1168 z"
     fill="#b5c30d"
     id="path54"
     style="stroke-width:1.1797" />
  <path
     d="m 415.08673,144.085 c 0.3716,0.29257 0.77152,0.55683 1.11363,0.87888 0.13685,0.12741 0.19584,0.57688 0.1569,0.59575 -0.39047,0.18639 -0.86943,0.49901 -1.19267,0.39167 -0.38105,-0.13685 -0.62525,-0.65474 -0.92842,-1.01691 0.25481,-0.30318 0.53794,-0.58631 0.85056,-0.84939 z"
     fill="#b5c30d"
     id="path60"
     style="stroke-width:1.1797" />
  <path
     d="m 321.26513,149.89976 c 0.4011,0.36216 0.8895,1.08532 1.17263,1.01689 1.34839,-0.34211 2.68735,-0.80219 3.92839,-1.418 3.30317,-1.62209 6.80216,-2.53989 10.34008,-3.47893 3.44945,-0.91781 6.68418,-0.61463 9.88944,0.59693 2.35467,0.88949 4.61262,2.0515 6.91894,3.08727 5.95158,2.67792 8.69675,7.71052 9.88942,13.76947 0.38105,1.91584 0.53677,3.9284 0.41998,5.87373 -0.70309,11.33574 -2.99997,22.23145 -9.27363,31.96516 -0.60636,0.94849 -1.25166,1.8663 -1.88633,2.79472 -5.77582,8.39475 -13.73054,13.06636 -23.89367,13.85794 -1.65158,0.12623 -3.37158,0.0967 -4.99367,-0.21588 -5.62835,-1.09359 -10.61259,-3.6441 -14.97157,-7.31887 -3.78094,-3.18636 -6.14625,-7.2705 -6.52729,-12.31372 -0.14628,-1.95358 -0.17578,-3.91895 -0.1864,-5.88316 -0.01,-2.24733 0.079,-4.48522 0.12741,-6.73255 1.2611,-6.18636 3.14745,-12.13794 6.44943,-17.58107 0.55799,-0.90838 0.88006,-1.99253 1.14431,-3.03892 0.11679,-0.46834 -0.15691,-1.04522 -0.25481,-1.57372 l -0.0685,0.0884 c 1.39794,0.22532 1.72,-0.65473 1.78843,-1.77899 l -0.0778,0.10849 c 1.62209,-0.64531 2.46204,-1.69169 1.7495,-3.49899 l -0.0685,0.0873 c 0.79158,0.42114 1.6221,0.3716 2.24734,-0.19466 2.21784,-2.00313 4.37787,-4.06525 6.55677,-6.10849 0.81163,-0.86 0.72316,-1.60204 -0.27369,-2.23789 z m -4.68105,28.92625 c 3.85998,-3.99682 7.71052,-8.00309 11.5705,-11.99991 0.5179,-0.16634 0.85057,-0.50845 1.00747,-1.03578 2.22728,-0.23476 4.45573,-0.46952 6.68418,-0.69484 3.4294,-0.33149 6.69362,0.32324 9.89887,1.5053 3.65471,1.33896 6.14741,3.76206 7.41678,7.47576 1.30003,3.78212 2.05268,7.56424 0.67478,11.51152 -0.64529,1.84741 -1.09476,3.76324 -1.69994,5.62009 -0.78214,2.39362 -1.6327,4.76835 -2.45378,7.15253 -2.36412,1.94532 -4.71998,3.90953 -7.10416,5.84423 -2.71685,2.2084 -5.74632,3.40108 -9.33261,2.94218 -1.09476,-0.13685 -2.21784,-0.0109 -3.33265,0 -2.2379,-2.62955 -2.37474,-2.78528 -0.72316,-4.96537 2.38536,-3.1557 2.83483,-6.61575 2.35586,-10.33889 -0.27368,-2.16003 -1.59259,-3.51787 -3.55798,-4.27995 -1.9642,-0.76209 -3.97676,-0.63586 -5.60829,0.58631 -1.54423,1.15256 -2.7664,2.73573 -4.12423,4.12423 -2.02319,0.2147 -3.21587,-0.72316 -3.54737,-2.68736 -0.18639,-1.10538 -0.1274,-2.25795 -0.34211,-3.35271 -0.0778,-0.41997 -0.62524,-0.74203 -1.12425,-1.28941 -0.19466,2.68736 -0.57688,5.21782 -0.50845,7.72939 0.0885,3.69365 0.79158,7.26106 3.86116,9.84107 1.64096,1.93471 3.29254,3.85998 4.93468,5.7947 0.93787,4.01687 4.17261,5.01371 7.54419,5.12107 4.1726,0.13685 8.21897,-0.74321 11.74628,-3.30317 4.04637,-2.93155 8.03258,-5.88315 9.81157,-10.84734 0.21471,-0.17577 0.49784,-0.30318 0.64529,-0.52733 6.27366,-9.75258 8.09157,-20.59992 7.79783,-31.96634 -0.01,-0.55682 -0.11679,-1.11364 -0.22415,-1.66102 -0.91899,-4.68105 -5.1895,-8.38413 -9.89061,-8.8041 -3.44944,-0.31381 -6.60514,0.60518 -9.79151,1.6905 -4.26108,1.44632 -8.22841,3.28311 -11.15997,6.85996 -0.56626,-0.11796 -1.04522,0.0296 -1.44631,0.44003 -4.42742,2.03263 -7.39791,5.62835 -10.01684,9.54732 -0.57687,0.86 -0.56626,2.10105 -0.82108,3.16632 -0.31262,0.7031 -0.66416,1.39676 -0.9178,2.11992 -0.059,0.17695 0.12623,0.50845 0.29256,0.68422 0.35155,0.38105 0.76209,0.21589 1.03578,-0.47896 0.20527,-0.46834 0.30319,-1.00628 0.44947,-1.52417 z"
     fill="#070808"
     id="path71"
     style="stroke-width:1.1797" />
  <path
     d="m 299.47488,185.28606 c -1.00628,3.2253 -2.00314,6.46003 -3.01885,9.67471 -0.59693,1.87692 -1.17263,3.76207 -1.83797,5.61893 -1.55368,4.35899 -4.2021,7.77894 -8.04202,10.53472 -6.40107,4.59375 -12.53786,9.56737 -18.76315,14.40415 -1.11364,0.86 -2.18952,1.78842 -3.16631,2.79588 -8.86309,9.12735 -17.13044,18.7136 -22.65261,30.32303 -1.57373,3.29373 -2.77466,6.76323 -4.27052,10.10532 -0.44003,0.97679 -1.17262,1.90521 -1.98308,2.61893 -0.59692,0.51789 -1.54423,0.65473 -2.3653,0.15572 -0.73259,-0.44946 -1.40738,-0.95791 -1.39794,-1.92527 0.0109,-0.54738 0.0109,-1.13369 0.19583,-1.64097 3.35152,-9.63579 7.84737,-18.66522 14.12101,-26.77684 9.01055,-11.6578 18.92948,-22.34942 31.38948,-30.441 1.18206,-0.76208 2.30631,-1.62208 3.43883,-2.46203 5.08215,-3.74319 4.62324,-2.64842 6.08843,-9.46945 1.36846,-6.33264 2.41367,-12.72426 3.67477,-19.07577 1.55366,-7.77894 4.0853,-15.18628 7.95472,-22.15478 4.80846,-8.64838 11.79465,-15.01994 20.4041,-19.62313 3.70426,-1.98308 7.62323,-3.70309 11.6295,-4.95357 9.57681,-3.00116 19.43792,-3.24535 29.25892,-1.58315 4.71055,0.80101 9.13679,2.8242 12.47889,6.56621 0.73259,0.82107 0.85055,2.2084 0.25481,3.09789 -0.66535,0.98741 -1.5348,1.69052 -2.75578,1.61265 -0.82107,-0.0484 -1.65159,-0.26425 -2.43373,-0.54738 -2.1211,-0.75264 -4.21153,-1.61265 -6.32319,-2.37473 -3.76206,-1.3484 -7.65154,-1.96421 -11.62831,-1.60204 -7.8863,0.72316 -15.63575,1.99369 -22.63373,6.09787 -1.96421,1.15257 -3.82105,2.38418 -5.32518,4.09474 -0.32323,0.37043 -0.33268,1.01573 -0.47896,1.53362 l 0.13685,-0.14628 c -0.55681,0.0885 -1.1042,0.17577 -1.6622,0.26424 -2.99997,1.45576 -4.88514,4.02633 -6.5957,6.742 -0.25364,0.41054 -0.19583,1.02634 -0.2737,1.54422 l 0.0685,-0.0873 c -1.66102,0.62524 -2.2084,1.81792 -1.7495,3.49781 l 0.0779,-0.10739 c -1.36728,-0.18521 -1.76838,0.59693 -1.78725,1.77899 l 0.0685,-0.0885 c -1.22217,0.13683 -1.97482,0.96735 -2.53164,1.92526 -3.68421,6.25477 -6.20523,12.9484 -7.56425,20.07262 z"
     fill="#070808"
     id="path72"
     style="stroke-width:1.1797" />
  <path
     d="m 153.60607,321.20055 c -0.44947,1.78842 -0.83051,4.02631 -1.60203,6.10731 -0.74321,1.99369 -2.46321,3.02003 -4.6032,3.18637 -2.4231,0.18521 -4.74003,-0.99685 -5.55048,-3.04009 -0.61581,-1.55366 -1.27055,-3.20524 -1.33897,-4.83677 -0.2442,-5.34522 -2.74634,-9.6936 -5.65784,-13.88626 -1.0169,-1.46636 -2.49271,-2.2084 -4.31063,-2.22845 -0.83994,-0.01 -1.72,0.0884 -2.50096,-0.13685 -0.7727,-0.22414 -1.65158,-0.62524 -2.13998,-1.2316 -2.51158,-3.16632 -3.91896,-6.68419 -3.99683,-10.85679 -0.0979,-5.17889 1.88517,-9.28425 5.51157,-12.76318 1.3189,-1.25992 2.88201,-1.6221 4.66099,-1.45576 1.73888,0.16634 3.36216,0.7326 4.64213,1.85686 1.46519,1.29059 2.92211,2.67791 4.02632,4.27051 2.56939,3.70426 4.90519,7.58312 6.41993,11.85363 2.16003,6.09787 4.74947,12.06952 5.72626,18.52838 0.19583,1.38851 0.42115,2.77583 0.71372,4.63269 z"
     fill="#070808"
     id="path73"
     style="stroke-width:1.1797" />
  <path
     d="m 202.80666,291.80358 c 0.39167,0.0201 1.52419,0.0201 2.62956,0.17578 2.11993,0.29375 3.60517,1.57373 4.46517,3.44001 0.46008,0.9874 0.72315,2.15059 0.76208,3.24535 0.23477,6.72311 -5.38415,13.07462 -12.14619,13.81784 -0.558,0.059 -1.12426,0.0389 -1.68108,0.059 -2.7369,0.0578 -4.79901,1.43569 -6.51784,3.39989 -2.05268,2.34525 -3.57686,4.98424 -4.62325,7.96533 -0.83051,2.36413 -1.84624,4.72943 -3.1557,6.85997 -1.76955,2.89263 -4.55482,4.06525 -7.95472,3.48838 -2.44316,-0.41054 -4.1148,-1.84741 -4.81789,-4.18205 -0.83052,-2.75578 -1.0464,-5.63896 0.44945,-8.19892 3.8305,-6.52846 6.94844,-13.50639 11.98104,-19.27159 1.66102,-1.89577 3.37159,-3.78212 5.25675,-5.44314 4.77897,-4.19265 8.09157,-5.33578 15.35262,-5.35584 z"
     fill="#070808"
     id="path74"
     style="stroke-width:1.1797" />
  <path
     d="m 299.47842,185.28606 c 1.35783,-7.13365 3.88004,-13.82728 7.55362,-20.08205 0.55683,-0.95792 1.30946,-1.78842 2.53164,-1.92527 0.0979,0.52732 0.38104,1.1042 0.25363,1.57372 -0.26307,1.04521 -0.58631,2.13054 -1.14312,3.03891 -3.30316,5.44314 -5.1895,11.39472 -6.44943,17.58108 -0.90955,-0.059 -1.82735,-0.11798 -2.74634,-0.18639 z"
     fill="#7b8a27"
     id="path75"
     style="stroke-width:1.1797" />
  <path
     d="m 378.91474,281.81742 c 0.11679,-0.23477 0.28313,-0.68422 0.33267,-0.66417 0.52734,0.13684 0.38105,0.36099 -0.41171,0.5863 z"
     fill="#b5c30d"
     id="path76"
     style="stroke-width:1.1797" />
  <path
     d="m 349.69592,198.37248 c 0.82107,-2.38536 1.67164,-4.76009 2.4526,-7.15371 0.60636,-1.85685 1.05583,-3.77268 1.70112,-5.61891 1.37789,-3.94846 0.62524,-7.73058 -0.67478,-11.5127 -1.27055,-3.71252 -3.7715,-6.13681 -7.41678,-7.47576 -3.20525,-1.17263 -6.47892,-1.83681 -9.90006,-1.50412 -2.22726,0.2147 -4.45572,0.4589 -6.69362,0.68304 -0.38103,-0.29257 -0.76208,-0.58631 -1.13368,-0.87888 2.93155,-3.57685 6.89888,-5.41364 11.15996,-6.85996 3.19581,-1.08532 6.35269,-2.00431 9.7927,-1.69051 4.69993,0.42942 8.96101,4.12305 9.88943,8.80411 0.10739,0.54738 0.20526,1.1042 0.22415,1.66102 0.29373,11.3558 -1.52419,22.20314 -7.79783,31.96634 -0.14628,0.22415 -0.43059,0.35156 -0.64529,0.52733 -0.35155,-0.31262 -0.66418,-0.6158 -0.95792,-0.94729 z"
     fill="#b5c30d"
     id="path77"
     style="stroke-width:1.1797" />
  <path
     d="m 318.26397,192.29111 c 1.35784,-1.39676 2.58001,-2.97048 4.12423,-4.12305 1.63153,-1.22217 3.64528,-1.35901 5.60948,-0.58631 1.9642,0.77152 3.28311,2.12936 3.5568,4.27995 0.47896,3.72314 0.0201,7.18202 -2.35468,10.3389 -1.64215,2.17891 -1.51474,2.33581 0.73259,4.9748 -1.48524,1.39676 -3.2253,1.78724 -5.21899,1.4357 -1.04522,-0.18522 -2.11992,-0.18522 -3.17576,-0.2737 -1.64214,-1.93471 -3.29372,-3.85998 -4.93469,-5.79468 -0.30318,-3.56742 0.21471,-6.98737 1.66102,-10.25161 z"
     fill="#ffffff"
     id="path78"
     style="stroke-width:1.1797" />
  <path
     d="m 321.52821,208.32915 c 1.05583,0.0873 2.13054,0.0873 3.17692,0.27368 1.99252,0.35156 3.73258,-0.0389 5.21782,-1.43687 1.11482,-0.01 2.2379,-0.13684 3.33266,0 3.58629,0.44947 6.61575,-0.73259 9.33261,-2.941 2.38417,-1.93588 4.74004,-3.90008 7.10416,-5.84423 0.29374,0.32206 0.6158,0.63468 0.94847,0.92842 -1.77898,4.96419 -5.76637,7.91579 -9.81156,10.84736 -3.52848,2.55995 -7.57368,3.44 -11.74629,3.30315 -3.38101,-0.1274 -6.61575,-1.11482 -7.55479,-5.13051 z"
     fill="#b5c30d"
     id="path79"
     style="stroke-width:1.1797" />
  <path
     d="m 315.72644,178.04387 c 0.26424,-1.06527 0.25481,-2.30631 0.83168,-3.15688 2.61894,-3.90834 5.58943,-7.50525 10.01566,-9.54731 0.52851,0.49901 1.05583,0.98741 1.58316,1.48524 -3.85998,3.99683 -7.71052,8.00427 -11.57051,12.00109 -0.28312,-0.26426 -0.57568,-0.5285 -0.85999,-0.78214 z"
     fill="#7b8a27"
     id="path80"
     style="stroke-width:1.1797" />
  <path
     d="m 318.26869,192.2923 c -1.44631,3.26422 -1.9642,6.68418 -1.67046,10.24098 -3.06958,-2.5694 -3.77268,-6.14624 -3.86115,-9.84106 -0.0578,-2.51159 0.32323,-5.0326 0.50844,-7.7294 0.49902,0.54737 1.0464,0.87888 1.12427,1.2894 0.2147,1.09477 0.15571,2.24852 0.34211,3.35271 0.34211,1.96421 1.54422,2.89263 3.55679,2.68737 z"
     fill="#7b8a27"
     id="path81"
     style="stroke-width:1.1797" />
  <path
     d="m 312.87392,158.2945 c 0.0885,-0.51788 0.0201,-1.13368 0.27369,-1.54422 1.72001,-2.70742 3.59691,-5.27681 6.60632,-6.74318 0.6453,0.65474 1.29059,1.31891 1.92528,1.97364 -2.17891,2.04325 -4.33894,4.10536 -6.55677,6.1085 -0.62525,0.57687 -1.45694,0.6158 -2.24852,0.20526 z"
     fill="#7b8a27"
     id="path82"
     style="stroke-width:1.1797" />
  <path
     d="m 316.58762,178.82601 c -0.14629,0.51789 -0.2442,1.05583 -0.43885,1.56428 -0.2737,0.68423 -0.68422,0.85057 -1.03578,0.47896 -0.16634,-0.17577 -0.36217,-0.50845 -0.29375,-0.68422 0.25364,-0.72316 0.60637,-1.41682 0.91899,-2.12111 0.27369,0.23477 0.56626,0.49902 0.84939,0.76209 z"
     fill="#7b8a27"
     id="path83"
     style="stroke-width:1.1797" />
  <path
     d="m 311.19167,161.70501 c -0.45891,-1.69051 0.0885,-2.87374 1.7495,-3.49899 0.71371,1.80848 -0.12741,2.84426 -1.7495,3.49899 z"
     fill="#7b8a27"
     id="path84"
     style="stroke-width:1.1797" />
  <path
     d="m 321.67921,151.99019 c -0.64412,-0.65474 -1.28942,-1.31891 -1.92528,-1.97364 0.55801,-0.0884 1.10538,-0.17579 1.6622,-0.26426 0.98624,0.63586 1.07471,1.37789 0.26308,2.2379 z"
     fill="#b5c30d"
     id="path85"
     style="stroke-width:1.1797" />
  <path
     d="m 309.49172,163.3743 c 0.0201,-1.17263 0.41998,-1.95359 1.78842,-1.77781 -0.0685,1.12308 -0.38104,1.99369 -1.78842,1.77781 z"
     fill="#7b8a27"
     id="path86"
     style="stroke-width:1.1797" />
  <path
     d="m 328.15813,166.8261 c -0.52852,-0.49901 -1.05584,-0.98741 -1.58317,-1.48525 0.39992,-0.41053 0.87888,-0.55681 1.44632,-0.44003 0.3716,0.29375 0.75265,0.58631 1.13369,0.88006 -0.14747,0.52733 -0.47896,0.87888 -0.99684,1.04522 z"
     fill="#b5c30d"
     id="path87"
     style="stroke-width:1.1797" />
</svg>
