<?xml version="1.0" standalone="no"?>
<!DOCTYPE svg PUBLIC "-//W3C//DTD SVG 1.1//EN" "http://www.w3.org/Graphics/SVG/1.1/DTD/svg11.dtd">
<svg xmlns="http://www.w3.org/2000/svg">
<defs >
<font id="Exo" horiz-adv-x="533" ><font-face
    font-family="Exo Light"
    units-per-em="1000"
    panose-1="0 0 0 0 0 0 0 0 0 0"
    ascent="1002"
    descent="-327"
    alphabetic="0" />
<glyph unicode=" " horiz-adv-x="274" />
<glyph unicode="!" horiz-adv-x="263" d="M109 198L101 733H159L150 198H109ZM114 0Q100 0 100 14V87Q100 101 114 101H145Q160 101 160 87V14Q160 6 156 3T145 0H114Z" />
<glyph unicode="&quot;" horiz-adv-x="250" d="M49 510L41 677V744H98V677L92 510H49ZM157 510L149 677V744H206V677L200 510H157Z" />
<glyph unicode="#" horiz-adv-x="673" d="M156 0L195 237H25L30 273H202L231 455H58L64 491H238L278 732H314L274 491H440L479 732H515L476 491H652L646 455H470L441 273H617L612 237H433L395 0H359L397 237H231L192 0H156ZM238 273H405L434 455H267L238 273Z" />
<glyph unicode="$" horiz-adv-x="609" d="M287 729L273 751L295 824L309 803L287 729ZM273 -88V5L309 4V-88H273ZM286 -6Q265 -6 236 -5T174 -2T113 3T66 10V54Q89 52 124 50T201 47T284 46Q331 46 370 55T432 91T455 169V225Q455 281 427 311T335 341H250Q164
341 115 378T65 511V554Q65 657 119 698T270 740Q300 740 339 737T417 730T478 722V678Q435 681 380 684T275 688Q227 688 193 677T140 636T121 552V513Q121 446 155 422T251 397H340Q399 397 437 376T493 317T511 231V170Q511 99 480 61T398 9T286 -6Z" />
<glyph unicode="%" horiz-adv-x="957" d="M232 0L673 732H715L275 0H232ZM179 349Q106 349 78 380T50 476V605Q50 669 77 700T181 732H282Q356 732 383 701T411 605V476Q411 412 384 381T280 349H179ZM184 387H275Q327 387 350 406T374 482V599Q374 651 354 672T277
694H186Q136 694 112 676T88 599V482Q88 428 110 408T184 387ZM675 3Q602 3 574 34T546 130V259Q546 323 573 354T677 386H778Q852 386 879 355T907 259V130Q907 66 880 35T776 3H675ZM680 41H771Q823 41 846 60T870 136V253Q870 305 850 326T773 348H682Q632 348
608 330T584 253V136Q584 82 606 62T680 41Z" />
<glyph unicode="&amp;" horiz-adv-x="665" d="M236 -6Q181 -6 137 18T68 85T42 188Q42 239 65 287T138 378L206 435L186 464Q155 507 144 542T133 605Q133 653 156 681T217 721T299 733Q339 733 368 732T420 728T463 723V682H309Q258 682 225 663T191 597Q191
569 202 542T242 476L459 180L610 324L632 299L563 209L491 140L595 0H531L451 106L419 77Q370 31 328 13T236 -6ZM244 49Q279 49 312 62T385 114L418 147L235 394L178 346Q133 308 116 270T98 193Q98 127 137 88T244 49Z" />
<glyph unicode="&apos;" horiz-adv-x="142" d="M49 510L41 677V744H98V677L92 510H49Z" />
<glyph unicode="(" horiz-adv-x="335" d="M254 -210Q205 -129 168 -47T110 128T89 326Q89 430 110 521T169 697T254 860H310Q263 778 227 693T169 518T147 326Q147 225 167 136T225 -38T311 -210H254Z" />
<glyph unicode=")" horiz-adv-x="334" d="M24 -210Q75 -123 111 -39T167 135T187 326Q187 426 168 513T113 686T24 860H80Q132 777 169 694T225 521T245 326Q245 221 226 131T169 -42T80 -210H24Z" />
<glyph unicode="*" horiz-adv-x="459" d="M299 526L272 556L386 638L400 617L299 526ZM157 403L134 411L165 546L204 538L157 403ZM202 581L60 587V612L201 619L202 581ZM349 418L226 488L246 522L363 438L349 418ZM249 591L196 723L220 730L286 607L249 591Z" />
<glyph unicode="+" horiz-adv-x="609" d="M279 132V580H329V132H279ZM80 331V381H528V331H80Z" />
<glyph unicode="," horiz-adv-x="189" d="M85 -75Q78 -75 73 -74T67 -72V-55Q78 -55 82 -52T86 -39V3H79Q73 3 69 7T65 18V86Q65 101 79 101H110Q118 101 121 97T124 86V-32Q124 -50 118 -59T103 -72T85 -75Z" />
<glyph unicode="-" horiz-adv-x="341" d="M26 265V315H316V265H26Z" />
<glyph unicode="." horiz-adv-x="189" d="M79 0Q65 0 65 14V87Q65 101 79 101H111Q125 101 125 87V14Q125 6 121 3T111 0H79Z" />
<glyph unicode="/" horiz-adv-x="384" d="M24 -72L305 770H360L79 -72H24Z" />
<glyph unicode="0" horiz-adv-x="658" d="M261 -1Q212 -1 171 16T107 70T83 169V568Q83 625 106 663T170 721T262 740H401Q463 740 501 718T557 658T575 568V169Q575 79 527 39T401 -1H261ZM271 51H390Q458 51 487 84T517 175V564Q517 626 485 657T392 688H270Q211
688 176 656T141 564V175Q141 113 176 82T271 51Z" />
<glyph unicode="1" horiz-adv-x="359" d="M206 0V683L48 635V672L210 742H264V0H206Z" />
<glyph unicode="2" horiz-adv-x="595" d="M57 0V48L337 314Q382 357 408 393T446 467T458 550Q458 588 444 619T391 668T283 686H86V729Q131 733 185 736T296 740Q380 740 427 717T495 651T516 555Q516 503 502 460T459 374T380 286L137 54H544V0H57Z" />
<glyph unicode="3" horiz-adv-x="587" d="M307 -6Q228 -6 161 -4T45 4V48H290Q334 48 370 58T427 95T449 173V227Q449 270 428 295T376 331T312 343L121 350V391L310 398Q367 400 403 424T439 504V561Q439 620 400 653T283 686H73V730Q115 734 172 737T304 740Q370
740 412 719T475 659T496 570V505Q496 469 485 445T455 405T418 381T386 371Q401 368 422 358T462 331T495 286T509 221V165Q509 81 456 38T307 -6Z" />
<glyph unicode="4" horiz-adv-x="587" d="M396 2V197H42L27 233L316 734H376L94 247H396V460L410 523H454V247H562V208L454 197V2H396Z" />
<glyph unicode="5" horiz-adv-x="638" d="M345 -4Q276 -4 209 -2T91 4V48H345Q392 48 429 63T488 108T510 180V270Q510 326 476 358T373 391H288Q238 391 209 369T170 299H115L136 734H545V682H187L173 382Q184 404 215 423T298 442H388Q446 442 486 421T547 363T568
279V170Q568 112 539 74T460 16T345 -4Z" />
<glyph unicode="6" horiz-adv-x="628" d="M275 -2Q230 -2 194 14T132 72T92 185T78 370Q78 467 95 536T145 651T225 718T332 740Q372 740 423 737T514 731V688H330Q241 688 189 617T136 397Q168 400 208 402T286 405T350 406Q414 406 461 393T533 347T558 256V154Q558
96 535 62T474 13T391 -2H275ZM283 50H382Q414 50 441 59T484 92T501 161V249Q501 294 482 317T426 348T339 356H136Q136 264 146 205T175 112T221 64T283 50Z" />
<glyph unicode="7" horiz-adv-x="540" d="M154 0L424 676H35V734H474L496 700L220 0H154Z" />
<glyph unicode="8" horiz-adv-x="648" d="M263 -1Q224 -1 192 7T137 32T102 76T89 140V247Q89 286 105 311T144 352T187 371Q156 385 138 405T111 450T103 501V586Q103 641 124 675T181 724T261 739H398Q445 739 477 724T527 675T545 586V501Q545 483 540 465T525
429T501 399T467 380Q499 375 519 356T549 311T559 254V140Q559 90 540 60T484 14T398 -1H263ZM270 49H389Q446 49 473 73T501 146V247Q501 303 475 326T383 349H269Q253 349 232 344T192 328T160 296T147 247V146Q147 93 182 71T270 49ZM269 400H383Q422 400 444
415T477 453T488 498V575Q488 638 464 663T389 689H270Q211 689 186 662T160 575V498Q160 457 186 429T269 400Z" />
<glyph unicode="9" horiz-adv-x="628" d="M297 -4Q257 -4 206 -1T116 4V48H300Q389 48 441 119T494 339Q462 336 422 334T344 331T279 330Q215 330 169 343T97 389T72 479V582Q72 640 95 674T155 723T239 738H354Q399 738 435 722T497 664T537 551T552 366Q552
270 535 200T485 85T405 18T297 -4ZM290 380H494Q494 471 484 531T455 624T408 671T346 685H248Q216 685 189 677T146 644T129 575V487Q129 442 148 420T204 389T290 380Z" />
<glyph unicode=":" horiz-adv-x="189" d="M79 0Q65 0 65 14V87Q65 101 79 101H111Q125 101 125 87V14Q125 6 121 3T111 0H79ZM79 432Q65 432 65 446V519Q65 533 79 533H111Q125 533 125 519V446Q125 438 121 435T111 432H79Z" />
<glyph unicode=";" horiz-adv-x="189" d="M79 432Q65 432 65 446V519Q65 533 79 533H111Q125 533 125 519V446Q125 438 121 435T111 432H79ZM85 -75Q78 -75 73 -74T67 -72V-55Q78 -55 82 -52T86 -39V3H79Q73 3 69 7T65 18V86Q65 101 79 101H110Q118 101 121 97T124
86V-32Q124 -50 118 -59T103 -72T85 -75Z" />
<glyph unicode="&lt;" horiz-adv-x="609" d="M511 186L96 322V375L511 510V460L150 350L511 236V186Z" />
<glyph unicode="=" horiz-adv-x="609" d="M80 467V517H528V467H80ZM80 451V501H528V451H80Z" />
<glyph unicode="&gt;" horiz-adv-x="609" d="M98 186V236L459 348L98 460V510L513 375V322L98 186Z" />
<glyph unicode="?" horiz-adv-x="531" d="M176 197V343H221Q311 343 350 369T389 468V536Q389 618 355 652T245 687Q192 687 146 678T46 647V687Q94 715 147 726T258 739Q329 740 370 716T429 648T447 542V467Q447 380 395 338T223 295V197H176ZM183 0Q169 0 169
14V87Q169 101 183 101H215Q229 101 229 87V14Q229 6 225 3T215 0H183Z" />
<glyph unicode="@" horiz-adv-x="870" d="M260 -158Q220 -158 187 -147T130 -112T92 -52T78 32V364Q78 380 81 402T93 449T123 493T176 527T260 540H454Q483 540 511 534T563 512T601 468T615 394V28H579L569 90Q568 90 549 80T499 55T432 30T361 19Q322 19 294
35T249 80T233 142V191Q233 247 268 278T368 310H567V390Q567 445 537 468T453 492H260Q221 492 191 480T143 440T126 362V36Q126 -20 146 -52T198 -96T260 -109H579Q653 -109 687 -72T722 36V528Q722 596 686 639T579 683H187V718Q211 723 256 725T360 729T481
731H579Q619 731 654 719T715 682T755 619T770 528V36Q770 -22 752 -65T693 -133T581 -158H260ZM379 67Q406 67 441 76T511 99T567 124V278L379 269Q360 268 338 263T299 242T283 191V152Q283 113 308 90T379 67Z" />
<glyph unicode="A" horiz-adv-x="671" d="M39 0L298 734H373L632 0H571L490 228H180L100 0H39ZM195 280H473L335 682L195 280Z" />
<glyph unicode="B" horiz-adv-x="596" d="M81 0V734H340Q429 734 476 689T523 547Q523 501 509 467T470 411T419 381Q438 377 460 366T502 334T536 281T549 204Q549 125 525 81T455 18T348 0H81ZM139 52H347Q391 52 423 65T474 113T493 213Q493 258 474 290T421
338T347 355H139V52ZM139 402H345Q397 402 431 439T467 540Q470 619 434 650T339 682H139V402Z" />
<glyph unicode="C" horiz-adv-x="579" d="M320 -6Q253 -6 205 9T125 63T78 177T63 369Q63 480 78 552T126 666T208 723T327 740Q353 740 388 737T462 729T532 716V673Q516 677 484 680T413 685T334 688Q276 688 236 675T170 627T133 530T121 369Q121 266 132 202T168
105T233 59T330 46Q405 46 453 50T532 59V16Q501 10 464 5T390 -3T320 -6Z" />
<glyph unicode="D" horiz-adv-x="666" d="M81 0V734H365Q430 734 474 711T547 642T589 527T602 367Q602 254 576 172T497 45T365 0H81ZM139 52H361Q425 52 465 91T524 202T544 367Q544 452 534 512T501 609T445 664T361 682H139V52Z" />
<glyph unicode="E" horiz-adv-x="584" d="M230 -4Q205 -4 180 0T132 18T95 59T81 133V593Q81 634 93 661T125 704T169 727T219 734Q276 733 327 732T427 730T522 726V681H231Q189 681 164 659T139 586V391L480 386V343L139 338V144Q139 103 153 83T191 57T238
50H522V5Q476 3 427 2T328 -1T230 -4Z" />
<glyph unicode="F" horiz-adv-x="563" d="M81 0V593Q81 634 93 661T125 704T169 727T219 734Q265 733 316 733T419 731T522 726V681H230Q189 681 164 658T139 586V376L480 371V328L139 323V0H81Z" />
<glyph unicode="G" horiz-adv-x="649" d="M302 -5Q232 -6 186 15T112 81T74 198T63 370Q63 465 74 535T113 650T188 718T305 740Q340 740 381 738T464 730T538 717V674Q519 676 482 679T401 685T312 688Q238 688 196 656T138 553T121 368Q121 276 130 215T160
116T219 64T315 48Q365 48 418 62T511 92V331H319V373Q338 376 364 378T420 381T482 383Q507 383 529 382T567 379V0H525L515 52Q478 34 421 15T302 -5Z" />
<glyph unicode="H" horiz-adv-x="675" d="M81 0V734H139V383H535V734H593V0H535V331H139V0H81Z" />
<glyph unicode="I" horiz-adv-x="221" d="M81 0V734H139V0H81Z" />
<glyph unicode="J" horiz-adv-x="379" d="M138 -6Q111 -6 79 1T27 18V62Q48 56 77 51T129 46Q162 46 186 55T225 89T239 161V734H297V155Q297 95 279 60T226 9T138 -6Z" />
<glyph unicode="K" horiz-adv-x="593" d="M81 0V734H139V393H279L495 734H557L325 367L559 0H496L278 341H139V0H81Z" />
<glyph unicode="L" horiz-adv-x="531" d="M221 0Q183 0 151 12T100 54T81 139V734H139V146Q139 107 152 87T187 61T231 54H503V0H221Z" />
<glyph unicode="M" horiz-adv-x="821" d="M61 0L144 734H207L410 77L610 734H674L759 0H703L625 676L636 674L437 0H383L180 673L192 675L117 0H61Z" />
<glyph unicode="N" horiz-adv-x="676" d="M97 0V734H146L552 101V734H610V0H562L155 633V0H97Z" />
<glyph unicode="O" horiz-adv-x="682" d="M341 -6Q272 -6 220 7T133 57T81 169T63 363Q63 484 80 558T133 672T221 726T341 740Q412 740 464 726T551 673T602 559T619 363Q619 243 602 169T550 58T463 7T341 -6ZM341 46Q400 46 442 57T510 102T549 197T561 363Q561
471 549 536T510 633T442 677T341 688Q287 688 246 677T177 634T135 536T121 363Q121 260 132 198T170 102T238 58T341 46Z" />
<glyph unicode="P" horiz-adv-x="599" d="M81 0V734H367Q399 734 431 726T492 694T536 625T553 505Q553 430 535 384T488 312T426 278T362 269Q347 269 317 269T251 271T186 274T139 278V0H81ZM139 321H355Q393 321 425 337T476 392T495 505Q495 576 476 614T428
667T363 682H139V321Z" />
<glyph unicode="Q" horiz-adv-x="682" d="M504 -161Q470 -161 438 -147T384 -105T354 -34H394Q408 -76 439 -95T504 -114Q517 -114 530 -112T554 -106V-154Q542 -157 530 -159T504 -161ZM341 -6Q272 -6 220 7T133 57T81 169T63 363Q63 484 80 558T133 672T221
726T341 740Q412 740 464 726T551 673T602 559T619 363Q619 243 602 169T550 58T463 7T341 -6ZM341 46Q400 46 442 57T510 102T549 197T561 363Q561 471 549 536T510 633T442 677T341 688Q287 688 246 677T177 634T135 536T121 363Q121 260 132 198T170 102T238
58T341 46Z" />
<glyph unicode="R" horiz-adv-x="602" d="M81 0V734H366Q399 734 432 727T492 698T535 634T551 524Q551 461 537 422T501 360T453 329T404 316L558 0H500L349 310Q332 310 305 310T248 311T189 313T139 314V0H81ZM139 358H359Q386 358 410 364T453 387T482 438T493
524Q493 575 482 606T452 653T409 676T359 682H139V358Z" />
<glyph unicode="S" horiz-adv-x="575" d="M286 -6Q265 -6 236 -5T174 -2T113 3T66 10V54Q89 52 124 50T201 47T284 46Q331 46 370 55T432 91T455 169V225Q455 281 427 311T335 341H250Q164 341 115 378T65 511V554Q65 657 119 698T270 740Q300 740 339 737T417
730T478 722V678Q435 681 380 684T275 688Q227 688 193 677T140 636T121 552V513Q121 446 155 422T251 397H340Q399 397 437 376T493 317T511 231V170Q511 99 480 61T398 9T286 -6Z" />
<glyph unicode="T" horiz-adv-x="560" d="M251 0V682H16V734H544V682H309V0H251Z" />
<glyph unicode="U" horiz-adv-x="673" d="M336 -6Q275 -6 226 5T142 43T89 113T71 225V734H129V225Q129 155 153 117T224 63T336 47Q402 47 448 62T518 116T543 225V734H601V225Q601 158 584 114T532 43T448 6T336 -6Z" />
<glyph unicode="V" horiz-adv-x="671" d="M298 0L39 734H100L336 59L572 734H632L373 0H298Z" />
<glyph unicode="W" horiz-adv-x="991" d="M232 0L39 734H100L270 75L465 734H527L721 75L892 734H952L759 0H693L496 657L298 0H232Z" />
<glyph unicode="X" horiz-adv-x="611" d="M505 0L41 734H105L569 0H505ZM44 0L281 379L311 329L108 0H44ZM330 345L304 400L506 734H570L330 345Z" />
<glyph unicode="Y" horiz-adv-x="615" d="M278 0V250L41 734H102L308 308L514 734H574L336 250V0H278Z" />
<glyph unicode="Z" horiz-adv-x="556" d="M45 0V48L447 682H45V734H518V686L115 52H518V0H45Z" />
<glyph unicode="[" horiz-adv-x="330" d="M250 -210Q201 -210 171 -192T127 -145T107 -85T102 -28V664Q102 692 107 723T128 781T173 825T250 842H308V794H262Q217 794 189 763T160 658V-26Q160 -65 169 -95T202 -144T262 -162H308V-210H250Z" />
<glyph unicode="\" horiz-adv-x="384" d="M305 -72L24 770H79L360 -72H305Z" />
<glyph unicode="]" horiz-adv-x="330" d="M24 -210V-162H70Q107 -162 129 -144T162 -96T172 -26V658Q172 731 144 762T70 794H24V842H82Q128 842 157 825T202 781T224 723T230 664V-28Q230 -53 225 -84T205 -144T160 -191T82 -210H24Z" />
<glyph unicode="^" horiz-adv-x="401" d="M60 531L186 663H228L342 531H305L206 633L97 531H60Z" />
<glyph unicode="_" horiz-adv-x="609" d="M0 -155V-105H609V-155H0Z" />
<glyph unicode="`" horiz-adv-x="210" d="M152 631L24 766H75L186 631H152Z" />
<glyph unicode="a" horiz-adv-x="543" d="M183 -6Q125 -6 87 28T48 127V163Q48 226 89 265T212 304H407V378Q407 414 395 440T351 480T262 494H95V529Q128 533 173 537T278 542Q343 543 384 526T445 472T465 381V0H421L409 62Q406 60 385 50T329 26T257 4T183
-6ZM203 40Q223 39 249 44T303 57T353 72T391 86T407 92V273L221 266Q159 264 133 235T106 162V137Q106 101 121 80T158 49T203 40Z" />
<glyph unicode="b" horiz-adv-x="576" d="M324 -6Q286 -6 252 4T189 28T140 55L127 0H82V763H140V481Q180 505 230 522T322 539Q385 539 427 513T492 426T514 263Q514 182 495 122T435 28T324 -6ZM309 43Q358 43 390 68T439 143T456 265Q456 359 437 407T385 473T309
491Q259 491 221 477T140 441V92Q174 74 215 59T309 43Z" />
<glyph unicode="c" horiz-adv-x="490" d="M272 -6Q227 -6 189 6T123 47T78 130T62 266Q62 349 77 402T119 485T186 526T273 538Q310 538 357 536T446 527V492H286Q233 492 197 475T140 408T120 263Q120 173 141 125T199 59T286 41H454V6Q431 3 402 0T340 -4T272 -6Z" />
<glyph unicode="d" horiz-adv-x="572" d="M254 -6Q187 -6 145 23T82 112T62 263Q62 362 82 423T147 511T264 539Q311 539 356 529T436 506V763H494V0H448L436 55Q422 42 391 28T323 4T254 -6ZM268 43Q319 43 360 59T436 92V465Q395 477 359 485T277 493Q221 493
187 472T136 402T120 265Q120 187 135 138T182 66T268 43Z" />
<glyph unicode="e" horiz-adv-x="542" d="M279 -6Q197 -6 150 19T82 105T62 268Q62 373 83 432T152 515T282 539Q350 539 393 524T458 470T480 365Q480 320 463 293T412 253T334 241H120Q120 168 134 124T184 60T292 40H468V5Q420 0 378 -3T279 -6ZM119 282H330Q379
282 403 299T427 365Q427 415 413 443T367 482T282 494Q219 494 184 476T134 412T119 282Z" />
<glyph unicode="f" horiz-adv-x="360" d="M109 0V484H25V522L109 533V602Q109 655 121 692T165 749T254 769Q289 769 312 766T354 761V720H263Q222 720 202 707T174 668T167 604V533H341V484H167V0H109Z" />
<glyph unicode="g" horiz-adv-x="574" d="M210 -244Q158 -244 119 -230T57 -186T34 -111V-85Q34 -37 60 -7T125 39T204 55L216 28Q184 28 155 17T108 -16T89 -77V-102Q89 -156 125 -178T222 -200H351Q419 -200 457 -174T496 -95V-72Q496 -42 484 -20T444 15T363
28H190Q136 28 105 52T73 116Q73 156 97 178T164 208Q125 223 104 248T74 304T65 363Q65 426 90 463T161 517T266 534H550V500L418 492Q432 483 450 469T481 426T495 347Q495 308 478 271T420 210T308 185H226Q178 185 152 172T125 123Q125 96 144 85T184 74H370Q432
74 471 58T530 11T550 -68V-92Q550 -164 501 -204T356 -244H210ZM241 232H302Q359 232 389 249T430 294T441 353Q441 403 424 432T379 475T312 488H255Q192 488 156 460T119 361Q119 293 152 263T241 232Z" />
<glyph unicode="h" horiz-adv-x="586" d="M82 0V763H140V473Q179 500 232 521T343 542Q398 542 434 518T489 454T508 366V0H450V361Q450 397 435 426T393 472T327 489Q289 489 259 482T200 463T140 433V0H82Z" />
<glyph unicode="i" horiz-adv-x="221" d="M92 633Q77 633 77 648V719Q77 734 92 734H131Q138 734 141 730T144 719V648Q144 633 131 633H92ZM82 0V533H140V0H82Z" />
<glyph unicode="j" horiz-adv-x="221" d="M91 633Q77 633 77 648V719Q77 734 91 734H131Q138 734 141 730T144 719V648Q144 633 131 633H91ZM82 -237V533H140V21Q140 -54 135 -122T124 -237H82Z" />
<glyph unicode="k" horiz-adv-x="492" d="M82 0V763H140V312H220L397 533H460L262 285L471 0H407L217 260H140V0H82Z" />
<glyph unicode="l" horiz-adv-x="288" d="M213 -1Q171 -1 142 15T97 68T82 170V763H140V176Q140 124 149 97T177 60T220 47L278 40V-1H213Z" />
<glyph unicode="m" horiz-adv-x="954" d="M82 0V533H125L140 473Q181 501 233 521T346 542Q396 542 432 520T486 461Q511 481 548 499T628 529T709 542Q765 542 802 518T858 453T876 364V0H818V360Q818 397 803 426T761 472T694 489Q645 489 593 471T495 425Q501
410 504 394T508 360V0H450V360Q450 397 435 426T393 472T327 489Q289 489 259 483T200 463T140 433V0H82Z" />
<glyph unicode="n" horiz-adv-x="586" d="M82 0V533H125L140 473Q180 500 232 521T343 542Q399 542 435 518T490 453T508 366V0H450V360Q450 397 435 426T393 472T327 489Q289 489 259 483T200 463T140 433V0H82Z" />
<glyph unicode="o" horiz-adv-x="577" d="M288 -6Q233 -6 191 5T119 46T76 129T62 267Q62 352 76 405T119 488T190 528T288 539Q343 539 385 528T457 488T500 406T515 267Q515 183 501 129T458 46T386 6T288 -6ZM288 43Q328 43 360 50T413 80T445 148T457 267Q457
342 446 386T413 453T360 483T288 491Q247 491 216 484T164 454T131 387T120 267Q120 193 131 148T163 81T216 51T288 43Z" />
<glyph unicode="p" horiz-adv-x="576" d="M82 -237V533H127L140 477Q157 489 187 504T253 529T322 539Q375 539 411 516T471 454T504 367T514 268Q514 177 493 116T429 24T322 -6Q276 -6 228 9T140 49V-237H82ZM309 43Q352 43 384 64T436 135T456 268Q456 348
435 397T381 468T309 491Q258 491 216 475T140 441V92Q179 70 222 57T309 43Z" />
<glyph unicode="q" horiz-adv-x="572" d="M436 -237V55Q395 28 346 11T249 -6Q181 -6 140 25T80 117T62 268Q62 357 83 417T147 508T260 539Q308 539 351 538T430 533T494 528V-237H436ZM261 43Q308 43 351 56T436 92V493H270Q213 493 181 464T134 385T120 269Q120
190 134 140T180 67T261 43Z" />
<glyph unicode="r" horiz-adv-x="409" d="M82 0V533H125L140 437Q178 481 224 510T332 539Q347 539 360 538T384 533V474Q371 476 357 478T327 480Q288 480 258 470T199 441T140 392V0H82Z" />
<glyph unicode="s" horiz-adv-x="498" d="M262 -6Q244 -6 215 -5T154 -3T96 1T57 5V40H270Q307 40 334 46T377 71T393 130V156Q393 195 367 217T285 240H213Q164 240 129 251T73 291T53 368V395Q53 445 72 476T131 522T233 538Q259 538 295 537T367 533T425 526V490H225Q167
490 136 471T105 395V372Q105 337 119 319T160 296T220 290H293Q364 290 404 257T445 161V127Q445 73 421 45T356 5T262 -6Z" />
<glyph unicode="t" horiz-adv-x="361" d="M250 0Q202 0 170 17T121 71T105 167L108 484H23V522L108 533L119 682H163V533H325V484H163V167Q163 129 171 106T193 70T222 54T252 48L317 42V0H250Z" />
<glyph unicode="u" horiz-adv-x="586" d="M242 -6Q165 -6 123 33T81 158V533H139V171Q139 97 172 72T267 46Q319 46 361 59T449 100V533H507V0H464L449 60Q408 33 355 14T242 -6Z" />
<glyph unicode="v" horiz-adv-x="528" d="M228 0L21 533H80L262 54L448 533H507L294 0H228Z" />
<glyph unicode="w" horiz-adv-x="788" d="M189 0L21 533H80L225 54L369 533H421L566 54L708 533H767L600 0H536L394 459L252 0H189Z" />
<glyph unicode="x" horiz-adv-x="497" d="M411 0L26 533H86L471 0H411ZM26 0L225 281L248 230L85 0H26ZM271 250L245 295L411 532L471 533L271 250Z" />
<glyph unicode="y" d="M218 -237L289 0Q269 1 244 10T197 44T157 119L21 533H82L212 132Q224 98 238 82T267 59T291 52T302 51L452 533H512L306 -138L260 -237H218Z" />
<glyph unicode="z" horiz-adv-x="491" d="M53 0V45L377 484H46V533H445V487L119 48H445V0H53Z" />
<glyph unicode="{" horiz-adv-x="308" d="M284 -210Q226 -210 191 -196T137 -157T113 -101T107 -38V236Q107 259 95 275T63 299T24 305V362Q41 364 60 370T94 390T108 431V656Q108 706 123 748T176 816T284 842V794Q244 794 218 780T179 732T166 640V424Q166 384
141 362T81 334Q116 329 140 305T165 247V-24Q165 -103 194 -133T284 -164V-210Z" />
<glyph unicode="|" horiz-adv-x="253" d="M102 -72V770H152V-72H102Z" />
<glyph unicode="}" horiz-adv-x="308" d="M24 -210V-164Q85 -164 114 -134T143 -24V247Q143 281 167 305T227 334Q191 339 167 361T142 424V640Q142 699 129 732T90 779T24 794V842Q94 842 131 817T184 749T200 656V431Q200 404 214 390T248 370T284 362V305Q264
307 245 299T214 275T201 236V-38Q201 -70 195 -101T170 -156T117 -195T24 -210Z" />
<glyph unicode="~" horiz-adv-x="459" d="M293 539Q276 539 259 549T225 572T194 594T167 604Q140 604 118 591T69 557L60 577Q85 601 111 619T169 638Q186 638 202 629T235 606T267 583T293 573Q321 573 347 591T390 623L400 603Q377 578 352 559T293 539Z" />
<glyph unicode="&#xa0;" horiz-adv-x="274" />
<glyph unicode="&#xa1;" horiz-adv-x="263" d="M155 335L162 -201H104L113 335H155ZM149 533Q164 533 164 519V446Q164 431 149 431H118Q103 431 103 446V519Q103 526 107 529T118 533H149Z" />
<glyph unicode="&#xa2;" horiz-adv-x="487" d="M244 -85V-5Q203 -5 168 5T105 44T63 126T48 266Q48 353 62 406T103 487T165 526T245 536V621H281V535Q316 533 357 526T433 508V474Q399 480 356 485T253 490Q218 490 191 482T144 450T116 381T106 262Q106 193
116 150T146 83T194 50T258 41Q298 41 328 44T385 51T440 61V26Q393 10 358 4T280 -4V-85H244Z" />
<glyph unicode="&#xa3;" horiz-adv-x="609" d="M65 0V43L179 52V339L65 344V376L179 384V524Q179 610 204 655T274 718T382 735Q421 735 460 733T525 727V683H385Q336 683 304 672T254 627T237 529V384L461 378V344L237 339V52H539V0H65Z" />
<glyph unicode="&#xa4;" horiz-adv-x="609" d="M304 195Q260 195 224 217T166 275T144 356Q144 401 166 437T224 495T304 517Q349 517 385 495T443 437T465 356Q465 312 443 276T385 217T304 195ZM110 133L81 162L189 270L218 241L110 133ZM185 446L81 550L110
579L214 475L185 446ZM498 133L392 239L421 268L527 162L498 133ZM304 233Q338 233 366 250T410 295T427 356Q427 390 411 418T366 462T304 479Q271 479 244 463T200 418T183 356Q183 323 199 295T243 250T304 233ZM421 444L392 473L498 579L527 550L421 444Z"
/>
<glyph unicode="&#xa5;" horiz-adv-x="609" d="M79 260V298H529V260H79ZM79 138V176H529V138H79ZM265 0V250L28 734H89L295 308L501 734H560L323 250V0H265Z" />
<glyph unicode="&#xa6;" horiz-adv-x="253" d="M102 429V770H152V429H102ZM102 -72V256H152V-72H102Z" />
<glyph unicode="&#xa7;" horiz-adv-x="554" d="M316 -6Q298 -6 268 -6T206 -4T146 -2T102 2V42H308Q360 42 386 52T421 80T431 121V182Q431 207 425 220T400 238T339 244H203Q152 244 120 253T73 286T58 347V403Q58 451 75 470T124 497Q91 505 79 532T67 590V656Q67
703 86 731T140 771T225 784Q244 784 275 784T342 782T407 780T451 775V736H231Q198 736 174 730T136 705T123 649V592Q123 553 145 541T214 529H348Q409 529 440 519T484 485T497 423V367Q497 324 483 304T433 277Q458 271 469 257T484 225T488 187V120Q488 73
468 45T409 6T316 -6ZM213 290H339Q384 290 406 294T434 312T441 358V413Q441 442 433 456T403 477T339 483H213Q156 483 135 469T114 411V357Q114 336 122 321T151 298T213 290Z" />
<glyph unicode="&#xa8;" horiz-adv-x="417" d="M293 658Q279 658 279 672V744Q279 759 293 759H320Q327 759 330 755T334 744V672Q334 658 320 658H293ZM98 658Q84 658 84 672V744Q84 759 98 759H125Q132 759 135 755T139 744V672Q139 658 125 658H98Z" />
<glyph unicode="&#xa9;" horiz-adv-x="850" d="M314 0Q258 0 217 23T146 86T100 173T74 272T65 368Q65 431 76 495T115 613T190 699T314 732H558Q618 732 658 708T723 645T761 558T779 461T784 368Q784 291 770 224T728 107T658 28T558 0H314ZM390 147Q350 147
317 164T263 229T242 365Q242 446 261 493T314 562T390 583Q411 583 441 581T505 575T566 565V539Q536 544 503 546T443 550T398 551Q360 551 333 533T291 473T276 362Q276 273 304 226T398 179Q449 179 494 183T572 195V169Q526 155 483 151T390 147ZM314 32H556Q611
32 655 69T724 181T750 368Q750 435 741 494T710 600T651 673T558 700H314Q273 700 236 685T168 632T119 530T99 368Q99 309 111 250T150 141T218 62T314 32Z" />
<glyph unicode="&#xaa;" horiz-adv-x="407" d="M36 266V300H360V266H36ZM83 463Q83 436 94 422T121 401T154 393Q172 393 196 398T244 411T283 424T300 430V558L165 553Q121 551 102 531T83 480V463ZM35 481Q35 528 65 554T157 581H300V636Q300 674 279 695T194
717H69V748Q94 752 128 755T209 758Q258 759 289 747T336 708T351 639V360H312L301 405Q299 404 283 396T243 379T190 363T136 356Q92 356 64 381T35 452V481Z" />
<glyph unicode="&#xab;" horiz-adv-x="608" d="M274 67L60 279L270 486L302 454L124 279L307 100L274 67ZM524 67L310 279L520 486L552 454L374 279L557 100L524 67Z" />
<glyph unicode="&#xac;" horiz-adv-x="609" d="M478 211V467H528V211H478ZM80 451V501H528V451H80Z" />
<glyph unicode="&#xad;" horiz-adv-x="341" d="M26 265V315H316V265H26Z" />
<glyph unicode="&#xae;" horiz-adv-x="850" d="M314 0Q258 0 217 23T146 86T100 173T74 272T65 368Q65 431 76 495T115 613T190 699T314 732H558Q618 732 658 708T723 645T761 558T779 461T784 368Q784 291 770 224T728 107T658 28T558 0H314ZM314 32H556Q611
32 655 69T724 181T750 368Q750 435 741 494T710 600T651 673T558 700H314Q273 700 236 685T168 632T119 530T99 368Q99 309 111 250T150 141T218 62T314 32ZM275 153V580H454Q487 580 516 570T562 533T580 452Q580 411 570 389T543 358T510 345T479 339L584 153H548L444
339L309 343V153H275ZM309 367H458Q501 367 523 382T546 451Q546 507 523 527T458 548H309V367Z" />
<glyph unicode="&#xaf;" horiz-adv-x="379" d="M60 679V714H320V679H60Z" />
<glyph unicode="&#xb0;" horiz-adv-x="333" d="M167 502Q113 502 76 538T39 630Q39 668 56 697T102 742T167 759Q223 759 258 723T293 630Q293 574 258 538T167 502ZM167 531Q211 531 238 559T265 630Q265 674 238 702T167 730Q125 730 97 702T68 630Q68 587 96
559T167 531Z" />
<glyph unicode="&#xb1;" horiz-adv-x="609" d="M80 131V181H528V131H80ZM279 282V730H329V282H279ZM80 481V531H528V481H80Z" />
<glyph unicode="&#xb2;" horiz-adv-x="456" d="M50 280V320L254 514Q302 559 322 597T342 682Q342 709 332 730T295 764T218 777H71V815Q104 818 145 821T229 824Q292 824 328 807T379 759T394 687Q394 649 385 618T353 556T292 488L121 327H415V280H50Z" />
<glyph unicode="&#xb3;" horiz-adv-x="456" d="M236 276Q178 276 129 278T42 284V323H222Q255 323 281 330T322 356T338 410V448Q338 478 323 495T285 520T239 529L98 534V571L237 576Q279 578 304 594T330 650V690Q330 731 302 754T217 777H62V815Q94 820 137
822T236 824Q309 824 345 790T381 698V652Q381 617 367 597T334 566T300 553Q317 549 338 537T375 503T391 444V404Q391 342 350 309T236 276Z" />
<glyph unicode="&#xb4;" horiz-adv-x="210" d="M24 631L134 766H186L58 631H24Z" />
<glyph unicode="&#xb5;" horiz-adv-x="586" d="M257 -6Q215 -6 183 7T127 45T93 105T81 181V533H139V171Q139 122 155 95T200 57T267 46Q321 46 362 59T449 100V533H507V0H464L451 60Q413 32 364 13T257 -6ZM81 -268V226H139V-268H81Z" />
<glyph unicode="&#xb6;" horiz-adv-x="572" d="M282 -270V324Q275 319 254 316T201 312Q147 312 111 333T58 388T40 464V594Q40 642 63 673T124 719T204 734H553V688H472V0H428V690H326V-270H282ZM206 356H282V690H206Q144 690 114 661T84 586V470Q84 432 98 409T134
375T175 360T206 356Z" />
<glyph unicode="&#xb7;" horiz-adv-x="263" d="M116 344Q102 344 102 358V391Q102 406 116 406H147Q162 406 162 391V358Q162 351 158 348T147 344H116Z" />
<glyph unicode="&#xb8;" horiz-adv-x="261" d="M60 -187V-163L84 -161Q113 -159 128 -148T144 -112Q144 -94 130 -81T71 -67L97 -56Q142 -56 161 -72T181 -119Q181 -151 157 -169T88 -187H60ZM71 -67L123 12H152L99 -67H71Z" />
<glyph unicode="&#xb9;" horiz-adv-x="456" d="M210 280V775L79 740V776L215 826H262V280H210ZM71 280V325H401V280H71Z" />
<glyph unicode="&#xba;" horiz-adv-x="433" d="M54 266V300H379V266H54ZM96 556Q96 486 110 452T151 407T216 396Q254 396 281 406T322 451T336 556Q336 628 322 662T281 706T216 717Q178 717 151 707T110 662T96 556ZM45 556Q45 640 64 682T121 741T216 757Q273
757 311 741T368 682T388 556Q388 474 369 431T311 372T216 356Q159 356 121 372T64 432T45 556Z" />
<glyph unicode="&#xbb;" horiz-adv-x="608" d="M88 67L57 100L235 275L52 454L86 486L299 275L88 67ZM338 67L307 100L485 275L302 454L336 486L549 275L338 67Z" />
<glyph unicode="&#xbc;" horiz-adv-x="1275" d="M426 0L803 770H849L472 0H426ZM1103 1V141H842L832 177L1041 540H1093L889 185H1103V328L1116 383H1153V185H1231V150L1153 141V1H1103ZM218 280V775L87 740V776L223 826H270V280H218ZM79 280V325H409V280H79Z" />
<glyph unicode="&#xbd;" horiz-adv-x="1275" d="M426 0L803 770H849L472 0H426ZM845 0V40L1049 234Q1097 279 1117 317T1137 402Q1137 429 1127 450T1090 484T1013 497H866V535Q899 538 940 541T1024 544Q1087 544 1123 527T1174 479T1189 407Q1189 369 1180 338T1148
276T1087 208L916 47H1210V0H845ZM218 280V775L87 740V776L223 826H270V280H218ZM79 280V325H409V280H79Z" />
<glyph unicode="&#xbe;" horiz-adv-x="1275" d="M426 0L803 770H849L472 0H426ZM1103 1V141H842L832 177L1041 540H1093L889 185H1103V328L1116 383H1153V185H1231V150L1153 141V1H1103ZM246 276Q188 276 139 278T52 284V323H232Q265 323 291 330T332 356T348
410V448Q348 478 333 495T295 520T249 529L108 534V571L247 576Q289 578 314 594T340 650V690Q340 731 312 754T227 777H72V815Q104 820 147 822T246 824Q319 824 355 790T391 698V652Q391 617 377 597T344 566T310 553Q327 549 348 537T385 503T401 444V404Q401
342 360 309T246 276Z" />
<glyph unicode="&#xbf;" horiz-adv-x="531" d="M355 335V190H310Q220 190 181 163T142 65V-3Q142 -86 176 -120T286 -154Q339 -154 385 -145T485 -114V-154Q438 -182 385 -194T273 -206Q203 -207 162 -184T102 -116T84 -9V66Q84 153 136 195T308 238V335H355ZM348
533Q362 533 362 519V446Q362 431 348 431H316Q302 431 302 446V519Q302 526 306 529T316 533H348Z" />
<glyph unicode="&#xc0;" horiz-adv-x="671" d="M39 0L298 734H373L632 0H571L490 228H180L100 0H39ZM195 280H473L335 682L195 280ZM320 791L192 926H243L354 791H320Z" />
<glyph unicode="&#xc1;" horiz-adv-x="671" d="M39 0L298 734H373L632 0H571L490 228H180L100 0H39ZM195 280H473L335 682L195 280ZM322 791L432 926H484L356 791H322Z" />
<glyph unicode="&#xc2;" horiz-adv-x="671" d="M39 0L298 734H373L632 0H571L490 228H180L100 0H39ZM195 280H473L335 682L195 280ZM191 791L317 924H359L473 791H436L337 895L228 791H191Z" />
<glyph unicode="&#xc3;" horiz-adv-x="671" d="M39 0L298 734H373L632 0H571L490 228H180L100 0H39ZM195 280H473L335 682L195 280ZM168 812Q169 850 183 871T218 902T261 912Q284 912 305 903T345 880T382 857T419 847Q447 847 466 864T485 914H516Q515 867 491
840T421 813Q399 813 379 822T340 845T301 868T263 878Q237 878 218 863T199 812H168Z" />
<glyph unicode="&#xc4;" horiz-adv-x="671" d="M39 0L298 734H373L632 0H571L490 228H180L100 0H39ZM195 280H473L335 682L195 280ZM435 818Q421 818 421 832V904Q421 919 435 919H462Q469 919 472 915T476 904V832Q476 818 462 818H435ZM192 818Q178 818 178
832V904Q178 919 192 919H219Q226 919 229 915T233 904V832Q233 818 219 818H192Z" />
<glyph unicode="&#xc5;" horiz-adv-x="671" d="M39 0L298 734H373L632 0H571L490 228H180L100 0H39ZM195 280H473L335 682L195 280ZM335 762Q283 762 255 784T227 867Q227 927 255 950T335 973Q388 973 414 950T441 867Q441 807 415 785T335 762ZM335 789Q375
789 393 805T411 867Q411 913 393 929T335 946Q296 946 277 930T257 867Q257 821 276 805T335 789Z" />
<glyph unicode="&#xc6;" horiz-adv-x="958" d="M631 -4Q563 -4 524 22T483 119V226H239L98 0H39L413 617Q436 656 462 682T525 722T610 734Q685 733 758 731T897 726V681H613Q570 681 554 664T537 611V391L855 386V343L537 338V144Q537 110 549 90T584 60T639
50H897V5Q833 3 767 1T631 -4ZM266 276H483V631L266 276Z" />
<glyph unicode="&#xc7;" horiz-adv-x="579" d="M320 -6Q253 -6 205 9T125 63T78 177T63 369Q63 480 78 552T126 666T208 723T327 740Q353 740 388 737T462 729T532 716V673Q516 677 484 680T413 685T334 688Q276 688 236 675T170 627T133 530T121 369Q121 266
132 202T168 105T233 59T330 46Q405 46 453 50T532 59V16Q501 10 464 5T390 -3T320 -6ZM264 -187V-163L288 -161Q317 -159 332 -148T348 -112Q348 -94 334 -81T275 -67L301 -56Q346 -56 365 -72T385 -119Q385 -151 361 -169T292 -187H264ZM275 -67L327 12H356L303
-67H275Z" />
<glyph unicode="&#xc8;" horiz-adv-x="584" d="M230 -4Q205 -4 180 0T132 18T95 59T81 133V593Q81 634 93 661T125 704T169 727T219 734Q276 733 327 732T427 730T522 726V681H231Q189 681 164 659T139 586V391L480 386V343L139 338V144Q139 103 153 83T191 57T238
50H522V5Q476 3 427 2T328 -1T230 -4ZM296 791L168 926H219L330 791H296Z" />
<glyph unicode="&#xc9;" horiz-adv-x="584" d="M230 -4Q205 -4 180 0T132 18T95 59T81 133V593Q81 634 93 661T125 704T169 727T219 734Q276 733 327 732T427 730T522 726V681H231Q189 681 164 659T139 586V391L480 386V343L139 338V144Q139 103 153 83T191 57T238
50H522V5Q476 3 427 2T328 -1T230 -4ZM298 791L408 926H460L332 791H298Z" />
<glyph unicode="&#xca;" horiz-adv-x="584" d="M230 -4Q205 -4 180 0T132 18T95 59T81 133V593Q81 634 93 661T125 704T169 727T219 734Q276 733 327 732T427 730T522 726V681H231Q189 681 164 659T139 586V391L480 386V343L139 338V144Q139 103 153 83T191 57T238
50H522V5Q476 3 427 2T328 -1T230 -4ZM166 791L292 924H334L448 791H411L312 895L203 791H166Z" />
<glyph unicode="&#xcb;" horiz-adv-x="584" d="M230 -4Q205 -4 180 0T132 18T95 59T81 133V593Q81 634 93 661T125 704T169 727T219 734Q276 733 327 732T427 730T522 726V681H231Q189 681 164 659T139 586V391L480 386V343L139 338V144Q139 103 153 83T191 57T238
50H522V5Q476 3 427 2T328 -1T230 -4ZM411 818Q397 818 397 832V904Q397 919 411 919H438Q445 919 448 915T452 904V832Q452 818 438 818H411ZM168 818Q154 818 154 832V904Q154 919 168 919H195Q202 919 205 915T209 904V832Q209 818 195 818H168Z" />
<glyph unicode="&#xcc;" horiz-adv-x="221" d="M81 0V734H139V0H81ZM95 791L-33 926H18L129 791H95Z" />
<glyph unicode="&#xcd;" horiz-adv-x="221" d="M81 0V734H139V0H81ZM97 791L207 926H259L131 791H97Z" />
<glyph unicode="&#xce;" horiz-adv-x="221" d="M81 0V734H139V0H81ZM-34 791L92 924H134L248 791H211L112 895L3 791H-34Z" />
<glyph unicode="&#xcf;" horiz-adv-x="221" d="M81 0V734H139V0H81ZM210 818Q196 818 196 832V904Q196 919 210 919H237Q244 919 247 915T251 904V832Q251 818 237 818H210ZM-33 818Q-47 818 -47 832V904Q-47 919 -33 919H-6Q1 919 4 915T8 904V832Q8 818 -6 818H-33Z" />
<glyph unicode="&#xd0;" horiz-adv-x="666" d="M16 351V393H324V351H16ZM81 0V734H365Q430 734 474 711T547 642T589 527T602 367Q602 254 576 172T497 45T365 0H81ZM139 52H361Q425 52 465 91T524 202T544 367Q544 452 534 512T501 609T445 664T361 682H139V52Z" />
<glyph unicode="&#xd1;" horiz-adv-x="676" d="M97 0V734H146L552 101V734H610V0H562L155 633V0H97ZM171 812Q172 850 186 871T221 902T264 912Q287 912 308 903T348 880T385 857T422 847Q450 847 469 864T488 914H519Q518 867 494 840T424 813Q402 813 382 822T343
845T304 868T266 878Q240 878 221 863T202 812H171Z" />
<glyph unicode="&#xd2;" horiz-adv-x="682" d="M341 -6Q272 -6 220 7T133 57T81 169T63 363Q63 484 80 558T133 672T221 726T341 740Q412 740 464 726T551 673T602 559T619 363Q619 243 602 169T550 58T463 7T341 -6ZM341 46Q400 46 442 57T510 102T549 197T561
363Q561 471 549 536T510 633T442 677T341 688Q287 688 246 677T177 634T135 536T121 363Q121 260 132 198T170 102T238 58T341 46ZM326 791L198 926H249L360 791H326Z" />
<glyph unicode="&#xd3;" horiz-adv-x="682" d="M341 -6Q272 -6 220 7T133 57T81 169T63 363Q63 484 80 558T133 672T221 726T341 740Q412 740 464 726T551 673T602 559T619 363Q619 243 602 169T550 58T463 7T341 -6ZM341 46Q400 46 442 57T510 102T549 197T561
363Q561 471 549 536T510 633T442 677T341 688Q287 688 246 677T177 634T135 536T121 363Q121 260 132 198T170 102T238 58T341 46ZM328 791L438 926H490L362 791H328Z" />
<glyph unicode="&#xd4;" horiz-adv-x="682" d="M341 -6Q272 -6 220 7T133 57T81 169T63 363Q63 484 80 558T133 672T221 726T341 740Q412 740 464 726T551 673T602 559T619 363Q619 243 602 169T550 58T463 7T341 -6ZM341 46Q400 46 442 57T510 102T549 197T561
363Q561 471 549 536T510 633T442 677T341 688Q287 688 246 677T177 634T135 536T121 363Q121 260 132 198T170 102T238 58T341 46ZM197 791L323 924H365L479 791H442L343 895L234 791H197Z" />
<glyph unicode="&#xd5;" horiz-adv-x="682" d="M341 -6Q272 -6 220 7T133 57T81 169T63 363Q63 484 80 558T133 672T221 726T341 740Q412 740 464 726T551 673T602 559T619 363Q619 243 602 169T550 58T463 7T341 -6ZM341 46Q400 46 442 57T510 102T549 197T561
363Q561 471 549 536T510 633T442 677T341 688Q287 688 246 677T177 634T135 536T121 363Q121 260 132 198T170 102T238 58T341 46ZM174 812Q175 850 189 871T224 902T267 912Q290 912 311 903T351 880T388 857T425 847Q453 847 472 864T491 914H522Q521 867 497
840T427 813Q405 813 385 822T346 845T307 868T269 878Q243 878 224 863T205 812H174Z" />
<glyph unicode="&#xd6;" horiz-adv-x="682" d="M341 -6Q272 -6 220 7T133 57T81 169T63 363Q63 484 80 558T133 672T221 726T341 740Q412 740 464 726T551 673T602 559T619 363Q619 243 602 169T550 58T463 7T341 -6ZM341 46Q400 46 442 57T510 102T549 197T561
363Q561 471 549 536T510 633T442 677T341 688Q287 688 246 677T177 634T135 536T121 363Q121 260 132 198T170 102T238 58T341 46ZM441 818Q427 818 427 832V904Q427 919 441 919H468Q475 919 478 915T482 904V832Q482 818 468 818H441ZM198 818Q184 818 184 832V904Q184
919 198 919H225Q232 919 235 915T239 904V832Q239 818 225 818H198Z" />
<glyph unicode="&#xd7;" horiz-adv-x="609" d="M445 180L128 497L163 532L480 215L445 180ZM163 180L128 215L445 532L480 497L163 180Z" />
<glyph unicode="&#xd8;" horiz-adv-x="682" d="M77 0L561 734H606L122 0H77ZM341 -6Q272 -6 220 7T133 57T81 169T63 363Q63 484 80 558T133 672T221 726T341 740Q412 740 464 726T551 673T602 559T619 363Q619 243 602 169T550 58T463 7T341 -6ZM341 46Q400 46
442 57T510 102T549 197T561 363Q561 471 549 536T510 633T442 677T341 688Q287 688 246 677T177 634T135 536T121 363Q121 260 132 198T170 102T238 58T341 46Z" />
<glyph unicode="&#xd9;" horiz-adv-x="673" d="M336 -6Q275 -6 226 5T142 43T89 113T71 225V734H129V225Q129 155 153 117T224 63T336 47Q402 47 448 62T518 116T543 225V734H601V225Q601 158 584 114T532 43T448 6T336 -6ZM319 791L191 926H242L353 791H319Z" />
<glyph unicode="&#xda;" horiz-adv-x="673" d="M336 -6Q275 -6 226 5T142 43T89 113T71 225V734H129V225Q129 155 153 117T224 63T336 47Q402 47 448 62T518 116T543 225V734H601V225Q601 158 584 114T532 43T448 6T336 -6ZM321 791L431 926H483L355 791H321Z" />
<glyph unicode="&#xdb;" horiz-adv-x="673" d="M336 -6Q275 -6 226 5T142 43T89 113T71 225V734H129V225Q129 155 153 117T224 63T336 47Q402 47 448 62T518 116T543 225V734H601V225Q601 158 584 114T532 43T448 6T336 -6ZM190 791L316 924H358L472 791H435L336
895L227 791H190Z" />
<glyph unicode="&#xdc;" horiz-adv-x="673" d="M336 -6Q275 -6 226 5T142 43T89 113T71 225V734H129V225Q129 155 153 117T224 63T336 47Q402 47 448 62T518 116T543 225V734H601V225Q601 158 584 114T532 43T448 6T336 -6ZM434 818Q420 818 420 832V904Q420 919
434 919H461Q468 919 471 915T475 904V832Q475 818 461 818H434ZM191 818Q177 818 177 832V904Q177 919 191 919H218Q225 919 228 915T232 904V832Q232 818 218 818H191Z" />
<glyph unicode="&#xdd;" horiz-adv-x="615" d="M278 0V250L41 734H102L308 308L514 734H574L336 250V0H278ZM295 791L405 926H457L329 791H295Z" />
<glyph unicode="&#xde;" horiz-adv-x="553" d="M81 0V734H139V595H321Q353 595 385 587T446 557T490 493T507 383Q507 315 489 272T442 205T380 174T316 165Q304 165 280 166T228 168T176 171T139 174V0H81ZM139 218H309Q347 218 379 232T430 282T449 383Q449
448 430 482T382 529T317 542H139V218Z" />
<glyph unicode="&#xdf;" horiz-adv-x="577" d="M389 -8Q339 -8 293 -3T222 8V45Q249 44 290 42T378 40Q428 40 454 56T489 96T498 137V163Q498 189 482 203T442 227T391 243T339 261T299 292T283 345Q283 379 299 405T340 454T389 498T430 547T447 606Q447 662
408 690T292 718Q215 718 173 675T130 548V0H72V552Q72 612 95 661T168 739T293 768Q370 768 416 747T482 689T502 609Q502 569 486 540T445 488T397 445T356 403T339 352Q339 328 354 314T394 291T446 275T498 255T538 223T554 166V136Q554 99 541 72T505 28T453
1T389 -8Z" />
<glyph unicode="&#xe0;" horiz-adv-x="543" d="M183 -6Q125 -6 87 28T48 127V163Q48 226 89 265T212 304H407V378Q407 414 395 440T351 480T262 494H95V529Q128 533 173 537T278 542Q343 543 384 526T445 472T465 381V0H421L409 62Q406 60 385 50T329 26T257 4T183
-6ZM203 40Q223 39 249 44T303 57T353 72T391 86T407 92V273L221 266Q159 264 133 235T106 162V137Q106 101 121 80T158 49T203 40ZM271 631L143 766H194L305 631H271Z" />
<glyph unicode="&#xe1;" horiz-adv-x="543" d="M183 -6Q125 -6 87 28T48 127V163Q48 226 89 265T212 304H407V378Q407 414 395 440T351 480T262 494H95V529Q128 533 173 537T278 542Q343 543 384 526T445 472T465 381V0H421L409 62Q406 60 385 50T329 26T257 4T183
-6ZM203 40Q223 39 249 44T303 57T353 72T391 86T407 92V273L221 266Q159 264 133 235T106 162V137Q106 101 121 80T158 49T203 40ZM241 631L351 766H403L275 631H241Z" />
<glyph unicode="&#xe2;" horiz-adv-x="543" d="M183 -6Q125 -6 87 28T48 127V163Q48 226 89 265T212 304H407V378Q407 414 395 440T351 480T262 494H95V529Q128 533 173 537T278 542Q343 543 384 526T445 472T465 381V0H421L409 62Q406 60 385 50T329 26T257 4T183
-6ZM203 40Q223 39 249 44T303 57T353 72T391 86T407 92V273L221 266Q159 264 133 235T106 162V137Q106 101 121 80T158 49T203 40ZM126 631L252 764H294L408 631H371L272 735L163 631H126Z" />
<glyph unicode="&#xe3;" horiz-adv-x="543" d="M183 -6Q125 -6 87 28T48 127V163Q48 226 89 265T212 304H407V378Q407 414 395 440T351 480T262 494H95V529Q128 533 173 537T278 542Q343 543 384 526T445 472T465 381V0H421L409 62Q406 60 385 50T329 26T257 4T183
-6ZM203 40Q223 39 249 44T303 57T353 72T391 86T407 92V273L221 266Q159 264 133 235T106 162V137Q106 101 121 80T158 49T203 40ZM110 652Q111 690 125 711T160 742T203 752Q226 752 247 743T287 720T324 697T361 687Q389 687 408 704T427 754H458Q457 707 433
680T363 653Q341 653 321 662T282 685T243 708T205 718Q179 718 160 703T141 652H110Z" />
<glyph unicode="&#xe4;" horiz-adv-x="543" d="M183 -6Q125 -6 87 28T48 127V163Q48 226 89 265T212 304H407V378Q407 414 395 440T351 480T262 494H95V529Q128 533 173 537T278 542Q343 543 384 526T445 472T465 381V0H421L409 62Q406 60 385 50T329 26T257 4T183
-6ZM203 40Q223 39 249 44T303 57T353 72T391 86T407 92V273L221 266Q159 264 133 235T106 162V137Q106 101 121 80T158 49T203 40ZM353 658Q339 658 339 672V744Q339 759 353 759H380Q387 759 390 755T394 744V672Q394 658 380 658H353ZM159 658Q144 658 144 672V744Q144
759 159 759H185Q192 759 196 755T200 744V672Q200 658 185 658H159Z" />
<glyph unicode="&#xe5;" horiz-adv-x="543" d="M183 -6Q125 -6 87 28T48 127V163Q48 226 89 265T212 304H407V378Q407 414 395 440T351 480T262 494H95V529Q128 533 173 537T278 542Q343 543 384 526T445 472T465 381V0H421L409 62Q406 60 385 50T329 26T257 4T183
-6ZM203 40Q223 39 249 44T303 57T353 72T391 86T407 92V273L221 266Q159 264 133 235T106 162V137Q106 101 121 80T158 49T203 40ZM270 596Q218 596 190 618T162 701Q162 761 190 784T270 807Q323 807 349 784T376 701Q376 641 350 619T270 596ZM270 623Q310 623
328 639T346 701Q346 747 328 763T270 780Q231 780 212 764T192 701Q192 655 211 639T270 623Z" />
<glyph unicode="&#xe6;" horiz-adv-x="890" d="M185 -6Q141 -6 111 10T65 58T49 131V161Q49 203 67 233T121 280T209 297H408V379Q408 411 396 437T353 478T270 494H96V529Q131 535 170 538T275 542Q333 543 379 519T443 442Q462 498 509 518T622 539Q690 539
735 524T803 470T826 365Q826 300 787 278T677 255H465Q464 189 477 147T516 82T574 49T645 40H813V5Q768 -1 718 -3T625 -6Q567 -6 530 11T471 54T433 108Q407 78 369 53T283 11T185 -6ZM204 40Q262 40 319 66T421 141Q417 158 413 188T407 262L217 259Q156 259
132 230T107 161V138Q107 101 121 80T157 49T204 40ZM465 296H676Q704 296 726 301T760 320T773 366Q773 412 759 439T711 480T619 493Q560 493 527 477T479 419T465 296Z" />
<glyph unicode="&#xe7;" horiz-adv-x="490" d="M272 -6Q227 -6 189 6T123 47T78 130T62 266Q62 349 77 402T119 485T186 526T273 538Q310 538 357 536T446 527V492H286Q233 492 197 475T140 408T120 263Q120 173 141 125T199 59T286 41H454V6Q431 3 402 0T340
-4T272 -6ZM202 -187V-163L226 -161Q255 -159 270 -148T286 -112Q286 -94 272 -81T213 -67L239 -56Q284 -56 303 -72T323 -119Q323 -151 299 -169T230 -187H202ZM213 -67L265 12H294L241 -67H213Z" />
<glyph unicode="&#xe8;" horiz-adv-x="542" d="M279 -6Q197 -6 150 19T82 105T62 268Q62 373 83 432T152 515T282 539Q350 539 393 524T458 470T480 365Q480 320 463 293T412 253T334 241H120Q120 168 134 124T184 60T292 40H468V5Q420 0 378 -3T279 -6ZM119 282H330Q379
282 403 299T427 365Q427 415 413 443T367 482T282 494Q219 494 184 476T134 412T119 282ZM271 631L143 766H194L305 631H271Z" />
<glyph unicode="&#xe9;" horiz-adv-x="542" d="M279 -6Q197 -6 150 19T82 105T62 268Q62 373 83 432T152 515T282 539Q350 539 393 524T458 470T480 365Q480 320 463 293T412 253T334 241H120Q120 168 134 124T184 60T292 40H468V5Q420 0 378 -3T279 -6ZM119 282H330Q379
282 403 299T427 365Q427 415 413 443T367 482T282 494Q219 494 184 476T134 412T119 282ZM241 631L351 766H403L275 631H241Z" />
<glyph unicode="&#xea;" horiz-adv-x="542" d="M279 -6Q197 -6 150 19T82 105T62 268Q62 373 83 432T152 515T282 539Q350 539 393 524T458 470T480 365Q480 320 463 293T412 253T334 241H120Q120 168 134 124T184 60T292 40H468V5Q420 0 378 -3T279 -6ZM119 282H330Q379
282 403 299T427 365Q427 415 413 443T367 482T282 494Q219 494 184 476T134 412T119 282ZM126 631L252 764H294L408 631H371L272 735L163 631H126Z" />
<glyph unicode="&#xeb;" horiz-adv-x="542" d="M279 -6Q197 -6 150 19T82 105T62 268Q62 373 83 432T152 515T282 539Q350 539 393 524T458 470T480 365Q480 320 463 293T412 253T334 241H120Q120 168 134 124T184 60T292 40H468V5Q420 0 378 -3T279 -6ZM119 282H330Q379
282 403 299T427 365Q427 415 413 443T367 482T282 494Q219 494 184 476T134 412T119 282ZM353 658Q339 658 339 672V744Q339 759 353 759H380Q387 759 390 755T394 744V672Q394 658 380 658H353ZM159 658Q144 658 144 672V744Q144 759 159 759H185Q192 759 196
755T200 744V672Q200 658 185 658H159Z" />
<glyph unicode="&#xec;" horiz-adv-x="218" d="M82 0V533H140V0H82ZM368 631L240 766H291L402 631H368Z" />
<glyph unicode="&#xed;" horiz-adv-x="218" d="M82 0V533H140V0H82ZM82 631L192 766H244L116 631H82Z" />
<glyph unicode="&#xee;" horiz-adv-x="218" d="M82 0V533H140V0H82ZM222 631L348 764H390L504 631H467L368 735L259 631H222Z" />
<glyph unicode="&#xef;" horiz-adv-x="218" d="M82 0V533H140V0H82ZM194 658Q180 658 180 672V744Q180 759 194 759H221Q228 759 231 755T235 744V672Q235 658 221 658H194ZM0 658Q-15 658 -15 672V744Q-15 759 0 759H26Q33 759 37 755T41 744V672Q41 658 26 658H0Z" />
<glyph unicode="&#xf0;" horiz-adv-x="577" d="M288 -6Q233 -6 191 5T119 46T76 128T62 265Q62 349 76 402T120 484T190 524T282 535Q329 535 365 526T427 492T467 425Q478 404 489 382T507 332T515 267Q515 183 501 129T458 46T386 6T288 -6ZM288 43Q328 43 360
50T413 80T445 147T457 265Q457 339 446 383T413 450T360 479T288 487Q247 487 216 480T164 450T131 384T120 265Q120 192 131 148T163 81T216 51T288 43ZM515 266L463 280Q463 406 442 489T380 622T282 697T154 729V768Q237 761 304 734T418 649T490 499T515 266ZM192
591L183 615L507 742L516 718L192 591Z" />
<glyph unicode="&#xf1;" horiz-adv-x="586" d="M82 0V533H125L140 473Q180 500 232 521T343 542Q399 542 435 518T490 453T508 366V0H450V360Q450 397 435 426T393 472T327 489Q289 489 259 483T200 463T140 433V0H82ZM132 652Q133 690 147 711T182 742T225 752Q248
752 269 743T309 720T346 697T383 687Q411 687 430 704T449 754H480Q479 707 455 680T385 653Q363 653 343 662T304 685T265 708T227 718Q201 718 182 703T163 652H132Z" />
<glyph unicode="&#xf2;" horiz-adv-x="577" d="M288 -6Q233 -6 191 5T119 46T76 129T62 267Q62 352 76 405T119 488T190 528T288 539Q343 539 385 528T457 488T500 406T515 267Q515 183 501 129T458 46T386 6T288 -6ZM288 43Q328 43 360 50T413 80T445 148T457
267Q457 342 446 386T413 453T360 483T288 491Q247 491 216 484T164 454T131 387T120 267Q120 193 131 148T163 81T216 51T288 43ZM289 631L161 766H212L323 631H289Z" />
<glyph unicode="&#xf3;" horiz-adv-x="577" d="M288 -6Q233 -6 191 5T119 46T76 129T62 267Q62 352 76 405T119 488T190 528T288 539Q343 539 385 528T457 488T500 406T515 267Q515 183 501 129T458 46T386 6T288 -6ZM288 43Q328 43 360 50T413 80T445 148T457
267Q457 342 446 386T413 453T360 483T288 491Q247 491 216 484T164 454T131 387T120 267Q120 193 131 148T163 81T216 51T288 43ZM259 631L369 766H421L293 631H259Z" />
<glyph unicode="&#xf4;" horiz-adv-x="577" d="M288 -6Q233 -6 191 5T119 46T76 129T62 267Q62 352 76 405T119 488T190 528T288 539Q343 539 385 528T457 488T500 406T515 267Q515 183 501 129T458 46T386 6T288 -6ZM288 43Q328 43 360 50T413 80T445 148T457
267Q457 342 446 386T413 453T360 483T288 491Q247 491 216 484T164 454T131 387T120 267Q120 193 131 148T163 81T216 51T288 43ZM143 631L269 764H311L425 631H388L289 735L180 631H143Z" />
<glyph unicode="&#xf5;" horiz-adv-x="577" d="M288 -6Q233 -6 191 5T119 46T76 129T62 267Q62 352 76 405T119 488T190 528T288 539Q343 539 385 528T457 488T500 406T515 267Q515 183 501 129T458 46T386 6T288 -6ZM288 43Q328 43 360 50T413 80T445 148T457
267Q457 342 446 386T413 453T360 483T288 491Q247 491 216 484T164 454T131 387T120 267Q120 193 131 148T163 81T216 51T288 43ZM128 652Q129 690 143 711T178 742T221 752Q244 752 265 743T305 720T342 697T379 687Q407 687 426 704T445 754H476Q475 707 451
680T381 653Q359 653 339 662T300 685T261 708T223 718Q197 718 178 703T159 652H128Z" />
<glyph unicode="&#xf6;" horiz-adv-x="577" d="M288 -6Q233 -6 191 5T119 46T76 129T62 267Q62 352 76 405T119 488T190 528T288 539Q343 539 385 528T457 488T500 406T515 267Q515 183 501 129T458 46T386 6T288 -6ZM288 43Q328 43 360 50T413 80T445 148T457
267Q457 342 446 386T413 453T360 483T288 491Q247 491 216 484T164 454T131 387T120 267Q120 193 131 148T163 81T216 51T288 43ZM371 658Q357 658 357 672V744Q357 759 371 759H398Q405 759 408 755T412 744V672Q412 658 398 658H371ZM177 658Q162 658 162 672V744Q162
759 177 759H203Q210 759 214 755T218 744V672Q218 658 203 658H177Z" />
<glyph unicode="&#xf7;" horiz-adv-x="609" d="M288 509Q264 509 264 532V573Q264 598 288 598H320Q345 598 345 573V532Q345 519 338 514T320 509H288ZM288 114Q264 114 264 137V178Q264 203 288 203H320Q345 203 345 178V137Q345 124 338 119T320 114H288ZM80
331V381H528V331H80Z" />
<glyph unicode="&#xf8;" horiz-adv-x="577" d="M59 0L484 533H519L93 0H59ZM288 -6Q233 -6 191 5T119 46T76 129T62 267Q62 352 76 405T119 488T190 528T288 539Q343 539 385 528T457 488T500 406T515 267Q515 183 501 129T458 46T386 6T288 -6ZM288 43Q328 43
360 50T413 80T445 148T457 267Q457 342 446 386T413 453T360 483T288 491Q247 491 216 484T164 454T131 387T120 267Q120 193 131 148T163 81T216 51T288 43Z" />
<glyph unicode="&#xf9;" horiz-adv-x="586" d="M242 -6Q165 -6 123 33T81 158V533H139V171Q139 97 172 72T267 46Q319 46 361 59T449 100V533H507V0H464L449 60Q408 33 355 14T242 -6ZM285 631L157 766H208L319 631H285Z" />
<glyph unicode="&#xfa;" horiz-adv-x="586" d="M242 -6Q165 -6 123 33T81 158V533H139V171Q139 97 172 72T267 46Q319 46 361 59T449 100V533H507V0H464L449 60Q408 33 355 14T242 -6ZM255 631L365 766H417L289 631H255Z" />
<glyph unicode="&#xfb;" horiz-adv-x="586" d="M242 -6Q165 -6 123 33T81 158V533H139V171Q139 97 172 72T267 46Q319 46 361 59T449 100V533H507V0H464L449 60Q408 33 355 14T242 -6ZM139 631L265 764H307L421 631H384L285 735L176 631H139Z" />
<glyph unicode="&#xfc;" horiz-adv-x="586" d="M242 -6Q165 -6 123 33T81 158V533H139V171Q139 97 172 72T267 46Q319 46 361 59T449 100V533H507V0H464L449 60Q408 33 355 14T242 -6ZM367 658Q353 658 353 672V744Q353 759 367 759H394Q401 759 404 755T408 744V672Q408
658 394 658H367ZM173 658Q158 658 158 672V744Q158 759 173 759H199Q206 759 210 755T214 744V672Q214 658 199 658H173Z" />
<glyph unicode="&#xfd;" d="M218 -237L289 0Q269 1 244 10T197 44T157 119L21 533H82L212 132Q224 98 238 82T267 59T291 52T302 51L452 533H512L306 -138L260 -237H218ZM235 631L345 766H397L269 631H235Z" />
<glyph unicode="&#xfe;" horiz-adv-x="576" d="M82 -237V763H140V477Q157 489 187 504T253 529T322 539Q374 539 410 516T470 454T503 367T514 268Q514 177 493 116T429 24T322 -6Q276 -6 228 9T140 49V-237H82ZM309 43Q352 43 384 64T436 133T456 266Q456 347
435 396T381 468T309 491Q258 491 216 475T140 441V92Q179 70 222 57T309 43Z" />
<glyph unicode="&#xff;" d="M218 -237L289 0Q269 1 244 10T197 44T157 119L21 533H82L212 132Q224 98 238 82T267 59T291 52T302 51L452 533H512L306 -138L260 -237H218ZM347 658Q333 658 333 672V744Q333 759 347 759H374Q381 759 384 755T388 744V672Q388 658
374 658H347ZM153 658Q138 658 138 672V744Q138 759 153 759H179Q186 759 190 755T194 744V672Q194 658 179 658H153Z" />
<glyph unicode="&#x2013;" horiz-adv-x="524" d="M26 264V315H499V264H26Z" />
<glyph unicode="&#x2014;" horiz-adv-x="747" d="M26 264V315H722V264H26Z" />
<glyph unicode="&#x2018;" horiz-adv-x="174" d="M69 537Q62 537 60 542T57 555V694Q57 716 64 727T82 742T101 746Q107 746 110 746T116 744V724Q104 724 100 719T95 703V646H103Q110 646 114 642T119 628V555Q119 537 103 537H69Z" />
<glyph unicode="&#x2019;" horiz-adv-x="174" d="M73 535Q68 535 65 535T58 537V557Q70 557 74 563T79 578V635H71Q64 635 60 639T55 653V726Q55 744 71 744H105Q112 744 114 739T117 726V587Q117 564 110 553T92 539T73 535Z" />
<glyph unicode="&#x201a;" horiz-adv-x="174" d="M73 -106Q68 -106 64 -106T58 -104V-84Q70 -84 74 -78T79 -63V-6H71Q64 -6 60 -1T55 12V85Q55 103 71 103H105Q112 103 114 98T117 85V-54Q117 -76 110 -87T92 -102T73 -106Z" />
<glyph unicode="&#x201c;" horiz-adv-x="278" d="M69 537Q62 537 60 542T57 555V694Q57 716 64 727T82 742T101 746Q107 746 110 746T116 744V724Q104 724 100 719T95 703V646H103Q110 646 114 642T119 628V555Q119 537 103 537H69ZM173 537Q166 537 164 542T161
555V694Q161 716 168 727T186 742T205 746Q211 746 214 746T220 744V724Q208 724 204 719T199 703V646H207Q214 646 218 642T223 628V555Q223 537 207 537H173Z" />
<glyph unicode="&#x201d;" horiz-adv-x="278" d="M73 535Q68 535 65 535T58 537V557Q70 557 74 563T79 578V635H71Q64 635 60 639T55 653V726Q55 744 71 744H105Q112 744 114 739T117 726V587Q117 564 110 553T92 539T73 535ZM177 535Q172 535 169 535T162 537V557Q174
557 178 563T183 578V635H175Q168 635 164 639T159 653V726Q159 744 175 744H209Q216 744 218 739T221 726V587Q221 564 214 553T196 539T177 535Z" />
<glyph unicode="&#x201e;" horiz-adv-x="278" d="M73 -106Q68 -106 64 -106T58 -104V-84Q70 -84 74 -78T79 -63V-6H71Q64 -6 60 -1T55 12V85Q55 103 71 103H105Q112 103 114 98T117 85V-54Q117 -76 110 -87T92 -102T73 -106ZM177 -106Q172 -106 168 -106T162 -104V-84Q174
-84 178 -78T183 -63V-6H175Q168 -6 164 -1T159 12V85Q159 103 175 103H209Q216 103 218 98T221 85V-54Q221 -76 214 -87T196 -102T177 -106Z" />
<glyph unicode="&#x2022;" horiz-adv-x="318" d="M135 322Q102 322 102 354V408Q102 424 110 433T135 443H183Q218 443 218 408V354Q218 336 208 329T183 322H135Z" />
<glyph unicode="&#x2039;" horiz-adv-x="358" d="M274 67L60 279L270 486L302 454L124 279L307 100L274 67Z" />
<glyph unicode="&#x203a;" horiz-adv-x="358" d="M88 67L57 100L235 275L52 454L86 486L299 275L88 67Z" />
</font>
</defs>
</svg>
