<?xml version="1.0" encoding="utf-8"?>
<!-- Generator: Adobe Illustrator 24.1.3, SVG Export Plug-In . SVG Version: 6.00 Build 0)  -->
<svg version="1.1" id="Layer_1" xmlns="http://www.w3.org/2000/svg" xmlns:xlink="http://www.w3.org/1999/xlink" x="0px" y="0px"
	 viewBox="0 0 179.5 33" style="enable-background:new 0 0 179.5 33;" xml:space="preserve">
<style type="text/css">
	.st0{fill:#A4B1CD;}
	.st1{fill:#FFFFFF;}
	.st2{fill:#9FEF00;}
</style>
<g>
	<g>
		<path class="st0" d="M86.6,19.1l-1.2,3.3c0,0.1-0.2,0.2-0.3,0.2H84c-0.2,0-0.3-0.2-0.3-0.4l4.5-11.8c0-0.1,0.2-0.2,0.3-0.2h1.8
			c0.1,0,0.2,0.1,0.3,0.2L95,22.3c0.1,0.2-0.1,0.4-0.3,0.4h-1.1c-0.1,0-0.2-0.1-0.3-0.2l-1.2-3.3c0-0.1-0.2-0.2-0.3-0.2h-5.1
			C86.7,19,86.6,19,86.6,19.1z M91.2,16.4c-0.6-1.7-1.2-3.3-1.8-5h0c-0.6,1.7-1.2,3.3-1.8,5l-0.3,0.7c-0.1,0.2,0.1,0.4,0.3,0.4h3.6
			c0.2,0,0.3-0.2,0.3-0.4L91.2,16.4z"/>
		<path class="st0" d="M107.4,14.4h-1.1c-0.1,0-0.3-0.1-0.3-0.3c-0.2-1.7-1.5-2.7-3.2-2.7c-2.3,0-3.8,1.9-3.8,5c0,3.1,1.4,5,3.7,5
			c1.8,0,3-1.1,3.3-2.8c0-0.1,0.1-0.2,0.3-0.2h1.1c0.2,0,0.3,0.2,0.3,0.3c-0.4,2.6-2.2,4.2-5,4.2c-3.3,0-5.4-2.4-5.4-6.4
			c0-4,2.1-6.4,5.4-6.4c2.9,0,4.6,1.7,4.9,4.1C107.7,14.3,107.5,14.4,107.4,14.4z"/>
		<path class="st0" d="M113,19.1l-1.2,3.3c0,0.1-0.2,0.2-0.3,0.2h-1.1c-0.2,0-0.3-0.2-0.3-0.4l4.5-11.8c0-0.1,0.2-0.2,0.3-0.2h1.8
			c0.1,0,0.2,0.1,0.3,0.2l4.5,11.8c0.1,0.2-0.1,0.4-0.3,0.4h-1.1c-0.1,0-0.2-0.1-0.3-0.2l-1.2-3.3c0-0.1-0.2-0.2-0.3-0.2h-5.1
			C113.1,19,113,19,113,19.1z M117.6,16.4c-0.6-1.7-1.2-3.3-1.8-5h0c-0.6,1.7-1.2,3.3-1.8,5l-0.3,0.7c-0.1,0.2,0.1,0.4,0.3,0.4h3.6
			c0.2,0,0.3-0.2,0.3-0.4L117.6,16.4z"/>
		<path class="st0" d="M128.5,10.3c4.1,0,6.4,2.2,6.4,6.2s-2.3,6.2-6.4,6.2H125c-0.2,0-0.3-0.1-0.3-0.3V10.5c0-0.2,0.1-0.3,0.3-0.3
			H128.5z M126.6,21.2l1.9,0c2.6,0,4.7-2.1,4.8-4.7c0-3.2-1.6-4.9-4.8-4.9h-1.9c-0.2,0-0.3,0.1-0.3,0.3v9
			C126.3,21.1,126.4,21.2,126.6,21.2z"/>
		<path class="st0" d="M140.6,12v3.3c0,0.2,0.1,0.3,0.3,0.3h5.4c0.2,0,0.3,0.1,0.3,0.3v0.8c0,0.2-0.1,0.3-0.3,0.3h-5.4
			c-0.2,0-0.3,0.1-0.3,0.3v3.6c0,0.2,0.1,0.3,0.3,0.3h6c0.2,0,0.3,0.1,0.3,0.3v0.8c0,0.2-0.1,0.3-0.3,0.3h-7.6
			c-0.2,0-0.3-0.1-0.3-0.3V10.5c0-0.2,0.1-0.3,0.3-0.3h7.4c0.2,0,0.3,0.1,0.3,0.3v0.8c0,0.2-0.1,0.3-0.3,0.3h-5.8
			C140.8,11.7,140.6,11.8,140.6,12z"/>
		<path class="st0" d="M163.2,22.7c-0.2,0-0.3-0.1-0.3-0.3v-6c0-1.6,0-3.2,0-4.7h0c-0.5,1.6-1.1,3.2-1.7,4.7l-2.2,6.1
			c0,0.1-0.2,0.2-0.3,0.2h-1.4c-0.1,0-0.2-0.1-0.3-0.2l-2.2-6.1c-0.6-1.6-1.1-3.2-1.7-4.7h0c0,1.6,0,3.2,0,4.7v6
			c0,0.2-0.1,0.3-0.3,0.3h-1c-0.2,0-0.3-0.1-0.3-0.3V10.5c0-0.2,0.1-0.3,0.3-0.3h2.1c0.1,0,0.2,0.1,0.3,0.2l2.2,5.9
			c0.6,1.6,1.1,3.2,1.6,4.8h0c0.5-1.6,1.1-3.2,1.6-4.8l2.2-5.9c0-0.1,0.2-0.2,0.3-0.2h2.1c0.2,0,0.3,0.1,0.3,0.3v11.8
			c0,0.2-0.1,0.3-0.3,0.3H163.2z"/>
		<path class="st0" d="M173.2,22.7h-1c-0.2,0-0.3-0.1-0.3-0.3v-4.8c0-0.1,0-0.1,0-0.2l-4.2-6.8c-0.1-0.2,0-0.4,0.2-0.4h1.2
			c0.1,0,0.2,0.1,0.2,0.1l1.4,2.4c0.6,1.1,1.3,2.2,1.9,3.3h0c0.6-1.1,1.2-2.2,1.9-3.3l1.4-2.4c0.1-0.1,0.1-0.1,0.2-0.1h1.2
			c0.2,0,0.4,0.2,0.2,0.4l-4.2,6.8c0,0,0,0.1,0,0.2v4.8C173.5,22.5,173.4,22.7,173.2,22.7z"/>
	</g>
	<path class="st1" d="M48.1,22.4v-4.6c0-0.2-0.1-0.3-0.3-0.3h-4c-0.2,0-0.3,0.1-0.3,0.3v4.6c0,0.2-0.1,0.3-0.3,0.3h-2.4
		c-0.2,0-0.3-0.1-0.3-0.3V10.5c0-0.2,0.1-0.3,0.3-0.3h2.4c0.2,0,0.3,0.1,0.3,0.3v4.1c0,0.2,0.1,0.3,0.3,0.3h4c0.2,0,0.3-0.1,0.3-0.3
		v-4.1c0-0.2,0.1-0.3,0.3-0.3h2.4c0.2,0,0.3,0.1,0.3,0.3v11.8c0,0.2-0.1,0.3-0.3,0.3h-2.4C48.2,22.7,48.1,22.5,48.1,22.4z"/>
	<path class="st1" d="M61,13.1v9.3c0,0.2-0.1,0.3-0.3,0.3h-2.4c-0.2,0-0.3-0.1-0.3-0.3v-9.3c0-0.2-0.1-0.3-0.3-0.3h-3.2
		c-0.2,0-0.3-0.1-0.3-0.3v-2c0-0.2,0.1-0.3,0.3-0.3h10c0.2,0,0.3,0.1,0.3,0.3v2c0,0.2-0.1,0.3-0.3,0.3h-3.2
		C61.1,12.8,61,12.9,61,13.1z"/>
	<path class="st1" d="M72.7,10.3c3.1,0,4.5,1.3,4.5,3.2c0,1.4-0.7,2.3-2.1,2.8v0c1.6,0.4,2.4,1.3,2.4,2.9c0,2.1-1.7,3.4-4.5,3.4
		h-4.8c-0.2,0-0.3-0.1-0.3-0.3V10.5c0-0.2,0.1-0.3,0.3-0.3H72.7z M70.8,15c0,0.2,0.1,0.3,0.3,0.3h1.3c1.3,0,1.9-0.4,1.9-1.4
		c0-0.9-0.6-1.3-1.8-1.3h-1.4c-0.2,0-0.3,0.1-0.3,0.3V15z M70.8,20c0,0.2,0.1,0.3,0.3,0.3h1.3c1.4,0,2-0.4,2-1.4c0-1-0.6-1.4-2-1.4
		h-1.3c-0.2,0-0.3,0.1-0.3,0.3V20z"/>
	<path class="st2" d="M28.5,9.3C28.5,9.3,28.5,9.3,28.5,9.3c0-0.3-0.1-0.6-0.3-0.8c0,0,0,0,0,0c0,0,0,0-0.1-0.1c0,0-0.1,0-0.1-0.1
		c0,0,0,0,0,0L15.5,1.2c0,0-0.1,0-0.1,0C15.3,1,15.1,1,14.9,1c-0.1,0-0.2,0-0.3,0.1c-0.1,0-0.1,0.1-0.2,0.1L2,8.3c0,0,0,0,0,0
		c0,0,0,0,0,0c0,0,0,0,0,0C1.8,8.4,1.7,8.5,1.7,8.5c0,0,0,0,0,0C1.5,8.7,1.4,9,1.4,9.3c0,0,0,0,0,0c0,0,0,0,0,0v14.3
		c0,0.4,0.2,0.8,0.6,1l12.4,7.1c0,0,0,0,0.1,0c0,0,0,0,0,0c0.1,0,0.1,0.1,0.2,0.1c0,0,0,0,0,0c0.1,0,0.2,0,0.2,0c0.1,0,0.2,0,0.2,0
		c0,0,0,0,0,0c0.1,0,0.1,0,0.2-0.1c0,0,0,0,0,0c0,0,0,0,0.1,0l12.4-7.1c0.4-0.2,0.6-0.6,0.6-1L28.5,9.3C28.5,9.3,28.5,9.3,28.5,9.3z
		 M6.3,8.8L14.7,4c0.2-0.1,0.4-0.1,0.5,0l8.4,4.9C24,9,24,9.6,23.6,9.8l-8.4,4.9c-0.2,0.1-0.4,0.1-0.5,0L6.3,9.8
		C5.9,9.6,5.9,9,6.3,8.8z M13.5,27.3c0,0.4-0.4,0.7-0.8,0.5l-8.4-4.9C4.1,22.8,4,22.6,4,22.5v-9.7c0-0.4,0.4-0.7,0.8-0.5l8.4,4.9
		c0.2,0.1,0.3,0.3,0.3,0.5V27.3z M25.9,22.5c0,0.2-0.1,0.4-0.3,0.5l-8.4,4.9c-0.4,0.2-0.8-0.1-0.8-0.5v-9.7c0-0.2,0.1-0.4,0.3-0.5
		l8.4-4.9c0.4-0.2,0.8,0.1,0.8,0.5V22.5z"/>
</g>
<desc>Created with Sketch.</desc>
</svg>
