<svg xmlns="http://www.w3.org/2000/svg" fill="none" viewBox="0 0 300 300" height="300" width="300">
<mask height="250" width="249" y="30" x="30" maskUnits="userSpaceOnUse" style="mask-type:luminance" id="mask0_1319_2251">
<path fill="white" d="M278.958 30H30V280H278.958V30Z"></path>
</mask>
<g mask="url(#mask0_1319_2251)">
<mask height="250" width="250" y="30" x="30" maskUnits="userSpaceOnUse" style="mask-type:luminance" id="mask1_1319_2251">
<path fill="white" d="M279.25 30H30V280H279.25V30Z"></path>
</mask>
<g mask="url(#mask1_1319_2251)">
<path fill="url(#paint0_linear_1319_2251)" d="M153.916 67.9524C155.269 67.9524 156.361 66.8601 156.361 65.507V32.4454C156.361 31.0923 155.269 30 153.916 30C152.563 30 151.47 31.0923 151.47 32.4454V65.507C151.47 66.8601 152.563 67.9524 153.916 67.9524ZM276.805 151.014H243.743C242.39 151.014 241.298 152.106 241.298 153.459C241.298 154.812 242.39 155.905 243.743 155.905H276.805C278.158 155.905 279.25 154.812 279.25 153.459C279.25 152.106 278.158 151.014 276.805 151.014ZM65.507 151.014C66.8601 151.014 67.9524 152.106 67.9524 153.459C67.9524 154.812 66.8601 155.905 65.507 155.905H32.4454C31.0923 155.905 30 154.812 30 153.459C30 152.106 31.0923 151.014 32.4454 151.014H65.507ZM63.2007 102.922C66.8017 96.4883 70.9885 90.4942 75.7613 85.0373C77.0818 85.7546 78.598 86.1621 80.1956 86.1621C85.3636 86.1621 89.5533 81.9561 89.5533 76.8045C89.5533 75.3372 89.1947 73.9352 88.5915 72.6962C103.427 60.6812 121.474 52.8071 140.906 50.3943C142.243 50.2313 143.205 49.0086 143.026 47.6718C142.863 46.3349 141.64 45.3731 140.303 45.5524C119.909 48.0956 100.949 56.3773 85.3799 69.0281C83.8963 68.0337 82.1193 67.4631 80.1956 67.4631C75.0277 67.4631 70.838 71.6692 70.838 76.8208C70.838 78.5977 71.3433 80.2606 72.2237 81.6952C67.1449 87.4902 62.6675 93.8704 58.8402 100.738L37.0916 89.8466C36.3254 89.4716 35.4288 89.5042 34.7114 89.9444C33.9941 90.3846 33.554 91.1834 33.554 92.0311V128.174C33.554 129.103 34.0756 129.951 34.9071 130.358L80.7988 153.394L44.0039 171.865C43.1725 172.272 42.6508 173.12 42.6508 174.049V205.448C42.6508 206.296 43.091 207.078 43.8083 207.535C44.1995 207.779 44.6397 207.894 45.0962 207.894C45.4711 207.894 45.8461 207.812 46.1885 207.633L57.1438 202.139C57.1438 202.497 57.2253 202.872 57.4046 203.215C63.5181 215.213 71.702 225.777 81.3857 234.565V250.019C81.3857 251.373 82.478 252.465 83.8311 252.465C85.1842 252.465 86.2765 251.373 86.2765 250.019V238.738C89.912 241.672 93.7431 244.362 97.7209 246.791C97.5742 247.46 97.4764 248.145 97.4764 248.862C97.4764 254.03 101.682 258.22 106.834 258.22C109.671 258.22 112.23 256.948 113.942 254.926C122.191 258.236 130.913 260.551 139.928 261.741C139.985 261.741 140.038 261.745 140.091 261.749C140.144 261.753 140.197 261.757 140.254 261.757C141.461 261.757 142.504 260.861 142.667 259.638C142.846 258.301 141.901 257.062 140.564 256.899C132.07 255.774 123.838 253.606 116.045 250.508C116.143 249.97 116.192 249.416 116.192 248.862C116.192 243.694 111.986 239.504 106.834 239.504C104.144 239.504 101.715 240.645 100.003 242.471C95.1614 239.488 90.5641 236.113 86.2602 232.364V211.464C86.2602 206.834 88.8197 202.66 92.9605 200.557L119.664 187.01V201.405C119.664 211.366 124.441 221.099 132.755 228.092L140.32 234.45C143.205 239.309 148.275 250.916 151.568 258.986C151.503 259.214 151.454 259.442 151.454 259.687V277.554C151.454 278.908 152.546 280 153.9 280C155.253 280 156.345 278.908 156.345 277.554V259.687C156.345 259.442 156.296 259.214 156.231 258.986C159.524 250.932 164.594 239.325 167.48 234.45L175.044 228.092C183.358 221.099 188.135 211.366 188.135 201.405V186.912L215.034 200.557C219.159 202.644 221.735 206.834 221.735 211.464V232.135C217.349 235.918 212.654 239.341 207.698 242.341C206.003 240.58 203.622 239.488 200.981 239.488C195.813 239.488 191.624 243.694 191.624 248.846C191.624 249.318 191.673 249.775 191.738 250.231C183.847 253.313 175.517 255.464 166.909 256.524C165.572 256.687 164.61 257.91 164.79 259.247C164.936 260.486 165.996 261.382 167.219 261.382C167.317 261.382 167.414 261.382 167.529 261.366C176.609 260.225 185.38 257.959 193.71 254.698C195.422 256.834 198.047 258.203 200.998 258.203C206.166 258.203 210.355 253.997 210.355 248.846C210.355 248.079 210.258 247.329 210.078 246.628C214.138 244.183 218.034 241.444 221.751 238.493V250.003C221.751 251.356 222.843 252.448 224.196 252.448C225.549 252.448 226.642 251.356 226.642 250.003V234.336C236.293 225.647 244.46 215.181 250.606 203.296C250.786 202.938 250.867 202.579 250.867 202.204L261.643 207.616C261.986 207.796 262.361 207.877 262.736 207.877C263.176 207.877 263.632 207.747 264.023 207.519C264.741 207.078 265.181 206.28 265.181 205.432V174.033C265.181 173.104 264.659 172.256 263.828 171.849L263.844 171.832L227.049 153.361L272.941 130.326C273.772 129.918 274.294 129.071 274.294 128.141V91.9985C274.294 91.1508 273.854 90.3683 273.137 89.9118C272.419 89.4553 271.506 89.4227 270.756 89.814L249.025 100.72C245.21 93.8407 240.727 87.4501 235.624 81.6464C236.488 80.2281 237.01 78.5652 237.01 76.7719C237.01 71.604 232.804 67.4143 227.652 67.4143C225.729 67.4143 223.952 68.0012 222.468 68.9793C206.899 56.3285 187.939 48.0468 167.545 45.5036C166.192 45.3243 164.985 46.2861 164.822 47.6229C164.659 48.9597 165.605 50.1824 166.942 50.3455C186.358 52.7745 204.405 60.6487 219.257 72.6474C218.653 73.8864 218.295 75.2721 218.295 76.7556C218.295 81.9236 222.501 86.1133 227.652 86.1133C229.25 86.1133 230.766 85.7057 232.087 84.9884C236.863 90.4333 241.053 96.4325 244.656 102.888L189.015 130.815C188.82 130.913 188.657 131.043 188.51 131.174C185.592 126.642 181.81 122.729 177.392 119.664L185.184 113.502C188.526 110.861 190.401 106.883 190.205 103.019V95.9601C190.205 89.5532 184.989 84.3363 178.582 84.3363H173.218L181.549 67.9196H200.639C201.536 67.9196 202.269 67.186 202.269 66.2894C202.269 65.3927 201.536 64.6591 200.639 64.6591H180.554C179.935 64.6591 179.381 65.0015 179.103 65.5558L170.072 83.3419C170.072 83.3419 170.072 83.4071 170.039 83.4234L159.051 76.0872C155.497 73.7071 150.916 73.7397 147.395 76.185L137.776 82.8528L129.006 65.5558C128.728 65.0015 128.158 64.6591 127.555 64.6591H107.47C106.573 64.6591 105.84 65.3927 105.84 66.2894C105.84 67.186 106.573 67.9196 107.47 67.9196H126.56L134.793 84.1407H129.429C123.022 84.1407 117.806 89.3575 117.806 95.7644V102.106C117.366 106.443 119.126 110.632 122.533 113.339L130.522 119.664C126.104 122.745 122.321 126.658 119.403 131.174C119.257 131.043 119.077 130.913 118.898 130.815L63.2007 102.922ZM81.3857 211.464C81.3857 204.992 84.9723 199.139 90.7597 196.205L90.7434 196.172L122.566 180.032C120.479 177.571 118.653 174.848 117.186 171.93C117.121 171.979 116.991 172.06 116.991 172.06L61.0564 200.134C61.3336 200.362 61.5781 200.623 61.7574 200.965C66.8927 211.056 73.5605 220.072 81.3857 227.815V211.464ZM226.642 227.62C234.434 219.974 241.102 211.04 246.254 201.046L246.27 201.03C246.433 200.704 246.678 200.427 246.955 200.215L190.841 172.06C190.776 172.028 190.711 171.979 190.646 171.93C189.178 174.816 187.385 177.522 185.315 179.967L217.268 196.188C223.055 199.123 226.642 204.959 226.642 211.448V227.62Z" clip-rule="evenodd" fill-rule="evenodd"></path>
<g opacity="0.9">
<path fill="white" d="M153.916 67.9524C152.563 67.9524 151.47 66.8601 151.47 65.507V32.4454C151.47 31.0923 152.563 30 153.916 30C155.269 30 156.361 31.0923 156.361 32.4454V65.507C156.361 66.8601 155.269 67.9524 153.916 67.9524Z"></path>
<path fill="white" d="M276.805 155.905H243.743C242.39 155.905 241.298 154.813 241.298 153.46C241.298 152.106 242.39 151.014 243.743 151.014H276.805C278.158 151.014 279.25 152.106 279.25 153.46C279.25 154.813 278.158 155.905 276.805 155.905Z"></path>
<path fill="white" d="M65.507 155.905H32.4454C31.0923 155.905 30 154.813 30 153.46C30 152.106 31.0923 151.014 32.4454 151.014H65.507C66.8601 151.014 67.9524 152.106 67.9524 153.46C67.9524 154.813 66.8601 155.905 65.507 155.905Z"></path>
<path fill="white" d="M222.452 69.0129C206.883 56.3621 187.923 48.0804 167.529 45.5372C166.175 45.3578 164.969 46.3197 164.806 47.6565C164.643 48.9933 165.589 50.216 166.925 50.379C186.342 52.8081 204.389 60.6823 219.24 72.681C219.974 71.1811 221.082 69.9095 222.452 68.9966V69.0129Z"></path>
<path fill="white" d="M100.02 242.454C83.9293 232.575 70.5938 218.326 61.7578 200.964C61.1383 199.758 59.6711 199.286 58.4647 199.889C57.2583 200.509 56.7855 201.976 57.3887 203.182C66.6812 221.441 80.7503 236.422 97.705 246.774C98.08 245.128 98.8951 243.644 100.003 242.454H100.02Z"></path>
<path fill="white" d="M140.58 256.883C132.087 255.758 123.854 253.59 116.061 250.492C115.768 252.155 115.018 253.671 113.958 254.91C122.207 258.22 130.929 260.535 139.945 261.725C140.059 261.725 140.156 261.741 140.271 261.741C141.477 261.741 142.52 260.844 142.683 259.622C142.863 258.285 141.917 257.046 140.58 256.883Z"></path>
<path fill="white" d="M191.738 250.232C183.847 253.313 175.517 255.465 166.909 256.524C165.572 256.687 164.61 257.91 164.79 259.247C164.936 260.486 165.996 261.383 167.219 261.383C167.317 261.383 167.414 261.383 167.529 261.366C176.609 260.225 185.38 257.959 193.71 254.699C192.683 253.427 191.999 251.894 191.754 250.215L191.738 250.232Z"></path>
<path fill="white" d="M249.547 199.987C248.34 199.368 246.873 199.84 246.254 201.03C237.304 218.36 223.87 232.543 207.714 242.325C208.856 243.499 209.687 244.966 210.078 246.612C227.066 236.358 241.2 221.474 250.606 203.28C251.226 202.074 250.753 200.607 249.547 199.987Z"></path>
<path fill="white" d="M143.026 47.6565C142.863 46.3197 141.64 45.3578 140.303 45.5372C119.909 48.0804 100.949 56.3621 85.3799 69.0129C86.7493 69.9258 87.8578 71.1974 88.5915 72.6973C103.427 60.6823 121.474 52.8081 140.906 50.3953C142.243 50.2323 143.205 49.0096 143.026 47.6728V47.6565Z"></path>
<path fill="white" d="M153.916 171.359C143.988 171.359 135.918 163.273 135.918 153.361C135.918 143.449 143.988 135.363 153.916 135.363C163.844 135.363 171.914 143.449 171.914 153.361C171.914 163.273 163.844 171.359 153.916 171.359ZM153.916 138.607C145.781 138.607 139.178 145.226 139.178 153.345C139.178 161.463 145.797 168.082 153.916 168.082C162.035 168.082 168.653 161.463 168.653 153.345C168.653 145.226 162.035 138.607 153.916 138.607Z"></path>
<path fill="white" d="M153.916 144.625C153.019 144.625 152.286 143.891 152.286 142.994V129.3C152.286 128.404 153.019 127.67 153.916 127.67C154.813 127.67 155.546 128.404 155.546 129.3V142.994C155.546 143.891 154.813 144.625 153.916 144.625Z"></path>
<path fill="white" d="M153.916 179.787C153.019 179.787 152.286 179.054 152.286 178.157V164.463C152.286 163.566 153.019 162.832 153.916 162.832C154.813 162.832 155.546 163.566 155.546 164.463V178.157C155.546 179.054 154.813 179.787 153.916 179.787Z"></path>
<path fill="white" d="M178.337 155.366H164.643C163.746 155.366 163.013 154.632 163.013 153.736C163.013 152.839 163.746 152.105 164.643 152.105H178.337C179.234 152.105 179.967 152.839 179.967 153.736C179.967 154.632 179.234 155.366 178.337 155.366Z"></path>
<path fill="white" d="M143.189 155.366H129.495C128.598 155.366 127.864 154.632 127.864 153.736C127.864 152.839 128.598 152.105 129.495 152.105H143.189C144.085 152.105 144.819 152.839 144.819 153.736C144.819 154.632 144.085 155.366 143.189 155.366Z"></path>
<path fill="white" d="M63.1919 102.939C66.7948 96.4994 70.9846 90.5001 75.7612 85.0387C74.294 84.2562 73.0713 83.0824 72.2073 81.6641C67.1046 87.4678 62.6377 93.8584 58.8066 100.738L63.1756 102.939H63.1919Z"></path>
<path fill="white" d="M249.009 100.753C245.194 93.874 240.711 87.4834 235.608 81.6797C234.744 83.098 233.521 84.2718 232.054 85.0543C236.831 90.4994 241.021 96.4987 244.623 102.954L248.993 100.753H249.009Z"></path>
<path fill="white" d="M200.998 258.204C195.83 258.204 191.64 253.998 191.64 248.846C191.64 243.694 195.846 239.488 200.998 239.488C206.149 239.488 210.355 243.694 210.355 248.846C210.355 253.998 206.149 258.204 200.998 258.204ZM200.998 244.379C198.536 244.379 196.531 246.384 196.531 248.846C196.531 251.308 198.536 253.313 200.998 253.313C203.459 253.313 205.465 251.308 205.465 248.846C205.465 246.384 203.459 244.379 200.998 244.379Z"></path>
<path fill="white" d="M106.834 258.204C101.666 258.204 97.4766 253.998 97.4766 248.846C97.4766 243.694 101.682 239.488 106.834 239.488C111.986 239.488 116.192 243.694 116.192 248.846C116.192 253.998 111.986 258.204 106.834 258.204ZM106.834 244.379C104.372 244.379 102.367 246.384 102.367 248.846C102.367 251.308 104.372 253.313 106.834 253.313C109.296 253.313 111.301 251.308 111.301 248.846C111.301 246.384 109.296 244.379 106.834 244.379Z"></path>
<path fill="white" d="M227.636 86.1626C222.468 86.1626 218.278 81.9566 218.278 76.805C218.278 71.6533 222.485 67.4473 227.636 67.4473C232.788 67.4473 236.994 71.6533 236.994 76.805C236.994 81.9566 232.788 86.1626 227.636 86.1626ZM227.636 72.338C225.174 72.338 223.169 74.3433 223.169 76.805C223.169 79.2666 225.174 81.2719 227.636 81.2719C230.098 81.2719 232.103 79.2666 232.103 76.805C232.103 74.3433 230.098 72.338 227.636 72.338Z"></path>
<path fill="white" d="M80.1955 86.1626C75.0276 86.1626 70.8379 81.9566 70.8379 76.805C70.8379 71.6533 75.0439 67.4473 80.1955 67.4473C85.3471 67.4473 89.5532 71.6533 89.5532 76.805C89.5532 81.9566 85.3471 86.1626 80.1955 86.1626ZM80.1955 72.338C77.7338 72.338 75.7286 74.3433 75.7286 76.805C75.7286 79.2666 77.7338 81.2719 80.1955 81.2719C82.6572 81.2719 84.6624 79.2666 84.6624 76.805C84.6624 74.3433 82.6572 72.338 80.1955 72.338Z"></path>
<path fill="white" d="M153.916 280C152.563 280 151.47 278.908 151.47 277.555V259.687C151.47 258.334 152.563 257.242 153.916 257.242C155.269 257.242 156.361 258.334 156.361 259.687V277.555C156.361 278.908 155.269 280 153.916 280Z"></path>
<path fill="white" d="M224.196 252.449C222.843 252.449 221.751 251.356 221.751 250.003V211.464C221.751 206.834 219.191 202.661 215.051 200.558L180.994 183.277C179.788 182.657 179.315 181.19 179.918 179.984C180.538 178.777 182.005 178.305 183.212 178.908L217.268 196.188C223.055 199.123 226.642 204.976 226.642 211.448V249.987C226.642 251.34 225.549 252.432 224.196 252.432V252.449Z"></path>
<path fill="white" d="M171.49 85.738C171.246 85.738 170.985 85.6891 170.756 85.5587C169.958 85.1511 169.632 84.173 170.039 83.3741L179.071 65.588C179.348 65.0337 179.918 64.6914 180.522 64.6914H200.606C201.503 64.6914 202.237 65.425 202.237 66.3217C202.237 67.2183 201.503 67.9519 200.606 67.9519H181.516L172.941 84.8414C172.648 85.412 172.077 85.738 171.49 85.738Z"></path>
<path fill="white" d="M153.916 194.591C131.239 194.591 112.784 176.136 112.784 153.459C112.784 130.782 131.239 112.344 153.916 112.344C176.593 112.344 195.047 130.799 195.047 153.459C195.047 176.12 176.593 194.591 153.916 194.591ZM153.916 117.235C133.929 117.235 117.675 133.489 117.675 153.459C117.675 173.43 133.929 189.7 153.916 189.7C173.903 189.7 190.157 173.446 190.157 153.459C190.157 133.472 173.903 117.235 153.916 117.235Z"></path>
<path fill="white" d="M183.913 205.074H124.979C124.082 205.074 123.349 204.339 123.349 203.442C123.349 202.546 124.082 201.812 124.979 201.812H183.913C184.809 201.812 185.543 202.546 185.543 203.442C185.543 204.339 184.809 205.074 183.913 205.074Z"></path>
<path fill="white" d="M179.022 222.648H129.87C128.973 222.648 128.239 221.914 128.239 221.017C128.239 220.121 128.973 219.387 129.87 219.387H179.022C179.918 219.387 180.652 220.121 180.652 221.017C180.652 221.914 179.918 222.648 179.022 222.648Z"></path>
<path fill="white" d="M83.8311 252.45C82.478 252.45 81.3857 251.357 81.3857 250.004V211.465C81.3857 204.977 84.9723 199.14 90.7597 196.206L124.816 178.925C126.022 178.306 127.489 178.795 128.109 180.001C128.712 181.208 128.239 182.675 127.033 183.294L92.9768 200.575C88.8523 202.662 86.2765 206.851 86.2765 211.481V250.021C86.2765 251.374 85.1842 252.466 83.8311 252.466V252.45Z"></path>
<path fill="white" d="M136.537 85.738C135.95 85.738 135.364 85.412 135.086 84.8414L126.511 67.9519H107.421C106.524 67.9519 105.791 67.2183 105.791 66.3217C105.791 65.425 106.524 64.6914 107.421 64.6914H127.506C128.125 64.6914 128.679 65.0337 128.957 65.588L137.988 83.3741C138.396 84.173 138.07 85.1511 137.271 85.5587C137.026 85.6728 136.782 85.738 136.537 85.738Z"></path>
<path fill="white" d="M154.291 244.803H153.525C152.954 244.803 152.383 244.607 151.943 244.232L132.755 228.093C124.441 221.099 119.664 211.366 119.664 201.405V183.652C119.664 182.299 120.756 181.207 122.11 181.207C123.463 181.207 124.555 182.299 124.555 183.652V201.405C124.555 210.046 128.582 218.181 135.902 224.343L153.9 239.488L171.898 224.343C179.217 218.197 183.244 210.046 183.244 201.405V183.652C183.244 182.299 184.336 181.207 185.69 181.207C187.043 181.207 188.135 182.299 188.135 183.652V201.405C188.135 211.366 183.358 221.099 175.044 228.093L155.856 244.232C155.416 244.607 154.861 244.803 154.275 244.803H154.291Z"></path>
<path fill="white" d="M173.153 122.354C172.729 122.354 172.305 122.24 171.93 122.028C166.469 118.882 160.241 117.219 153.916 117.219C147.59 117.219 141.363 118.882 135.902 122.028C135.037 122.534 133.945 122.452 133.163 121.833L122.501 113.388C119.094 110.682 117.333 106.492 117.773 102.155V95.8132C117.773 89.4063 122.99 84.1895 129.397 84.1895H135.885L147.379 76.2338C150.9 73.7884 155.481 73.7558 159.035 76.136L171.376 84.3851H178.549C184.956 84.3851 190.173 89.6019 190.173 96.0088V103.068C190.368 106.932 188.494 110.894 185.152 113.551L174.685 121.849C174.245 122.191 173.707 122.371 173.169 122.371L173.153 122.354ZM129.381 89.0639C125.664 89.0639 122.648 92.0799 122.648 95.7969V102.27C122.648 102.367 122.648 102.449 122.648 102.547C122.338 105.253 123.43 107.861 125.549 109.54L134.94 116.991C140.776 113.942 147.313 112.345 153.932 112.345C160.551 112.345 167.072 113.942 172.925 116.991L182.119 109.703C184.222 108.041 185.412 105.595 185.282 103.182V95.9925C185.282 92.2755 182.266 89.2596 178.549 89.2596H170.659C170.202 89.2922 169.697 89.1291 169.289 88.852L156.329 80.179C154.454 78.9237 152.025 78.94 150.166 80.2279L138.053 88.6238C137.646 88.9009 137.157 89.0639 136.668 89.0639H129.413H129.381Z"></path>
<path fill="white" d="M154.209 261.301C154.014 261.301 153.802 261.268 153.606 261.187C152.775 260.845 152.367 259.899 152.709 259.068C153.753 256.492 162.996 233.75 166.599 230.147C167.235 229.511 168.262 229.511 168.898 230.147C169.534 230.783 169.534 231.81 168.898 232.445C166.534 234.809 159.573 250.77 155.725 260.29C155.465 260.926 154.861 261.301 154.209 261.301Z"></path>
<path fill="white" d="M153.622 261.301C152.97 261.301 152.367 260.91 152.106 260.29C148.259 250.786 141.281 234.809 138.934 232.445C138.298 231.81 138.298 230.783 138.934 230.147C139.57 229.511 140.597 229.511 141.232 230.147C144.835 233.75 154.079 256.492 155.122 259.068C155.465 259.899 155.057 260.861 154.226 261.187C154.03 261.268 153.818 261.301 153.622 261.301Z"></path>
<path fill="white" d="M273.12 89.9452C272.403 89.505 271.49 89.4561 270.74 89.8473L188.983 130.864C187.776 131.467 187.287 132.935 187.89 134.141C188.494 135.347 189.961 135.836 191.167 135.233L269.371 95.9934V126.658L190.091 166.436C188.885 167.04 188.396 168.507 188.999 169.713C189.129 169.99 189.325 170.202 189.537 170.398C189.684 171.099 190.14 171.718 190.825 172.061L261.627 207.584C261.969 207.763 262.344 207.845 262.719 207.845C263.159 207.845 263.616 207.714 264.007 207.486C264.724 207.046 265.165 206.247 265.165 205.399V174.001C265.165 173.071 264.643 172.224 263.812 171.816L227.017 153.345L272.908 130.31C273.74 129.902 274.261 129.055 274.261 128.125V91.983C274.261 91.1352 273.821 90.3527 273.104 89.8963L273.12 89.9452ZM222.11 156.378L260.29 175.533V201.454L195.765 169.077L221.669 156.084C221.8 156.198 221.963 156.296 222.126 156.378H222.11Z"></path>
<path fill="white" d="M45.0145 197.263C44.4113 197.263 43.8407 196.937 43.5635 196.367C43.156 195.568 43.482 194.59 44.2809 194.182L106.052 163.109C106.867 162.702 107.845 163.028 108.236 163.827C108.644 164.626 108.318 165.604 107.519 166.011L45.7481 197.084C45.5199 197.198 45.259 197.263 45.0145 197.263Z"></path>
<path fill="white" d="M262.817 197.263C262.573 197.263 262.328 197.214 262.083 197.084L200.313 166.011C199.514 165.604 199.188 164.626 199.596 163.827C200.003 163.028 200.981 162.702 201.78 163.109L263.551 194.182C264.349 194.59 264.676 195.568 264.268 196.367C263.975 196.937 263.404 197.263 262.817 197.263Z"></path>
<path fill="white" d="M201.047 139.423C200.443 139.423 199.873 139.097 199.596 138.526C199.188 137.728 199.514 136.749 200.313 136.342L262.083 105.269C262.589 105.008 263.192 105.041 263.665 105.334C264.154 105.628 264.447 106.149 264.447 106.72V116.241C264.447 117.137 263.714 117.871 262.817 117.871C261.92 117.871 261.187 117.137 261.187 116.241V109.361L201.78 139.244C201.552 139.358 201.291 139.423 201.047 139.423Z"></path>
<path fill="white" d="M106.932 139.423C106.687 139.423 106.443 139.374 106.198 139.243L46.8084 109.344V116.224C46.8084 117.121 46.0748 117.854 45.1782 117.854C44.2816 117.854 43.5479 117.121 43.5479 116.224V106.703C43.5479 106.133 43.8414 105.611 44.3305 105.318C44.8195 105.024 45.4064 104.992 45.9118 105.253L107.682 136.325C108.481 136.733 108.807 137.711 108.399 138.51C108.106 139.08 107.535 139.406 106.948 139.406L106.932 139.423Z"></path>
<path fill="white" d="M187.646 106.802H173.234C170.3 106.802 167.92 104.421 167.92 101.487V87.5482C167.92 86.6516 168.653 85.918 169.55 85.918H178.468C184.418 85.918 189.276 90.7598 189.276 96.7266V105.171C189.276 106.068 188.543 106.802 187.646 106.802ZM171.18 89.1785V101.487C171.18 102.612 172.093 103.541 173.234 103.541H186.016V96.7266C186.016 92.5694 182.625 89.1785 178.468 89.1785H171.18Z"></path>
<path fill="white" d="M136.016 107.275H120.137C119.24 107.275 118.507 106.542 118.507 105.645V95.7656C118.507 89.8151 123.349 84.957 129.315 84.957H139.7C140.597 84.957 141.33 85.6906 141.33 86.5872V101.961C141.33 104.895 138.95 107.275 136.016 107.275ZM121.767 104.015H136.016C137.141 104.015 138.07 103.102 138.07 101.961V88.2175H129.315C125.158 88.2175 121.767 91.6084 121.767 95.7656V104.015Z"></path>
<path fill="white" d="M118.833 130.864L37.0913 89.8466C36.3251 89.4717 35.4285 89.5043 34.7111 89.9444C33.9938 90.3846 33.5537 91.1834 33.5537 92.0312V128.174C33.5537 129.103 34.0753 129.951 34.9068 130.359L80.7985 153.394L44.0036 171.865C43.1722 172.272 42.6505 173.12 42.6505 174.049V205.448C42.6505 206.296 43.0907 207.078 43.808 207.535C44.1992 207.779 44.6394 207.894 45.0959 207.894C45.4708 207.894 45.8458 207.812 46.1882 207.633L116.991 172.109C117.675 171.767 118.115 171.131 118.278 170.447C118.49 170.251 118.686 170.039 118.816 169.762C119.42 168.555 118.931 167.088 117.724 166.485L38.4444 126.658V95.9927L116.648 135.233C117.855 135.836 119.322 135.347 119.925 134.141C120.528 132.934 120.039 131.467 118.833 130.864ZM47.525 175.533L85.7056 156.377C85.8686 156.296 86.0153 156.198 86.1621 156.084L112.067 169.077L47.5413 201.454V175.533H47.525Z"></path>
</g>
</g>
</g>
<defs>
<linearGradient gradientUnits="userSpaceOnUse" y2="285.208" x2="159.687" y1="33.125" x1="159.687" id="paint0_linear_1319_2251">
<stop stop-opacity="0.97" stop-color="#9869F5"></stop>
<stop stop-opacity="0" stop-color="#9869F5" offset="1"></stop>
</linearGradient>
</defs>
</svg>
