<svg xmlns="http://www.w3.org/2000/svg" fill="none" viewBox="0 0 300 300" height="300" width="300">
<path fill="url(#paint0_linear_855_6720)" d="M145.77 163.466C123.47 163.466 105.33 181.606 105.33 203.906C105.33 222.066 117.36 237.456 133.87 242.556C134.12 246.406 136.22 250.066 139.8 252.136C141.68 253.216 143.72 253.736 145.75 253.736C149.88 253.736 153.9 251.596 156.1 247.776C157.05 246.126 157.55 244.346 157.66 242.566C174.17 237.476 186.2 222.076 186.2 203.916C186.2 181.616 168.06 163.476 145.76 163.476L145.77 163.466ZM133.87 241.146C133.87 241.196 133.86 241.256 133.86 241.306C133.86 241.256 133.86 241.196 133.87 241.146ZM133.98 240.026C133.98 240.026 133.99 239.956 134 239.916C134 239.956 133.99 239.986 133.98 240.026ZM134.25 238.726C134.25 238.726 134.25 238.706 134.26 238.686C134.26 238.696 134.26 238.706 134.25 238.726Z"></path>
<path fill="url(#paint1_linear_855_6720)" d="M157.75 108.686C157.51 104.526 155.26 100.556 151.39 98.3262C145.29 94.8062 137.46 96.9062 133.93 103.006C132.9 104.786 132.37 106.716 132.26 108.646C105.16 111.436 79.9904 123.286 60.3704 142.726C57.0204 146.046 55.1604 150.466 55.1404 155.186C55.1204 159.906 56.9404 164.346 60.2504 167.696C67.1004 174.606 78.3004 174.666 85.2204 167.806C101.17 152.006 122.31 143.296 144.75 143.296C167.19 143.296 189.83 152.626 205.97 169.556C209.34 173.086 213.88 175.026 218.75 175.026C223.3 175.026 227.63 173.296 230.93 170.156C234.34 166.906 236.29 162.516 236.4 157.796C236.51 153.086 234.78 148.606 231.53 145.196C211.69 124.376 185.86 111.686 157.75 108.696V108.686ZM157.75 109.976C157.75 109.976 157.75 109.956 157.75 109.946C157.75 109.946 157.75 109.966 157.75 109.976ZM132.35 111.186C132.35 111.186 132.35 111.196 132.35 111.206C132.35 111.206 132.35 111.196 132.35 111.186Z"></path>
<path fill="url(#paint2_linear_855_6720)" d="M266.82 103.036C251.65 85.1462 232.64 71.1262 211.31 61.6262C213.02 56.3862 210.89 50.4662 205.93 47.5962C200.23 44.3062 192.92 46.2662 189.63 51.9662C189.33 52.4862 189.09 53.0162 188.88 53.5562C174.34 49.4962 159.06 47.3662 143.41 47.3662C97.2004 47.3662 53.5404 66.1562 23.6104 98.9062C17.0504 106.086 17.5504 117.276 24.7304 123.846C31.9204 130.406 43.1104 129.906 49.6704 122.716C55.1804 116.686 61.3304 111.276 67.9504 106.516C68.5304 107.026 69.1704 107.496 69.8704 107.896C71.7104 108.956 73.7504 109.496 75.8204 109.496C76.8604 109.496 77.9004 109.356 78.9304 109.086C82.0104 108.266 84.5804 106.286 86.1704 103.526C87.6704 100.936 88.1204 97.9562 87.4904 95.0462C104.56 87.0162 123.65 82.6662 143.4 82.6662C181.43 82.6662 216.59 98.4162 239.89 125.866C243.25 129.826 248.16 132.096 253.36 132.096C257.53 132.096 261.59 130.606 264.78 127.906C272.2 121.606 273.12 110.446 266.82 103.026V103.036ZM210.87 62.7662C210.87 62.7662 210.87 62.7762 210.87 62.7862C210.87 62.7862 210.87 62.7762 210.87 62.7662ZM210.29 63.9062C210.05 64.3162 209.79 64.6962 209.51 65.0562C209.78 64.6862 210.05 64.3062 210.29 63.9062ZM188.06 57.2662C188.06 57.2662 188.06 57.3462 188.06 57.3862C188.06 57.3462 188.06 57.3062 188.06 57.2662ZM188.46 54.7962C188.46 54.7962 188.46 54.8162 188.46 54.8262C188.46 54.8262 188.46 54.8062 188.46 54.7962ZM188.19 56.0262C188.19 56.0262 188.18 56.0862 188.17 56.1162C188.17 56.0862 188.18 56.0562 188.19 56.0262ZM87.0204 93.3762C87.1504 93.7362 87.2704 94.1062 87.3704 94.4762C87.2704 94.0962 87.1504 93.7362 87.0204 93.3762ZM86.5704 92.3362C86.5704 92.3362 86.6004 92.4162 86.6204 92.4562C86.6004 92.4162 86.5904 92.3762 86.5704 92.3362Z"></path>
<path fill="white" d="M151.57 225.136H139.26C137.85 225.136 136.71 223.996 136.71 222.586V209.546C132.88 206.766 130.55 202.286 130.55 197.516C130.55 189.326 137.21 182.656 145.41 182.656C153.61 182.656 160.27 189.316 160.27 197.516C160.27 202.286 157.94 206.766 154.11 209.546V222.586C154.11 223.996 152.97 225.136 151.56 225.136H151.57ZM141.81 220.046H149.03V208.176C149.03 207.266 149.51 206.426 150.3 205.976C153.31 204.226 155.19 200.996 155.19 197.526C155.19 192.146 150.81 187.766 145.43 187.766C140.05 187.766 135.67 192.146 135.67 197.526C135.67 200.986 137.54 204.226 140.56 205.976C141.35 206.436 141.83 207.266 141.83 208.176V220.046H141.81Z"></path>
<path fill="white" d="M199.94 69.8662C197.92 69.8662 195.87 69.3562 193.99 68.2662C188.29 64.9762 186.33 57.6662 189.62 51.9662C192.91 46.2662 200.22 44.3062 205.92 47.5962C211.62 50.8862 213.58 58.1962 210.29 63.8962C208.08 67.7162 204.06 69.8562 199.94 69.8562V69.8662ZM199.97 51.0962C197.6 51.0962 195.3 52.3262 194.03 54.5162C193.12 56.0962 192.87 57.9462 193.35 59.7062C193.82 61.4662 194.95 62.9462 196.54 63.8562C199.81 65.7462 204 64.6162 205.89 61.3562C207.77 58.0862 206.65 53.8962 203.39 52.0162C202.32 51.3962 201.14 51.1062 199.98 51.1062L199.97 51.0962Z"></path>
<path fill="white" d="M75.8204 109.506C73.7504 109.506 71.7104 108.966 69.8704 107.906C64.1704 104.616 62.2104 97.3062 65.5004 91.6062C67.0904 88.8462 69.6704 86.8762 72.7404 86.0462C75.8204 85.2262 79.0404 85.6462 81.7904 87.2362C84.5504 88.8262 86.5204 91.4062 87.3504 94.4862C88.1704 97.5662 87.7504 100.776 86.1604 103.536C84.5704 106.296 81.9904 108.266 78.9204 109.096C77.8904 109.376 76.8504 109.506 75.8104 109.506H75.8204ZM75.8504 90.7262C75.2504 90.7262 74.6604 90.8062 74.0704 90.9662C72.3104 91.4362 70.8304 92.5662 69.9204 94.1562C68.0404 97.4262 69.1604 101.616 72.4204 103.496C74.0004 104.406 75.8504 104.656 77.6104 104.176C79.3704 103.706 80.8504 102.576 81.7604 100.986C82.6704 99.4062 82.9204 97.5562 82.4404 95.7962C81.9704 94.0362 80.8404 92.5562 79.2504 91.6462C78.2004 91.0362 77.0304 90.7262 75.8404 90.7262H75.8504Z"></path>
<path fill="white" d="M145.75 253.726C143.73 253.726 141.68 253.216 139.8 252.126C134.1 248.836 132.14 241.526 135.43 235.826C138.72 230.126 146.03 228.166 151.73 231.456C157.43 234.746 159.39 242.056 156.1 247.756C153.89 251.576 149.87 253.716 145.75 253.716V253.726ZM145.78 234.956C143.41 234.956 141.11 236.186 139.84 238.376C137.96 241.646 139.08 245.836 142.34 247.716C145.61 249.596 149.8 248.476 151.68 245.216C153.56 241.946 152.44 237.756 149.18 235.876C148.11 235.256 146.93 234.966 145.77 234.966L145.78 234.956Z"></path>
<path fill="white" d="M151.39 98.3262C145.29 94.8062 137.46 96.9062 133.93 103.006C130.41 109.106 132.51 116.946 138.61 120.466C140.62 121.626 142.81 122.176 144.98 122.176C149.4 122.176 153.71 119.886 156.07 115.786C159.59 109.686 157.49 101.846 151.39 98.3262Z"></path>
<path fill="white" d="M145.77 168.566C165.26 168.566 181.12 184.426 181.12 203.906C181.12 202.496 182.26 201.356 183.67 201.356C185.08 201.356 186.22 202.496 186.22 203.906C186.22 181.606 168.08 163.466 145.78 163.466C123.48 163.466 105.34 181.606 105.34 203.906C105.34 222.066 117.37 237.456 133.88 242.556C133.77 240.846 134.03 239.106 134.69 237.446C120.62 232.776 110.44 219.526 110.44 203.906C110.44 184.416 126.3 168.566 145.78 168.566H145.77Z"></path>
<path fill="white" d="M183.67 201.356C182.26 201.356 181.12 202.496 181.12 203.906C181.12 219.516 170.93 232.776 156.87 237.436C157.5 239.056 157.78 240.806 157.67 242.556C174.18 237.466 186.21 222.066 186.21 203.906C186.21 202.496 185.07 201.356 183.66 201.356H183.67Z"></path>
<path fill="white" d="M231.53 145.186C211.69 124.366 185.86 111.676 157.75 108.686C157.85 110.366 157.61 112.086 157.01 113.726C183.99 116.556 208.8 128.726 227.84 148.706C230.16 151.136 231.39 154.316 231.31 157.676C231.23 161.026 229.85 164.156 227.42 166.466C226.4 167.436 226.36 169.046 227.33 170.066C227.83 170.586 228.5 170.856 229.17 170.856C229.8 170.856 230.43 170.626 230.93 170.156C234.34 166.906 236.29 162.516 236.4 157.796C236.51 153.086 234.78 148.606 231.53 145.196V145.186Z"></path>
<path fill="white" d="M227.33 170.066C226.36 169.046 226.4 167.436 227.42 166.466C225.07 168.706 222 169.936 218.76 169.936C215.29 169.936 212.06 168.556 209.66 166.036C192.55 148.086 169.5 138.196 144.75 138.196C120 138.196 98.5404 147.426 81.6404 164.176C76.7204 169.056 68.7504 169.016 63.8704 164.096C61.5104 161.716 60.2204 158.556 60.2304 155.196C60.2404 151.836 61.5704 148.696 63.9504 146.326C63.4504 146.816 62.8104 147.066 62.1604 147.066C61.5104 147.066 60.8504 146.816 60.3504 146.316C59.3604 145.316 59.3704 143.706 60.3704 142.716C57.0204 146.036 55.1604 150.456 55.1404 155.176C55.1204 159.896 56.9404 164.336 60.2504 167.686C67.1004 174.596 78.3004 174.656 85.2204 167.796C101.17 151.996 122.31 143.286 144.75 143.286C167.19 143.286 189.83 152.616 205.97 169.546C209.34 173.076 213.88 175.016 218.75 175.016C223.3 175.016 227.63 173.286 230.93 170.146C230.44 170.616 229.8 170.846 229.17 170.846C228.5 170.846 227.83 170.586 227.33 170.056V170.066Z"></path>
<path fill="white" d="M132.26 108.636C105.16 111.426 79.9904 123.276 60.3704 142.716C59.3704 143.706 59.3604 145.316 60.3504 146.316C60.8504 146.816 61.5004 147.066 62.1604 147.066C62.8204 147.066 63.4604 146.816 63.9504 146.326C82.7804 127.666 106.95 116.306 132.97 113.666C132.4 112.056 132.15 110.346 132.25 108.626L132.26 108.636Z"></path>
<path fill="white" d="M266.82 103.036C251.65 85.1462 232.64 71.1262 211.31 61.6262C211.06 62.4062 210.72 63.1662 210.3 63.8962C209.84 64.6862 209.29 65.3962 208.69 66.0362C229.56 75.2362 248.14 88.8762 262.94 106.326C267.42 111.606 266.77 119.556 261.49 124.036C259.22 125.956 256.34 127.016 253.37 127.016C249.67 127.016 246.18 125.396 243.78 122.576C219.52 93.9762 182.94 77.5762 143.41 77.5762C122.94 77.5762 103.13 82.0862 85.4004 90.4162C86.3004 91.6162 86.9704 92.9862 87.3704 94.4762C87.4204 94.6662 87.4504 94.8662 87.5004 95.0562C104.57 87.0262 123.66 82.6762 143.41 82.6762C181.44 82.6762 216.6 98.4262 239.9 125.876C243.26 129.836 248.17 132.106 253.37 132.106C257.54 132.106 261.6 130.616 264.79 127.916C272.21 121.616 273.13 110.456 266.83 103.036H266.82Z"></path>
<path fill="white" d="M64.9604 102.416C58.0604 107.376 51.6704 113.006 45.9204 119.296C41.2504 124.406 33.2904 124.766 28.1704 120.096C23.0604 115.426 22.7004 107.456 27.3704 102.346C56.3404 70.6462 98.6304 52.4662 143.41 52.4662C158.79 52.4662 173.8 54.5862 188.06 58.6262C187.96 56.9362 188.23 55.2062 188.88 53.5662C174.34 49.5062 159.06 47.3762 143.41 47.3762C97.2004 47.3662 53.5404 66.1562 23.6104 98.9062C17.0504 106.086 17.5504 117.276 24.7304 123.846C31.9204 130.406 43.1104 129.906 49.6704 122.716C55.1804 116.686 61.3304 111.276 67.9504 106.516C66.6404 105.366 65.6304 103.946 64.9504 102.406L64.9604 102.416Z"></path>
<defs>
<linearGradient gradientUnits="userSpaceOnUse" y2="237.167" x2="145.023" y1="-232.109" x1="145.023" id="paint0_linear_855_6720">
<stop stop-color="#0069FF"></stop>
<stop stop-opacity="0" stop-color="#0069FF" offset="1"></stop>
</linearGradient>
<linearGradient gradientUnits="userSpaceOnUse" y2="443.199" x2="145.004" y1="-97.0788" x1="145.004" id="paint1_linear_855_6720">
<stop stop-color="#0069FF"></stop>
<stop stop-opacity="0" stop-color="#0069FF" offset="1"></stop>
</linearGradient>
<linearGradient gradientUnits="userSpaceOnUse" y2="529.861" x2="145.005" y1="46.015" x1="145.005" id="paint2_linear_855_6720">
<stop stop-color="#0069FF"></stop>
<stop stop-opacity="0" stop-color="#0069FF" offset="1"></stop>
</linearGradient>
</defs>
</svg>
